<?xml version="1.0" encoding="UTF-8" standalone="no"?>
<!-- Created with Inkscape (http://www.inkscape.org/) -->

<svg
   xmlns:dc="http://purl.org/dc/elements/1.1/"
   xmlns:cc="http://creativecommons.org/ns#"
   xmlns:rdf="http://www.w3.org/1999/02/22-rdf-syntax-ns#"
   xmlns:svg="http://www.w3.org/2000/svg"
   xmlns="http://www.w3.org/2000/svg"
   xmlns:xlink="http://www.w3.org/1999/xlink"
   xmlns:sodipodi="http://sodipodi.sourceforge.net/DTD/sodipodi-0.dtd"
   xmlns:inkscape="http://www.inkscape.org/namespaces/inkscape"
   width="20.32mm"
   height="128.5mm"
   viewBox="0 0 20.32 128.5"
   version="1.1"
   id="svg1819"
   inkscape:version="0.92.5 (2060ec1f9f, 2020-04-08)"
   sodipodi:docname="Saturator.svg">
  <defs
     id="defs1813">
    <linearGradient
       gradientTransform="matrix(0,0.26458333,0.26458333,0,-1732.4273,167.24094)"
       y2="6477.3999"
       x2="232.99944"
       y1="6477.3999"
       x1="219.99944"
       gradientUnits="userSpaceOnUse"
       id="linearGradient2059">
      <stop
         id="stop2055"
         style="stop-color:#fff35e;stop-opacity:1"
         offset="0" />
      <stop
         id="stop2057"
         style="stop-color:#e00071;stop-opacity:1"
         offset="1" />
    </linearGradient>
    <linearGradient
       gradientTransform="matrix(0,0.26458333,0.26458333,0,-1732.4273,167.24094)"
       y2="6477.3999"
       x2="232.99944"
       y1="6477.3999"
       x1="219.99944"
       gradientUnits="userSpaceOnUse"
       id="SVGID_1_-5">
      <stop
         id="stop2050"
         style="stop-color:#ABA9A9"
         offset="0" />
      <stop
         id="stop2052"
         style="stop-color:#8F8F8F"
         offset="1" />
    </linearGradient>
    <linearGradient
       id="SVGID_3_"
       gradientUnits="userSpaceOnUse"
       x1="221.13403"
       y1="6477.3999"
       x2="231.86378"
       y2="6477.3999"
       gradientTransform="matrix(0,1,1,0,-6470.8999,-219.99944)">
      <stop
         offset="0.00559"
         style="stop-color:#EBEBEB"
         id="stop17" />
      <stop
         offset="1"
         style="stop-color:#CCCCCC"
         id="stop19" />
    </linearGradient>
    <linearGradient
       id="SVGID_2_"
       gradientUnits="userSpaceOnUse"
       x1="220.68697"
       y1="6477.3999"
       x2="232.31085"
       y2="6477.3999"
       gradientTransform="matrix(0,1,1,0,-6470.8999,-219.99944)">
      <stop
         offset="0.00559"
         style="stop-color:#F5F5F5"
         id="stop10" />
      <stop
         offset="1"
         style="stop-color:#C2C2C2"
         id="stop12" />
    </linearGradient>
    <linearGradient
       id="SVGID_1_-5-3"
       gradientUnits="userSpaceOnUse"
       x1="219.99944"
       y1="6477.3999"
       x2="232.99944"
       y2="6477.3999"
       gradientTransform="matrix(0,0.26458333,0.26458333,0,-1732.4273,167.24094)">
      <stop
         offset="0"
         style="stop-color:#ABA9A9"
         id="stop3" />
      <stop
         offset="1"
         style="stop-color:#8F8F8F"
         id="stop5" />
    </linearGradient>
    <linearGradient
       inkscape:collect="always"
       xlink:href="#linearGradient2059"
       id="linearGradient7537"
       gradientUnits="userSpaceOnUse"
       gradientTransform="matrix(0.20429119,0,0,0.20429119,54.882358,207.55785)"
       x1="-141.27127"
       y1="103.00101"
       x2="-141.27127"
       y2="207.90646" />
    <linearGradient
       inkscape:collect="always"
       xlink:href="#SVGID_1_-5-3"
       id="linearGradient7539"
       gradientUnits="userSpaceOnUse"
       gradientTransform="matrix(0,0.26458333,0.26458333,0,-1709.9767,112.85159)"
       x1="219.99944"
       y1="6477.3999"
       x2="232.99944"
       y2="6477.3999" />
    <linearGradient
       inkscape:collect="always"
       xlink:href="#SVGID_2_"
       id="linearGradient7541"
       gradientUnits="userSpaceOnUse"
       gradientTransform="matrix(0,0.26458333,0.26458333,0,-1709.9767,112.85159)"
       x1="220.68697"
       y1="6477.3999"
       x2="232.31085"
       y2="6477.3999" />
    <linearGradient
       inkscape:collect="always"
       xlink:href="#SVGID_3_"
       id="linearGradient7543"
       gradientUnits="userSpaceOnUse"
       gradientTransform="matrix(0,0.26458333,0.26458333,0,-1709.9767,112.85159)"
       x1="221.13403"
       y1="6477.3999"
       x2="231.86378"
       y2="6477.3999" />
    <linearGradient
       inkscape:collect="always"
       xlink:href="#SVGID_1_-5-3"
       id="linearGradient7609"
       gradientUnits="userSpaceOnUse"
       gradientTransform="matrix(0,0.26458333,0.26458333,0,-1709.9767,112.85159)"
       x1="219.99944"
       y1="6477.3999"
       x2="232.99944"
       y2="6477.3999" />
    <linearGradient
       inkscape:collect="always"
       xlink:href="#SVGID_2_"
       id="linearGradient7611"
       gradientUnits="userSpaceOnUse"
       gradientTransform="matrix(0,0.26458333,0.26458333,0,-1709.9767,112.85159)"
       x1="220.68697"
       y1="6477.3999"
       x2="232.31085"
       y2="6477.3999" />
    <linearGradient
       inkscape:collect="always"
       xlink:href="#SVGID_3_"
       id="linearGradient7613"
       gradientUnits="userSpaceOnUse"
       gradientTransform="matrix(0,0.26458333,0.26458333,0,-1709.9767,112.85159)"
       x1="221.13403"
       y1="6477.3999"
       x2="231.86378"
       y2="6477.3999" />
    <linearGradient
       id="SVGID_1_"
       gradientUnits="userSpaceOnUse"
       x1="-2317.6343"
       y1="-3827.8528"
       x2="-2301.4397"
       y2="-3827.8528"
       gradientTransform="rotate(90,-3068.6949,-750.23011)">
      <stop
         offset="0"
         style="stop-color:#FFFBFD"
         id="stop4" />
      <stop
         offset="1"
         style="stop-color:#000000"
         id="stop6" />
    </linearGradient>
    <linearGradient
       id="SVGID_2_-67"
       gradientUnits="userSpaceOnUse"
       x1="183.81821"
       y1="5065.8359"
       x2="200.01283"
       y2="5065.8359"
       gradientTransform="matrix(0,0.26458333,0.26458333,0,-1360.3685,184.61228)">
      <stop
         offset="0"
         style="stop-color:#FFFBFD"
         id="stop11" />
      <stop
         offset="1"
         style="stop-color:#2E2E2E"
         id="stop13" />
    </linearGradient>
    <linearGradient
       id="SVGID_1_-7"
       gradientUnits="userSpaceOnUse"
       x1="11.33881"
       y1="-0.0090399999"
       x2="11.33881"
       y2="22.666759">
      <stop
         offset="0"
         style="stop-color:#B0ACAE"
         id="stop3-0" />
      <stop
         offset="1"
         style="stop-color:#000000"
         id="stop5-9" />
    </linearGradient>
    <linearGradient
       id="SVGID_2_-3"
       gradientUnits="userSpaceOnUse"
       x1="4.5368199"
       y1="-4120.5469"
       x2="22.556919"
       y2="-4120.5469"
       gradientTransform="rotate(90,-2053.495,-2055.713)">
      <stop
         offset="0"
         style="stop-color:#232223"
         id="stop14" />
      <stop
         offset="1"
         style="stop-color:#1F1E1F"
         id="stop16" />
    </linearGradient>
    <linearGradient
       inkscape:collect="always"
       xlink:href="#SVGID_1_-5-3"
       id="linearGradient1983"
       gradientUnits="userSpaceOnUse"
       gradientTransform="matrix(0,0.26458333,0.26458333,0,-1709.9767,112.85159)"
       x1="219.99944"
       y1="6477.3999"
       x2="232.99944"
       y2="6477.3999" />
    <linearGradient
       inkscape:collect="always"
       xlink:href="#SVGID_2_"
       id="linearGradient1985"
       gradientUnits="userSpaceOnUse"
       gradientTransform="matrix(0,0.26458333,0.26458333,0,-1709.9767,112.85159)"
       x1="220.68697"
       y1="6477.3999"
       x2="232.31085"
       y2="6477.3999" />
    <linearGradient
       inkscape:collect="always"
       xlink:href="#SVGID_3_"
       id="linearGradient1987"
       gradientUnits="userSpaceOnUse"
       gradientTransform="matrix(0,0.26458333,0.26458333,0,-1709.9767,112.85159)"
       x1="221.13403"
       y1="6477.3999"
       x2="231.86378"
       y2="6477.3999" />
    <linearGradient
       inkscape:collect="always"
       xlink:href="#SVGID_1_-5-3"
       id="linearGradient2001"
       gradientUnits="userSpaceOnUse"
       gradientTransform="matrix(0,0.26458333,0.26458333,0,-1709.9767,112.85159)"
       x1="219.99944"
       y1="6477.3999"
       x2="232.99944"
       y2="6477.3999" />
    <linearGradient
       inkscape:collect="always"
       xlink:href="#SVGID_2_"
       id="linearGradient2003"
       gradientUnits="userSpaceOnUse"
       gradientTransform="matrix(0,0.26458333,0.26458333,0,-1709.9767,112.85159)"
       x1="220.68697"
       y1="6477.3999"
       x2="232.31085"
       y2="6477.3999" />
    <linearGradient
       inkscape:collect="always"
       xlink:href="#SVGID_3_"
       id="linearGradient2005"
       gradientUnits="userSpaceOnUse"
       gradientTransform="matrix(0,0.26458333,0.26458333,0,-1709.9767,112.85159)"
       x1="221.13403"
       y1="6477.3999"
       x2="231.86378"
       y2="6477.3999" />
    <linearGradient
       gradientTransform="rotate(90,-1509.3041,-2570.5358)"
       y2="-4091.6899"
       x2="1084.2738"
       y1="-4091.6899"
       x1="1062.069"
       gradientUnits="userSpaceOnUse"
       id="linearGradient6591">
      <stop
         id="stop6587"
         style="stop-color:#FFFFFF"
         offset="0.00559" />
      <stop
         id="stop6589"
         style="stop-color:#7A7A7A"
         offset="1" />
    </linearGradient>
    <linearGradient
       gradientTransform="matrix(1,0,0,-1,-47.00625,-41.32658)"
       y2="-51.86816"
       x2="58.861809"
       y1="-54.6409"
       x1="58.861809"
       gradientUnits="userSpaceOnUse"
       id="linearGradient6601">
      <stop
         id="stop6597"
         style="stop-color:#FFFBFD"
         offset="0" />
      <stop
         id="stop6599"
         style="stop-color:#808080"
         offset="1" />
    </linearGradient>
    <linearGradient
       gradientTransform="matrix(0,-1,-1,0,-370.04718,-1220.1261)"
       y2="-381.89734"
       x2="-1223.3157"
       y1="-381.89734"
       x1="-1240.7925"
       gradientUnits="userSpaceOnUse"
       id="linearGradient6609">
      <stop
         id="stop6605"
         style="stop-color:#B0AEAE"
         offset="0" />
      <stop
         id="stop6607"
         style="stop-color:#616161"
         offset="1" />
    </linearGradient>
    <linearGradient
       gradientTransform="rotate(180,-936.50671,12.88983)"
       y2="6.22048"
       x2="-1884.8636"
       y1="21.48288"
       x1="-1884.8636"
       gradientUnits="userSpaceOnUse"
       id="linearGradient6621">
      <stop
         id="stop6617"
         style="stop-color:#FFFEFE"
         offset="0" />
      <stop
         id="stop6619"
         style="stop-color:#545454"
         offset="1" />
    </linearGradient>
    <linearGradient
       gradientTransform="rotate(180,-936.50671,12.88983)"
       y2="19.36582"
       x2="-1884.8636"
       y1="8.3375502"
       x1="-1884.8636"
       gradientUnits="userSpaceOnUse"
       id="linearGradient6639">
      <stop
         id="stop6635"
         style="stop-color:#FFFEFE"
         offset="0" />
      <stop
         id="stop6637"
         style="stop-color:#706C6C"
         offset="1" />
    </linearGradient>
    <linearGradient
       id="SVGID_1_-0"
       gradientUnits="userSpaceOnUse"
       x1="625.10217"
       y1="-3677.6582"
       x2="655.74567"
       y2="-3677.6582"
       gradientTransform="rotate(90,-1518.5458,-2138.2081)">
      <stop
         offset="0"
         style="stop-color:#FF6998"
         id="stop1239" />
      <stop
         offset="1"
         style="stop-color:#8F0130"
         id="stop1241" />
    </linearGradient>
    <linearGradient
       gradientTransform="matrix(0,1,1,0,-1773.8412,602.39905)"
       y2="1785.6912"
       x2="-578.78363"
       y1="1785.6912"
       x1="-602.15857"
       gradientUnits="userSpaceOnUse"
       id="SVGID_16_">
      <stop
         id="stop138"
         style="stop-color:#828181"
         offset="0" />
      <stop
         id="stop140"
         style="stop-color:#575757"
         offset="1" />
    </linearGradient>
  </defs>
  <sodipodi:namedview
     id="base"
     pagecolor="#ffffff"
     bordercolor="#666666"
     borderopacity="1.0"
     inkscape:pageopacity="0.0"
     inkscape:pageshadow="2"
     inkscape:zoom="1.4"
     inkscape:cx="45.08981"
     inkscape:cy="310.07121"
     inkscape:document-units="mm"
     inkscape:current-layer="layer1"
     showgrid="false"
     inkscape:window-width="2560"
     inkscape:window-height="1349"
     inkscape:window-x="0"
     inkscape:window-y="0"
     inkscape:window-maximized="1" />
  <metadata
     id="metadata1816">
    <rdf:RDF>
      <cc:Work
         rdf:about="">
        <dc:format>image/svg+xml</dc:format>
        <dc:type
           rdf:resource="http://purl.org/dc/dcmitype/StillImage" />
        <dc:title />
      </cc:Work>
    </rdf:RDF>
  </metadata>
  <g
     inkscape:label="Layer 1"
     inkscape:groupmode="layer"
     id="layer1"
     transform="translate(0,-168.5)">
    <rect
       style="color:#000000;clip-rule:nonzero;display:inline;overflow:visible;visibility:visible;opacity:1;isolation:auto;mix-blend-mode:normal;color-interpolation:sRGB;color-interpolation-filters:linearRGB;solid-color:#000000;solid-opacity:1;fill:#fff4e6;fill-opacity:1;fill-rule:nonzero;stroke:none;stroke-width:5.88452673;stroke-linecap:round;stroke-linejoin:miter;stroke-miterlimit:4;stroke-dasharray:none;stroke-dashoffset:0;stroke-opacity:0.75294118;color-rendering:auto;image-rendering:auto;shape-rendering:auto;text-rendering:auto;enable-background:accumulate"
       id="rect6321"
       width="20.32"
       height="128.5"
       x="-1.3914796e-15"
       y="168.5" />
    <g
       id="g6333"
       transform="matrix(0.36132131,0,0,0.36132131,0.75754233,205.96586)">
      <ellipse
         style="fill:url(#linearGradient7537);fill-opacity:1;fill-rule:evenodd;stroke:none;stroke-width:0.20429119;stroke-linecap:butt;stroke-linejoin:miter;stroke-miterlimit:4;stroke-dasharray:none;stroke-opacity:0.90588235"
         id="ellipse6325"
         cx="26.022427"
         cy="239.41101"
         rx="10.67105"
         ry="10.671051" />
      <g
         style="stroke:none"
         id="g6331"
         transform="matrix(0.20429119,0,0,0.20429119,53.04356,205.75489)">
        <path
           transform="matrix(0.26458333,0,0,0.26458333,0,168.5)"
           inkscape:connector-curvature="0"
           id="path6327"
           d="m -530.07424,-9.3867193 c -1.21706,-1.2170617 -1.079,-5.3107967 0.67795,-20.1024447 5.73641,-48.294393 5.8648,-76.759526 0.49254,-109.201686 -2.81434,-16.99533 -6.31679,-30.54498 -12.79114,-49.48407 -1.80178,-5.27067 -3.17233,-9.75074 -3.04566,-9.95569 0.12667,-0.20496 0.96101,-0.50436 1.85409,-0.66534 3.32156,-0.59871 22.13143,7.18215 38.04458,15.73744 26.73599,14.37393 48.63478,30.39198 67.88652,49.65617 16.9839,16.99488 28.66535,33.807468 35.14259,50.579177 2.86366,7.414975 5.30309,17.639981 5.62498,23.577415 l 0.28184,5.198897 -2.53612,2.444503 c -4.25885,4.104982 -12.48625,8.433693 -27.79094,14.621751 -28.11362,11.367004 -66.06767,22.611593 -89.55242,26.531541 -11.39624,1.9022028 -13.30689,2.0442555 -14.28881,1.0623367 z"
           style="color:#000000;clip-rule:nonzero;display:inline;overflow:visible;visibility:visible;opacity:1;isolation:auto;mix-blend-mode:normal;color-interpolation:sRGB;color-interpolation-filters:linearRGB;solid-color:#000000;solid-opacity:1;fill:#ffffff;fill-opacity:1;fill-rule:nonzero;stroke:none;stroke-width:3.77952766;stroke-linecap:round;stroke-linejoin:miter;stroke-miterlimit:4;stroke-dasharray:none;stroke-dashoffset:0;stroke-opacity:1;color-rendering:auto;image-rendering:auto;shape-rendering:auto;text-rendering:auto;enable-background:accumulate" />
        <path
           transform="matrix(0.26458333,0,0,0.26458333,0,168.5)"
           inkscape:connector-curvature="0"
           id="path6329"
           d="m -513.73602,170.36638 c -0.97227,-0.11341 -4.04061,-0.45007 -6.81853,-0.74814 -15.65425,-1.67971 -33.77128,-6.39276 -50.25509,-13.07363 -12.42022,-5.03389 -33.62886,-16.2332 -41.84665,-22.0973 -7.80177,-5.56723 -25.82746,-22.89946 -37.10673,-35.679209 -13.50241,-15.298634 -22.33179,-31.231204 -25.43703,-45.900998 -1.19632,-5.651667 -1.18952,-17.189584 0.0137,-23.272596 4.98032,-25.1781984 25.85618,-44.657743 54.57649,-50.926038 19.2498,-4.20133 37.8332,-0.573393 60.65935,11.8422014 10.99476,5.9802687 21.01515,12.7726405 45.20433,30.6419966 50.52966,37.327955 68.90612,46.538657 97.73226,48.985671 27.52149,2.336265 46.89998,-4.41565 54.70011,-19.058796 4.17598,-7.839556 3.7376,-15.913776 -1.29352,-23.824139 -10.71258,-16.843226 -36.7058,-20.9545397 -65.62036,-10.379085 -6.8435,2.502998 -19.00853,8.603919 -25.66695,12.872313 -7.56396,4.848889 -10.44847,6.277027 -11.92751,5.905397 -1.6548,-0.415799 -25.902,-16.422173 -28.95917,-19.116907 -1.29859,-1.144633 12.20778,-11.7957781 24.02181,-18.9436362 16.05205,-9.7120048 32.22697,-16.0082228 48.43213,-18.8526048 8.02121,-1.407907 23.88673,-1.911398 33.17157,-1.052698 28.35246,2.622152 51.01399,15.8879973 60.89768,35.648925 4.34531,8.687786 5.58489,14.592093 5.56699,26.516504 -0.0175,11.698864 -1.65001,19.24633 -6.17229,28.536809 -8.36948,17.194079 -24.25762,28.63384 -47.75454,34.38419 -7.27139,1.7795 -21.17291,2.40134 -38.97883,1.74357 -15.62908,-0.57735 -20.09921,-0.99513 -30.46916,-2.84767 -19.93522,-3.561341 -38.52223,-9.76038 -58.98348,-19.671845 -21.4946,-10.412031 -36.6063,-19.891681 -67.53813,-42.36702 -8.80372,-6.396867 -17.42604,-12.257969 -19.69797,-13.389885 -5.4526,-2.716579 -9.94011,-3.705595 -15.70875,-3.462105 -10.84482,0.45775 -16.6283,6.683037 -16.56606,17.83157 0.10611,19.005717 17.2678,40.381318 55.38509,68.984415 19.87647,14.91524 54.76053,37.142 63.31804,40.34377 11.90207,4.45314 19.52373,1.90874 77.50652,-25.87456 l 16.37739,-7.84746 9.09137,-0.32252 c 11.57496,-0.41062 20.66724,-1.40614 32.78895,-3.59007 5.3006,-0.95499 10.08546,-1.73729 10.63302,-1.73843 0.7608,-0.002 0.22484,0.78615 -2.27285,3.34058 -4.87119,4.98187 -15.16045,13.91344 -21.45115,18.62063 -19.06987,14.26957 -50.70916,28.15123 -78.28682,34.34815 -11.2088,2.5187 -19.40376,3.34214 -35.1028,3.52717 -7.91707,0.0933 -15.19017,0.0769 -16.16244,-0.0365 z"
           style="color:#000000;clip-rule:nonzero;display:inline;overflow:visible;visibility:visible;opacity:1;isolation:auto;mix-blend-mode:normal;color-interpolation:sRGB;color-interpolation-filters:linearRGB;solid-color:#000000;solid-opacity:1;fill:#ffffff;fill-opacity:1;fill-rule:nonzero;stroke:none;stroke-width:3.77952766;stroke-linecap:round;stroke-linejoin:miter;stroke-miterlimit:4;stroke-dasharray:none;stroke-dashoffset:0;stroke-opacity:1;color-rendering:auto;image-rendering:auto;shape-rendering:auto;text-rendering:auto;enable-background:accumulate" />
      </g>
    </g>
    <g
       id="g6365"
       transform="matrix(1.2501514,0,0,1.2501514,-1.8118297,-43.651267)">
      <circle
         style="fill:url(#linearGradient7539);stroke-width:0.26458332"
         cx="3.8353124"
         cy="172.77954"
         r="1.7197917"
         id="circle6355" />
      <circle
         style="fill:url(#linearGradient7541);stroke-width:0.26458332"
         cx="3.8353124"
         cy="172.7794"
         r="1.5377425"
         id="circle6357" />
      <circle
         style="fill:url(#linearGradient7543);stroke-width:0.26458332"
         cx="3.8353124"
         cy="172.7794"
         r="1.4194552"
         id="circle6359" />
      <g
         transform="matrix(0.26458333,0,0,0.26458333,1.8509373,170.79533)"
         id="g6363">
        <path
           style="fill:#8c8c8c"
           inkscape:connector-curvature="0"
           d="M 10.96889,6.80997 9.00528,6.57471 C 8.70384,6.5386 8.46626,6.30092 8.43027,5.99947 L 8.19598,4.03719 C 8.18577,3.95166 8.11322,3.88726 8.02708,3.88726 H 6.97294 c -0.08613,0 -0.15867,0.06438 -0.16889,0.1499 L 6.56921,6.00056 C 6.53315,6.30204 6.29544,6.5397 5.99394,6.57569 L 4.03118,6.81003 C 3.94564,6.82024 3.88125,6.89279 3.88125,6.97893 v 1.0542 c 0,0.08613 0.06438,0.15866 0.1499,0.16889 l 1.96299,0.2348 C 6.29557,8.47287 6.5332,8.7105 6.56925,9.01193 l 0.23479,1.96293 c 0.01023,0.08552 0.08277,0.1499 0.16889,0.1499 h 1.0542 c 0.08612,0 0.15865,-0.06436 0.16889,-0.14986 L 8.43123,9.01172 C 8.46734,8.71033 8.70495,8.47277 9.00635,8.43673 l 1.96249,-0.2347 c 0.08552,-0.01023 0.1499,-0.08276 0.1499,-0.16889 V 6.97886 c 10e-6,-0.08611 -0.06435,-0.15864 -0.14985,-0.16889 z"
           id="path6361" />
      </g>
    </g>
    <g
       transform="matrix(1.2501514,0,0,1.2501514,-1.8118297,76.469572)"
       id="g7507">
      <circle
         id="circle7497"
         r="1.7197917"
         cy="172.77954"
         cx="3.8353124"
         style="fill:url(#linearGradient7609);stroke-width:0.26458332" />
      <circle
         id="circle7499"
         r="1.5377425"
         cy="172.7794"
         cx="3.8353124"
         style="fill:url(#linearGradient7611);stroke-width:0.26458332" />
      <circle
         id="circle7501"
         r="1.4194552"
         cy="172.7794"
         cx="3.8353124"
         style="fill:url(#linearGradient7613);stroke-width:0.26458332" />
      <g
         id="g7505"
         transform="matrix(0.26458333,0,0,0.26458333,1.8509373,170.79533)">
        <path
           id="path7503"
           d="M 10.96889,6.80997 9.00528,6.57471 C 8.70384,6.5386 8.46626,6.30092 8.43027,5.99947 L 8.19598,4.03719 C 8.18577,3.95166 8.11322,3.88726 8.02708,3.88726 H 6.97294 c -0.08613,0 -0.15867,0.06438 -0.16889,0.1499 L 6.56921,6.00056 C 6.53315,6.30204 6.29544,6.5397 5.99394,6.57569 L 4.03118,6.81003 C 3.94564,6.82024 3.88125,6.89279 3.88125,6.97893 v 1.0542 c 0,0.08613 0.06438,0.15866 0.1499,0.16889 l 1.96299,0.2348 C 6.29557,8.47287 6.5332,8.7105 6.56925,9.01193 l 0.23479,1.96293 c 0.01023,0.08552 0.08277,0.1499 0.16889,0.1499 h 1.0542 c 0.08612,0 0.15865,-0.06436 0.16889,-0.14986 L 8.43123,9.01172 C 8.46734,8.71033 8.70495,8.47277 9.00635,8.43673 l 1.96249,-0.2347 c 0.08552,-0.01023 0.1499,-0.08276 0.1499,-0.16889 V 6.97886 c 10e-6,-0.08611 -0.06435,-0.15864 -0.14985,-0.16889 z"
           inkscape:connector-curvature="0"
           style="fill:#8c8c8c" />
      </g>
    </g>
    <g
       aria-label="IN"
       style="font-style:normal;font-variant:normal;font-weight:normal;font-stretch:normal;font-size:3.96875px;line-height:100%;font-family:'Baloo Bhaina 2';-inkscape-font-specification:'Baloo Bhaina 2, ';text-align:start;letter-spacing:0px;word-spacing:0px;writing-mode:lr-tb;text-anchor:start;fill:#ff0a85;fill-opacity:1;stroke:none;stroke-width:0.26458332px;stroke-linecap:butt;stroke-linejoin:miter;stroke-opacity:1"
       id="text7531">
      <path
         d="m 3.938369,277.42611 q -0.024694,0.0106 -0.074083,0.0176 -0.045861,0.0106 -0.098778,0.0106 -0.1093612,0 -0.15875,-0.0388 -0.045861,-0.0423 -0.045861,-0.13759 v -1.98613 q 0.028222,-0.007 0.074083,-0.0141 0.049389,-0.0106 0.1023055,-0.0106 0.1023056,0 0.1516945,0.0388 0.049389,0.0388 0.049389,0.13758 v 1.98261 z"
         style="font-style:normal;font-variant:normal;font-weight:500;font-stretch:normal;font-size:3.52777767px;font-family:'Baloo Bhaina 2';-inkscape-font-specification:'Baloo Bhaina 2 Medium';fill:#ff0a85;fill-opacity:1;stroke-width:0.26458332px"
         id="path1541" />
      <path
         d="m 6.2913905,277.38378 q -0.038806,0.0317 -0.098778,0.0529 -0.059972,0.0212 -0.1411111,0.0212 -0.098778,0 -0.1728612,-0.0353 -0.070556,-0.0388 -0.1305277,-0.14111 L 5.1660295,276.269 q -0.038806,-0.067 -0.081139,-0.14111 -0.038806,-0.0741 -0.077611,-0.14817 -0.035278,-0.0741 -0.070556,-0.14111 -0.03175,-0.0706 -0.056444,-0.12347 l -0.017639,0.004 q 0.017639,0.18344 0.024694,0.39511 0.00706,0.20814 0.00706,0.39511 v 0.92075 q -0.024695,0.007 -0.074083,0.0141 -0.045861,0.0106 -0.09525,0.0106 -0.1058333,0 -0.1552222,-0.0388 -0.045861,-0.0388 -0.045861,-0.13053 v -1.93322 q 0.035278,-0.0388 0.098778,-0.06 0.067028,-0.0247 0.1411111,-0.0247 0.098778,0 0.1728611,0.0353 0.074083,0.0353 0.1340556,0.13758 l 0.5856111,1.016 q 0.038806,0.067 0.077611,0.14111 0.038805,0.0741 0.074083,0.14817 0.038805,0.0741 0.070556,0.14464 0.035278,0.067 0.059972,0.11994 l 0.014111,-0.004 q -0.028222,-0.26812 -0.03175,-0.52917 -0.00353,-0.26458 -0.00353,-0.51506 v -0.67027 q 0.028222,-0.007 0.074083,-0.0141 0.045861,-0.0106 0.098778,-0.0106 0.1058333,0 0.1516944,0.0388 0.049389,0.0388 0.049389,0.13052 v 1.94734 z"
         style="font-style:normal;font-variant:normal;font-weight:500;font-stretch:normal;font-size:3.52777767px;font-family:'Baloo Bhaina 2';-inkscape-font-specification:'Baloo Bhaina 2 Medium';fill:#ff0a85;fill-opacity:1;stroke-width:0.26458332px"
         id="path1543" />
    </g>
    <rect
       ry="2.3740942"
       y="273.9379"
       x="11.040703"
       height="12.961421"
       width="8.9375553"
       id="rect6323"
       style="color:#000000;clip-rule:nonzero;display:inline;overflow:visible;visibility:visible;opacity:1;isolation:auto;mix-blend-mode:normal;color-interpolation:sRGB;color-interpolation-filters:linearRGB;solid-color:#000000;solid-opacity:1;fill:#ff0a85;fill-opacity:1;fill-rule:nonzero;stroke:none;stroke-width:1.23791838;stroke-linecap:round;stroke-linejoin:miter;stroke-miterlimit:4;stroke-dasharray:none;stroke-dashoffset:0;stroke-opacity:1;color-rendering:auto;image-rendering:auto;shape-rendering:auto;text-rendering:auto;enable-background:accumulate" />
    <g
       aria-label="OUT"
       style="font-style:normal;font-variant:normal;font-weight:normal;font-stretch:normal;font-size:3.96875px;line-height:100%;font-family:'Baloo Bhaina 2';-inkscape-font-specification:'Baloo Bhaina 2, ';text-align:start;letter-spacing:0px;word-spacing:0px;writing-mode:lr-tb;text-anchor:start;fill:#fff4e6;fill-opacity:1;stroke:none;stroke-width:0.26458332px;stroke-linecap:butt;stroke-linejoin:miter;stroke-opacity:1"
       id="text7535">
      <path
         d="m 14.421164,276.36249 q 0,0.27517 -0.08114,0.48684 -0.07761,0.20813 -0.218723,0.34925 -0.141111,0.14111 -0.331611,0.21519 -0.1905,0.0706 -0.416277,0.0706 -0.225778,0 -0.419806,-0.0706 -0.1905,-0.0741 -0.331611,-0.21519 -0.137583,-0.14112 -0.218722,-0.34925 -0.07761,-0.21167 -0.07761,-0.48684 0,-0.27516 0.08114,-0.4833 0.08114,-0.20814 0.22225,-0.34925 0.141112,-0.14464 0.331612,-0.2152 0.194027,-0.0741 0.41275,-0.0741 0.22225,0 0.41275,0.0741 0.1905,0.0706 0.331611,0.2152 0.141111,0.14111 0.22225,0.34925 0.08114,0.20814 0.08114,0.4833 z m -0.384528,0 q 0,-0.39511 -0.179917,-0.59972 -0.179917,-0.20814 -0.483305,-0.20814 -0.296334,0 -0.479778,0.20814 -0.179917,0.20814 -0.179917,0.59972 0,0.39511 0.179917,0.60325 0.179916,0.20814 0.479778,0.20814 0.303388,0 0.483305,-0.20814 0.179917,-0.20814 0.179917,-0.60325 z"
         style="font-style:normal;font-variant:normal;font-weight:500;font-stretch:normal;font-size:3.52777767px;font-family:'Baloo Bhaina 2';-inkscape-font-specification:'Baloo Bhaina 2 Medium';fill:#fff4e6;fill-opacity:1;stroke-width:0.26458332px"
         id="path1534" />
      <path
         d="m 16.615437,276.68352 q 0,0.17992 -0.05997,0.32808 -0.05644,0.14817 -0.169333,0.254 -0.109361,0.10584 -0.271639,0.16228 -0.15875,0.0564 -0.366889,0.0564 -0.204611,0 -0.366889,-0.0564 -0.15875,-0.0564 -0.271639,-0.16228 -0.109361,-0.10583 -0.169333,-0.254 -0.05645,-0.14816 -0.05645,-0.32808 v -1.38994 q 0.02469,-0.007 0.07408,-0.0141 0.04939,-0.0106 0.102305,-0.0106 0.102306,0 0.151695,0.0388 0.04939,0.0388 0.04939,0.13758 v 1.21708 q 0,0.25048 0.137583,0.381 0.141111,0.13053 0.34925,0.13053 0.105833,0 0.194028,-0.0317 0.08819,-0.0353 0.155222,-0.0988 0.06703,-0.0635 0.102306,-0.15875 0.0388,-0.0952 0.0388,-0.22225 v -1.36877 q 0.0247,-0.007 0.07408,-0.0141 0.04939,-0.0106 0.102306,-0.0106 0.102306,0 0.151694,0.0388 0.04939,0.0388 0.04939,0.13758 v 1.23825 z"
         style="font-style:normal;font-variant:normal;font-weight:500;font-stretch:normal;font-size:3.52777767px;font-family:'Baloo Bhaina 2';-inkscape-font-specification:'Baloo Bhaina 2 Medium';fill:#fff4e6;fill-opacity:1;stroke-width:0.26458332px"
         id="path1536" />
      <path
         d="m 18.02302,275.60402 v 1.82386 q -0.02469,0.0106 -0.07408,0.0176 -0.04586,0.0106 -0.09878,0.0106 -0.109361,0 -0.155222,-0.0388 -0.04586,-0.0423 -0.04586,-0.13759 v -1.67569 h -0.624417 q -0.01764,-0.0247 -0.03175,-0.0635 -0.01058,-0.0388 -0.01058,-0.0882 0,-0.0776 0.03528,-0.11642 0.0388,-0.0423 0.102305,-0.0423 h 1.534583 q 0.01411,0.0212 0.02469,0.06 0.01411,0.0388 0.01411,0.0847 0,0.16581 -0.137583,0.16581 z"
         style="font-style:normal;font-variant:normal;font-weight:500;font-stretch:normal;font-size:3.52777767px;font-family:'Baloo Bhaina 2';-inkscape-font-specification:'Baloo Bhaina 2 Medium';fill:#fff4e6;fill-opacity:1;stroke-width:0.26458332px"
         id="path1538" />
    </g>
    <text
       xml:space="preserve"
       style="font-style:normal;font-variant:normal;font-weight:normal;font-stretch:normal;font-size:3.96875px;line-height:100%;font-family:Dingbats;-inkscape-font-specification:'Dingbats, Normal';text-align:start;letter-spacing:0px;word-spacing:0px;writing-mode:lr-tb;text-anchor:start;fill:#000000;fill-opacity:1;stroke:none;stroke-width:0.26458332px;stroke-linecap:butt;stroke-linejoin:miter;stroke-opacity:1"
       x="42.664062"
       y="224.99554"
       id="text2122"><tspan
         sodipodi:role="line"
         id="tspan2120"
         x="42.664062"
         y="228.37434"
         style="stroke-width:0.26458332px" /></text>
    <g
       id="g4081" />
    <g
       id="g1908"
       transform="translate(21.459534,-11.299852)">
      <g
         id="g1906"
         transform="translate(6.1421135,-6.0476219)" />
    </g>
    <g
       id="g1981"
       transform="matrix(1.2501514,0,0,1.2501514,12.475672,76.469572)">
      <circle
         style="fill:url(#linearGradient1983);stroke-width:0.26458332"
         cx="3.8353124"
         cy="172.77954"
         r="1.7197917"
         id="circle1971" />
      <circle
         style="fill:url(#linearGradient1985);stroke-width:0.26458332"
         cx="3.8353124"
         cy="172.7794"
         r="1.5377425"
         id="circle1973" />
      <circle
         style="fill:url(#linearGradient1987);stroke-width:0.26458332"
         cx="3.8353124"
         cy="172.7794"
         r="1.4194552"
         id="circle1975" />
      <g
         transform="matrix(0.26458333,0,0,0.26458333,1.8509373,170.79533)"
         id="g1979">
        <path
           style="fill:#8c8c8c"
           inkscape:connector-curvature="0"
           d="M 10.96889,6.80997 9.00528,6.57471 C 8.70384,6.5386 8.46626,6.30092 8.43027,5.99947 L 8.19598,4.03719 C 8.18577,3.95166 8.11322,3.88726 8.02708,3.88726 H 6.97294 c -0.08613,0 -0.15867,0.06438 -0.16889,0.1499 L 6.56921,6.00056 C 6.53315,6.30204 6.29544,6.5397 5.99394,6.57569 L 4.03118,6.81003 C 3.94564,6.82024 3.88125,6.89279 3.88125,6.97893 v 1.0542 c 0,0.08613 0.06438,0.15866 0.1499,0.16889 l 1.96299,0.2348 C 6.29557,8.47287 6.5332,8.7105 6.56925,9.01193 l 0.23479,1.96293 c 0.01023,0.08552 0.08277,0.1499 0.16889,0.1499 h 1.0542 c 0.08612,0 0.15865,-0.06436 0.16889,-0.14986 L 8.43123,9.01172 C 8.46734,8.71033 8.70495,8.47277 9.00635,8.43673 l 1.96249,-0.2347 c 0.08552,-0.01023 0.1499,-0.08276 0.1499,-0.16889 V 6.97886 c 10e-6,-0.08611 -0.06435,-0.15864 -0.14985,-0.16889 z"
           id="path1977" />
      </g>
    </g>
    <g
       transform="matrix(1.2501514,0,0,1.2501514,12.475672,-43.651267)"
       id="g1999">
      <circle
         id="circle1989"
         r="1.7197917"
         cy="172.77954"
         cx="3.8353124"
         style="fill:url(#linearGradient2001);stroke-width:0.26458332" />
      <circle
         id="circle1991"
         r="1.5377425"
         cy="172.7794"
         cx="3.8353124"
         style="fill:url(#linearGradient2003);stroke-width:0.26458332" />
      <circle
         id="circle1993"
         r="1.4194552"
         cy="172.7794"
         cx="3.8353124"
         style="fill:url(#linearGradient2005);stroke-width:0.26458332" />
      <g
         id="g1997"
         transform="matrix(0.26458333,0,0,0.26458333,1.8509373,170.79533)">
        <path
           id="path1995"
           d="M 10.96889,6.80997 9.00528,6.57471 C 8.70384,6.5386 8.46626,6.30092 8.43027,5.99947 L 8.19598,4.03719 C 8.18577,3.95166 8.11322,3.88726 8.02708,3.88726 H 6.97294 c -0.08613,0 -0.15867,0.06438 -0.16889,0.1499 L 6.56921,6.00056 C 6.53315,6.30204 6.29544,6.5397 5.99394,6.57569 L 4.03118,6.81003 C 3.94564,6.82024 3.88125,6.89279 3.88125,6.97893 v 1.0542 c 0,0.08613 0.06438,0.15866 0.1499,0.16889 l 1.96299,0.2348 C 6.29557,8.47287 6.5332,8.7105 6.56925,9.01193 l 0.23479,1.96293 c 0.01023,0.08552 0.08277,0.1499 0.16889,0.1499 h 1.0542 c 0.08612,0 0.15865,-0.06436 0.16889,-0.14986 L 8.43123,9.01172 C 8.46734,8.71033 8.70495,8.47277 9.00635,8.43673 l 1.96249,-0.2347 c 0.08552,-0.01023 0.1499,-0.08276 0.1499,-0.16889 V 6.97886 c 10e-6,-0.08611 -0.06435,-0.15864 -0.14985,-0.16889 z"
           inkscape:connector-curvature="0"
           style="fill:#8c8c8c" />
      </g>
    </g>
    <g
       aria-label="Botania
Saturator"
       style="font-style:normal;font-variant:normal;font-weight:normal;font-stretch:normal;font-size:3.96875px;line-height:100%;font-family:'Baloo Bhaina 2';-inkscape-font-specification:'Baloo Bhaina 2, ';text-align:start;letter-spacing:0px;word-spacing:0px;writing-mode:lr-tb;text-anchor:start;fill:#ff0a85;fill-opacity:1;stroke:none;stroke-width:0.26458332px;stroke-linecap:butt;stroke-linejoin:miter;stroke-opacity:1"
       id="text958-2">
      <path
         d="m 4.7231783,178.47009 q 0,0.20637 -0.1100667,0.35771 -0.1054805,0.15134 -0.3210277,0.24307 0.2659944,0.0871 0.3989916,0.2614 0.1329973,0.17428 0.1329973,0.41275 0,0.43568 -0.3164417,0.64665 -0.3164417,0.21096 -0.9172222,0.21096 -0.087136,0 -0.1880306,-0.005 -0.096308,-0.005 -0.1972028,-0.0183 -0.1008944,-0.009 -0.2017888,-0.0321 -0.1008945,-0.0183 -0.1880306,-0.0459 -0.2201333,-0.0734 -0.2201333,-0.27058 v -2.24261 q 0,-0.0871 0.045861,-0.13299 0.045861,-0.0459 0.1284111,-0.0734 0.1559278,-0.0505 0.3623028,-0.0688 0.206375,-0.0229 0.4310944,-0.0229 0.5549194,0 0.8576028,0.19261 0.3026833,0.18803 0.3026833,0.58703 z m -0.5044722,1.252 q 0,-0.18344 -0.1329972,-0.28892 -0.1284111,-0.10548 -0.3760611,-0.10548 h -0.536575 v 0.76588 q 0.087136,0.0229 0.206375,0.0321 0.123825,0.009 0.2430639,0.009 0.2797527,0 0.4356805,-0.0963 0.1605139,-0.1009 0.1605139,-0.31645 z M 3.1730728,178.89201 H 3.63627 q 0.24765,0 0.3668889,-0.1009 0.123825,-0.10089 0.123825,-0.27975 0,-0.3623 -0.5595056,-0.3623 -0.1146528,0 -0.2201333,0.009 -0.1008945,0.009 -0.1742722,0.0229 z"
         style="font-style:normal;font-variant:normal;font-weight:600;font-stretch:normal;font-size:4.58611107px;font-family:'Baloo Bhaina 2';-inkscape-font-specification:'Baloo Bhaina 2 Semi-Bold';text-align:center;text-anchor:middle;fill:#ff0a85;fill-opacity:1;stroke-width:0.26458332px"
         id="path1809" />
      <path
         d="m 7.4519097,179.45151 q 0,0.266 -0.08255,0.48154 -0.077964,0.21097 -0.2247194,0.36231 -0.1467556,0.15134 -0.3531306,0.23389 -0.206375,0.078 -0.4631972,0.078 -0.2568222,0 -0.4631972,-0.078 -0.206375,-0.0825 -0.3531306,-0.22931 -0.1467555,-0.15134 -0.2293055,-0.3623 -0.077964,-0.21555 -0.077964,-0.48613 0,-0.26599 0.077964,-0.47695 0.08255,-0.21555 0.2293055,-0.36231 0.1513417,-0.15134 0.3577167,-0.2293 0.206375,-0.0825 0.4586111,-0.0825 0.2522361,0 0.4586111,0.0825 0.206375,0.078 0.3531306,0.2293 0.1513416,0.15135 0.2293055,0.36689 0.08255,0.21096 0.08255,0.47237 z m -1.1235972,-0.6925 q -0.24765,0 -0.3898194,0.18344 -0.1421695,0.17886 -0.1421695,0.50906 0,0.33479 0.1375833,0.51365 0.1421695,0.17886 0.3944056,0.17886 0.2522361,0 0.3898194,-0.17886 0.1421695,-0.18345 0.1421695,-0.51365 0,-0.3302 -0.1421695,-0.50906 -0.1421694,-0.18344 -0.3898194,-0.18344 z"
         style="font-style:normal;font-variant:normal;font-weight:600;font-stretch:normal;font-size:4.58611107px;font-family:'Baloo Bhaina 2';-inkscape-font-specification:'Baloo Bhaina 2 Semi-Bold';text-align:center;text-anchor:middle;fill:#ff0a85;fill-opacity:1;stroke-width:0.26458332px"
         id="path1811" />
      <path
         d="m 8.5067138,179.86426 q 0,0.14676 0.087136,0.21096 0.091722,0.0642 0.2522361,0.0642 0.077964,0 0.1559278,-0.0183 0.08255,-0.0183 0.1467556,-0.0459 0.036689,0.0367 0.059619,0.0917 0.027517,0.0504 0.027517,0.11924 0,0.13758 -0.123825,0.2293 -0.123825,0.0871 -0.3989917,0.0871 -0.3623028,0 -0.5732639,-0.16052 -0.206375,-0.1651 -0.206375,-0.54116 v -2.10502 q 0.036689,-0.009 0.1054806,-0.0229 0.073378,-0.0138 0.1559278,-0.0138 0.1605138,0 0.2338916,0.0596 0.077964,0.0596 0.077964,0.21096 v 0.38065 h 0.6741583 q 0.022931,0.0367 0.041275,0.0963 0.018344,0.0596 0.018344,0.12842 0,0.11923 -0.055033,0.17427 -0.055033,0.055 -0.1467555,0.055 H 8.5067138 v 0.99977 z"
         style="font-style:normal;font-variant:normal;font-weight:600;font-stretch:normal;font-size:4.58611107px;font-family:'Baloo Bhaina 2';-inkscape-font-specification:'Baloo Bhaina 2 Semi-Bold';text-align:center;text-anchor:middle;fill:#ff0a85;fill-opacity:1;stroke-width:0.26458332px"
         id="path1813" />
      <path
         d="m 10.561276,180.16695 q 0.132997,0 0.243064,-0.0229 0.110067,-0.0275 0.160514,-0.0642 v -0.50906 l -0.444853,0.0413 q -0.183444,0.0183 -0.279753,0.0825 -0.09631,0.0596 -0.09631,0.19261 0,0.133 0.09631,0.20638 0.100895,0.0734 0.321028,0.0734 z m -0.01834,-1.86655 q 0.449438,0 0.715433,0.19262 0.27058,0.19261 0.27058,0.59619 v 1.05939 q 0,0.11007 -0.05503,0.17427 -0.05503,0.0642 -0.137583,0.11466 -0.128411,0.078 -0.325614,0.12382 -0.197203,0.0459 -0.449439,0.0459 -0.458611,0 -0.7246055,-0.17427 -0.2614083,-0.17886 -0.2614083,-0.53199 0,-0.30727 0.1926166,-0.46778 0.1972028,-0.1651 0.5686782,-0.20179 l 0.628297,-0.0642 v -0.0825 q 0,-0.17427 -0.128411,-0.25682 -0.123825,-0.0825 -0.353131,-0.0825 -0.178858,0 -0.348544,0.0459 -0.1696864,0.0413 -0.3026836,0.10548 -0.050447,-0.0367 -0.087136,-0.0963 -0.032103,-0.0642 -0.032103,-0.13759 0,-0.0917 0.041275,-0.14675 0.045861,-0.0596 0.1421694,-0.10548 0.1329971,-0.055 0.3026831,-0.0825 0.169686,-0.0275 0.343959,-0.0275 z"
         style="font-style:normal;font-variant:normal;font-weight:600;font-stretch:normal;font-size:4.58611107px;font-family:'Baloo Bhaina 2';-inkscape-font-specification:'Baloo Bhaina 2 Semi-Bold';text-align:center;text-anchor:middle;fill:#ff0a85;fill-opacity:1;stroke-width:0.26458332px"
         id="path1815" />
      <path
         d="m 13.53766,179.13966 q 0,-0.19721 -0.114653,-0.28893 -0.110067,-0.0917 -0.302683,-0.0917 -0.132998,0 -0.24765,0.0321 -0.110067,0.0321 -0.192617,0.0825 v 1.66018 q -0.04127,0.009 -0.110067,0.0229 -0.06879,0.0137 -0.155927,0.0137 -0.160514,0 -0.238478,-0.0596 -0.07796,-0.0596 -0.07796,-0.21096 v -1.47214 q 0,-0.11006 0.04586,-0.17886 0.04586,-0.0688 0.142169,-0.13299 0.132998,-0.0917 0.353131,-0.15135 0.220133,-0.0642 0.486128,-0.0642 0.472369,0 0.729191,0.21096 0.261409,0.20638 0.261409,0.60995 v 1.41253 q -0.03669,0.009 -0.110067,0.0229 -0.06879,0.0137 -0.151342,0.0137 -0.1651,0 -0.243063,-0.0596 -0.07338,-0.0596 -0.07338,-0.21096 v -1.16028 z"
         style="font-style:normal;font-variant:normal;font-weight:600;font-stretch:normal;font-size:4.58611107px;font-family:'Baloo Bhaina 2';-inkscape-font-specification:'Baloo Bhaina 2 Semi-Bold';text-align:center;text-anchor:middle;fill:#ff0a85;fill-opacity:1;stroke-width:0.26458332px"
         id="path1817" />
      <path
         d="m 14.720873,178.38295 q 0.03669,-0.009 0.105481,-0.0229 0.07338,-0.0138 0.155928,-0.0138 0.1651,0 0.238477,0.0596 0.07796,0.0596 0.07796,0.21096 v 1.917 q -0.03669,0.009 -0.110066,0.0229 -0.06879,0.0137 -0.151342,0.0137 -0.1651,0 -0.243064,-0.0596 -0.07338,-0.0596 -0.07338,-0.21096 z m -0.04586,-0.66499 q 0,-0.13299 0.09172,-0.22472 0.09631,-0.0963 0.243064,-0.0963 0.146756,0 0.238478,0.0963 0.09172,0.0917 0.09172,0.22472 0,0.13759 -0.09172,0.23389 -0.09172,0.0917 -0.238478,0.0917 -0.146755,0 -0.243064,-0.0917 -0.09172,-0.0963 -0.09172,-0.23389 z"
         style="font-style:normal;font-variant:normal;font-weight:600;font-stretch:normal;font-size:4.58611107px;font-family:'Baloo Bhaina 2';-inkscape-font-specification:'Baloo Bhaina 2 Semi-Bold';text-align:center;text-anchor:middle;fill:#ff0a85;fill-opacity:1;stroke-width:0.26458332px"
         id="path1819" />
      <path
         d="m 16.757103,180.16695 q 0.132997,0 0.243063,-0.0229 0.110067,-0.0275 0.160514,-0.0642 v -0.50906 l -0.444852,0.0413 q -0.183445,0.0183 -0.279753,0.0825 -0.09631,0.0596 -0.09631,0.19261 0,0.133 0.09631,0.20638 0.100894,0.0734 0.321028,0.0734 z m -0.01835,-1.86655 q 0.449439,0 0.715433,0.19262 0.270581,0.19261 0.270581,0.59619 v 1.05939 q 0,0.11007 -0.05503,0.17427 -0.05503,0.0642 -0.137584,0.11466 -0.128411,0.078 -0.325614,0.12382 -0.197202,0.0459 -0.449438,0.0459 -0.458612,0 -0.724606,-0.17427 -0.261408,-0.17886 -0.261408,-0.53199 0,-0.30727 0.192616,-0.46778 0.197203,-0.1651 0.568678,-0.20179 l 0.628297,-0.0642 v -0.0825 q 0,-0.17427 -0.128411,-0.25682 -0.123825,-0.0825 -0.35313,-0.0825 -0.178859,0 -0.348545,0.0459 -0.169686,0.0413 -0.302683,0.10548 -0.05045,-0.0367 -0.08714,-0.0963 -0.0321,-0.0642 -0.0321,-0.13759 0,-0.0917 0.04128,-0.14675 0.04586,-0.0596 0.142169,-0.10548 0.132998,-0.055 0.302684,-0.0825 0.169686,-0.0275 0.343958,-0.0275 z"
         style="font-style:normal;font-variant:normal;font-weight:600;font-stretch:normal;font-size:4.58611107px;font-family:'Baloo Bhaina 2';-inkscape-font-specification:'Baloo Bhaina 2 Semi-Bold';text-align:center;text-anchor:middle;fill:#ff0a85;fill-opacity:1;stroke-width:0.26458332px"
         id="path1821" />
      <path
         d="m 1.1529056,183.99342 q 0.2247195,0 0.3164417,-0.0734 0.091722,-0.0734 0.091722,-0.1651 0,-0.0917 -0.073378,-0.14217 -0.073378,-0.055 -0.206375,-0.10089 l -0.1926166,-0.0642 q -0.20178893,-0.0688 -0.36688893,-0.13758 -0.1651,-0.0734 -0.28433889,-0.17427 -0.11923889,-0.1009 -0.18803055,-0.23848 -0.0642056,-0.14217 -0.0642056,-0.34396 0,-0.38982 0.29809722,-0.62371 0.30268333,-0.23389 0.84384441,-0.23389 0.1972028,0 0.3668889,0.0275 0.1696861,0.0275 0.288925,0.0871 0.123825,0.055 0.1926167,0.14675 0.068792,0.0871 0.068792,0.20638 0,0.11924 -0.055033,0.20637 -0.055033,0.0825 -0.1329972,0.14217 -0.1008945,-0.0642 -0.2705806,-0.11006 -0.1696861,-0.0505 -0.371475,-0.0505 -0.206375,0 -0.3026833,0.0596 -0.096308,0.055 -0.096308,0.14217 0,0.0688 0.059619,0.11465 0.059619,0.0413 0.1788584,0.078 l 0.2430638,0.078 q 0.4310945,0.13758 0.6604,0.35772 0.2338917,0.21554 0.2338917,0.58243 0,0.19262 -0.077964,0.35772 -0.077964,0.16051 -0.2338917,0.27975 -0.1513416,0.11465 -0.3806472,0.17886 -0.2247194,0.0642 -0.5182305,0.0642 -0.21096113,0 -0.39440558,-0.0367 -0.17885833,-0.0321 -0.31644166,-0.0963 -0.13299722,-0.0688 -0.21096111,-0.1651 -0.0733778,-0.1009 -0.0733778,-0.22931 0,-0.13299 0.0779639,-0.22472 0.0779639,-0.0963 0.16968611,-0.14675 0.12841111,0.10089 0.31185555,0.17427 0.18803056,0.0734 0.40816388,0.0734 z"
         style="font-style:normal;font-variant:normal;font-weight:800;font-stretch:normal;font-size:4.58611107px;font-family:'Baloo Bhaina 2';-inkscape-font-specification:'Baloo Bhaina 2 Ultra-Bold';text-align:center;text-anchor:middle;fill:#ff0a85;fill-opacity:1;stroke-width:0.26458332px"
         id="path1823" />
      <path
         d="m 3.7669753,184.0668 q 0.077964,0 0.1696861,-0.0138 0.096308,-0.0183 0.1421694,-0.0459 v -0.36689 l -0.3302,0.0275 q -0.1284111,0.009 -0.2109611,0.055 -0.08255,0.0459 -0.08255,0.13758 0,0.0917 0.068792,0.15134 0.073378,0.055 0.2430639,0.055 z m -0.036689,-1.80235 q 0.24765,0 0.4494389,0.0504 0.206375,0.0505 0.3485444,0.15593 0.1467556,0.10089 0.2247195,0.26141 0.077964,0.15593 0.077964,0.37147 v 1.02729 q 0,0.11924 -0.068792,0.1972 -0.064206,0.0734 -0.1559278,0.12842 -0.2980972,0.17885 -0.8392583,0.17885 -0.2430639,0 -0.4402667,-0.0459 -0.1926166,-0.0459 -0.3347861,-0.13758 -0.1375833,-0.0917 -0.2155472,-0.23389 -0.073378,-0.14217 -0.073378,-0.3302 0,-0.31644 0.1880306,-0.48613 0.1880305,-0.16969 0.5824361,-0.21096 l 0.6007805,-0.0642 v -0.0321 q 0,-0.133 -0.1192389,-0.18803 -0.1146527,-0.0596 -0.3347861,-0.0596 -0.1696861,0 -0.3393722,0.0367 -0.1651,0.0367 -0.2980972,0.0917 -0.05962,-0.0413 -0.1008945,-0.12382 -0.041275,-0.0871 -0.041275,-0.17886 0,-0.11924 0.055033,-0.18803 0.059619,-0.0734 0.1788583,-0.12383 0.1329972,-0.0504 0.3118556,-0.0734 0.1834444,-0.0229 0.3439583,-0.0229 z"
         style="font-style:normal;font-variant:normal;font-weight:800;font-stretch:normal;font-size:4.58611107px;font-family:'Baloo Bhaina 2';-inkscape-font-specification:'Baloo Bhaina 2 Ultra-Bold';text-align:center;text-anchor:middle;fill:#ff0a85;fill-opacity:1;stroke-width:0.26458332px"
         id="path1825" />
      <path
         d="m 6.1563332,184.63089 q -0.4035778,0 -0.6237111,-0.18345 -0.2155472,-0.18344 -0.2155472,-0.59619 v -2.03623 q 0.050447,-0.0138 0.1421694,-0.0275 0.096308,-0.0183 0.2017889,-0.0183 0.2247195,0 0.3256139,0.078 0.1008944,0.078 0.1008944,0.28892 v 0.24765 h 0.6007806 q 0.027517,0.0505 0.050447,0.12841 0.027517,0.0734 0.027517,0.1651 0,0.16052 -0.073378,0.2339 -0.068792,0.0688 -0.1880306,0.0688 H 6.0875415 v 0.81633 q 0,0.11923 0.073378,0.16968 0.077964,0.0504 0.2155472,0.0504 0.068792,0 0.1421695,-0.009 0.073378,-0.0138 0.1284111,-0.0321 0.041275,0.0505 0.068792,0.11466 0.032103,0.0596 0.032103,0.14675 0,0.17427 -0.1329972,0.28434 -0.1284111,0.11007 -0.4586111,0.11007 z"
         style="font-style:normal;font-variant:normal;font-weight:800;font-stretch:normal;font-size:4.58611107px;font-family:'Baloo Bhaina 2';-inkscape-font-specification:'Baloo Bhaina 2 Ultra-Bold';text-align:center;text-anchor:middle;fill:#ff0a85;fill-opacity:1;stroke-width:0.26458332px"
         id="path1827" />
      <path
         d="m 7.1285857,182.34242 q 0.050447,-0.0138 0.1421694,-0.0275 0.096308,-0.0138 0.206375,-0.0138 0.2293056,0 0.3302,0.078 0.1008944,0.0734 0.1008944,0.28892 v 1.00895 q 0,0.18803 0.091722,0.27058 0.091722,0.078 0.2659944,0.078 0.1054806,0 0.1696861,-0.0183 0.068792,-0.0183 0.1054806,-0.0367 v -1.62807 q 0.050447,-0.0138 0.1421694,-0.0275 0.096308,-0.0138 0.206375,-0.0138 0.2293056,0 0.3302,0.078 0.1008945,0.0734 0.1008945,0.28892 v 1.41711 q 0,0.22931 -0.1926167,0.34396 -0.1605139,0.10089 -0.3852333,0.15134 -0.2201334,0.055 -0.4815417,0.055 -0.24765,0 -0.4586111,-0.055 -0.206375,-0.055 -0.3577167,-0.16969 -0.1513416,-0.11465 -0.2338916,-0.29351 -0.08255,-0.18344 -0.08255,-0.44026 z"
         style="font-style:normal;font-variant:normal;font-weight:800;font-stretch:normal;font-size:4.58611107px;font-family:'Baloo Bhaina 2';-inkscape-font-specification:'Baloo Bhaina 2 Ultra-Bold';text-align:center;text-anchor:middle;fill:#ff0a85;fill-opacity:1;stroke-width:0.26458332px"
         id="path1829" />
      <path
         d="m 10.577336,184.55751 q -0.05045,0.0138 -0.146756,0.0275 -0.09172,0.0138 -0.201789,0.0138 -0.2293052,0 -0.3301996,-0.0734 -0.1008945,-0.078 -0.1008945,-0.29351 v -1.36208 q 0,-0.133 0.068792,-0.2293 0.068792,-0.1009 0.1880304,-0.17428 0.160514,-0.0963 0.371475,-0.14675 0.215547,-0.0505 0.449439,-0.0505 0.499886,0 0.499886,0.35313 0,0.0825 -0.02293,0.15593 -0.02293,0.0688 -0.05503,0.11924 -0.08714,-0.0184 -0.252236,-0.0184 -0.119239,0 -0.24765,0.0275 -0.123825,0.0275 -0.220133,0.0825 z"
         style="font-style:normal;font-variant:normal;font-weight:800;font-stretch:normal;font-size:4.58611107px;font-family:'Baloo Bhaina 2';-inkscape-font-specification:'Baloo Bhaina 2 Ultra-Bold';text-align:center;text-anchor:middle;fill:#ff0a85;fill-opacity:1;stroke-width:0.26458332px"
         id="path1831" />
      <path
         d="m 12.567699,184.0668 q 0.07796,0 0.169686,-0.0138 0.09631,-0.0183 0.142169,-0.0459 v -0.36689 l -0.3302,0.0275 q -0.128411,0.009 -0.210961,0.055 -0.08255,0.0459 -0.08255,0.13758 0,0.0917 0.06879,0.15134 0.07338,0.055 0.243064,0.055 z m -0.03669,-1.80235 q 0.24765,0 0.449439,0.0504 0.206375,0.0505 0.348544,0.15593 0.146756,0.10089 0.224719,0.26141 0.07796,0.15593 0.07796,0.37147 v 1.02729 q 0,0.11924 -0.06879,0.1972 -0.06421,0.0734 -0.155928,0.12842 -0.298097,0.17885 -0.839258,0.17885 -0.243064,0 -0.440267,-0.0459 -0.192617,-0.0459 -0.334786,-0.13758 -0.137584,-0.0917 -0.215547,-0.23389 -0.07338,-0.14217 -0.07338,-0.3302 0,-0.31644 0.18803,-0.48613 0.188031,-0.16969 0.582436,-0.21096 l 0.600781,-0.0642 v -0.0321 q 0,-0.133 -0.119239,-0.18803 -0.114653,-0.0596 -0.334786,-0.0596 -0.169686,0 -0.339372,0.0367 -0.1651,0.0367 -0.298097,0.0917 -0.05962,-0.0413 -0.100895,-0.12382 -0.04128,-0.0871 -0.04128,-0.17886 0,-0.11924 0.05503,-0.18803 0.05962,-0.0734 0.178859,-0.12383 0.132997,-0.0504 0.311855,-0.0734 0.183445,-0.0229 0.343959,-0.0229 z"
         style="font-style:normal;font-variant:normal;font-weight:800;font-stretch:normal;font-size:4.58611107px;font-family:'Baloo Bhaina 2';-inkscape-font-specification:'Baloo Bhaina 2 Ultra-Bold';text-align:center;text-anchor:middle;fill:#ff0a85;fill-opacity:1;stroke-width:0.26458332px"
         id="path1833" />
      <path
         d="m 14.957057,184.63089 q -0.403578,0 -0.623711,-0.18345 -0.215548,-0.18344 -0.215548,-0.59619 v -2.03623 q 0.05045,-0.0138 0.14217,-0.0275 0.09631,-0.0183 0.201789,-0.0183 0.224719,0 0.325614,0.078 0.100894,0.078 0.100894,0.28892 v 0.24765 h 0.600781 q 0.02752,0.0505 0.05045,0.12841 0.02752,0.0734 0.02752,0.1651 0,0.16052 -0.07338,0.2339 -0.06879,0.0688 -0.188031,0.0688 h -0.417336 v 0.81633 q 0,0.11923 0.07338,0.16968 0.07796,0.0504 0.215547,0.0504 0.06879,0 0.14217,-0.009 0.07338,-0.0138 0.128411,-0.0321 0.04128,0.0505 0.06879,0.11466 0.0321,0.0596 0.0321,0.14675 0,0.17427 -0.132997,0.28434 -0.128411,0.11007 -0.458611,0.11007 z"
         style="font-style:normal;font-variant:normal;font-weight:800;font-stretch:normal;font-size:4.58611107px;font-family:'Baloo Bhaina 2';-inkscape-font-specification:'Baloo Bhaina 2 Ultra-Bold';text-align:center;text-anchor:middle;fill:#ff0a85;fill-opacity:1;stroke-width:0.26458332px"
         id="path1835" />
      <path
         d="m 18.217772,183.44767 q 0,0.27517 -0.08714,0.4953 -0.08255,0.22013 -0.243064,0.37606 -0.155928,0.15134 -0.376061,0.23389 -0.220133,0.0825 -0.4953,0.0825 -0.275167,0 -0.4953,-0.078 -0.220133,-0.0825 -0.380647,-0.23389 -0.155928,-0.15593 -0.243064,-0.37606 -0.08255,-0.22014 -0.08255,-0.49989 0,-0.27058 0.08714,-0.49071 0.08714,-0.22014 0.243064,-0.37148 0.160514,-0.15593 0.380647,-0.23848 0.220133,-0.0825 0.490714,-0.0825 0.27058,0 0.490714,0.0871 0.220133,0.0826 0.376061,0.23848 0.160514,0.15134 0.24765,0.37147 0.08714,0.22014 0.08714,0.48613 z m -1.201561,-0.57326 q -0.192617,0 -0.298097,0.15134 -0.105481,0.14675 -0.105481,0.42192 0,0.28893 0.105481,0.43568 0.10548,0.14217 0.298097,0.14217 0.192617,0 0.298097,-0.14675 0.105481,-0.14676 0.105481,-0.4311 0,-0.27517 -0.105481,-0.42192 -0.10548,-0.15134 -0.298097,-0.15134 z"
         style="font-style:normal;font-variant:normal;font-weight:800;font-stretch:normal;font-size:4.58611107px;font-family:'Baloo Bhaina 2';-inkscape-font-specification:'Baloo Bhaina 2 Ultra-Bold';text-align:center;text-anchor:middle;fill:#ff0a85;fill-opacity:1;stroke-width:0.26458332px"
         id="path1837" />
      <path
         d="m 19.378051,184.55751 q -0.05045,0.0138 -0.146755,0.0275 -0.09172,0.0138 -0.201789,0.0138 -0.229306,0 -0.3302,-0.0734 -0.100895,-0.078 -0.100895,-0.29351 v -1.36208 q 0,-0.133 0.06879,-0.2293 0.06879,-0.1009 0.188031,-0.17428 0.160513,-0.0963 0.371475,-0.14675 0.215547,-0.0505 0.449438,-0.0505 0.499887,0 0.499887,0.35313 0,0.0825 -0.02293,0.15593 -0.02293,0.0688 -0.05503,0.11924 -0.08714,-0.0184 -0.252236,-0.0184 -0.119239,0 -0.24765,0.0275 -0.123825,0.0275 -0.220134,0.0825 z"
         style="font-style:normal;font-variant:normal;font-weight:800;font-stretch:normal;font-size:4.58611107px;font-family:'Baloo Bhaina 2';-inkscape-font-specification:'Baloo Bhaina 2 Ultra-Bold';text-align:center;text-anchor:middle;fill:#ff0a85;fill-opacity:1;stroke-width:0.26458332px"
         id="path1839" />
    </g>
    <g
       aria-label="Coefficient"
       style="font-style:normal;font-variant:normal;font-weight:normal;font-stretch:normal;font-size:3.96875px;line-height:100%;font-family:'Baloo Bhaina 2';-inkscape-font-specification:'Baloo Bhaina 2, ';text-align:start;letter-spacing:0px;word-spacing:0px;writing-mode:lr-tb;text-anchor:start;fill:#ff0a85;fill-opacity:1;stroke:none;stroke-width:0.26458332px;stroke-linecap:butt;stroke-linejoin:miter;stroke-opacity:1"
       id="text3232-9">
      <path
         d="m 3.4360778,196.68065 q 0,0.06 -0.035278,0.10583 -0.03175,0.0459 -0.077611,0.067 -0.091722,-0.06 -0.2116667,-0.11289 -0.1164167,-0.0529 -0.2963333,-0.0529 -0.1552222,0 -0.28575,0.0529 -0.127,0.0529 -0.22225,0.15522 -0.091722,0.10231 -0.1446389,0.254 -0.052917,0.1517 -0.052917,0.34925 0,0.39864 0.1975556,0.60325 0.1975555,0.20461 0.5221111,0.20461 0.1728611,0 0.2998611,-0.0494 0.127,-0.0494 0.2187222,-0.11288 0.038806,0.0247 0.070555,0.0705 0.035278,0.0459 0.035278,0.10583 0,0.0494 -0.028222,0.0917 -0.024694,0.0423 -0.084667,0.0776 -0.077611,0.0494 -0.2116666,0.0882 -0.1340556,0.0388 -0.3386667,0.0388 -0.2257777,0 -0.4198055,-0.067 -0.1940278,-0.0706 -0.3386667,-0.20814 -0.1446389,-0.14111 -0.2293055,-0.34925 -0.081139,-0.21167 -0.081139,-0.49389 0,-0.27516 0.084667,-0.48683 0.084667,-0.21167 0.2257777,-0.35278 0.1446389,-0.14111 0.3351389,-0.21167 0.1905,-0.0741 0.4056944,-0.0741 0.1516945,0 0.2716389,0.0282 0.1234722,0.0247 0.2081389,0.067 0.088194,0.0423 0.1340556,0.0988 0.049389,0.0564 0.049389,0.11289 z"
         style="font-style:normal;font-variant:normal;font-weight:500;font-stretch:normal;font-size:3.52777767px;font-family:'Baloo Bhaina 2';-inkscape-font-specification:'Baloo Bhaina 2 Medium';fill:#ff0a85;fill-opacity:1;stroke-width:0.26458332px"
         id="path1790" />
      <path
         d="m 5.3551783,197.74251 q 0,0.20108 -0.059972,0.36336 -0.059972,0.16228 -0.1693333,0.27517 -0.1058334,0.11289 -0.2610556,0.17639 -0.1552222,0.06 -0.3457222,0.06 -0.1905,0 -0.3457222,-0.06 -0.1552222,-0.0635 -0.2645833,-0.17639 -0.1058334,-0.11289 -0.1658056,-0.27517 -0.059972,-0.16228 -0.059972,-0.36336 0,-0.20108 0.059972,-0.36336 0.059972,-0.16228 0.1693333,-0.27517 0.1093611,-0.11289 0.2645834,-0.17286 0.1552222,-0.0635 0.3421944,-0.0635 0.1869722,0 0.3421944,0.0635 0.1552223,0.06 0.2645834,0.17639 0.1093611,0.11289 0.1693333,0.27517 0.059972,0.15875 0.059972,0.35983 z M 4.519095,197.16395 q -0.2116667,0 -0.3351389,0.1517 -0.1234722,0.15169 -0.1234722,0.42686 0,0.27517 0.1199444,0.42686 0.1199445,0.14817 0.3386667,0.14817 0.2187222,0 0.3386667,-0.14817 0.1199444,-0.15169 0.1199444,-0.42686 0,-0.27164 -0.1234722,-0.42333 -0.1199445,-0.15523 -0.3351389,-0.15523 z"
         style="font-style:normal;font-variant:normal;font-weight:500;font-stretch:normal;font-size:3.52777767px;font-family:'Baloo Bhaina 2';-inkscape-font-specification:'Baloo Bhaina 2 Medium';fill:#ff0a85;fill-opacity:1;stroke-width:0.26458332px"
         id="path1792" />
      <path
         d="m 6.0395615,197.92948 q 0.049389,0.20108 0.1905,0.29986 0.1446388,0.0952 0.3668888,0.0952 0.1481667,0 0.2716389,-0.0459 0.1234722,-0.0459 0.1975556,-0.0988 0.098778,0.0565 0.098778,0.15875 0,0.06 -0.045861,0.11289 -0.045861,0.0494 -0.127,0.0882 -0.077611,0.0353 -0.1869722,0.0564 -0.1058333,0.0212 -0.2293055,0.0212 -0.2046111,0 -0.3739445,-0.0565 -0.1658055,-0.0564 -0.28575,-0.16933 -0.1199444,-0.11289 -0.1869722,-0.27869 -0.0635,-0.16581 -0.0635,-0.38453 0,-0.21167 0.0635,-0.37042 0.0635,-0.16228 0.1728611,-0.26811 0.1093611,-0.10936 0.2575278,-0.16581 0.1481667,-0.0564 0.3175,-0.0564 0.1693333,0 0.3069167,0.0564 0.1411111,0.0529 0.2398888,0.1517 0.1023056,0.0952 0.1552223,0.2293 0.056444,0.13406 0.056444,0.29281 0,0.0882 -0.042333,0.13053 -0.042333,0.0388 -0.1234723,0.0529 z m 0.4374444,-0.77611 q -0.1940278,0 -0.3245556,0.13053 -0.1269999,0.13053 -0.1340555,0.37394 l 0.8678333,-0.12347 q -0.014111,-0.15875 -0.1164167,-0.26811 -0.1023055,-0.11289 -0.2928055,-0.11289 z"
         style="font-style:normal;font-variant:normal;font-weight:500;font-stretch:normal;font-size:3.52777767px;font-family:'Baloo Bhaina 2';-inkscape-font-specification:'Baloo Bhaina 2 Medium';fill:#ff0a85;fill-opacity:1;stroke-width:0.26458332px"
         id="path1794" />
      <path
         d="m 7.9763063,197.01931 h 0.66675 q 0.014111,0.0212 0.024694,0.06 0.014111,0.0353 0.014111,0.0847 0,0.14817 -0.1340555,0.14817 H 7.9868896 v 1.24883 q -0.024694,0.0106 -0.070555,0.0176 -0.042333,0.0106 -0.09525,0.0106 -0.1023056,0 -0.1516945,-0.0388 -0.049389,-0.0388 -0.049389,-0.13053 v -1.60866 q 0,-0.16228 0.045861,-0.2787 0.049389,-0.11642 0.1375833,-0.1905 0.088194,-0.0741 0.2116666,-0.10936 0.127,-0.0353 0.2786945,-0.0353 0.2187222,0 0.3351389,0.0565 0.1164166,0.0564 0.1164166,0.15875 0,0.0494 -0.021167,0.0882 -0.017639,0.0353 -0.045861,0.0635 -0.067028,-0.0282 -0.1552222,-0.0494 -0.088194,-0.0212 -0.1799166,-0.0212 -0.1975556,0 -0.2822222,0.0776 -0.084667,0.0776 -0.084667,0.254 z m 1.2911666,0 h 0.66675 q 0.014111,0.0212 0.024694,0.06 0.014111,0.0353 0.014111,0.0847 0,0.14817 -0.1340556,0.14817 H 9.2780563 v 1.24883 q -0.024694,0.0106 -0.070556,0.0176 -0.042333,0.0106 -0.09525,0.0106 -0.1023056,0 -0.1516944,-0.0388 -0.049389,-0.0388 -0.049389,-0.13053 v -1.60866 q 0,-0.16228 0.045861,-0.2787 0.049389,-0.11642 0.1375833,-0.1905 0.088195,-0.0741 0.2116667,-0.10936 0.127,-0.0353 0.2786944,-0.0353 0.2187222,0 0.3351389,0.0565 0.1164162,0.0564 0.1164162,0.15875 0,0.0494 -0.02117,0.0882 -0.017639,0.0353 -0.045861,0.0635 -0.067028,-0.0282 -0.1552222,-0.0494 -0.088195,-0.0212 -0.1799167,-0.0212 -0.1975556,0 -0.2822222,0.0776 -0.084667,0.0776 -0.084667,0.254 z m 1.4499171,1.54164 q -0.02469,0.0106 -0.07056,0.0176 -0.04233,0.0106 -0.09878,0.0106 -0.102305,0 -0.151694,-0.0388 -0.04939,-0.0388 -0.04939,-0.13053 v -1.49225 q 0.02822,-0.007 0.07056,-0.0176 0.04586,-0.0106 0.102306,-0.0106 0.102306,0 0.148167,0.0388 0.04939,0.0388 0.04939,0.13405 z m -0.409223,-2.15194 q 0,-0.0917 0.0635,-0.1517 0.0635,-0.0635 0.162278,-0.0635 0.09878,0 0.15875,0.0635 0.05997,0.06 0.05997,0.1517 0,0.0917 -0.05997,0.15522 -0.05997,0.06 -0.15875,0.06 -0.09878,0 -0.162278,-0.06 -0.0635,-0.0635 -0.0635,-0.15522 z"
         style="font-style:normal;font-variant:normal;font-weight:500;font-stretch:normal;font-size:3.52777767px;font-family:'Baloo Bhaina 2';-inkscape-font-specification:'Baloo Bhaina 2 Medium';fill:#ff0a85;fill-opacity:1;stroke-width:0.26458332px"
         id="path1796" />
      <path
         d="m 12.033246,197.16748 q -0.112889,0 -0.208139,0.0388 -0.09525,0.0353 -0.165805,0.10936 -0.06703,0.0741 -0.109361,0.18344 -0.03881,0.10584 -0.03881,0.24695 0,0.27869 0.144639,0.42686 0.144639,0.14464 0.377472,0.14464 0.134056,0 0.229306,-0.0353 0.09525,-0.0353 0.165805,-0.0847 0.04586,0.0282 0.07408,0.067 0.02822,0.0388 0.02822,0.0952 0,0.10936 -0.144639,0.18344 -0.141111,0.0741 -0.373945,0.0741 -0.194027,0 -0.356305,-0.0529 -0.15875,-0.0529 -0.275167,-0.16228 -0.116416,-0.10936 -0.183444,-0.27164 -0.0635,-0.1658 -0.0635,-0.38452 0,-0.21873 0.06703,-0.38453 0.07055,-0.16581 0.186972,-0.27517 0.119944,-0.10936 0.278694,-0.16228 0.15875,-0.0564 0.335139,-0.0564 0.116417,0 0.208139,0.0212 0.09525,0.0212 0.162278,0.06 0.06703,0.0353 0.102305,0.0847 0.03881,0.0459 0.03881,0.0988 0,0.0494 -0.02822,0.0917 -0.02469,0.0388 -0.0635,0.06 -0.07408,-0.0459 -0.165806,-0.0811 -0.08819,-0.0353 -0.22225,-0.0353 z"
         style="font-style:normal;font-variant:normal;font-weight:500;font-stretch:normal;font-size:3.52777767px;font-family:'Baloo Bhaina 2';-inkscape-font-specification:'Baloo Bhaina 2 Medium';fill:#ff0a85;fill-opacity:1;stroke-width:0.26458332px"
         id="path1798" />
      <path
         d="m 13.303242,198.56095 q -0.02469,0.0106 -0.07055,0.0176 -0.04233,0.0106 -0.09878,0.0106 -0.102305,0 -0.151694,-0.0388 -0.04939,-0.0388 -0.04939,-0.13053 v -1.49225 q 0.02822,-0.007 0.07055,-0.0176 0.04586,-0.0106 0.102306,-0.0106 0.102305,0 0.148167,0.0388 0.04939,0.0388 0.04939,0.13405 z m -0.409222,-2.15194 q 0,-0.0917 0.0635,-0.1517 0.0635,-0.0635 0.162278,-0.0635 0.09878,0 0.15875,0.0635 0.05997,0.06 0.05997,0.1517 0,0.0917 -0.05997,0.15522 -0.05997,0.06 -0.15875,0.06 -0.09878,0 -0.162278,-0.06 -0.0635,-0.0635 -0.0635,-0.15522 z"
         style="font-style:normal;font-variant:normal;font-weight:500;font-stretch:normal;font-size:3.52777767px;font-family:'Baloo Bhaina 2';-inkscape-font-specification:'Baloo Bhaina 2 Medium';fill:#ff0a85;fill-opacity:1;stroke-width:0.26458332px"
         id="path1800" />
      <path
         d="m 14.093461,197.92948 q 0.04939,0.20108 0.1905,0.29986 0.144639,0.0952 0.366889,0.0952 0.148166,0 0.271639,-0.0459 0.123472,-0.0459 0.197555,-0.0988 0.09878,0.0565 0.09878,0.15875 0,0.06 -0.04586,0.11289 -0.04586,0.0494 -0.127,0.0882 -0.07761,0.0353 -0.186972,0.0564 -0.105834,0.0212 -0.229306,0.0212 -0.204611,0 -0.373944,-0.0565 -0.165806,-0.0564 -0.28575,-0.16933 -0.119945,-0.11289 -0.186973,-0.27869 -0.0635,-0.16581 -0.0635,-0.38453 0,-0.21167 0.0635,-0.37042 0.0635,-0.16228 0.172861,-0.26811 0.109362,-0.10936 0.257528,-0.16581 0.148167,-0.0564 0.3175,-0.0564 0.169334,0 0.306917,0.0564 0.141111,0.0529 0.239889,0.1517 0.102305,0.0952 0.155222,0.2293 0.05644,0.13406 0.05644,0.29281 0,0.0882 -0.04233,0.13053 -0.04233,0.0388 -0.123472,0.0529 z m 0.437444,-0.77611 q -0.194028,0 -0.324555,0.13053 -0.127,0.13053 -0.134056,0.37394 l 0.867833,-0.12347 q -0.01411,-0.15875 -0.116416,-0.26811 -0.102306,-0.11289 -0.292806,-0.11289 z"
         style="font-style:normal;font-variant:normal;font-weight:500;font-stretch:normal;font-size:3.52777767px;font-family:'Baloo Bhaina 2';-inkscape-font-specification:'Baloo Bhaina 2 Medium';fill:#ff0a85;fill-opacity:1;stroke-width:0.26458332px"
         id="path1802" />
      <path
         d="m 16.781622,197.49909 q 0,-0.17286 -0.09878,-0.254 -0.09525,-0.0811 -0.261055,-0.0811 -0.123472,0 -0.22225,0.0317 -0.09525,0.0318 -0.165806,0.0706 v 1.29469 q -0.02469,0.0106 -0.07056,0.0176 -0.04233,0.0106 -0.09525,0.0106 -0.102306,0 -0.151695,-0.0388 -0.04939,-0.0388 -0.04939,-0.13053 v -1.16416 q 0,-0.0811 0.03175,-0.13053 0.03175,-0.0494 0.105834,-0.0988 0.09878,-0.06 0.257528,-0.10936 0.15875,-0.0494 0.359833,-0.0494 0.342194,0 0.536222,0.15522 0.194028,0.1517 0.194028,0.46214 v 1.07597 q -0.02469,0.0106 -0.07056,0.0176 -0.04586,0.0106 -0.09878,0.0106 -0.102306,0 -0.151695,-0.0388 -0.04939,-0.0388 -0.04939,-0.13053 v -0.92075 z"
         style="font-style:normal;font-variant:normal;font-weight:500;font-stretch:normal;font-size:3.52777767px;font-family:'Baloo Bhaina 2';-inkscape-font-specification:'Baloo Bhaina 2 Medium';fill:#ff0a85;fill-opacity:1;stroke-width:0.26458332px"
         id="path1804" />
      <path
         d="m 18.009282,198.0847 q 0,0.127 0.07408,0.17992 0.07408,0.0529 0.208138,0.0529 0.05997,0 0.127,-0.0176 0.06703,-0.0176 0.116417,-0.0423 0.02469,0.0282 0.04233,0.0635 0.02117,0.0353 0.02117,0.0847 0,0.0917 -0.09525,0.1517 -0.09172,0.06 -0.282222,0.06 -0.264583,0 -0.423333,-0.11642 -0.155223,-0.11994 -0.155223,-0.39158 v -1.64747 q 0.0247,-0.007 0.07056,-0.0176 0.04586,-0.0106 0.09878,-0.0106 0.102305,0 0.148166,0.0388 0.04939,0.0388 0.04939,0.13053 v 0.34925 h 0.546806 q 0.01411,0.0212 0.02469,0.06 0.01411,0.0388 0.01411,0.0811 0,0.15169 -0.130527,0.15169 h -0.455084 v 0.83961 z"
         style="font-style:normal;font-variant:normal;font-weight:500;font-stretch:normal;font-size:3.52777767px;font-family:'Baloo Bhaina 2';-inkscape-font-specification:'Baloo Bhaina 2 Medium';fill:#ff0a85;fill-opacity:1;stroke-width:0.26458332px"
         id="path1806" />
    </g>
    <g
       aria-label="Threshold"
       style="font-style:normal;font-variant:normal;font-weight:normal;font-stretch:normal;font-size:3.96875px;line-height:100%;font-family:'Baloo Bhaina 2';-inkscape-font-specification:'Baloo Bhaina 2, ';text-align:start;letter-spacing:0px;word-spacing:0px;writing-mode:lr-tb;text-anchor:start;fill:#ff0a85;fill-opacity:1;stroke:none;stroke-width:0.26458332px;stroke-linecap:butt;stroke-linejoin:miter;stroke-opacity:1"
       id="text3397-1">
      <path
         d="m 3.612458,233.96416 v 1.82386 q -0.024695,0.0106 -0.074083,0.0176 -0.045861,0.0106 -0.098778,0.0106 -0.1093611,0 -0.1552223,-0.0388 -0.045861,-0.0423 -0.045861,-0.13759 v -1.67569 H 2.6140969 q -0.017639,-0.0247 -0.03175,-0.0635 -0.010583,-0.0388 -0.010583,-0.0882 0,-0.0776 0.035278,-0.11641 0.038806,-0.0423 0.1023056,-0.0423 h 1.5345833 q 0.014111,0.0212 0.024694,0.06 0.014111,0.0388 0.014111,0.0847 0,0.16581 -0.1375833,0.16581 z"
         style="font-style:normal;font-variant:normal;font-weight:500;font-stretch:normal;font-size:3.52777767px;font-family:'Baloo Bhaina 2';-inkscape-font-specification:'Baloo Bhaina 2 Medium';fill:#ff0a85;fill-opacity:1;stroke-width:0.26458332px"
         id="path1771" />
      <path
         d="m 5.7326508,234.76496 q 0,-0.19402 -0.1058333,-0.28222 -0.1023055,-0.0917 -0.2716389,-0.0917 -0.1128889,0 -0.2081388,0.0388 -0.091722,0.0353 -0.1622778,0.0882 v 1.27 q -0.024694,0.0106 -0.070556,0.0176 -0.042333,0.0106 -0.09525,0.0106 -0.1023055,0 -0.1516944,-0.0388 -0.049389,-0.0388 -0.049389,-0.13053 v -2.14136 q 0.024694,-0.007 0.070556,-0.0176 0.045861,-0.0106 0.098778,-0.0106 0.1023056,0 0.1481667,0.0388 0.049389,0.0388 0.049389,0.13053 v 0.55739 q 0.081139,-0.0423 0.1869722,-0.0741 0.1093611,-0.0353 0.2434167,-0.0353 0.3069166,0 0.4938888,0.16227 0.1905,0.16228 0.1905,0.49389 v 1.03717 q -0.024694,0.0106 -0.070556,0.0176 -0.045861,0.0106 -0.09525,0.0106 -0.1058334,0 -0.1552222,-0.0388 -0.045861,-0.0388 -0.045861,-0.13053 v -0.88195 z"
         style="font-style:normal;font-variant:normal;font-weight:500;font-stretch:normal;font-size:3.52777767px;font-family:'Baloo Bhaina 2';-inkscape-font-specification:'Baloo Bhaina 2 Medium';fill:#ff0a85;fill-opacity:1;stroke-width:0.26458332px"
         id="path1773" />
      <path
         d="m 6.9532599,235.78802 q -0.024694,0.0106 -0.070556,0.0176 -0.042333,0.0106 -0.09525,0.0106 -0.1023056,0 -0.1516945,-0.0388 -0.049389,-0.0388 -0.049389,-0.13053 v -1.15711 q 0,-0.0882 0.035278,-0.14111 0.035278,-0.0565 0.1128889,-0.10584 0.1023056,-0.0635 0.2610556,-0.10583 0.15875,-0.0423 0.34925,-0.0423 0.3104444,0 0.3104444,0.17638 0,0.0423 -0.014111,0.0811 -0.014111,0.0353 -0.03175,0.0635 -0.035278,-0.007 -0.088195,-0.0141 -0.052917,-0.007 -0.1128888,-0.007 -0.1411112,0 -0.2575278,0.0317 -0.1164167,0.0282 -0.1975556,0.0741 z"
         style="font-style:normal;font-variant:normal;font-weight:500;font-stretch:normal;font-size:3.52777767px;font-family:'Baloo Bhaina 2';-inkscape-font-specification:'Baloo Bhaina 2 Medium';fill:#ff0a85;fill-opacity:1;stroke-width:0.26458332px"
         id="path1775" />
      <path
         d="m 8.2056152,235.15655 q 0.049389,0.20108 0.1905,0.29986 0.1446389,0.0952 0.3668889,0.0952 0.1481667,0 0.2716389,-0.0459 0.1234722,-0.0459 0.1975555,-0.0988 0.098778,0.0564 0.098778,0.15875 0,0.06 -0.045861,0.11289 -0.045861,0.0494 -0.127,0.0882 -0.077611,0.0353 -0.1869722,0.0564 -0.1058333,0.0212 -0.2293056,0.0212 -0.2046111,0 -0.3739444,-0.0564 -0.1658055,-0.0564 -0.28575,-0.16933 -0.1199444,-0.11289 -0.1869722,-0.2787 -0.0635,-0.1658 -0.0635,-0.38453 0,-0.21166 0.0635,-0.37041 0.0635,-0.16228 0.1728611,-0.26811 0.1093611,-0.10937 0.2575278,-0.16581 0.1481666,-0.0564 0.3175,-0.0564 0.1693333,0 0.3069166,0.0564 0.1411111,0.0529 0.2398889,0.15169 0.1023056,0.0952 0.1552222,0.22931 0.056444,0.13406 0.056444,0.29281 0,0.0882 -0.042333,0.13052 -0.042333,0.0388 -0.1234722,0.0529 z m 0.4374445,-0.77611 q -0.1940278,0 -0.3245556,0.13052 -0.127,0.13053 -0.1340555,0.37395 l 0.8678333,-0.12347 q -0.014111,-0.15875 -0.1164167,-0.26812 -0.1023055,-0.11288 -0.2928055,-0.11288 z"
         style="font-style:normal;font-variant:normal;font-weight:500;font-stretch:normal;font-size:3.52777767px;font-family:'Baloo Bhaina 2';-inkscape-font-specification:'Baloo Bhaina 2 Medium';fill:#ff0a85;fill-opacity:1;stroke-width:0.26458332px"
         id="path1777" />
      <path
         d="m 11.024303,235.33999 q 0,0.23636 -0.176388,0.37042 -0.176389,0.13405 -0.511528,0.13405 -0.137584,0 -0.254,-0.0212 -0.1164168,-0.0212 -0.2010835,-0.06 -0.081139,-0.0388 -0.127,-0.0917 -0.045861,-0.0529 -0.045861,-0.11641 0,-0.0529 0.024694,-0.0988 0.028222,-0.0459 0.074083,-0.0741 0.098778,0.0635 0.2257778,0.11642 0.127,0.0529 0.296333,0.0529 0.15875,0 0.243417,-0.0529 0.08467,-0.0564 0.08467,-0.15875 0,-0.0882 -0.05997,-0.14111 -0.05644,-0.0529 -0.169333,-0.0811 l -0.239889,-0.0635 q -0.2398887,-0.0635 -0.3527776,-0.17286 -0.1128889,-0.10936 -0.1128889,-0.29986 0,-0.10231 0.042333,-0.1905 0.042333,-0.0917 0.1234722,-0.15522 0.084667,-0.067 0.208139,-0.10231 0.123472,-0.0388 0.282222,-0.0388 0.127,0 0.229306,0.0212 0.105833,0.0176 0.179916,0.0529 0.07761,0.0318 0.119945,0.0811 0.04233,0.0494 0.04233,0.10583 0,0.0565 -0.02469,0.0988 -0.02469,0.0388 -0.0635,0.0635 -0.0635,-0.0388 -0.1905,-0.0847 -0.123473,-0.0459 -0.268111,-0.0459 -0.148167,0 -0.232834,0.0529 -0.08467,0.0494 -0.08467,0.14111 0,0.0705 0.04586,0.11642 0.04939,0.0459 0.165805,0.0741 l 0.204611,0.0529 q 0.268111,0.0705 0.395111,0.1905 0.127,0.11994 0.127,0.32455 z"
         style="font-style:normal;font-variant:normal;font-weight:500;font-stretch:normal;font-size:3.52777767px;font-family:'Baloo Bhaina 2';-inkscape-font-specification:'Baloo Bhaina 2 Medium';fill:#ff0a85;fill-opacity:1;stroke-width:0.26458332px"
         id="path1779" />
      <path
         d="m 12.534191,234.76496 q 0,-0.19402 -0.105834,-0.28222 -0.102305,-0.0917 -0.271638,-0.0917 -0.112889,0 -0.208139,0.0388 -0.09172,0.0353 -0.162278,0.0882 v 1.27 q -0.02469,0.0106 -0.07056,0.0176 -0.04233,0.0106 -0.09525,0.0106 -0.102305,0 -0.151694,-0.0388 -0.04939,-0.0388 -0.04939,-0.13053 v -2.14136 q 0.02469,-0.007 0.07056,-0.0176 0.04586,-0.0106 0.09878,-0.0106 0.102306,0 0.148167,0.0388 0.04939,0.0388 0.04939,0.13053 v 0.55739 q 0.08114,-0.0423 0.186972,-0.0741 0.109361,-0.0353 0.243417,-0.0353 0.306916,0 0.493889,0.16227 0.1905,0.16228 0.1905,0.49389 v 1.03717 q -0.02469,0.0106 -0.07056,0.0176 -0.04586,0.0106 -0.09525,0.0106 -0.105833,0 -0.155222,-0.0388 -0.04586,-0.0388 -0.04586,-0.13053 v -0.88195 z"
         style="font-style:normal;font-variant:normal;font-weight:500;font-stretch:normal;font-size:3.52777767px;font-family:'Baloo Bhaina 2';-inkscape-font-specification:'Baloo Bhaina 2 Medium';fill:#ff0a85;fill-opacity:1;stroke-width:0.26458332px"
         id="path1781" />
      <path
         d="m 14.971883,234.96957 q 0,0.20109 -0.05997,0.36337 -0.05997,0.16227 -0.169333,0.27516 -0.105834,0.11289 -0.261056,0.17639 -0.155222,0.06 -0.345722,0.06 -0.1905,0 -0.345722,-0.06 -0.155223,-0.0635 -0.264584,-0.17639 -0.105833,-0.11289 -0.165805,-0.27516 -0.05997,-0.16228 -0.05997,-0.36337 0,-0.20108 0.05997,-0.36336 0.05997,-0.16227 0.169333,-0.27516 0.109361,-0.11289 0.264583,-0.17286 0.155223,-0.0635 0.342195,-0.0635 0.186972,0 0.342194,0.0635 0.155222,0.06 0.264584,0.17638 0.109361,0.11289 0.169333,0.27517 0.05997,0.15875 0.05997,0.35983 z M 14.1358,234.39102 q -0.211667,0 -0.335139,0.15169 -0.123472,0.1517 -0.123472,0.42686 0,0.27517 0.119944,0.42687 0.119945,0.14816 0.338667,0.14816 0.218722,0 0.338666,-0.14816 0.119945,-0.1517 0.119945,-0.42687 0,-0.27163 -0.123472,-0.42333 -0.119945,-0.15522 -0.335139,-0.15522 z"
         style="font-style:normal;font-variant:normal;font-weight:500;font-stretch:normal;font-size:3.52777767px;font-family:'Baloo Bhaina 2';-inkscape-font-specification:'Baloo Bhaina 2 Medium';fill:#ff0a85;fill-opacity:1;stroke-width:0.26458332px"
         id="path1783" />
      <path
         d="m 15.596295,235.81624 q -0.102306,0 -0.151695,-0.0388 -0.04939,-0.0388 -0.04939,-0.13053 v -2.14136 q 0.02469,-0.007 0.07056,-0.0176 0.04586,-0.0106 0.09878,-0.0106 0.102305,0 0.151694,0.0388 0.04939,0.0388 0.04939,0.13053 v 2.14136 q -0.02822,0.0106 -0.07408,0.0176 -0.04233,0.0106 -0.09525,0.0106 z"
         style="font-style:normal;font-variant:normal;font-weight:500;font-stretch:normal;font-size:3.52777767px;font-family:'Baloo Bhaina 2';-inkscape-font-specification:'Baloo Bhaina 2 Medium';fill:#ff0a85;fill-opacity:1;stroke-width:0.26458332px"
         id="path1785" />
      <path
         d="m 17.014456,234.09469 q 0.105833,0 0.197555,0.0247 0.09525,0.0212 0.165806,0.0564 v -0.67027 q 0.02469,-0.007 0.07056,-0.0176 0.04586,-0.0106 0.09878,-0.0106 0.102306,0 0.151695,0.0388 0.04939,0.0388 0.04939,0.13053 v 1.84855 q 0,0.0741 -0.03175,0.12348 -0.03175,0.0459 -0.09878,0.0882 -0.08114,0.0529 -0.22225,0.0952 -0.137583,0.0423 -0.3175,0.0423 -0.201083,0 -0.366889,-0.0494 -0.165805,-0.0529 -0.282222,-0.15875 -0.116417,-0.10936 -0.179917,-0.27163 -0.0635,-0.16581 -0.0635,-0.38806 0,-0.22931 0.0635,-0.39511 0.06703,-0.16933 0.179917,-0.27517 0.112889,-0.10936 0.261055,-0.15875 0.151695,-0.0529 0.324556,-0.0529 z m 0.366889,0.39158 q -0.05997,-0.0388 -0.141111,-0.067 -0.08114,-0.0282 -0.179917,-0.0282 -0.105833,0 -0.197556,0.0318 -0.08819,0.0317 -0.155222,0.10583 -0.06703,0.0706 -0.105833,0.18345 -0.03881,0.10936 -0.03881,0.26811 0,0.29633 0.137584,0.43039 0.141111,0.13405 0.373944,0.13405 0.105833,0 0.176389,-0.0212 0.07408,-0.0247 0.130528,-0.0564 z"
         style="font-style:normal;font-variant:normal;font-weight:500;font-stretch:normal;font-size:3.52777767px;font-family:'Baloo Bhaina 2';-inkscape-font-specification:'Baloo Bhaina 2 Medium';fill:#ff0a85;fill-opacity:1;stroke-width:0.26458332px"
         id="path1787" />
    </g>
    <g
       inkscape:transform-center-y="-0.13363476"
       inkscape:transform-center-x="-1.7372519"
       transform="translate(-2.393656,-3.991753)"
       id="g3495" />
  </g>
</svg>
