<?xml version="1.0" encoding="UTF-8" standalone="no"?>
<!-- Created with Inkscape (http://www.inkscape.org/) -->

<svg
   xmlns:dc="http://purl.org/dc/elements/1.1/"
   xmlns:cc="http://creativecommons.org/ns#"
   xmlns:rdf="http://www.w3.org/1999/02/22-rdf-syntax-ns#"
   xmlns:svg="http://www.w3.org/2000/svg"
   xmlns="http://www.w3.org/2000/svg"
   xmlns:xlink="http://www.w3.org/1999/xlink"
   xmlns:sodipodi="http://sodipodi.sourceforge.net/DTD/sodipodi-0.dtd"
   xmlns:inkscape="http://www.inkscape.org/namespaces/inkscape"
   width="50.799999mm"
   height="128.5mm"
   viewBox="0 0 50.799999 128.5"
   version="1.1"
   id="svg1819"
   inkscape:version="0.92.5 (2060ec1f9f, 2020-04-08)"
   sodipodi:docname="SynthFM.svg">
  <defs
     id="defs1813">
    <linearGradient
       gradientTransform="matrix(0,0.26458333,0.26458333,0,-1732.4273,167.24094)"
       y2="6477.3999"
       x2="232.99944"
       y1="6477.3999"
       x1="219.99944"
       gradientUnits="userSpaceOnUse"
       id="linearGradient2059">
      <stop
         id="stop2055"
         style="stop-color:#fff35e;stop-opacity:1"
         offset="0" />
      <stop
         id="stop2057"
         style="stop-color:#e00071;stop-opacity:1"
         offset="1" />
    </linearGradient>
    <linearGradient
       gradientTransform="matrix(0,0.26458333,0.26458333,0,-1732.4273,167.24094)"
       y2="6477.3999"
       x2="232.99944"
       y1="6477.3999"
       x1="219.99944"
       gradientUnits="userSpaceOnUse"
       id="SVGID_1_-5">
      <stop
         id="stop2050"
         style="stop-color:#ABA9A9"
         offset="0" />
      <stop
         id="stop2052"
         style="stop-color:#8F8F8F"
         offset="1" />
    </linearGradient>
    <linearGradient
       id="SVGID_3_"
       gradientUnits="userSpaceOnUse"
       x1="221.13403"
       y1="6477.3999"
       x2="231.86378"
       y2="6477.3999"
       gradientTransform="matrix(0,1,1,0,-6470.8999,-219.99944)">
      <stop
         offset="0.00559"
         style="stop-color:#EBEBEB"
         id="stop17" />
      <stop
         offset="1"
         style="stop-color:#CCCCCC"
         id="stop19" />
    </linearGradient>
    <linearGradient
       id="SVGID_2_"
       gradientUnits="userSpaceOnUse"
       x1="220.68697"
       y1="6477.3999"
       x2="232.31085"
       y2="6477.3999"
       gradientTransform="matrix(0,1,1,0,-6470.8999,-219.99944)">
      <stop
         offset="0.00559"
         style="stop-color:#F5F5F5"
         id="stop10" />
      <stop
         offset="1"
         style="stop-color:#C2C2C2"
         id="stop12" />
    </linearGradient>
    <linearGradient
       id="SVGID_1_-5-3"
       gradientUnits="userSpaceOnUse"
       x1="219.99944"
       y1="6477.3999"
       x2="232.99944"
       y2="6477.3999"
       gradientTransform="matrix(0,0.26458333,0.26458333,0,-1732.4273,167.24094)">
      <stop
         offset="0"
         style="stop-color:#ABA9A9"
         id="stop3" />
      <stop
         offset="1"
         style="stop-color:#8F8F8F"
         id="stop5" />
    </linearGradient>
    <linearGradient
       inkscape:collect="always"
       xlink:href="#SVGID_2_"
       id="linearGradient949"
       gradientUnits="userSpaceOnUse"
       gradientTransform="matrix(0,0.26458333,0.26458333,0,-1732.4273,167.24094)"
       x1="220.68697"
       y1="6477.3999"
       x2="232.31085"
       y2="6477.3999" />
    <linearGradient
       inkscape:collect="always"
       xlink:href="#SVGID_3_"
       id="linearGradient951"
       gradientUnits="userSpaceOnUse"
       gradientTransform="matrix(0,0.26458333,0.26458333,0,-1732.4273,167.24094)"
       x1="221.13403"
       y1="6477.3999"
       x2="231.86378"
       y2="6477.3999" />
    <linearGradient
       inkscape:collect="always"
       xlink:href="#linearGradient2059"
       id="linearGradient2048"
       x1="-141.27127"
       y1="103.00101"
       x2="-141.27127"
       y2="207.90646"
       gradientUnits="userSpaceOnUse"
       gradientTransform="translate(-45.116496,17.639789)" />
    <linearGradient
       inkscape:collect="always"
       xlink:href="#linearGradient2059"
       id="linearGradient901"
       gradientUnits="userSpaceOnUse"
       gradientTransform="matrix(0.20429119,0,0,0.20429119,54.882358,207.55785)"
       x1="-141.27127"
       y1="103.00101"
       x2="-141.27127"
       y2="207.90646" />
  </defs>
  <sodipodi:namedview
     id="base"
     pagecolor="#ffffff"
     bordercolor="#666666"
     borderopacity="1.0"
     inkscape:pageopacity="0.0"
     inkscape:pageshadow="2"
     inkscape:zoom="1.4"
     inkscape:cx="-134.48861"
     inkscape:cy="276.51976"
     inkscape:document-units="mm"
     inkscape:current-layer="layer1"
     showgrid="false"
     inkscape:window-width="2560"
     inkscape:window-height="1349"
     inkscape:window-x="0"
     inkscape:window-y="0"
     inkscape:window-maximized="1" />
  <metadata
     id="metadata1816">
    <rdf:RDF>
      <cc:Work
         rdf:about="">
        <dc:format>image/svg+xml</dc:format>
        <dc:type
           rdf:resource="http://purl.org/dc/dcmitype/StillImage" />
        <dc:title />
      </cc:Work>
    </rdf:RDF>
  </metadata>
  <g
     inkscape:label="Layer 1"
     inkscape:groupmode="layer"
     id="layer1"
     transform="translate(0,-168.5)">
    <rect
       style="color:#000000;clip-rule:nonzero;display:inline;overflow:visible;visibility:visible;opacity:1;isolation:auto;mix-blend-mode:normal;color-interpolation:sRGB;color-interpolation-filters:linearRGB;solid-color:#000000;solid-opacity:1;fill:#fff4e6;fill-opacity:1;fill-rule:nonzero;stroke:none;stroke-width:9.30425453;stroke-linecap:round;stroke-linejoin:miter;stroke-miterlimit:4;stroke-dasharray:none;stroke-dashoffset:0;stroke-opacity:0.75294118;color-rendering:auto;image-rendering:auto;shape-rendering:auto;text-rendering:auto;enable-background:accumulate"
       id="rect819"
       width="50.799999"
       height="128.5"
       x="7.7715612e-16"
       y="168.5" />
    <rect
       style="color:#000000;clip-rule:nonzero;display:inline;overflow:visible;visibility:visible;opacity:1;isolation:auto;mix-blend-mode:normal;color-interpolation:sRGB;color-interpolation-filters:linearRGB;solid-color:#000000;solid-opacity:1;fill:#ff0a85;fill-opacity:1;fill-rule:nonzero;stroke:none;stroke-width:5.29166651;stroke-linecap:round;stroke-linejoin:miter;stroke-miterlimit:4;stroke-dasharray:none;stroke-dashoffset:0;stroke-opacity:0.75294118;color-rendering:auto;image-rendering:auto;shape-rendering:auto;text-rendering:auto;enable-background:accumulate"
       id="rect2364"
       width="10.156241"
       height="9.8889723"
       x="5.0781207"
       y="174.32329" />
    <rect
       style="color:#000000;clip-rule:nonzero;display:inline;overflow:visible;visibility:visible;opacity:1;isolation:auto;mix-blend-mode:normal;color-interpolation:sRGB;color-interpolation-filters:linearRGB;solid-color:#000000;solid-opacity:1;fill:#ff0a85;fill-opacity:1;fill-rule:nonzero;stroke:none;stroke-width:5.29166651;stroke-linecap:round;stroke-linejoin:miter;stroke-miterlimit:4;stroke-dasharray:none;stroke-dashoffset:0;stroke-opacity:0.75294118;color-rendering:auto;image-rendering:auto;shape-rendering:auto;text-rendering:auto;enable-background:accumulate"
       id="rect2366"
       width="7.2162771"
       height="9.8889723"
       x="39.555889"
       y="173.25421" />
    <rect
       style="color:#000000;clip-rule:nonzero;display:inline;overflow:visible;visibility:visible;opacity:1;isolation:auto;mix-blend-mode:normal;color-interpolation:sRGB;color-interpolation-filters:linearRGB;solid-color:#000000;solid-opacity:1;fill:#ff0a85;fill-opacity:1;fill-rule:nonzero;stroke:none;stroke-width:5.29166651;stroke-linecap:round;stroke-linejoin:miter;stroke-miterlimit:4;stroke-dasharray:none;stroke-dashoffset:0;stroke-opacity:0.75294118;color-rendering:auto;image-rendering:auto;shape-rendering:auto;text-rendering:auto;enable-background:accumulate"
       id="rect2368"
       width="6.9490075"
       height="10.423512"
       x="3.4745038"
       y="282.56744" />
    <rect
       style="color:#000000;clip-rule:nonzero;display:inline;overflow:visible;visibility:visible;opacity:1;isolation:auto;mix-blend-mode:normal;color-interpolation:sRGB;color-interpolation-filters:linearRGB;solid-color:#000000;solid-opacity:1;fill:#ff0a85;fill-opacity:1;fill-rule:nonzero;stroke:none;stroke-width:5.29166651;stroke-linecap:round;stroke-linejoin:miter;stroke-miterlimit:4;stroke-dasharray:none;stroke-dashoffset:0;stroke-opacity:0.75294118;color-rendering:auto;image-rendering:auto;shape-rendering:auto;text-rendering:auto;enable-background:accumulate"
       id="rect2370"
       width="6.6817379"
       height="10.958051"
       x="41.159508"
       y="281.76562" />
    <g
       inkscape:label="Layer 1"
       transform="matrix(0.26458333,0,0,0.26458333,-49.471079,154.76076)"
       id="layer1-6">
      <path
         d="m 119.5304,97.09577 v 72.87942 c 0,1.00951 -0.81836,1.82787 -1.82787,1.82787 h -4.84827 c -1.0095,0 -1.82786,-0.81836 -1.82786,-1.82787 V 97.09577 c 0,-1.00951 0.81836,-1.82787 1.82786,-1.82787 h 4.84827 c 1.00951,1e-5 1.82787,0.81837 1.82787,1.82787 z"
         inkscape:connector-curvature="0"
         id="path159840" />
    </g>
    <g
       id="g938"
       transform="matrix(0.26458333,0,0,0.26458333,-25.946288,205.28585)">
      <g
         display="none"
         id="fixed_bg"
         style="display:none">
        <sodipodi:namedview
           units="px"
           showgrid="false"
           pagecolor="#ffffff"
           inkscape:zoom="5.6"
           inkscape:window-y="0"
           inkscape:window-x="1280"
           inkscape:window-width="1274"
           inkscape:window-maximized="0"
           inkscape:window-height="1434"
           inkscape:pageshadow="2"
           inkscape:pageopacity="0.0"
           inkscape:document-units="mm"
           inkscape:cy="41.671628"
           inkscape:cx="45.320924"
           inkscape:current-layer="layer1"
           id="base-7"
           fit-margin-top="0"
           fit-margin-right="0"
           fit-margin-left="0"
           fit-margin-bottom="0"
           borderopacity="1.0"
           bordercolor="#666666" />
        <g
           id="g835"
           display="inline"
           style="display:inline">
          <linearGradient
             gradientTransform="translate(0,-1892)"
             y2="1943.8438"
             x2="25.92185"
             y1="1892"
             x1="25.92185"
             gradientUnits="userSpaceOnUse"
             id="SVGID_1_">
            <stop
               id="stop828"
               style="stop-color:#FFFBFD"
               offset="0" />
            <stop
               id="stop830"
               style="stop-color:#000000"
               offset="1" />
          </linearGradient>
          <circle
             id="circle833"
             r="25.92185"
             cy="25.92185"
             cx="25.92185"
             style="fill:url(#SVGID_1_)" />
        </g>
      </g>
      <g
         display="none"
         id="fixed_fg"
         style="display:none">
        <g
           id="g842"
           display="inline"
           style="display:inline">
          <circle
             id="circle838"
             r="25.92185"
             cy="25.92185"
             cx="25.92185"
             style="fill:none" />
          <rect
             id="rect840"
             height="12.1063"
             width="12.1063"
             y="19.86677"
             x="19.8687"
             style="fill:#f2f2f2" />
        </g>
      </g>
      <g
         id="g893">
        <g
           id="g865"
           style="opacity:0.32000002">
          <g
             id="g847">
            <path
               id="path845"
               d="m 11.08515,38.3207 c 0.24738,-0.20752 0.27881,-0.57025 0.08002,-0.82471 C 11.00746,37.29415 10.86347,37.08181 10.7143,36.87331 10.41981,36.46401 10.1449,36.04152 9.88349,35.60836 9.80964,35.48482 9.7306,35.36501 9.65949,35.23965 9.46253,34.89553 9.28211,34.54238 9.10676,34.18508 9.07923,34.12838 9.05171,34.07168 9.02467,34.01461 8.83998,33.62838 8.66365,33.23861 8.5052,32.83834 8.37654,32.55599 8.06068,32.41 7.76588,32.51736 l -1.6322,0.59406 c 0.8446,2.32324 2.06799,4.46265 3.62463,6.32263 l 1.19794,-1.00519 z"
               inkscape:connector-curvature="0" />
          </g>
          <g
             id="g851">
            <path
               id="path849"
               d="m 28.52081,44.49379 c -0.02716,0.004 -0.05505,0.0054 -0.08228,0.0093 -0.3266,0.04395 -0.65344,0.08417 -0.98517,0.11108 -0.50513,0.04584 -1.01422,0.07739 -1.53156,0.07739 -0.53644,0 -1.06458,-0.03217 -1.58832,-0.08026 -0.31744,-0.02673 -0.62982,-0.06812 -0.94263,-0.11041 -0.07288,-0.01031 -0.14752,-0.01471 -0.22015,-0.02576 -0.32233,-0.04901 -0.62579,0.16193 -0.68237,0.48297 l -0.06561,0.37225 -0.23199,1.31555 c 1.21301,0.2171 2.45569,0.34943 3.73114,0.34943 1.22144,0 2.41113,-0.12622 3.57568,-0.32568 l -0.29828,-1.69177 c -0.05632,-0.31952 -0.35735,-0.53064 -0.67846,-0.48407 z"
               inkscape:connector-curvature="0" />
          </g>
          <g
             id="g855">
            <path
               id="path853"
               d="m 40.67902,13.48854 c -0.24854,0.20856 -0.27899,0.57343 -0.07751,0.82776 0.09833,0.12415 0.18616,0.25641 0.28131,0.38312 0.40479,0.53729 0.78052,1.09564 1.12659,1.67572 0.04053,0.06848 0.08411,0.13477 0.12378,0.20374 0.20905,0.36078 0.40271,0.7301 0.58789,1.10565 0.01593,0.03247 0.03143,0.06519 0.04718,0.09784 0.19458,0.40045 0.38141,0.80432 0.54767,1.22003 0.13245,0.27411 0.44189,0.41498 0.73206,0.30933 l 1.65393,-0.60193 c -0.85345,-2.33936 -2.09375,-4.48956 -3.6687,-6.35761 l -1.0589,0.88855 z"
               inkscape:connector-curvature="0" />
          </g>
          <g
             id="g859">
            <path
               id="path857"
               d="m 7.77503,19.36226 c 0.2934,0.10681 0.60736,-0.03754 0.73724,-0.31744 0.15961,-0.40198 0.33771,-0.79297 0.5238,-1.18073 0.02502,-0.05261 0.05029,-0.10492 0.07581,-0.15723 0.1767,-0.3595 0.35901,-0.71448 0.55762,-1.06049 0.06421,-0.11292 0.13538,-0.22095 0.20184,-0.33234 0.27277,-0.45325 0.56128,-0.89423 0.87024,-1.32141 0.14453,-0.20093 0.28363,-0.40613 0.43616,-0.60089 0.19922,-0.25433 0.16791,-0.61737 -0.07947,-0.82507 l -0.29791,-0.25 -1.0589,-0.88855 C 8.18592,14.29133 6.96503,16.43452 6.12311,18.761 l 1.34857,0.49084 z"
               inkscape:connector-curvature="0" />
          </g>
          <g
             id="g863">
            <path
               id="path861"
               d="m 44.05725,32.56795 c -0.2915,-0.10614 -0.60278,0.03625 -0.73419,0.31268 -0.16504,0.414 -0.3501,0.81635 -0.54315,1.21521 -0.0174,0.03625 -0.03461,0.07245 -0.05225,0.10852 -0.18427,0.37445 -0.37646,0.74298 -0.58447,1.10278 -0.04144,0.07227 -0.08716,0.1416 -0.12952,0.2132 -0.33148,0.55609 -0.69019,1.09204 -1.07568,1.60895 -0.10895,0.14667 -0.21069,0.29889 -0.32391,0.44214 -0.20105,0.25439 -0.17047,0.61884 0.07788,0.82721 l 0.29395,0.24664 -6e-5,6e-5 1.03052,0.86469 c 1.57611,-1.86481 2.81879,-4.01123 3.67499,-6.34735 l -1.27185,-0.46289 z"
               inkscape:connector-curvature="0" />
          </g>
        </g>
        <g
           id="g879"
           style="opacity:0.4">
          <path
             id="path867"
             d="M 22.09488,4.68653 C 22.01602,4.23926 21.58176,3.93427 21.13767,4.02961 18.85563,4.5196 16.66239,5.36359 14.63816,6.5323 12.61387,7.701 10.78635,9.17842 9.22098,10.90974 8.91635,11.24659 8.96335,11.77522 9.31131,12.06715 l 0.43018,0.36096 1.05884,0.88855 c 2.90454,-3.4729 6.98431,-5.91663 11.62622,-6.74884 h 6e-5 l -0.24146,-1.3692 z"
             inkscape:connector-curvature="0" />
          <path
             id="path869"
             d="M 37.04605,6.53229 C 35.02182,5.36359 32.82858,4.51959 30.54654,4.0296 30.10251,3.93426 29.66818,4.23926 29.58933,4.68652 l -0.08613,0.48835 -0.24139,1.3692 c 4.67065,0.79895 8.78009,3.22705 11.71246,6.69666 h 6e-5 l 1.0589,-0.88855 0.33966,-0.28503 c 0.34796,-0.29193 0.39496,-0.82056 0.09033,-1.15741 C 40.89786,9.17841 39.07034,7.701 37.04605,6.53229 Z"
             inkscape:connector-curvature="0" />
          <path
             id="path871"
             d="M 47.16879,19.06147 C 47.02902,18.62794 46.54495,18.4029 46.11691,18.55872 l -0.41498,0.15106 -1.28973,0.46942 c 0.7746,2.1142 1.21887,4.38763 1.21887,6.77014 0,2.37512 -0.44159,4.64178 -1.21161,6.75043 h 6e-5 l 1.27185,0.46289 0.42554,0.15491 c 0.42804,0.15576 0.91211,-0.06921 1.05188,-0.50275 0.71588,-2.22028 1.08124,-4.54047 1.08124,-6.87671 0,-2.33617 -0.36536,-4.65636 -1.08124,-6.87664 z"
             inkscape:connector-curvature="0" />
          <path
             id="path873"
             d="m 6.12314,18.76099 v 6e-5 L 5.56729,18.55872 c -0.42798,-0.15582 -0.91205,0.06921 -1.05188,0.50275 -0.71588,2.22028 -1.08124,4.54047 -1.08124,6.87665 0,2.33624 0.36536,4.65643 1.08124,6.87671 0.13983,0.43353 0.6239,0.65851 1.05188,0.50275 L 6.1337,33.1114 7.40549,32.64851 C 6.64737,30.55427 6.21262,28.30525 6.21262,25.94935 c 0,-2.36328 0.43744,-4.61914 1.20013,-6.71893 z"
             inkscape:connector-curvature="0" />
          <path
             id="path875"
             d="m 42.01639,39.51002 -1.03052,-0.86469 6e-5,-6e-5 h -6e-5 c -2.93231,3.47565 -7.04529,5.90814 -11.72021,6.7088 l 0.23193,1.31555 0.09174,0.52014 c 0.07886,0.44727 0.51318,0.75226 0.95721,0.65692 2.28204,-0.49005 4.47528,-1.33398 6.49951,-2.50269 2.02429,-1.16876 3.85181,-2.64618 5.41718,-4.37744 0.30463,-0.33691 0.25763,-0.86548 -0.09033,-1.15741 z"
             inkscape:connector-curvature="0" />
          <path
             id="path877"
             d="m 10.78873,38.5694 -1.0304,0.86462 v 6e-5 l -0.44702,0.37506 c -0.34796,0.29193 -0.39496,0.8205 -0.09033,1.15741 1.56537,1.73126 3.39288,3.20868 5.41718,4.37744 2.02423,1.1687 4.21747,2.01263 6.49951,2.50269 0.44409,0.09534 0.87836,-0.20966 0.95721,-0.65692 l 0.09589,-0.54388 0.23199,-1.31555 -6e-5,6e-5 C 17.77646,44.49647 13.69308,42.04829 10.78873,38.5694 Z"
             inkscape:connector-curvature="0" />
        </g>
        <path
           id="path881"
           d="M 22.01321,4.4798 C 21.85586,4.1546 21.50644,3.95044 21.13766,4.0296 18.85562,4.51959 16.66238,5.36358 14.63815,6.53229 12.61386,7.70099 10.78634,9.17841 9.22097,10.90973 8.91634,11.24658 8.96334,11.77521 9.3113,12.06714 L 9.74148,12.4281 C 8.18594,14.29132 6.96505,16.43463 6.12313,18.76105 L 5.56728,18.55872 C 5.1393,18.4029 4.65523,18.62793 4.5154,19.06147 c -0.71588,2.22028 -1.08124,4.54047 -1.08124,6.87665 0,2.33624 0.36536,4.65643 1.08124,6.87671 0.13983,0.43353 0.6239,0.65851 1.05188,0.50275 L 6.1337,33.1114 c 0.8446,2.32324 2.06799,4.46265 3.62463,6.32269 l -0.44702,0.37506 c -0.34796,0.29193 -0.39496,0.8205 -0.09033,1.15741 1.56537,1.73126 3.39288,3.20868 5.41718,4.37744 2.02423,1.1687 4.21747,2.01263 6.49951,2.50269 0.44409,0.09534 0.87836,-0.20966 0.95721,-0.65692 l 0.09589,-0.54388 c 1.21301,0.2171 2.45569,0.34943 3.73114,0.34943 1.22144,0 2.41113,-0.12622 3.57568,-0.32568 l 0.09174,0.52014 c 0.07886,0.44727 0.51318,0.75226 0.95721,0.65692 2.28204,-0.49005 4.47528,-1.33398 6.49945,-2.50269 2.02441,-1.16876 3.85181,-2.64618 5.41724,-4.37744 0.30469,-0.33691 0.25757,-0.86548 -0.09033,-1.15741 l -0.35645,-0.29913 c 1.57605,-1.86481 2.81873,-4.01123 3.67493,-6.34735 l 0.42554,0.15491 c 0.4281,0.15576 0.91211,-0.06921 1.05188,-0.50275 0.71582,-2.22028 1.0813,-4.54047 1.0813,-6.87671 0,-2.33618 -0.36548,-4.65637 -1.0813,-6.87665 -0.13977,-0.43353 -0.62378,-0.65857 -1.05188,-0.50275 L 45.702,18.70979 c -0.85352,-2.33936 -2.09375,-4.48956 -3.6687,-6.3576 l 0.3396,-0.28503 C 42.7208,11.77523 42.76792,11.2466 42.46323,10.90975 40.8978,9.17841 39.0704,7.701 37.04599,6.53229 35.02182,5.36359 32.82858,4.51959 30.54654,4.0296 30.17758,3.95038 29.82797,4.15491 29.67075,4.48041 L 29.55962,4.89556 V 4.04154 l 0.62492,-2.15561 c 11.45032,2.01746 20.15186,12.00708 20.15186,24.03589 0,13.48376 -10.93079,24.41455 -24.41449,24.41455 -13.48377,0 -24.41455,-10.93079 -24.41455,-24.41455 0,-11.97473 8.6236,-21.92883 19.99768,-24.00836 l 0.61945,2.12811 10e-6,0.87553 z"
           inkscape:connector-curvature="0"
           style="fill:#333333" />
        <path
           id="path883"
           d="M 25.92182,4e-5 C 11.6056,4e-5 1e-5,11.60563 1e-5,25.92185 c 0,14.31628 11.60559,25.92181 25.92181,25.92181 14.31629,0 25.92188,-11.60553 25.92188,-25.92181 C 51.8437,11.60563 40.23811,4e-5 25.92182,4e-5 Z m 6e-5,50.33636 c -13.48376,0 -24.41455,-10.93079 -24.41455,-24.41455 0,-11.97473 8.6236,-21.92883 19.99768,-24.00836 l -0.05975,-0.3017 c -0.03839,-0.19482 0.01483,-0.39844 0.14587,-0.55762 0.05109,-0.06213 0.11694,-0.10809 0.18451,-0.15076 1.34973,-0.22205 2.73358,-0.3429 4.14618,-0.3429 1.33917,0 2.65356,0.10553 3.93671,0.30554 0.08984,0.04694 0.16986,0.10962 0.23444,0.18811 0.13159,0.15967 0.1842,0.36279 0.14587,0.55762 l -0.05432,0.27417 c 11.4502,2.01746 20.15186,12.00708 20.15186,24.03589 -10e-6,13.48377 -10.93079,24.41456 -24.4145,24.41456 z"
           inkscape:connector-curvature="0"
           style="opacity:0.35" />
        <path
           id="path885"
           d="m 44.41947,32.69976 c 0.77002,-2.10863 1.2116,-4.37528 1.2116,-6.75039 0,-2.38256 -0.44427,-4.65598 -1.21886,-6.77016 l -0.36412,0.13252 C 43.74437,19.42227 43.4139,19.2675 43.29352,18.96755 42.61737,17.2828 41.71126,15.71722 40.60149,14.31628 40.40003,14.06196 40.43046,13.69707 40.679,13.48851 l 0.29531,-0.2478 C 38.04189,9.77113 33.93248,7.34304 29.26179,6.54409 l -0.067,0.37992 C 29.13845,7.24346 28.83747,7.45461 28.51644,7.4081 27.66809,7.28519 26.8043,7.21096 25.92184,7.21096 c -0.93485,0 -1.84994,0.07971 -2.74674,0.21588 -0.32229,0.04894 -0.62567,-0.16206 -0.68226,-0.4831 L 22.42657,6.56783 c -4.64194,0.83221 -8.72169,3.27592 -11.62621,6.7488 l 0.29779,0.24987 c 0.24758,0.20773 0.27885,0.57081 0.07959,0.82526 -1.09229,1.39481 -1.98215,2.95207 -2.64729,4.62457 -0.11972,0.30104 -0.45096,0.45675 -0.7554,0.34595 L 7.41274,19.23042 c -0.7627,2.09978 -1.20014,4.35563 -1.20014,6.71896 0,2.35588 0.43475,4.60489 1.19286,6.69912 l 0.36042,-0.13118 c 0.30473,-0.1109 0.63625,0.0452 0.75569,0.34668 0.66352,1.6749 1.55193,3.23483 2.64358,4.63199 0.19882,0.25446 0.16738,0.61716 -0.08,0.82472 l -0.29641,0.2487 c 2.90434,3.47886 6.98769,5.92703 11.63396,6.76095 l 0.06563,-0.37221 c 0.05661,-0.32108 0.36005,-0.53205 0.68238,-0.48305 0.8982,0.13657 1.81478,0.2164 2.75112,0.2164 0.88399,0 1.74925,-0.07444 2.599,-0.19773 0.32107,-0.04659 0.62213,0.16457 0.67847,0.48408 l 0.06633,0.37618 c 4.67496,-0.80066 8.78791,-3.23314 11.72027,-6.70876 l -0.29388,-0.24658 c -0.24836,-0.20839 -0.27896,-0.57291 -0.07793,-0.82725 1.10907,-1.40324 2.01381,-2.97147 2.6883,-4.6586 0.12009,-0.3004 0.45085,-0.45557 0.75486,-0.34492 z"
           inkscape:connector-curvature="0"
           style="fill:#424242" />
        <rect
           id="rect887"
           height="13.24099"
           width="7.4351201"
           y="4.9171"
           x="22.1245"
           style="fill:#db1255" />
        <path
           id="path889"
           d="M 30.093,1.05418 C 29.96684,0.90086 29.78373,0.8032 29.5775,0.77879 28.34587,0.63426 27.08904,0.56053 25.84209,0.56053 c -1.24756,0 -2.50439,0.07373 -3.73492,0.21826 -0.20673,0.02441 -0.38989,0.12207 -0.51599,0.27539 -0.13104,0.15918 -0.18427,0.36279 -0.14587,0.55762 l 0.6792,2.42969 h 7.43512 L 30.23889,1.6118 C 30.2772,1.41698 30.22459,1.21385 30.093,1.05418 Z"
           inkscape:connector-curvature="0"
           style="opacity:0.57999998;fill:#e3195a" />
        <rect
           id="rect891"
           height="0.87555999"
           width="7.4351201"
           y="4.0415401"
           x="22.1245"
           style="opacity:0.57999998;fill:#eb5e8b" />
      </g>
    </g>
    <circle
       style="fill:url(#SVGID_1_-5-3);stroke-width:0.26458332"
       cx="-18.615328"
       cy="227.1689"
       r="1.7197917"
       id="circle8" />
    <circle
       style="fill:url(#linearGradient949);stroke-width:0.26458332"
       cx="-18.615328"
       cy="227.16876"
       r="1.5377425"
       id="circle15" />
    <circle
       style="fill:url(#linearGradient951);stroke-width:0.26458332"
       cx="-18.615328"
       cy="227.16876"
       r="1.4194552"
       id="circle22" />
    <g
       transform="matrix(0.26458333,0,0,0.26458333,-20.599703,225.18468)"
       id="g26">
      <path
         style="fill:#8c8c8c"
         inkscape:connector-curvature="0"
         d="M 10.96889,6.80997 9.00528,6.57471 C 8.70384,6.5386 8.46626,6.30092 8.43027,5.99947 L 8.19598,4.03719 C 8.18577,3.95166 8.11322,3.88726 8.02708,3.88726 H 6.97294 c -0.08613,0 -0.15867,0.06438 -0.16889,0.1499 L 6.56921,6.00056 C 6.53315,6.30204 6.29544,6.5397 5.99394,6.57569 L 4.03118,6.81003 C 3.94564,6.82024 3.88125,6.89279 3.88125,6.97893 v 1.0542 c 0,0.08613 0.06438,0.15866 0.1499,0.16889 l 1.96299,0.2348 C 6.29557,8.47287 6.5332,8.7105 6.56925,9.01193 l 0.23479,1.96293 c 0.01023,0.08552 0.08277,0.1499 0.16889,0.1499 h 1.0542 c 0.08612,0 0.15865,-0.06436 0.16889,-0.14986 L 8.43123,9.01172 C 8.46734,8.71033 8.70495,8.47277 9.00635,8.43673 l 1.96249,-0.2347 c 0.08552,-0.01023 0.1499,-0.08276 0.1499,-0.16889 V 6.97886 c 10e-6,-0.08611 -0.06435,-0.15864 -0.14985,-0.16889 z"
         id="path24" />
    </g>
    <g
       id="g892">
      <ellipse
         ry="52.234512"
         rx="52.234509"
         cy="173.56017"
         cx="-186.3851"
         id="path2028"
         style="fill:url(#linearGradient2048);fill-opacity:1;fill-rule:evenodd;stroke:#00000c;stroke-width:1;stroke-linecap:butt;stroke-linejoin:miter;stroke-miterlimit:4;stroke-dasharray:none;stroke-opacity:0.90588235" />
      <g
         transform="translate(-54.117364,8.8143121)"
         id="g886">
        <path
           style="color:#000000;clip-rule:nonzero;display:inline;overflow:visible;visibility:visible;opacity:1;isolation:auto;mix-blend-mode:normal;color-interpolation:sRGB;color-interpolation-filters:linearRGB;solid-color:#000000;solid-opacity:1;fill:#ffffff;fill-opacity:1;fill-rule:nonzero;stroke:#000000;stroke-width:3.77952766;stroke-linecap:round;stroke-linejoin:miter;stroke-miterlimit:4;stroke-dasharray:none;stroke-dashoffset:0;stroke-opacity:1;color-rendering:auto;image-rendering:auto;shape-rendering:auto;text-rendering:auto;enable-background:accumulate"
           d="m -530.07424,-9.3867193 c -1.21706,-1.2170617 -1.079,-5.3107967 0.67795,-20.1024447 5.73641,-48.294393 5.8648,-76.759526 0.49254,-109.201686 -2.81434,-16.99533 -6.31679,-30.54498 -12.79114,-49.48407 -1.80178,-5.27067 -3.17233,-9.75074 -3.04566,-9.95569 0.12667,-0.20496 0.96101,-0.50436 1.85409,-0.66534 3.32156,-0.59871 22.13143,7.18215 38.04458,15.73744 26.73599,14.37393 48.63478,30.39198 67.88652,49.65617 16.9839,16.99488 28.66535,33.807468 35.14259,50.579177 2.86366,7.414975 5.30309,17.639981 5.62498,23.577415 l 0.28184,5.198897 -2.53612,2.444503 c -4.25885,4.104982 -12.48625,8.433693 -27.79094,14.621751 -28.11362,11.367004 -66.06767,22.611593 -89.55242,26.531541 -11.39624,1.9022028 -13.30689,2.0442555 -14.28881,1.0623367 z"
           id="path2024"
           inkscape:connector-curvature="0"
           transform="matrix(0.26458333,0,0,0.26458333,0,168.5)" />
        <path
           style="color:#000000;clip-rule:nonzero;display:inline;overflow:visible;visibility:visible;opacity:1;isolation:auto;mix-blend-mode:normal;color-interpolation:sRGB;color-interpolation-filters:linearRGB;solid-color:#000000;solid-opacity:1;fill:#ffffff;fill-opacity:1;fill-rule:nonzero;stroke:#000000;stroke-width:3.77952766;stroke-linecap:round;stroke-linejoin:miter;stroke-miterlimit:4;stroke-dasharray:none;stroke-dashoffset:0;stroke-opacity:1;color-rendering:auto;image-rendering:auto;shape-rendering:auto;text-rendering:auto;enable-background:accumulate"
           d="m -513.73602,170.36638 c -0.97227,-0.11341 -4.04061,-0.45007 -6.81853,-0.74814 -15.65425,-1.67971 -33.77128,-6.39276 -50.25509,-13.07363 -12.42022,-5.03389 -33.62886,-16.2332 -41.84665,-22.0973 -7.80177,-5.56723 -25.82746,-22.89946 -37.10673,-35.679209 -13.50241,-15.298634 -22.33179,-31.231204 -25.43703,-45.900998 -1.19632,-5.651667 -1.18952,-17.189584 0.0137,-23.272596 4.98032,-25.1781984 25.85618,-44.657743 54.57649,-50.926038 19.2498,-4.20133 37.8332,-0.573393 60.65935,11.8422014 10.99476,5.9802687 21.01515,12.7726405 45.20433,30.6419966 50.52966,37.327955 68.90612,46.538657 97.73226,48.985671 27.52149,2.336265 46.89998,-4.41565 54.70011,-19.058796 4.17598,-7.839556 3.7376,-15.913776 -1.29352,-23.824139 -10.71258,-16.843226 -36.7058,-20.9545397 -65.62036,-10.379085 -6.8435,2.502998 -19.00853,8.603919 -25.66695,12.872313 -7.56396,4.848889 -10.44847,6.277027 -11.92751,5.905397 -1.6548,-0.415799 -25.902,-16.422173 -28.95917,-19.116907 -1.29859,-1.144633 12.20778,-11.7957781 24.02181,-18.9436362 16.05205,-9.7120048 32.22697,-16.0082228 48.43213,-18.8526048 8.02121,-1.407907 23.88673,-1.911398 33.17157,-1.052698 28.35246,2.622152 51.01399,15.8879973 60.89768,35.648925 4.34531,8.687786 5.58489,14.592093 5.56699,26.516504 -0.0175,11.698864 -1.65001,19.24633 -6.17229,28.536809 -8.36948,17.194079 -24.25762,28.63384 -47.75454,34.38419 -7.27139,1.7795 -21.17291,2.40134 -38.97883,1.74357 -15.62908,-0.57735 -20.09921,-0.99513 -30.46916,-2.84767 -19.93522,-3.561341 -38.52223,-9.76038 -58.98348,-19.671845 -21.4946,-10.412031 -36.6063,-19.891681 -67.53813,-42.36702 -8.80372,-6.396867 -17.42604,-12.257969 -19.69797,-13.389885 -5.4526,-2.716579 -9.94011,-3.705595 -15.70875,-3.462105 -10.84482,0.45775 -16.6283,6.683037 -16.56606,17.83157 0.10611,19.005717 17.2678,40.381318 55.38509,68.984415 19.87647,14.91524 54.76053,37.142 63.31804,40.34377 11.90207,4.45314 19.52373,1.90874 77.50652,-25.87456 l 16.37739,-7.84746 9.09137,-0.32252 c 11.57496,-0.41062 20.66724,-1.40614 32.78895,-3.59007 5.3006,-0.95499 10.08546,-1.73729 10.63302,-1.73843 0.7608,-0.002 0.22484,0.78615 -2.27285,3.34058 -4.87119,4.98187 -15.16045,13.91344 -21.45115,18.62063 -19.06987,14.26957 -50.70916,28.15123 -78.28682,34.34815 -11.2088,2.5187 -19.40376,3.34214 -35.1028,3.52717 -7.91707,0.0933 -15.19017,0.0769 -16.16244,-0.0365 z"
           id="path2026"
           inkscape:connector-curvature="0"
           transform="matrix(0.26458333,0,0,0.26458333,0,168.5)" />
      </g>
    </g>
    <g
       id="g911"
       transform="matrix(0.36132131,0,0,0.36132131,15.997542,205.02426)">
      <ellipse
         style="fill:url(#linearGradient901);fill-opacity:1;fill-rule:evenodd;stroke:none;stroke-width:0.20429119;stroke-linecap:butt;stroke-linejoin:miter;stroke-miterlimit:4;stroke-dasharray:none;stroke-opacity:0.90588235"
         id="ellipse891"
         cx="26.022427"
         cy="239.41101"
         rx="10.67105"
         ry="10.671051" />
      <g
         style="stroke:none"
         id="g897"
         transform="matrix(0.20429119,0,0,0.20429119,53.04356,205.75489)">
        <path
           transform="matrix(0.26458333,0,0,0.26458333,0,168.5)"
           inkscape:connector-curvature="0"
           id="path893"
           d="m -530.07424,-9.3867193 c -1.21706,-1.2170617 -1.079,-5.3107967 0.67795,-20.1024447 5.73641,-48.294393 5.8648,-76.759526 0.49254,-109.201686 -2.81434,-16.99533 -6.31679,-30.54498 -12.79114,-49.48407 -1.80178,-5.27067 -3.17233,-9.75074 -3.04566,-9.95569 0.12667,-0.20496 0.96101,-0.50436 1.85409,-0.66534 3.32156,-0.59871 22.13143,7.18215 38.04458,15.73744 26.73599,14.37393 48.63478,30.39198 67.88652,49.65617 16.9839,16.99488 28.66535,33.807468 35.14259,50.579177 2.86366,7.414975 5.30309,17.639981 5.62498,23.577415 l 0.28184,5.198897 -2.53612,2.444503 c -4.25885,4.104982 -12.48625,8.433693 -27.79094,14.621751 -28.11362,11.367004 -66.06767,22.611593 -89.55242,26.531541 -11.39624,1.9022028 -13.30689,2.0442555 -14.28881,1.0623367 z"
           style="color:#000000;clip-rule:nonzero;display:inline;overflow:visible;visibility:visible;opacity:1;isolation:auto;mix-blend-mode:normal;color-interpolation:sRGB;color-interpolation-filters:linearRGB;solid-color:#000000;solid-opacity:1;fill:#ffffff;fill-opacity:1;fill-rule:nonzero;stroke:none;stroke-width:3.77952766;stroke-linecap:round;stroke-linejoin:miter;stroke-miterlimit:4;stroke-dasharray:none;stroke-dashoffset:0;stroke-opacity:1;color-rendering:auto;image-rendering:auto;shape-rendering:auto;text-rendering:auto;enable-background:accumulate" />
        <path
           transform="matrix(0.26458333,0,0,0.26458333,0,168.5)"
           inkscape:connector-curvature="0"
           id="path895"
           d="m -513.73602,170.36638 c -0.97227,-0.11341 -4.04061,-0.45007 -6.81853,-0.74814 -15.65425,-1.67971 -33.77128,-6.39276 -50.25509,-13.07363 -12.42022,-5.03389 -33.62886,-16.2332 -41.84665,-22.0973 -7.80177,-5.56723 -25.82746,-22.89946 -37.10673,-35.679209 -13.50241,-15.298634 -22.33179,-31.231204 -25.43703,-45.900998 -1.19632,-5.651667 -1.18952,-17.189584 0.0137,-23.272596 4.98032,-25.1781984 25.85618,-44.657743 54.57649,-50.926038 19.2498,-4.20133 37.8332,-0.573393 60.65935,11.8422014 10.99476,5.9802687 21.01515,12.7726405 45.20433,30.6419966 50.52966,37.327955 68.90612,46.538657 97.73226,48.985671 27.52149,2.336265 46.89998,-4.41565 54.70011,-19.058796 4.17598,-7.839556 3.7376,-15.913776 -1.29352,-23.824139 -10.71258,-16.843226 -36.7058,-20.9545397 -65.62036,-10.379085 -6.8435,2.502998 -19.00853,8.603919 -25.66695,12.872313 -7.56396,4.848889 -10.44847,6.277027 -11.92751,5.905397 -1.6548,-0.415799 -25.902,-16.422173 -28.95917,-19.116907 -1.29859,-1.144633 12.20778,-11.7957781 24.02181,-18.9436362 16.05205,-9.7120048 32.22697,-16.0082228 48.43213,-18.8526048 8.02121,-1.407907 23.88673,-1.911398 33.17157,-1.052698 28.35246,2.622152 51.01399,15.8879973 60.89768,35.648925 4.34531,8.687786 5.58489,14.592093 5.56699,26.516504 -0.0175,11.698864 -1.65001,19.24633 -6.17229,28.536809 -8.36948,17.194079 -24.25762,28.63384 -47.75454,34.38419 -7.27139,1.7795 -21.17291,2.40134 -38.97883,1.74357 -15.62908,-0.57735 -20.09921,-0.99513 -30.46916,-2.84767 -19.93522,-3.561341 -38.52223,-9.76038 -58.98348,-19.671845 -21.4946,-10.412031 -36.6063,-19.891681 -67.53813,-42.36702 -8.80372,-6.396867 -17.42604,-12.257969 -19.69797,-13.389885 -5.4526,-2.716579 -9.94011,-3.705595 -15.70875,-3.462105 -10.84482,0.45775 -16.6283,6.683037 -16.56606,17.83157 0.10611,19.005717 17.2678,40.381318 55.38509,68.984415 19.87647,14.91524 54.76053,37.142 63.31804,40.34377 11.90207,4.45314 19.52373,1.90874 77.50652,-25.87456 l 16.37739,-7.84746 9.09137,-0.32252 c 11.57496,-0.41062 20.66724,-1.40614 32.78895,-3.59007 5.3006,-0.95499 10.08546,-1.73729 10.63302,-1.73843 0.7608,-0.002 0.22484,0.78615 -2.27285,3.34058 -4.87119,4.98187 -15.16045,13.91344 -21.45115,18.62063 -19.06987,14.26957 -50.70916,28.15123 -78.28682,34.34815 -11.2088,2.5187 -19.40376,3.34214 -35.1028,3.52717 -7.91707,0.0933 -15.19017,0.0769 -16.16244,-0.0365 z"
           style="color:#000000;clip-rule:nonzero;display:inline;overflow:visible;visibility:visible;opacity:1;isolation:auto;mix-blend-mode:normal;color-interpolation:sRGB;color-interpolation-filters:linearRGB;solid-color:#000000;solid-opacity:1;fill:#ffffff;fill-opacity:1;fill-rule:nonzero;stroke:none;stroke-width:3.77952766;stroke-linecap:round;stroke-linejoin:miter;stroke-miterlimit:4;stroke-dasharray:none;stroke-dashoffset:0;stroke-opacity:1;color-rendering:auto;image-rendering:auto;shape-rendering:auto;text-rendering:auto;enable-background:accumulate" />
      </g>
    </g>
  </g>
</svg>
