<?xml version="1.0" encoding="UTF-8" standalone="no"?>
<!-- Created with Inkscape (http://www.inkscape.org/) -->

<svg
   xmlns:dc="http://purl.org/dc/elements/1.1/"
   xmlns:cc="http://creativecommons.org/ns#"
   xmlns:rdf="http://www.w3.org/1999/02/22-rdf-syntax-ns#"
   xmlns:svg="http://www.w3.org/2000/svg"
   xmlns="http://www.w3.org/2000/svg"
   xmlns:xlink="http://www.w3.org/1999/xlink"
   xmlns:sodipodi="http://sodipodi.sourceforge.net/DTD/sodipodi-0.dtd"
   xmlns:inkscape="http://www.inkscape.org/namespaces/inkscape"
   width="10.16mm"
   height="128.5mm"
   viewBox="0 0 10.16 128.5"
   version="1.1"
   id="svg1819"
   inkscape:version="0.92.5 (2060ec1f9f, 2020-04-08)"
   sodipodi:docname="SynthDrummer.svg">
  <defs
     id="defs1813">
    <linearGradient
       gradientTransform="matrix(0,0.26458333,0.26458333,0,-1732.4273,167.24094)"
       y2="6477.3999"
       x2="232.99944"
       y1="6477.3999"
       x1="219.99944"
       gradientUnits="userSpaceOnUse"
       id="linearGradient2059">
      <stop
         id="stop2055"
         style="stop-color:#fff35e;stop-opacity:1"
         offset="0" />
      <stop
         id="stop2057"
         style="stop-color:#e00071;stop-opacity:1"
         offset="1" />
    </linearGradient>
    <linearGradient
       gradientTransform="matrix(0,0.26458333,0.26458333,0,-1732.4273,167.24094)"
       y2="6477.3999"
       x2="232.99944"
       y1="6477.3999"
       x1="219.99944"
       gradientUnits="userSpaceOnUse"
       id="SVGID_1_-5">
      <stop
         id="stop2050"
         style="stop-color:#ABA9A9"
         offset="0" />
      <stop
         id="stop2052"
         style="stop-color:#8F8F8F"
         offset="1" />
    </linearGradient>
    <linearGradient
       id="SVGID_3_"
       gradientUnits="userSpaceOnUse"
       x1="221.13403"
       y1="6477.3999"
       x2="231.86378"
       y2="6477.3999"
       gradientTransform="matrix(0,1,1,0,-6470.8999,-219.99944)">
      <stop
         offset="0.00559"
         style="stop-color:#EBEBEB"
         id="stop17" />
      <stop
         offset="1"
         style="stop-color:#CCCCCC"
         id="stop19" />
    </linearGradient>
    <linearGradient
       id="SVGID_2_"
       gradientUnits="userSpaceOnUse"
       x1="220.68697"
       y1="6477.3999"
       x2="232.31085"
       y2="6477.3999"
       gradientTransform="matrix(0,1,1,0,-6470.8999,-219.99944)">
      <stop
         offset="0.00559"
         style="stop-color:#F5F5F5"
         id="stop10" />
      <stop
         offset="1"
         style="stop-color:#C2C2C2"
         id="stop12" />
    </linearGradient>
    <linearGradient
       id="SVGID_1_-5-3"
       gradientUnits="userSpaceOnUse"
       x1="219.99944"
       y1="6477.3999"
       x2="232.99944"
       y2="6477.3999"
       gradientTransform="matrix(0,0.26458333,0.26458333,0,-1732.4273,167.24094)">
      <stop
         offset="0"
         style="stop-color:#ABA9A9"
         id="stop3" />
      <stop
         offset="1"
         style="stop-color:#8F8F8F"
         id="stop5" />
    </linearGradient>
    <linearGradient
       inkscape:collect="always"
       xlink:href="#linearGradient2059"
       id="linearGradient7537"
       gradientUnits="userSpaceOnUse"
       gradientTransform="matrix(0.20429119,0,0,0.20429119,54.882358,207.55785)"
       x1="-141.27127"
       y1="103.00101"
       x2="-141.27127"
       y2="207.90646" />
    <linearGradient
       id="SVGID_1_"
       gradientUnits="userSpaceOnUse"
       x1="-2317.6343"
       y1="-3827.8528"
       x2="-2301.4397"
       y2="-3827.8528"
       gradientTransform="rotate(90,-3068.6949,-750.23011)">
      <stop
         offset="0"
         style="stop-color:#FFFBFD"
         id="stop4" />
      <stop
         offset="1"
         style="stop-color:#000000"
         id="stop6" />
    </linearGradient>
    <linearGradient
       id="SVGID_2_-67"
       gradientUnits="userSpaceOnUse"
       x1="183.81821"
       y1="5065.8359"
       x2="200.01283"
       y2="5065.8359"
       gradientTransform="matrix(0,0.26458333,0.26458333,0,-1360.3685,184.61228)">
      <stop
         offset="0"
         style="stop-color:#FFFBFD"
         id="stop11" />
      <stop
         offset="1"
         style="stop-color:#2E2E2E"
         id="stop13" />
    </linearGradient>
    <linearGradient
       id="SVGID_1_-7"
       gradientUnits="userSpaceOnUse"
       x1="11.33881"
       y1="-0.0090399999"
       x2="11.33881"
       y2="22.666759">
      <stop
         offset="0"
         style="stop-color:#B0ACAE"
         id="stop3-0" />
      <stop
         offset="1"
         style="stop-color:#000000"
         id="stop5-9" />
    </linearGradient>
    <linearGradient
       id="SVGID_2_-3"
       gradientUnits="userSpaceOnUse"
       x1="4.5368199"
       y1="-4120.5469"
       x2="22.556919"
       y2="-4120.5469"
       gradientTransform="rotate(90,-2053.495,-2055.713)">
      <stop
         offset="0"
         style="stop-color:#232223"
         id="stop14" />
      <stop
         offset="1"
         style="stop-color:#1F1E1F"
         id="stop16" />
    </linearGradient>
    <linearGradient
       inkscape:collect="always"
       xlink:href="#SVGID_1_-5-3"
       id="linearGradient2648"
       gradientUnits="userSpaceOnUse"
       gradientTransform="matrix(0,0.26458333,0.26458333,0,-1709.9767,112.85159)"
       x1="219.99944"
       y1="6477.3999"
       x2="232.99944"
       y2="6477.3999" />
    <linearGradient
       inkscape:collect="always"
       xlink:href="#SVGID_2_"
       id="linearGradient2650"
       gradientUnits="userSpaceOnUse"
       gradientTransform="matrix(0,0.26458333,0.26458333,0,-1709.9767,112.85159)"
       x1="220.68697"
       y1="6477.3999"
       x2="232.31085"
       y2="6477.3999" />
    <linearGradient
       inkscape:collect="always"
       xlink:href="#SVGID_3_"
       id="linearGradient2652"
       gradientUnits="userSpaceOnUse"
       gradientTransform="matrix(0,0.26458333,0.26458333,0,-1709.9767,112.85159)"
       x1="221.13403"
       y1="6477.3999"
       x2="231.86378"
       y2="6477.3999" />
    <linearGradient
       inkscape:collect="always"
       xlink:href="#SVGID_1_-5-3"
       id="linearGradient2998"
       gradientUnits="userSpaceOnUse"
       gradientTransform="matrix(0,0.26458333,0.26458333,0,-1709.9767,112.85159)"
       x1="219.99944"
       y1="6477.3999"
       x2="232.99944"
       y2="6477.3999" />
    <linearGradient
       inkscape:collect="always"
       xlink:href="#SVGID_2_"
       id="linearGradient3000"
       gradientUnits="userSpaceOnUse"
       gradientTransform="matrix(0,0.26458333,0.26458333,0,-1709.9767,112.85159)"
       x1="220.68697"
       y1="6477.3999"
       x2="232.31085"
       y2="6477.3999" />
    <linearGradient
       inkscape:collect="always"
       xlink:href="#SVGID_3_"
       id="linearGradient3002"
       gradientUnits="userSpaceOnUse"
       gradientTransform="matrix(0,0.26458333,0.26458333,0,-1709.9767,112.85159)"
       x1="221.13403"
       y1="6477.3999"
       x2="231.86378"
       y2="6477.3999" />
  </defs>
  <sodipodi:namedview
     id="base"
     pagecolor="#ffffff"
     bordercolor="#666666"
     borderopacity="1.0"
     inkscape:pageopacity="0.0"
     inkscape:pageshadow="2"
     inkscape:zoom="2.8"
     inkscape:cx="4.9377673"
     inkscape:cy="217.87054"
     inkscape:document-units="mm"
     inkscape:current-layer="layer1"
     showgrid="false"
     inkscape:window-width="2560"
     inkscape:window-height="1349"
     inkscape:window-x="0"
     inkscape:window-y="0"
     inkscape:window-maximized="1" />
  <metadata
     id="metadata1816">
    <rdf:RDF>
      <cc:Work
         rdf:about="">
        <dc:format>image/svg+xml</dc:format>
        <dc:type
           rdf:resource="http://purl.org/dc/dcmitype/StillImage" />
        <dc:title />
      </cc:Work>
    </rdf:RDF>
  </metadata>
  <g
     inkscape:label="Layer 1"
     inkscape:groupmode="layer"
     id="layer1"
     transform="translate(0,-168.5)">
    <text
       xml:space="preserve"
       style="font-style:normal;font-variant:normal;font-weight:normal;font-stretch:normal;font-size:3.96875px;line-height:100%;font-family:Dingbats;-inkscape-font-specification:'Dingbats, Normal';text-align:start;letter-spacing:0px;word-spacing:0px;writing-mode:lr-tb;text-anchor:start;fill:#000000;fill-opacity:1;stroke:none;stroke-width:0.26458332px;stroke-linecap:butt;stroke-linejoin:miter;stroke-opacity:1"
       x="42.664062"
       y="224.99554"
       id="text2122"><tspan
         sodipodi:role="line"
         id="tspan2120"
         x="42.664062"
         y="228.37434"
         style="stroke-width:0.26458332px" /></text>
    <rect
       y="168.5"
       x="0"
       height="128.5"
       width="10.16"
       id="rect1889"
       style="color:#000000;clip-rule:nonzero;display:inline;overflow:visible;visibility:visible;opacity:1;isolation:auto;mix-blend-mode:normal;color-interpolation:sRGB;color-interpolation-filters:linearRGB;solid-color:#000000;solid-opacity:1;fill:#fff4e6;fill-opacity:1;fill-rule:nonzero;stroke:none;stroke-width:4.16098881;stroke-linecap:round;stroke-linejoin:miter;stroke-miterlimit:4;stroke-dasharray:none;stroke-dashoffset:0;stroke-opacity:0.75294118;color-rendering:auto;image-rendering:auto;shape-rendering:auto;text-rendering:auto;enable-background:accumulate" />
    <g
       id="g6333"
       transform="matrix(0.36132131,0,0,0.36132131,-4.322457,197.89481)">
      <ellipse
         style="fill:url(#linearGradient7537);fill-opacity:1;fill-rule:evenodd;stroke:none;stroke-width:0.20429119;stroke-linecap:butt;stroke-linejoin:miter;stroke-miterlimit:4;stroke-dasharray:none;stroke-opacity:0.90588235"
         id="ellipse6325"
         cx="26.022427"
         cy="239.41101"
         rx="10.67105"
         ry="10.671051" />
      <g
         style="stroke:none"
         id="g6331"
         transform="matrix(0.20429119,0,0,0.20429119,53.04356,205.75489)">
        <path
           transform="matrix(0.26458333,0,0,0.26458333,0,168.5)"
           inkscape:connector-curvature="0"
           id="path6327"
           d="m -530.07424,-9.3867193 c -1.21706,-1.2170617 -1.079,-5.3107967 0.67795,-20.1024447 5.73641,-48.294393 5.8648,-76.759526 0.49254,-109.201686 -2.81434,-16.99533 -6.31679,-30.54498 -12.79114,-49.48407 -1.80178,-5.27067 -3.17233,-9.75074 -3.04566,-9.95569 0.12667,-0.20496 0.96101,-0.50436 1.85409,-0.66534 3.32156,-0.59871 22.13143,7.18215 38.04458,15.73744 26.73599,14.37393 48.63478,30.39198 67.88652,49.65617 16.9839,16.99488 28.66535,33.807468 35.14259,50.579177 2.86366,7.414975 5.30309,17.639981 5.62498,23.577415 l 0.28184,5.198897 -2.53612,2.444503 c -4.25885,4.104982 -12.48625,8.433693 -27.79094,14.621751 -28.11362,11.367004 -66.06767,22.611593 -89.55242,26.531541 -11.39624,1.9022028 -13.30689,2.0442555 -14.28881,1.0623367 z"
           style="color:#000000;clip-rule:nonzero;display:inline;overflow:visible;visibility:visible;opacity:1;isolation:auto;mix-blend-mode:normal;color-interpolation:sRGB;color-interpolation-filters:linearRGB;solid-color:#000000;solid-opacity:1;fill:#ffffff;fill-opacity:1;fill-rule:nonzero;stroke:none;stroke-width:3.77952766;stroke-linecap:round;stroke-linejoin:miter;stroke-miterlimit:4;stroke-dasharray:none;stroke-dashoffset:0;stroke-opacity:1;color-rendering:auto;image-rendering:auto;shape-rendering:auto;text-rendering:auto;enable-background:accumulate" />
        <path
           transform="matrix(0.26458333,0,0,0.26458333,0,168.5)"
           inkscape:connector-curvature="0"
           id="path6329"
           d="m -513.73602,170.36638 c -0.97227,-0.11341 -4.04061,-0.45007 -6.81853,-0.74814 -15.65425,-1.67971 -33.77128,-6.39276 -50.25509,-13.07363 -12.42022,-5.03389 -33.62886,-16.2332 -41.84665,-22.0973 -7.80177,-5.56723 -25.82746,-22.89946 -37.10673,-35.679209 -13.50241,-15.298634 -22.33179,-31.231204 -25.43703,-45.900998 -1.19632,-5.651667 -1.18952,-17.189584 0.0137,-23.272596 4.98032,-25.1781984 25.85618,-44.657743 54.57649,-50.926038 19.2498,-4.20133 37.8332,-0.573393 60.65935,11.8422014 10.99476,5.9802687 21.01515,12.7726405 45.20433,30.6419966 50.52966,37.327955 68.90612,46.538657 97.73226,48.985671 27.52149,2.336265 46.89998,-4.41565 54.70011,-19.058796 4.17598,-7.839556 3.7376,-15.913776 -1.29352,-23.824139 -10.71258,-16.843226 -36.7058,-20.9545397 -65.62036,-10.379085 -6.8435,2.502998 -19.00853,8.603919 -25.66695,12.872313 -7.56396,4.848889 -10.44847,6.277027 -11.92751,5.905397 -1.6548,-0.415799 -25.902,-16.422173 -28.95917,-19.116907 -1.29859,-1.144633 12.20778,-11.7957781 24.02181,-18.9436362 16.05205,-9.7120048 32.22697,-16.0082228 48.43213,-18.8526048 8.02121,-1.407907 23.88673,-1.911398 33.17157,-1.052698 28.35246,2.622152 51.01399,15.8879973 60.89768,35.648925 4.34531,8.687786 5.58489,14.592093 5.56699,26.516504 -0.0175,11.698864 -1.65001,19.24633 -6.17229,28.536809 -8.36948,17.194079 -24.25762,28.63384 -47.75454,34.38419 -7.27139,1.7795 -21.17291,2.40134 -38.97883,1.74357 -15.62908,-0.57735 -20.09921,-0.99513 -30.46916,-2.84767 -19.93522,-3.561341 -38.52223,-9.76038 -58.98348,-19.671845 -21.4946,-10.412031 -36.6063,-19.891681 -67.53813,-42.36702 -8.80372,-6.396867 -17.42604,-12.257969 -19.69797,-13.389885 -5.4526,-2.716579 -9.94011,-3.705595 -15.70875,-3.462105 -10.84482,0.45775 -16.6283,6.683037 -16.56606,17.83157 0.10611,19.005717 17.2678,40.381318 55.38509,68.984415 19.87647,14.91524 54.76053,37.142 63.31804,40.34377 11.90207,4.45314 19.52373,1.90874 77.50652,-25.87456 l 16.37739,-7.84746 9.09137,-0.32252 c 11.57496,-0.41062 20.66724,-1.40614 32.78895,-3.59007 5.3006,-0.95499 10.08546,-1.73729 10.63302,-1.73843 0.7608,-0.002 0.22484,0.78615 -2.27285,3.34058 -4.87119,4.98187 -15.16045,13.91344 -21.45115,18.62063 -19.06987,14.26957 -50.70916,28.15123 -78.28682,34.34815 -11.2088,2.5187 -19.40376,3.34214 -35.1028,3.52717 -7.91707,0.0933 -15.19017,0.0769 -16.16244,-0.0365 z"
           style="color:#000000;clip-rule:nonzero;display:inline;overflow:visible;visibility:visible;opacity:1;isolation:auto;mix-blend-mode:normal;color-interpolation:sRGB;color-interpolation-filters:linearRGB;solid-color:#000000;solid-opacity:1;fill:#ffffff;fill-opacity:1;fill-rule:nonzero;stroke:none;stroke-width:3.77952766;stroke-linecap:round;stroke-linejoin:miter;stroke-miterlimit:4;stroke-dasharray:none;stroke-dashoffset:0;stroke-opacity:1;color-rendering:auto;image-rendering:auto;shape-rendering:auto;text-rendering:auto;enable-background:accumulate" />
      </g>
    </g>
    <g
       aria-label="V/OCT"
       style="font-style:normal;font-variant:normal;font-weight:normal;font-stretch:normal;font-size:3.96875px;line-height:100%;font-family:'Baloo Bhaina 2';-inkscape-font-specification:'Baloo Bhaina 2, ';text-align:start;letter-spacing:0px;word-spacing:0px;writing-mode:lr-tb;text-anchor:start;fill:#ff0a85;fill-opacity:1;stroke:none;stroke-width:0.26458332px;stroke-linecap:butt;stroke-linejoin:miter;stroke-opacity:1"
       id="text1963">
      <path
         d="m 1.6174989,220.74264 q -0.028222,0.0212 -0.091722,0.0388 -0.0635,0.0212 -0.1411111,0.0212 -0.088194,0 -0.1552222,-0.0247 -0.067028,-0.0247 -0.091722,-0.0741 -0.045861,-0.0882 -0.1058334,-0.22931 -0.0599722,-0.14111 -0.12699997,-0.31397 -0.0670278,-0.17286 -0.13758333,-0.36336 -0.0670278,-0.19403 -0.13405555,-0.38453 -0.0670278,-0.1905 -0.12347222,-0.37042 -0.0564444,-0.17991 -0.0987778,-0.32808 0.0282222,-0.0353 0.0846667,-0.0635 0.0564444,-0.0317 0.12347222,-0.0317 0.0846667,0 0.13052777,0.0388 0.0458611,0.0388 0.0740833,0.127 0.13758333,0.43039 0.26811106,0.82902 0.1340556,0.39864 0.2892778,0.81492 h 0.017639 q 0.067028,-0.1905 0.1411111,-0.40569 0.074083,-0.21873 0.1446389,-0.4445 0.074083,-0.22931 0.1411111,-0.46214 0.067028,-0.23284 0.1234722,-0.45861 0.070556,-0.0388 0.1693334,-0.0388 0.081139,0 0.1340555,0.0423 0.056444,0.0388 0.056444,0.11995 0,0.06 -0.038806,0.20814 -0.038806,0.14464 -0.1023056,0.33866 -0.0635,0.1905 -0.1411111,0.40923 -0.077611,0.21519 -0.1552222,0.41275 -0.074083,0.19755 -0.1446389,0.3563 -0.067028,0.15875 -0.1093611,0.23636 z"
         style="font-style:normal;font-variant:normal;font-weight:500;font-stretch:normal;font-size:3.52777767px;font-family:'Baloo Bhaina 2';-inkscape-font-specification:'Baloo Bhaina 2 Medium';fill:#ff0a85;fill-opacity:1;stroke-width:0.26458332px"
         id="path1497" />
      <path
         d="m 2.668768,221.0037 q -0.028222,0.004 -0.056444,0.004 -0.024694,0.004 -0.052917,0.004 -0.1763889,0 -0.1763889,-0.15875 0,-0.0529 0.014111,-0.10936 0.017639,-0.06 0.03175,-0.10936 l 0.6420556,-2.48708 q 0.056444,-0.0106 0.1128888,-0.0106 0.081139,0 0.127,0.0388 0.049389,0.0388 0.049389,0.11995 0,0.0529 -0.017639,0.10936 -0.014111,0.0564 -0.028222,0.10936 z"
         style="font-style:normal;font-variant:normal;font-weight:500;font-stretch:normal;font-size:3.52777767px;font-family:'Baloo Bhaina 2';-inkscape-font-specification:'Baloo Bhaina 2 Medium';fill:#ff0a85;fill-opacity:1;stroke-width:0.26458332px"
         id="path1499" />
      <path
         d="m 5.674428,219.709 q 0,0.27517 -0.081139,0.48684 -0.077611,0.20814 -0.2187222,0.34925 -0.1411111,0.14111 -0.3316111,0.21519 -0.1905,0.0706 -0.4162778,0.0706 -0.2257778,0 -0.4198055,-0.0706 -0.1905,-0.0741 -0.3316111,-0.21519 -0.1375834,-0.14111 -0.2187223,-0.34925 -0.077611,-0.21167 -0.077611,-0.48684 0,-0.27516 0.081139,-0.4833 0.081139,-0.20814 0.22225,-0.34925 0.1411111,-0.14464 0.3316111,-0.2152 0.1940278,-0.0741 0.41275,-0.0741 0.22225,0 0.41275,0.0741 0.1905,0.0706 0.3316111,0.2152 0.1411111,0.14111 0.22225,0.34925 0.081139,0.20814 0.081139,0.4833 z m -0.3845278,0 q 0,-0.39511 -0.1799167,-0.59972 -0.1799166,-0.20814 -0.4833055,-0.20814 -0.2963333,0 -0.4797778,0.20814 -0.1799166,0.20814 -0.1799166,0.59972 0,0.39512 0.1799166,0.60325 0.1799167,0.20814 0.4797778,0.20814 0.3033889,0 0.4833055,-0.20814 0.1799167,-0.20813 0.1799167,-0.60325 z"
         style="font-style:normal;font-variant:normal;font-weight:500;font-stretch:normal;font-size:3.52777767px;font-family:'Baloo Bhaina 2';-inkscape-font-specification:'Baloo Bhaina 2 Medium';fill:#ff0a85;fill-opacity:1;stroke-width:0.26458332px"
         id="path1501" />
      <path
         d="m 7.7381738,218.89409 q 0,0.06 -0.035278,0.10583 -0.03175,0.0459 -0.077611,0.067 -0.091722,-0.06 -0.2116667,-0.11289 -0.1164167,-0.0529 -0.2963333,-0.0529 -0.1552222,0 -0.28575,0.0529 -0.127,0.0529 -0.22225,0.15522 -0.091722,0.10231 -0.1446389,0.254 -0.052917,0.1517 -0.052917,0.34925 0,0.39864 0.1975555,0.60325 0.1975556,0.20461 0.5221111,0.20461 0.1728611,0 0.2998611,-0.0494 0.127,-0.0494 0.2187222,-0.11288 0.038806,0.0247 0.070556,0.0705 0.035278,0.0459 0.035278,0.10583 0,0.0494 -0.028222,0.0917 -0.024694,0.0423 -0.084667,0.0776 -0.077611,0.0494 -0.2116667,0.0882 -0.1340556,0.0388 -0.3386667,0.0388 -0.2257777,0 -0.4198055,-0.067 -0.1940278,-0.0706 -0.3386667,-0.20814 -0.1446388,-0.14111 -0.2293055,-0.34925 -0.081139,-0.21167 -0.081139,-0.49389 0,-0.27516 0.084667,-0.48683 0.084667,-0.21167 0.2257777,-0.35278 0.1446389,-0.14111 0.3351389,-0.21167 0.1905,-0.0741 0.4056945,-0.0741 0.1516944,0 0.2716388,0.0282 0.1234723,0.0247 0.2081389,0.067 0.088195,0.0423 0.1340556,0.0988 0.049389,0.0564 0.049389,0.11289 z"
         style="font-style:normal;font-variant:normal;font-weight:500;font-stretch:normal;font-size:3.52777767px;font-family:'Baloo Bhaina 2';-inkscape-font-specification:'Baloo Bhaina 2 Medium';fill:#ff0a85;fill-opacity:1;stroke-width:0.26458332px"
         id="path1503" />
      <path
         d="m 9.0787232,218.95053 v 1.82386 q -0.024694,0.0106 -0.074083,0.0176 -0.045861,0.0106 -0.098778,0.0106 -0.1093611,0 -0.1552222,-0.0388 -0.045861,-0.0423 -0.045861,-0.13758 v -1.6757 H 8.0803621 q -0.017639,-0.0247 -0.03175,-0.0635 -0.010583,-0.0388 -0.010583,-0.0882 0,-0.0776 0.035278,-0.11642 0.038805,-0.0423 0.1023055,-0.0423 h 1.5345833 q 0.014111,0.0212 0.024694,0.06 0.014111,0.0388 0.014111,0.0847 0,0.1658 -0.1375834,0.1658 z"
         style="font-style:normal;font-variant:normal;font-weight:500;font-stretch:normal;font-size:3.52777767px;font-family:'Baloo Bhaina 2';-inkscape-font-specification:'Baloo Bhaina 2 Medium';fill:#ff0a85;fill-opacity:1;stroke-width:0.26458332px"
         id="path1505" />
    </g>
    <g
       aria-label="GATE"
       style="font-style:normal;font-variant:normal;font-weight:normal;font-stretch:normal;font-size:3.96875px;line-height:100%;font-family:'Baloo Bhaina 2';-inkscape-font-specification:'Baloo Bhaina 2, ';text-align:start;letter-spacing:0px;word-spacing:0px;writing-mode:lr-tb;text-anchor:start;fill:#ff0a85;fill-opacity:1;stroke:none;stroke-width:0.26458332px;stroke-linecap:butt;stroke-linejoin:miter;stroke-opacity:1"
       id="text2253">
      <path
         d="m 3.1026908,234.16893 q 0,0.0741 -0.038806,0.12347 -0.035278,0.0459 -0.1128888,0.0847 -0.091722,0.0494 -0.254,0.0811 -0.1622778,0.0317 -0.3316111,0.0317 -0.2504723,0 -0.4621389,-0.0635 -0.2081389,-0.067 -0.3598333,-0.20462 -0.1516945,-0.13758 -0.2363611,-0.34925 -0.084667,-0.21166 -0.084667,-0.50094 0,-0.28222 0.088194,-0.49389 0.088195,-0.21167 0.2363611,-0.34925 0.1516945,-0.14111 0.3527778,-0.21167 0.2046111,-0.0706 0.4339167,-0.0706 0.1516944,0 0.2786944,0.0282 0.127,0.0247 0.2187222,0.067 0.091722,0.0423 0.1411111,0.0988 0.049389,0.0529 0.049389,0.11289 0,0.06 -0.03175,0.10583 -0.03175,0.0423 -0.077611,0.067 -0.09525,-0.06 -0.2257778,-0.11289 -0.1305277,-0.0529 -0.3280833,-0.0529 -0.15875,0 -0.2963333,0.0529 -0.1375833,0.0529 -0.2398889,0.15522 -0.098778,0.10231 -0.1552222,0.254 -0.056445,0.15169 -0.056445,0.34925 0,0.20814 0.056445,0.36336 0.059972,0.1517 0.15875,0.25047 0.1023055,0.0988 0.2398889,0.14817 0.1411111,0.0459 0.3033888,0.0459 0.1128889,0 0.2116667,-0.0176 0.098778,-0.0212 0.1516944,-0.0494 v -0.56444 H 2.2454408 q -0.017639,-0.0212 -0.03175,-0.06 -0.010583,-0.0423 -0.010583,-0.0847 0,-0.0811 0.035278,-0.11994 0.038806,-0.0388 0.1023055,-0.0388 h 0.5926667 q 0.074083,0 0.1199444,0.0459 0.049389,0.0423 0.049389,0.12347 z"
         style="font-style:normal;font-variant:normal;font-weight:500;font-stretch:normal;font-size:3.52777767px;font-family:'Baloo Bhaina 2';-inkscape-font-specification:'Baloo Bhaina 2 Medium';fill:#ff0a85;fill-opacity:1;stroke-width:0.26458332px"
         id="path1508" />
      <path
         d="M 4.8489345,233.90434 H 3.9881567 l -0.1728611,0.53975 q -0.03175,0.0141 -0.067028,0.0212 -0.035278,0.007 -0.084667,0.007 -0.088195,0 -0.1446389,-0.0388 -0.056444,-0.0388 -0.056444,-0.11642 0,-0.0388 0.010583,-0.0741 0.010583,-0.0388 0.028222,-0.0847 0.045861,-0.14816 0.127,-0.381 0.084667,-0.23636 0.1763889,-0.49741 0.09525,-0.26106 0.1905,-0.51153 0.09525,-0.254 0.1658055,-0.43392 0.035278,-0.0212 0.1093611,-0.0388 0.074083,-0.0212 0.1516945,-0.0212 0.1023055,0 0.1834444,0.0282 0.081139,0.0282 0.1093611,0.0988 0.077611,0.20108 0.1693334,0.45861 0.091722,0.254 0.1834444,0.52564 0.091722,0.27164 0.1763889,0.5327 0.084667,0.26105 0.1516944,0.47272 -0.03175,0.0353 -0.084667,0.0564 -0.049389,0.0247 -0.1199445,0.0247 -0.09525,0 -0.1375833,-0.0353 -0.042333,-0.0388 -0.070556,-0.127 z m -0.4303889,-1.30175 q -0.035278,0.0953 -0.077611,0.2152 -0.042333,0.11994 -0.088194,0.254 -0.045861,0.13053 -0.091722,0.26811 -0.045861,0.13406 -0.088194,0.26106 h 0.6949722 q -0.045861,-0.14112 -0.09525,-0.28223 -0.045861,-0.14464 -0.091722,-0.27516 -0.042333,-0.13053 -0.081139,-0.24342 -0.038806,-0.11642 -0.0635,-0.19756 z"
         style="font-style:normal;font-variant:normal;font-weight:500;font-stretch:normal;font-size:3.52777767px;font-family:'Baloo Bhaina 2';-inkscape-font-specification:'Baloo Bhaina 2 Medium';fill:#ff0a85;fill-opacity:1;stroke-width:0.26458332px"
         id="path1510" />
      <path
         d="m 6.46112,232.60965 v 1.82386 q -0.024694,0.0106 -0.074083,0.0176 -0.045861,0.0106 -0.098778,0.0106 -0.1093611,0 -0.1552222,-0.0388 -0.045861,-0.0423 -0.045861,-0.13759 v -1.67569 H 5.4627589 q -0.017639,-0.0247 -0.03175,-0.0635 -0.010583,-0.0388 -0.010583,-0.0882 0,-0.0776 0.035278,-0.11642 0.038806,-0.0423 0.1023056,-0.0423 h 1.5345833 q 0.014111,0.0212 0.024694,0.06 0.014111,0.0388 0.014111,0.0847 0,0.16581 -0.1375833,0.16581 z"
         style="font-style:normal;font-variant:normal;font-weight:500;font-stretch:normal;font-size:3.52777767px;font-family:'Baloo Bhaina 2';-inkscape-font-specification:'Baloo Bhaina 2 Medium';fill:#ff0a85;fill-opacity:1;stroke-width:0.26458332px"
         id="path1512" />
      <path
         d="m 7.7099523,234.44409 q -0.091722,0 -0.1481667,-0.0564 -0.056445,-0.0564 -0.056445,-0.14817 v -1.73919 q 0,-0.0917 0.056445,-0.14464 0.056444,-0.0564 0.1481667,-0.0564 h 1.1676944 q 0.017639,0.0212 0.028222,0.06 0.014111,0.0388 0.014111,0.0847 0,0.0776 -0.038806,0.11995 -0.035278,0.0423 -0.098778,0.0423 H 7.8792856 v 0.58561 h 0.8925277 q 0.017639,0.0212 0.028222,0.06 0.014111,0.0388 0.014111,0.0847 0,0.0811 -0.038806,0.11995 -0.035278,0.0388 -0.098778,0.0388 H 7.8792856 v 0.64206 h 1.016 q 0.014111,0.0212 0.028222,0.06 0.014111,0.0388 0.014111,0.0847 0,0.0811 -0.038806,0.12347 -0.035278,0.0388 -0.098778,0.0388 H 7.7099523 Z"
         style="font-style:normal;font-variant:normal;font-weight:500;font-stretch:normal;font-size:3.52777767px;font-family:'Baloo Bhaina 2';-inkscape-font-specification:'Baloo Bhaina 2 Medium';fill:#ff0a85;fill-opacity:1;stroke-width:0.26458332px"
         id="path1514" />
    </g>
    <g
       aria-label="VEL"
       style="font-style:normal;font-variant:normal;font-weight:normal;font-stretch:normal;font-size:3.96875px;line-height:100%;font-family:'Baloo Bhaina 2';-inkscape-font-specification:'Baloo Bhaina 2, ';text-align:start;letter-spacing:0px;word-spacing:0px;writing-mode:lr-tb;text-anchor:start;fill:#ff0a85;fill-opacity:1;stroke:none;stroke-width:0.26458332px;stroke-linecap:butt;stroke-linejoin:miter;stroke-opacity:1"
       id="text2378">
      <path
         d="m 3.4995628,248.16849 q -0.028222,0.0212 -0.091722,0.0388 -0.0635,0.0212 -0.1411111,0.0212 -0.088194,0 -0.1552222,-0.0247 -0.067028,-0.0247 -0.091722,-0.0741 -0.045861,-0.0882 -0.1058333,-0.22931 -0.059972,-0.14111 -0.127,-0.31397 -0.067028,-0.17286 -0.1375834,-0.36336 -0.067028,-0.19403 -0.1340555,-0.38453 -0.067028,-0.1905 -0.1234722,-0.37041 -0.056445,-0.17992 -0.098778,-0.32809 0.028222,-0.0353 0.084667,-0.0635 0.056444,-0.0318 0.1234722,-0.0318 0.084667,0 0.1305277,0.0388 0.045861,0.0388 0.074083,0.127 0.1375833,0.43039 0.2681111,0.82903 0.1340555,0.39864 0.2892778,0.81491 h 0.017639 q 0.067028,-0.1905 0.1411111,-0.40569 0.074083,-0.21872 0.1446389,-0.4445 0.074083,-0.22931 0.1411111,-0.46214 0.067028,-0.23283 0.1234723,-0.45861 0.070555,-0.0388 0.1693333,-0.0388 0.081139,0 0.1340555,0.0423 0.056444,0.0388 0.056444,0.11994 0,0.06 -0.038806,0.20814 -0.038805,0.14464 -0.1023055,0.33867 -0.0635,0.1905 -0.1411111,0.40922 -0.077611,0.21519 -0.1552223,0.41275 -0.074083,0.19755 -0.1446388,0.3563 -0.067028,0.15875 -0.1093611,0.23637 z"
         style="font-style:normal;font-variant:normal;font-weight:500;font-stretch:normal;font-size:3.52777767px;font-family:'Baloo Bhaina 2';-inkscape-font-specification:'Baloo Bhaina 2 Medium';fill:#ff0a85;fill-opacity:1;stroke-width:0.26458332px"
         id="path1517" />
      <path
         d="m 4.7977786,248.21082 q -0.091722,0 -0.1481666,-0.0565 -0.056445,-0.0564 -0.056445,-0.14816 v -1.7392 q 0,-0.0917 0.056445,-0.14464 0.056444,-0.0564 0.1481666,-0.0564 H 5.965473 q 0.017639,0.0212 0.028222,0.06 0.014111,0.0388 0.014111,0.0847 0,0.0776 -0.038806,0.11994 -0.035278,0.0423 -0.098778,0.0423 H 4.967112 v 0.58561 h 0.8925277 q 0.017639,0.0212 0.028222,0.06 0.014111,0.0388 0.014111,0.0847 0,0.0811 -0.038805,0.11994 -0.035278,0.0388 -0.098778,0.0388 H 4.967112 v 0.64205 h 1.0159999 q 0.014111,0.0212 0.028222,0.06 0.014111,0.0388 0.014111,0.0847 0,0.0811 -0.038806,0.12347 -0.035278,0.0388 -0.098778,0.0388 H 4.7977786 Z"
         style="font-style:normal;font-variant:normal;font-weight:500;font-stretch:normal;font-size:3.52777767px;font-family:'Baloo Bhaina 2';-inkscape-font-specification:'Baloo Bhaina 2 Medium';fill:#ff0a85;fill-opacity:1;stroke-width:0.26458332px"
         id="path1519" />
      <path
         d="m 6.6886649,248.21082 q -0.091722,0 -0.1481666,-0.0565 -0.056445,-0.0564 -0.056445,-0.14816 v -1.94028 q 0.028222,-0.007 0.074083,-0.0141 0.049389,-0.0106 0.1023055,-0.0106 0.1023056,0 0.1516945,0.0388 0.052917,0.0388 0.052917,0.13758 v 1.6757 h 0.9560278 q 0.017639,0.0247 0.03175,0.0635 0.014111,0.0388 0.014111,0.0882 0,0.0811 -0.038806,0.12348 -0.038806,0.0423 -0.1023055,0.0423 H 6.6886649 Z"
         style="font-style:normal;font-variant:normal;font-weight:500;font-stretch:normal;font-size:3.52777767px;font-family:'Baloo Bhaina 2';-inkscape-font-specification:'Baloo Bhaina 2 Medium';fill:#ff0a85;fill-opacity:1;stroke-width:0.26458332px"
         id="path1521" />
    </g>
    <rect
       style="color:#000000;clip-rule:nonzero;display:inline;overflow:visible;visibility:visible;opacity:1;isolation:auto;mix-blend-mode:normal;color-interpolation:sRGB;color-interpolation-filters:linearRGB;solid-color:#000000;solid-opacity:1;fill:#ff0a85;fill-opacity:1;fill-rule:nonzero;stroke:none;stroke-width:1.36940348;stroke-linecap:round;stroke-linejoin:miter;stroke-miterlimit:4;stroke-dasharray:none;stroke-dashoffset:0;stroke-opacity:1;color-rendering:auto;image-rendering:auto;shape-rendering:auto;text-rendering:auto;enable-background:accumulate"
       id="rect2431"
       width="9.4720936"
       height="14.965941"
       x="0.34395316"
       y="259.80795"
       ry="2.7412548" />
    <g
       aria-label="OUT"
       style="font-style:normal;font-variant:normal;font-weight:normal;font-stretch:normal;font-size:3.96875px;line-height:100%;font-family:'Baloo Bhaina 2';-inkscape-font-specification:'Baloo Bhaina 2, ';text-align:start;letter-spacing:0px;word-spacing:0px;writing-mode:lr-tb;text-anchor:start;fill:#fff4e6;fill-opacity:1;stroke:none;stroke-width:0.26458332px;stroke-linecap:butt;stroke-linejoin:miter;stroke-opacity:1"
       id="text2505">
      <path
         d="m 3.9916775,262.46619 q 0,0.27517 -0.081139,0.48683 -0.077611,0.20814 -0.2187222,0.34925 -0.1411111,0.14112 -0.3316111,0.2152 -0.1905,0.0705 -0.4162778,0.0705 -0.2257778,0 -0.4198055,-0.0705 -0.1905,-0.0741 -0.3316111,-0.2152 -0.1375834,-0.14111 -0.2187223,-0.34925 -0.077611,-0.21166 -0.077611,-0.48683 0,-0.27517 0.081139,-0.4833 0.081139,-0.20814 0.22225,-0.34925 0.1411111,-0.14464 0.3316111,-0.2152 0.1940278,-0.0741 0.41275,-0.0741 0.22225,0 0.41275,0.0741 0.1905,0.0706 0.3316111,0.2152 0.1411111,0.14111 0.22225,0.34925 0.081139,0.20813 0.081139,0.4833 z m -0.3845278,0 q 0,-0.39511 -0.1799167,-0.59972 -0.1799166,-0.20814 -0.4833055,-0.20814 -0.2963333,0 -0.4797778,0.20814 -0.1799166,0.20814 -0.1799166,0.59972 0,0.39511 0.1799166,0.60325 0.1799167,0.20814 0.4797778,0.20814 0.3033889,0 0.4833055,-0.20814 0.1799167,-0.20814 0.1799167,-0.60325 z"
         style="font-style:normal;font-variant:normal;font-weight:500;font-stretch:normal;font-size:3.52777767px;font-family:'Baloo Bhaina 2';-inkscape-font-specification:'Baloo Bhaina 2 Medium';fill:#fff4e6;fill-opacity:1;stroke-width:0.26458332px"
         id="path1524" />
      <path
         d="m 6.1859513,262.78722 q 0,0.17992 -0.059972,0.32808 -0.056445,0.14817 -0.1693334,0.254 -0.1093611,0.10584 -0.2716389,0.16228 -0.1587499,0.0564 -0.3668888,0.0564 -0.2046111,0 -0.3668889,-0.0564 -0.15875,-0.0564 -0.2716389,-0.16228 -0.1093611,-0.10583 -0.1693333,-0.254 -0.056444,-0.14816 -0.056444,-0.32808 v -1.38995 q 0.024694,-0.007 0.074083,-0.0141 0.049389,-0.0106 0.1023055,-0.0106 0.1023056,0 0.1516945,0.0388 0.049389,0.0388 0.049389,0.13758 v 1.21708 q 0,0.25047 0.1375833,0.381 0.1411111,0.13053 0.34925,0.13053 0.1058333,0 0.1940277,-0.0317 0.088195,-0.0353 0.1552223,-0.0988 0.067028,-0.0635 0.1023055,-0.15875 0.038806,-0.0952 0.038806,-0.22225 v -1.36878 q 0.024694,-0.007 0.074083,-0.0141 0.049389,-0.0106 0.1023055,-0.0106 0.1023056,0 0.1516945,0.0388 0.049389,0.0388 0.049389,0.13758 v 1.23825 z"
         style="font-style:normal;font-variant:normal;font-weight:500;font-stretch:normal;font-size:3.52777767px;font-family:'Baloo Bhaina 2';-inkscape-font-specification:'Baloo Bhaina 2 Medium';fill:#fff4e6;fill-opacity:1;stroke-width:0.26458332px"
         id="path1526" />
      <path
         d="m 7.5935342,261.70772 v 1.82386 q -0.024694,0.0106 -0.074083,0.0176 -0.045861,0.0106 -0.098778,0.0106 -0.1093611,0 -0.1552222,-0.0388 -0.045861,-0.0423 -0.045861,-0.13759 v -1.67569 H 6.5951731 q -0.017639,-0.0247 -0.03175,-0.0635 -0.010583,-0.0388 -0.010583,-0.0882 0,-0.0776 0.035278,-0.11641 0.038805,-0.0423 0.1023055,-0.0423 h 1.5345833 q 0.014111,0.0212 0.024695,0.06 0.014111,0.0388 0.014111,0.0847 0,0.16581 -0.1375834,0.16581 z"
         style="font-style:normal;font-variant:normal;font-weight:500;font-stretch:normal;font-size:3.52777767px;font-family:'Baloo Bhaina 2';-inkscape-font-specification:'Baloo Bhaina 2 Medium';fill:#fff4e6;fill-opacity:1;stroke-width:0.26458332px"
         id="path1528" />
    </g>
    <g
       transform="matrix(1.2501514,0,0,1.2501514,0.285279,77.527906)"
       id="g2646">
      <circle
         id="circle2636"
         r="1.7197917"
         cy="172.77954"
         cx="3.8353124"
         style="fill:url(#linearGradient2648);stroke-width:0.26458332" />
      <circle
         id="circle2638"
         r="1.5377425"
         cy="172.7794"
         cx="3.8353124"
         style="fill:url(#linearGradient2650);stroke-width:0.26458332" />
      <circle
         id="circle2640"
         r="1.4194552"
         cy="172.7794"
         cx="3.8353124"
         style="fill:url(#linearGradient2652);stroke-width:0.26458332" />
      <g
         id="g2644"
         transform="matrix(0.26458333,0,0,0.26458333,1.8509373,170.79533)">
        <path
           id="path2642"
           d="M 10.96889,6.80997 9.00528,6.57471 C 8.70384,6.5386 8.46626,6.30092 8.43027,5.99947 L 8.19598,4.03719 C 8.18577,3.95166 8.11322,3.88726 8.02708,3.88726 H 6.97294 c -0.08613,0 -0.15867,0.06438 -0.16889,0.1499 L 6.56921,6.00056 C 6.53315,6.30204 6.29544,6.5397 5.99394,6.57569 L 4.03118,6.81003 C 3.94564,6.82024 3.88125,6.89279 3.88125,6.97893 v 1.0542 c 0,0.08613 0.06438,0.15866 0.1499,0.16889 l 1.96299,0.2348 C 6.29557,8.47287 6.5332,8.7105 6.56925,9.01193 l 0.23479,1.96293 c 0.01023,0.08552 0.08277,0.1499 0.16889,0.1499 h 1.0542 c 0.08612,0 0.15865,-0.06436 0.16889,-0.14986 L 8.43123,9.01172 C 8.46734,8.71033 8.70495,8.47277 9.00635,8.43673 l 1.96249,-0.2347 c 0.08552,-0.01023 0.1499,-0.08276 0.1499,-0.16889 V 6.97886 c 10e-6,-0.08611 -0.06435,-0.15864 -0.14985,-0.16889 z"
           inkscape:connector-curvature="0"
           style="fill:#8c8c8c" />
      </g>
    </g>
    <g
       id="g2996"
       transform="matrix(1.2501514,0,0,1.2501514,0.285279,-43.651267)">
      <circle
         style="fill:url(#linearGradient2998);stroke-width:0.26458332"
         cx="3.8353124"
         cy="172.77954"
         r="1.7197917"
         id="circle2986" />
      <circle
         style="fill:url(#linearGradient3000);stroke-width:0.26458332"
         cx="3.8353124"
         cy="172.7794"
         r="1.5377425"
         id="circle2988" />
      <circle
         style="fill:url(#linearGradient3002);stroke-width:0.26458332"
         cx="3.8353124"
         cy="172.7794"
         r="1.4194552"
         id="circle2990" />
      <g
         transform="matrix(0.26458333,0,0,0.26458333,1.8509373,170.79533)"
         id="g2994">
        <path
           style="fill:#8c8c8c"
           inkscape:connector-curvature="0"
           d="M 10.96889,6.80997 9.00528,6.57471 C 8.70384,6.5386 8.46626,6.30092 8.43027,5.99947 L 8.19598,4.03719 C 8.18577,3.95166 8.11322,3.88726 8.02708,3.88726 H 6.97294 c -0.08613,0 -0.15867,0.06438 -0.16889,0.1499 L 6.56921,6.00056 C 6.53315,6.30204 6.29544,6.5397 5.99394,6.57569 L 4.03118,6.81003 C 3.94564,6.82024 3.88125,6.89279 3.88125,6.97893 v 1.0542 c 0,0.08613 0.06438,0.15866 0.1499,0.16889 l 1.96299,0.2348 C 6.29557,8.47287 6.5332,8.7105 6.56925,9.01193 l 0.23479,1.96293 c 0.01023,0.08552 0.08277,0.1499 0.16889,0.1499 h 1.0542 c 0.08612,0 0.15865,-0.06436 0.16889,-0.14986 L 8.43123,9.01172 C 8.46734,8.71033 8.70495,8.47277 9.00635,8.43673 l 1.96249,-0.2347 c 0.08552,-0.01023 0.1499,-0.08276 0.1499,-0.16889 V 6.97886 c 10e-6,-0.08611 -0.06435,-0.15864 -0.14985,-0.16889 z"
           id="path2992" />
      </g>
    </g>
    <g
       aria-label="BotaniaDrummer"
       transform="rotate(-90)"
       style="font-style:normal;font-variant:normal;font-weight:normal;font-stretch:normal;font-size:3.96875px;line-height:100%;font-family:'Baloo Bhaina 2';-inkscape-font-specification:'Baloo Bhaina 2, ';text-align:start;letter-spacing:0px;word-spacing:0px;writing-mode:lr-tb;text-anchor:start;fill:#ff0a85;fill-opacity:1;stroke:none;stroke-width:0.26458332px;stroke-linecap:butt;stroke-linejoin:miter;stroke-opacity:1"
       id="text3071">
      <path
         d="m -211.27995,4.5457157 q 0,0.206375 -0.11006,0.3577167 -0.10548,0.1513417 -0.32103,0.2430639 0.26599,0.087136 0.39899,0.2614083 0.133,0.1742722 0.133,0.41275 0,0.4356806 -0.31644,0.6466417 -0.31644,0.2109611 -0.91723,0.2109611 -0.0871,0 -0.18803,-0.00459 -0.0963,-0.00459 -0.1972,-0.018344 -0.10089,-0.00917 -0.20179,-0.032103 -0.10089,-0.018344 -0.18803,-0.045861 -0.22013,-0.073378 -0.22013,-0.2705805 V 4.0641741 q 0,-0.087136 0.0459,-0.1329973 0.0459,-0.045861 0.12841,-0.073378 0.15593,-0.050447 0.3623,-0.068792 0.20638,-0.022931 0.4311,-0.022931 0.55492,0 0.8576,0.1926167 0.30268,0.1880306 0.30268,0.5870222 z m -0.50447,1.2520083 q 0,-0.1834444 -0.133,-0.2889249 -0.12841,-0.1054806 -0.37606,-0.1054806 h -0.53657 V 6.169199 q 0.0871,0.022931 0.20637,0.032103 0.12383,0.00917 0.24307,0.00917 0.27975,0 0.43568,-0.096308 0.16051,-0.1008944 0.16051,-0.3164417 z m -1.04563,-0.8300861 h 0.4632 q 0.24765,0 0.36688,-0.1008944 0.12383,-0.1008944 0.12383,-0.2797528 0,-0.3623027 -0.55951,-0.3623027 -0.11465,0 -0.22013,0.00917 -0.10089,0.00917 -0.17427,0.022931 z"
         style="font-style:normal;font-variant:normal;font-weight:600;font-stretch:normal;font-family:'Baloo Bhaina 2';-inkscape-font-specification:'Baloo Bhaina 2 Semi-Bold'"
         id="path1468" />
      <path
         d="m -208.55121,5.5271435 q 0,0.2659944 -0.0825,0.4815417 -0.078,0.2109611 -0.22472,0.3623027 -0.14676,0.1513417 -0.35313,0.2338917 -0.20638,0.077964 -0.4632,0.077964 -0.25682,0 -0.4632,-0.077964 -0.20637,-0.08255 -0.35313,-0.2293056 -0.14676,-0.1513416 -0.22931,-0.3623027 -0.078,-0.2155473 -0.078,-0.4861278 0,-0.2659944 0.078,-0.4769556 0.0825,-0.2155472 0.22931,-0.3623027 0.15134,-0.1513417 0.35772,-0.2293056 0.20637,-0.08255 0.45861,-0.08255 0.25223,0 0.45861,0.08255 0.20637,0.077964 0.35313,0.2293056 0.15134,0.1513416 0.22931,0.3668889 0.0825,0.2109611 0.0825,0.4723694 z m -1.1236,-0.6925028 q -0.24765,0 -0.38982,0.1834445 -0.14217,0.1788583 -0.14217,0.5090583 0,0.3347861 0.13758,0.5136444 0.14217,0.1788584 0.39441,0.1788584 0.25223,0 0.38982,-0.1788584 0.14217,-0.1834444 0.14217,-0.5136444 0,-0.3302 -0.14217,-0.5090583 -0.14217,-0.1834445 -0.38982,-0.1834445 z"
         style="font-style:normal;font-variant:normal;font-weight:600;font-stretch:normal;font-family:'Baloo Bhaina 2';-inkscape-font-specification:'Baloo Bhaina 2 Semi-Bold'"
         id="path1470" />
      <path
         d="m -207.49641,5.9398935 q 0,0.1467555 0.0871,0.2109611 0.0917,0.064206 0.25223,0.064206 0.078,0 0.15593,-0.018344 0.0825,-0.018344 0.14676,-0.045861 0.0367,0.036689 0.0596,0.091722 0.0275,0.050447 0.0275,0.1192389 0,0.1375833 -0.12382,0.2293056 -0.12383,0.087136 -0.399,0.087136 -0.3623,0 -0.57326,-0.1605139 -0.20637,-0.1651 -0.20637,-0.5411611 v -2.105025 q 0.0367,-0.00917 0.10548,-0.022931 0.0734,-0.013758 0.15592,-0.013758 0.16052,0 0.2339,0.05962 0.078,0.059619 0.078,0.2109611 v 0.3806472 h 0.67416 q 0.0229,0.036689 0.0413,0.096308 0.0183,0.05962 0.0183,0.1284111 0,0.1192389 -0.055,0.1742722 -0.055,0.055033 -0.14675,0.055033 h -0.53199 v 0.9997722 z"
         style="font-style:normal;font-variant:normal;font-weight:600;font-stretch:normal;font-family:'Baloo Bhaina 2';-inkscape-font-specification:'Baloo Bhaina 2 Semi-Bold'"
         id="path1472" />
      <path
         d="m -205.44185,6.2425768 q 0.133,0 0.24307,-0.022931 0.11006,-0.027517 0.16051,-0.064206 V 5.6463824 l -0.44485,0.041275 q -0.18345,0.018344 -0.27976,0.08255 -0.0963,0.059619 -0.0963,0.1926166 0,0.1329973 0.0963,0.206375 0.1009,0.073378 0.32103,0.073378 z m -0.0183,-1.8665472 q 0.44944,0 0.71543,0.1926167 0.27058,0.1926166 0.27058,0.5961944 v 1.0593917 q 0,0.1100666 -0.055,0.1742722 -0.055,0.064206 -0.13759,0.1146528 -0.12841,0.077964 -0.32561,0.123825 -0.1972,0.045861 -0.44944,0.045861 -0.45861,0 -0.7246,-0.1742722 -0.26141,-0.1788584 -0.26141,-0.5319889 0,-0.3072695 0.19261,-0.4677833 0.19721,-0.1651 0.56868,-0.2017889 l 0.6283,-0.064206 v -0.08255 q 0,-0.1742722 -0.12841,-0.2568222 -0.12383,-0.08255 -0.35313,-0.08255 -0.17886,0 -0.34855,0.045861 -0.16968,0.041275 -0.30268,0.1054806 -0.0504,-0.036689 -0.0871,-0.096308 -0.0321,-0.064205 -0.0321,-0.1375833 0,-0.091722 0.0413,-0.1467556 0.0459,-0.059619 0.14217,-0.1054805 0.13299,-0.055033 0.30268,-0.08255 0.16969,-0.027517 0.34396,-0.027517 z"
         style="font-style:normal;font-variant:normal;font-weight:600;font-stretch:normal;font-family:'Baloo Bhaina 2';-inkscape-font-specification:'Baloo Bhaina 2 Semi-Bold'"
         id="path1474" />
      <path
         d="m -202.46546,5.2152879 q 0,-0.1972027 -0.11466,-0.288925 -0.11006,-0.091722 -0.30268,-0.091722 -0.133,0 -0.24765,0.032103 -0.11007,0.032103 -0.19262,0.08255 v 1.6601722 q -0.0413,0.00917 -0.11006,0.022931 -0.0688,0.013758 -0.15593,0.013758 -0.16052,0 -0.23848,-0.059619 -0.078,-0.05962 -0.078,-0.2109612 V 4.9034324 q 0,-0.1100667 0.0459,-0.1788583 0.0459,-0.068792 0.14217,-0.1329973 0.13299,-0.091722 0.35313,-0.1513416 0.22013,-0.064206 0.48613,-0.064206 0.47236,0 0.72919,0.2109611 0.26141,0.206375 0.26141,0.6099528 v 1.4125222 q -0.0367,0.00917 -0.11007,0.022931 -0.0688,0.013758 -0.15134,0.013758 -0.1651,0 -0.24307,-0.059619 -0.0734,-0.05962 -0.0734,-0.2109612 V 5.2152879 Z"
         style="font-style:normal;font-variant:normal;font-weight:600;font-stretch:normal;font-family:'Baloo Bhaina 2';-inkscape-font-specification:'Baloo Bhaina 2 Semi-Bold'"
         id="path1476" />
      <path
         d="m -201.28225,4.4585796 q 0.0367,-0.00917 0.10548,-0.022931 0.0734,-0.013758 0.15593,-0.013758 0.1651,0 0.23847,0.05962 0.078,0.059619 0.078,0.2109611 v 1.9169944 q -0.0367,0.00917 -0.11007,0.022931 -0.0688,0.013758 -0.15134,0.013758 -0.1651,0 -0.24306,-0.059619 -0.0734,-0.05962 -0.0734,-0.2109612 z m -0.0459,-0.6649861 q 0,-0.1329972 0.0917,-0.2247194 0.0963,-0.096308 0.24306,-0.096308 0.14676,0 0.23848,0.096308 0.0917,0.091722 0.0917,0.2247194 0,0.1375833 -0.0917,0.2338917 -0.0917,0.091722 -0.23848,0.091722 -0.14675,0 -0.24306,-0.091722 -0.0917,-0.096308 -0.0917,-0.2338917 z"
         style="font-style:normal;font-variant:normal;font-weight:600;font-stretch:normal;font-family:'Baloo Bhaina 2';-inkscape-font-specification:'Baloo Bhaina 2 Semi-Bold'"
         id="path1478" />
      <path
         d="m -199.24602,6.2425768 q 0.133,0 0.24306,-0.022931 0.11007,-0.027517 0.16052,-0.064206 V 5.6463824 l -0.44486,0.041275 q -0.18344,0.018344 -0.27975,0.08255 -0.0963,0.059619 -0.0963,0.1926166 0,0.1329973 0.0963,0.206375 0.10089,0.073378 0.32103,0.073378 z m -0.0184,-1.8665472 q 0.44944,0 0.71544,0.1926167 0.27058,0.1926166 0.27058,0.5961944 v 1.0593917 q 0,0.1100666 -0.055,0.1742722 -0.055,0.064206 -0.13758,0.1146528 -0.12841,0.077964 -0.32561,0.123825 -0.19721,0.045861 -0.44944,0.045861 -0.45861,0 -0.72461,-0.1742722 -0.26141,-0.1788584 -0.26141,-0.5319889 0,-0.3072695 0.19262,-0.4677833 0.1972,-0.1651 0.56868,-0.2017889 l 0.6283,-0.064206 v -0.08255 q 0,-0.1742722 -0.12842,-0.2568222 -0.12382,-0.08255 -0.35313,-0.08255 -0.17885,0 -0.34854,0.045861 -0.16969,0.041275 -0.30268,0.1054806 -0.0504,-0.036689 -0.0871,-0.096308 -0.0321,-0.064205 -0.0321,-0.1375833 0,-0.091722 0.0413,-0.1467556 0.0459,-0.059619 0.14217,-0.1054805 0.133,-0.055033 0.30269,-0.08255 0.16968,-0.027517 0.34395,-0.027517 z"
         style="font-style:normal;font-variant:normal;font-weight:600;font-stretch:normal;font-family:'Baloo Bhaina 2';-inkscape-font-specification:'Baloo Bhaina 2 Semi-Bold'"
         id="path1480" />
      <path
         d="m -195.93027,5.2336324 q 0,-0.41275 -0.19261,-0.619125 -0.19262,-0.2109611 -0.51365,-0.2109611 -0.0642,0 -0.13299,0.00459 -0.0642,0.00459 -0.133,0.013758 v 1.5959667 q 0.0505,0.00917 0.12382,0.018344 0.0734,0.00459 0.13759,0.00459 0.31644,0 0.51364,-0.2017889 0.1972,-0.2017888 0.1972,-0.6053666 z m 0.8255,-0.013758 q 0,0.3668888 -0.11006,0.6420555 -0.11007,0.2751667 -0.31644,0.4586111 -0.20179,0.1834445 -0.48613,0.2751667 -0.28434,0.091722 -0.6283,0.091722 -0.078,0 -0.17886,-0.00459 -0.10089,-0.00459 -0.21096,-0.018344 -0.10548,-0.013758 -0.21555,-0.036689 -0.10548,-0.018344 -0.1972,-0.055033 -0.25223,-0.096308 -0.25223,-0.3347861 V 4.0962768 q 0,-0.096308 0.0504,-0.1467555 0.055,-0.055033 0.14676,-0.087136 0.1972,-0.064206 0.41733,-0.08255 0.22014,-0.022931 0.39441,-0.022931 0.35772,0 0.64664,0.087136 0.29351,0.087136 0.49989,0.2705806 0.21096,0.1788583 0.32561,0.454025 0.11465,0.2751666 0.11465,0.6512278 z"
         style="font-style:normal;font-variant:normal;font-weight:800;font-stretch:normal;font-family:'Baloo Bhaina 2';-inkscape-font-specification:'Baloo Bhaina 2 Ultra-Bold'"
         id="path1482" />
      <path
         d="m -193.92614,6.6094657 q -0.0504,0.013758 -0.14676,0.027517 -0.0917,0.013758 -0.20179,0.013758 -0.2293,0 -0.3302,-0.073378 -0.10089,-0.077964 -0.10089,-0.2935111 v -1.362075 q 0,-0.1329972 0.0688,-0.2293055 0.0688,-0.1008945 0.18803,-0.1742722 0.16051,-0.096308 0.37148,-0.1467556 0.21554,-0.050447 0.44943,-0.050447 0.49989,0 0.49989,0.3531305 0,0.08255 -0.0229,0.1559278 -0.0229,0.068792 -0.055,0.1192389 -0.0871,-0.018344 -0.25224,-0.018344 -0.11924,0 -0.24765,0.027517 -0.12382,0.027517 -0.22013,0.08255 z"
         style="font-style:normal;font-variant:normal;font-weight:800;font-stretch:normal;font-family:'Baloo Bhaina 2';-inkscape-font-specification:'Baloo Bhaina 2 Ultra-Bold'"
         id="path1484" />
      <path
         d="m -192.82089,4.3943741 q 0.0504,-0.013758 0.14217,-0.027517 0.0963,-0.013758 0.20637,-0.013758 0.22931,0 0.3302,0.077964 0.1009,0.073378 0.1009,0.2889249 v 1.0089445 q 0,0.1880305 0.0917,0.2705805 0.0917,0.077964 0.26599,0.077964 0.10548,0 0.16969,-0.018344 0.0688,-0.018345 0.10548,-0.036689 V 4.3943741 q 0.0504,-0.013758 0.14217,-0.027517 0.0963,-0.013758 0.20637,-0.013758 0.22931,0 0.3302,0.077964 0.1009,0.073378 0.1009,0.2889249 v 1.4171084 q 0,0.2293055 -0.19262,0.3439583 -0.16051,0.1008944 -0.38523,0.1513417 -0.22013,0.055033 -0.48154,0.055033 -0.24765,0 -0.45861,-0.055033 -0.20638,-0.055033 -0.35772,-0.1696861 -0.15134,-0.1146528 -0.23389,-0.2935112 -0.0825,-0.1834444 -0.0825,-0.4402666 z"
         style="font-style:normal;font-variant:normal;font-weight:800;font-stretch:normal;font-family:'Baloo Bhaina 2';-inkscape-font-specification:'Baloo Bhaina 2 Ultra-Bold'"
         id="path1486" />
      <path
         d="m -186.74889,6.6094657 q -0.0504,0.013758 -0.14675,0.027517 -0.0917,0.013758 -0.20179,0.013758 -0.22931,0 -0.3302,-0.073378 -0.1009,-0.077964 -0.1009,-0.2935111 V 5.1877713 q 0,-0.1375834 -0.0734,-0.1972028 -0.0734,-0.064206 -0.19262,-0.064206 -0.078,0 -0.15134,0.027517 -0.0688,0.027517 -0.11924,0.064206 0,0.018344 0,0.036689 0.005,0.013758 0.005,0.027517 v 1.527175 q -0.0505,0.013758 -0.14676,0.027517 -0.0917,0.013758 -0.20179,0.013758 -0.2293,0 -0.3302,-0.073378 -0.10089,-0.077964 -0.10089,-0.2935111 V 5.1877713 q 0,-0.1375834 -0.0825,-0.1972028 -0.078,-0.064206 -0.19262,-0.064206 -0.0871,0 -0.15134,0.027517 -0.0642,0.022931 -0.10548,0.045861 v 1.609725 q -0.0505,0.013758 -0.14676,0.027517 -0.0917,0.013758 -0.20179,0.013758 -0.2293,0 -0.3302,-0.073378 -0.10089,-0.077964 -0.10089,-0.2935111 V 4.9034324 q 0,-0.123825 0.0505,-0.2017889 0.055,-0.077964 0.14675,-0.1421694 0.15593,-0.1100667 0.38524,-0.1742723 0.2293,-0.068792 0.48612,-0.068792 0.18803,0 0.35772,0.050447 0.17427,0.050447 0.32561,0.1559278 0.13759,-0.087136 0.30727,-0.1467556 0.17428,-0.059619 0.41734,-0.059619 0.17427,0 0.33937,0.045861 0.16969,0.045861 0.2981,0.1467555 0.133,0.096308 0.21096,0.2614084 0.078,0.1605139 0.078,0.3944055 z"
         style="font-style:normal;font-variant:normal;font-weight:800;font-stretch:normal;font-family:'Baloo Bhaina 2';-inkscape-font-specification:'Baloo Bhaina 2 Ultra-Bold'"
         id="path1488" />
      <path
         d="m -182.86446,6.6094657 q -0.0504,0.013758 -0.14675,0.027517 -0.0917,0.013758 -0.20179,0.013758 -0.22931,0 -0.3302,-0.073378 -0.1009,-0.077964 -0.1009,-0.2935111 V 5.1877713 q 0,-0.1375834 -0.0734,-0.1972028 -0.0734,-0.064206 -0.19261,-0.064206 -0.078,0 -0.15134,0.027517 -0.0688,0.027517 -0.11924,0.064206 0,0.018344 0,0.036689 0.005,0.013758 0.005,0.027517 v 1.527175 q -0.0504,0.013758 -0.14675,0.027517 -0.0917,0.013758 -0.20179,0.013758 -0.22931,0 -0.3302,-0.073378 -0.1009,-0.077964 -0.1009,-0.2935111 V 5.1877713 q 0,-0.1375834 -0.0825,-0.1972028 -0.078,-0.064206 -0.19261,-0.064206 -0.0871,0 -0.15134,0.027517 -0.0642,0.022931 -0.10548,0.045861 v 1.609725 q -0.0505,0.013758 -0.14676,0.027517 -0.0917,0.013758 -0.20179,0.013758 -0.2293,0 -0.3302,-0.073378 -0.10089,-0.077964 -0.10089,-0.2935111 V 4.9034324 q 0,-0.123825 0.0504,-0.2017889 0.055,-0.077964 0.14676,-0.1421694 0.15593,-0.1100667 0.38523,-0.1742723 0.22931,-0.068792 0.48613,-0.068792 0.18803,0 0.35772,0.050447 0.17427,0.050447 0.32561,0.1559278 0.13758,-0.087136 0.30727,-0.1467556 0.17427,-0.059619 0.41734,-0.059619 0.17427,0 0.33937,0.045861 0.16969,0.045861 0.2981,0.1467555 0.13299,0.096308 0.21096,0.2614084 0.078,0.1605139 0.078,0.3944055 z"
         style="font-style:normal;font-variant:normal;font-weight:800;font-stretch:normal;font-family:'Baloo Bhaina 2';-inkscape-font-specification:'Baloo Bhaina 2 Ultra-Bold'"
         id="path1490" />
      <path
         d="m -181.71335,5.8068963 q 0.0642,0.1651 0.21554,0.2338916 0.15135,0.064206 0.33938,0.064206 0.19261,0 0.36689,-0.045861 0.17427,-0.050447 0.27975,-0.1146528 0.0734,0.045861 0.12382,0.1284111 0.0504,0.08255 0.0504,0.1742722 0,0.1146528 -0.0642,0.1972028 -0.0642,0.08255 -0.18345,0.1375833 -0.11465,0.055033 -0.27517,0.077964 -0.16051,0.027517 -0.35313,0.027517 -0.27058,0 -0.50447,-0.073378 -0.2293,-0.077964 -0.39899,-0.2293055 -0.16969,-0.1513417 -0.26599,-0.3806473 -0.0963,-0.2293055 -0.0963,-0.5365749 0,-0.3026834 0.0963,-0.5182306 0.10089,-0.2201333 0.2614,-0.3577167 0.1651,-0.1421694 0.37148,-0.206375 0.20637,-0.068792 0.42192,-0.068792 0.24306,0 0.44027,0.073378 0.20179,0.073378 0.34396,0.2017888 0.14675,0.1284111 0.22472,0.3072695 0.078,0.1788583 0.078,0.3898194 0,0.1559278 -0.0871,0.2384778 -0.0871,0.08255 -0.24306,0.1054806 z m 0.38982,-0.9218084 q -0.17428,0 -0.29351,0.1054806 -0.11466,0.1054806 -0.13759,0.2980972 l 0.77964,-0.1284111 q -0.005,-0.045861 -0.0275,-0.091722 -0.0229,-0.050447 -0.0642,-0.091722 -0.0413,-0.041275 -0.10548,-0.064206 -0.0642,-0.027517 -0.15134,-0.027517 z"
         style="font-style:normal;font-variant:normal;font-weight:800;font-stretch:normal;font-family:'Baloo Bhaina 2';-inkscape-font-specification:'Baloo Bhaina 2 Ultra-Bold'"
         id="path1492" />
      <path
         d="m -179.08551,6.6094657 q -0.0505,0.013758 -0.14676,0.027517 -0.0917,0.013758 -0.20179,0.013758 -0.2293,0 -0.3302,-0.073378 -0.10089,-0.077964 -0.10089,-0.2935111 v -1.362075 q 0,-0.1329972 0.0688,-0.2293055 0.0688,-0.1008945 0.18803,-0.1742722 0.16051,-0.096308 0.37147,-0.1467556 0.21555,-0.050447 0.44944,-0.050447 0.49989,0 0.49989,0.3531305 0,0.08255 -0.0229,0.1559278 -0.0229,0.068792 -0.055,0.1192389 -0.0871,-0.018344 -0.25224,-0.018344 -0.11924,0 -0.24765,0.027517 -0.12383,0.027517 -0.22013,0.08255 z"
         style="font-style:normal;font-variant:normal;font-weight:800;font-stretch:normal;font-family:'Baloo Bhaina 2';-inkscape-font-specification:'Baloo Bhaina 2 Ultra-Bold'"
         id="path1494" />
    </g>
  </g>
</svg>
