<?xml version="1.0" encoding="UTF-8" standalone="no"?>
<svg
   xmlns:dc="http://purl.org/dc/elements/1.1/"
   xmlns:cc="http://creativecommons.org/ns#"
   xmlns:rdf="http://www.w3.org/1999/02/22-rdf-syntax-ns#"
   xmlns:svg="http://www.w3.org/2000/svg"
   xmlns="http://www.w3.org/2000/svg"
   xmlns:sodipodi="http://sodipodi.sourceforge.net/DTD/sodipodi-0.dtd"
   xmlns:inkscape="http://www.inkscape.org/namespaces/inkscape"
   width="150px"
   height="380px"
   version="1.1"
   xml:space="preserve"
   style="fill-rule:evenodd;clip-rule:evenodd;stroke-linecap:round;stroke-linejoin:round;stroke-miterlimit:1.5;"
   id="svg325"
   sodipodi:docname="SynthSampler.svg"
   inkscape:version="0.92.5 (2060ec1f9f, 2020-04-08)"><metadata
   id="metadata331"><rdf:RDF><cc:Work
       rdf:about=""><dc:format>image/svg+xml</dc:format><dc:type
         rdf:resource="http://purl.org/dc/dcmitype/StillImage" /></cc:Work></rdf:RDF></metadata><defs
   id="defs329">
        
        
        
        
        
        
        
        
        
        
        
        
        
        
        
        
        
        
        
        
        
        
        
        
        
        
        
        
        
        
        
        
        
        
        
        
        
        
        
        
        
        
        
        
        
        
        
        
        
        
        
        
        
        
        
        
        
        
        
        
        
        
        
        
        
        
        
        
        
        
        
        
        
        
        
        
        
        
        
        
        
        
        
        
        
        
        
        
    </defs><sodipodi:namedview
   pagecolor="#ffffff"
   bordercolor="#666666"
   borderopacity="1"
   objecttolerance="10"
   gridtolerance="10"
   guidetolerance="10"
   inkscape:pageopacity="0"
   inkscape:pageshadow="2"
   inkscape:window-width="2560"
   inkscape:window-height="1349"
   id="namedview327"
   showgrid="false"
   inkscape:zoom="3.5132042"
   inkscape:cx="-24.029872"
   inkscape:cy="247.1222"
   inkscape:window-x="0"
   inkscape:window-y="0"
   inkscape:window-maximized="1"
   inkscape:current-layer="svg325" />
    <rect
   x="0"
   y="0"
   width="150"
   height="380"
   style="fill:#212121;"
   id="rect2" />
    <g
   id="g22">
            <path
   inkscape:connector-curvature="0"
   id="path4"
   style="fill:none;stroke:#cccccc;stroke-width:0.94999999px"
   d="M 27.249,100.006 C 20.391,95.765 15.818,88.175 15.818,79.526 c 0,-13.28 10.782,-24.062 24.063,-24.062 13.28,0 24.062,10.782 24.062,24.062 0,8.907 -4.85,16.691 -12.05,20.851 L 40.245,79.621 Z" />
            <path
   inkscape:connector-curvature="0"
   id="path6"
   style="fill:none;stroke:#cccccc;stroke-width:0.94999999px"
   d="M 25.402,102.905 C 17.588,98.053 12.381,89.393 12.381,79.526 c 0,-15.177 12.322,-27.5 27.5,-27.5 15.178,0 27.5,12.323 27.5,27.5 0,10.194 -5.558,19.099 -13.806,23.849 L 40.245,79.621 Z" />
            <path
   inkscape:connector-curvature="0"
   id="path8"
   style="fill:none;stroke:#cccccc;stroke-width:0.94999999px"
   d="m 17.614,88.616 -3.135,1.363" />
            <path
   inkscape:connector-curvature="0"
   id="path10"
   style="fill:none;stroke:#cccccc;stroke-width:0.94999999px"
   d="m 62.176,88.63 3.094,1.26" />
            <path
   inkscape:connector-curvature="0"
   id="path12"
   style="fill:none;stroke:#cccccc;stroke-width:0.94999999px"
   d="m 54.428,60.271 1.848,-2.523" />
            <path
   inkscape:connector-curvature="0"
   id="path14"
   style="fill:none;stroke:#cccccc;stroke-width:0.94999999px"
   d="m 25.031,60.345 -1.663,-2.45" />
            <path
   inkscape:connector-curvature="0"
   id="path16"
   style="fill:none;stroke:#cccccc;stroke-width:0.94999999px"
   d="M 16.496,73.501 13.504,72.49" />
            <path
   inkscape:connector-curvature="0"
   id="path18"
   style="fill:none;stroke:#cccccc;stroke-width:0.94999999px"
   d="m 63.34,73.259 2.954,-1.065" />
            <path
   inkscape:connector-curvature="0"
   id="path20"
   style="fill:none;stroke:#cccccc;stroke-width:0.94999999px"
   d="M 40.138,54.853 V 52.206" />
        </g><g
   id="g42">
            <path
   inkscape:connector-curvature="0"
   id="path24"
   style="fill:none;stroke:#cccccc;stroke-width:0.94999999px"
   d="M 14.448,226.171 C 10.707,223.857 8.213,219.718 8.213,215 c 0,-7.244 5.881,-13.125 13.125,-13.125 7.244,0 13.125,5.881 13.125,13.125 0,4.858 -2.646,9.104 -6.573,11.373 l -6.354,-11.322 z" />
            <path
   inkscape:connector-curvature="0"
   id="path26"
   style="fill:none;stroke:#cccccc;stroke-width:0.94999999px"
   d="M 13.44,227.752 C 9.178,225.105 6.338,220.382 6.338,215 c 0,-8.279 6.721,-15 15,-15 8.279,0 15,6.721 15,15 0,5.56 -3.032,10.417 -7.531,13.008 l -7.271,-12.957 z" />
            <path
   inkscape:connector-curvature="0"
   id="path28"
   style="fill:none;stroke:#cccccc;stroke-width:0.94999999px"
   d="m 9.192,219.958 -1.71,0.743" />
            <path
   inkscape:connector-curvature="0"
   id="path30"
   style="fill:none;stroke:#cccccc;stroke-width:0.94999999px"
   d="m 33.499,219.965 1.687,0.688" />
            <path
   inkscape:connector-curvature="0"
   id="path32"
   style="fill:none;stroke:#cccccc;stroke-width:0.94999999px"
   d="m 29.272,204.497 1.009,-1.376" />
            <path
   inkscape:connector-curvature="0"
   id="path34"
   style="fill:none;stroke:#cccccc;stroke-width:0.94999999px"
   d="m 13.238,204.537 -0.907,-1.336" />
            <path
   inkscape:connector-curvature="0"
   id="path36"
   style="fill:none;stroke:#cccccc;stroke-width:0.94999999px"
   d="M 8.582,211.713 6.951,211.162" />
            <path
   inkscape:connector-curvature="0"
   id="path38"
   style="fill:none;stroke:#cccccc;stroke-width:0.94999999px"
   d="M 34.134,211.581 35.745,211" />
            <path
   inkscape:connector-curvature="0"
   id="path40"
   style="fill:none;stroke:#cccccc;stroke-width:0.94999999px"
   d="m 21.478,201.542 v -1.444" />
        </g><g
   id="g62">
            <path
   inkscape:connector-curvature="0"
   id="path44"
   style="fill:none;stroke:#cccccc;stroke-width:0.94999999px"
   d="m 49.448,226.171 c -3.741,-2.314 -6.235,-6.453 -6.235,-11.171 0,-7.244 5.881,-13.125 13.125,-13.125 7.244,0 13.125,5.881 13.125,13.125 0,4.858 -2.646,9.104 -6.573,11.373 l -6.354,-11.322 z" />
            <path
   inkscape:connector-curvature="0"
   id="path46"
   style="fill:none;stroke:#cccccc;stroke-width:0.94999999px"
   d="m 48.44,227.752 c -4.262,-2.647 -7.102,-7.37 -7.102,-12.752 0,-8.279 6.721,-15 15,-15 8.279,0 15,6.721 15,15 0,5.56 -3.032,10.417 -7.531,13.008 l -7.271,-12.957 z" />
            <path
   inkscape:connector-curvature="0"
   id="path48"
   style="fill:none;stroke:#cccccc;stroke-width:0.94999999px"
   d="m 44.192,219.958 -1.71,0.743" />
            <path
   inkscape:connector-curvature="0"
   id="path50"
   style="fill:none;stroke:#cccccc;stroke-width:0.94999999px"
   d="m 68.499,219.965 1.687,0.688" />
            <path
   inkscape:connector-curvature="0"
   id="path52"
   style="fill:none;stroke:#cccccc;stroke-width:0.94999999px"
   d="m 64.272,204.497 1.009,-1.376" />
            <path
   inkscape:connector-curvature="0"
   id="path54"
   style="fill:none;stroke:#cccccc;stroke-width:0.94999999px"
   d="m 48.238,204.537 -0.907,-1.336" />
            <path
   inkscape:connector-curvature="0"
   id="path56"
   style="fill:none;stroke:#cccccc;stroke-width:0.94999999px"
   d="m 43.582,211.713 -1.631,-0.551" />
            <path
   inkscape:connector-curvature="0"
   id="path58"
   style="fill:none;stroke:#cccccc;stroke-width:0.94999999px"
   d="M 69.134,211.581 70.745,211" />
            <path
   inkscape:connector-curvature="0"
   id="path60"
   style="fill:none;stroke:#cccccc;stroke-width:0.94999999px"
   d="m 56.478,201.542 v -1.444" />
        </g><g
   id="g82">
            <path
   inkscape:connector-curvature="0"
   id="path64"
   style="fill:none;stroke:#cccccc;stroke-width:0.94999999px"
   d="m 84.448,226.171 c -3.741,-2.314 -6.235,-6.453 -6.235,-11.171 0,-7.244 5.881,-13.125 13.125,-13.125 7.244,0 13.125,5.881 13.125,13.125 0,4.858 -2.646,9.104 -6.573,11.373 l -6.354,-11.322 z" />
            <path
   inkscape:connector-curvature="0"
   id="path66"
   style="fill:none;stroke:#cccccc;stroke-width:0.94999999px"
   d="m 83.44,227.752 c -4.262,-2.647 -7.102,-7.37 -7.102,-12.752 0,-8.279 6.721,-15 15,-15 8.279,0 15,6.721 15,15 0,5.56 -3.032,10.417 -7.531,13.008 l -7.271,-12.957 z" />
            <path
   inkscape:connector-curvature="0"
   id="path68"
   style="fill:none;stroke:#cccccc;stroke-width:0.94999999px"
   d="m 79.192,219.958 -1.71,0.743" />
            <path
   inkscape:connector-curvature="0"
   id="path70"
   style="fill:none;stroke:#cccccc;stroke-width:0.94999999px"
   d="m 103.499,219.965 1.687,0.688" />
            <path
   inkscape:connector-curvature="0"
   id="path72"
   style="fill:none;stroke:#cccccc;stroke-width:0.94999999px"
   d="m 99.272,204.497 1.009,-1.376" />
            <path
   inkscape:connector-curvature="0"
   id="path74"
   style="fill:none;stroke:#cccccc;stroke-width:0.94999999px"
   d="m 83.238,204.537 -0.907,-1.336" />
            <path
   inkscape:connector-curvature="0"
   id="path76"
   style="fill:none;stroke:#cccccc;stroke-width:0.94999999px"
   d="m 78.582,211.713 -1.631,-0.551" />
            <path
   inkscape:connector-curvature="0"
   id="path78"
   style="fill:none;stroke:#cccccc;stroke-width:0.94999999px"
   d="M 104.134,211.581 105.745,211" />
            <path
   inkscape:connector-curvature="0"
   id="path80"
   style="fill:none;stroke:#cccccc;stroke-width:0.94999999px"
   d="m 91.478,201.542 v -1.444" />
        </g><g
   id="g102">
            <path
   inkscape:connector-curvature="0"
   id="path84"
   style="fill:none;stroke:#cccccc;stroke-width:0.94999999px"
   d="m 119.448,226.171 c -3.741,-2.314 -6.235,-6.453 -6.235,-11.171 0,-7.244 5.881,-13.125 13.125,-13.125 7.244,0 13.125,5.881 13.125,13.125 0,4.858 -2.646,9.104 -6.573,11.373 l -6.354,-11.322 z" />
            <path
   inkscape:connector-curvature="0"
   id="path86"
   style="fill:none;stroke:#cccccc;stroke-width:0.94999999px"
   d="m 118.44,227.752 c -4.262,-2.647 -7.102,-7.37 -7.102,-12.752 0,-8.279 6.721,-15 15,-15 8.279,0 15,6.721 15,15 0,5.56 -3.032,10.417 -7.531,13.008 l -7.271,-12.957 z" />
            <path
   inkscape:connector-curvature="0"
   id="path88"
   style="fill:none;stroke:#cccccc;stroke-width:0.94999999px"
   d="m 114.192,219.958 -1.71,0.743" />
            <path
   inkscape:connector-curvature="0"
   id="path90"
   style="fill:none;stroke:#cccccc;stroke-width:0.94999999px"
   d="m 138.499,219.965 1.687,0.688" />
            <path
   inkscape:connector-curvature="0"
   id="path92"
   style="fill:none;stroke:#cccccc;stroke-width:0.94999999px"
   d="m 134.272,204.497 1.009,-1.376" />
            <path
   inkscape:connector-curvature="0"
   id="path94"
   style="fill:none;stroke:#cccccc;stroke-width:0.94999999px"
   d="m 118.238,204.537 -0.907,-1.336" />
            <path
   inkscape:connector-curvature="0"
   id="path96"
   style="fill:none;stroke:#cccccc;stroke-width:0.94999999px"
   d="m 113.582,211.713 -1.631,-0.551" />
            <path
   inkscape:connector-curvature="0"
   id="path98"
   style="fill:none;stroke:#cccccc;stroke-width:0.94999999px"
   d="M 139.134,211.581 140.745,211" />
            <path
   inkscape:connector-curvature="0"
   id="path100"
   style="fill:none;stroke:#cccccc;stroke-width:0.94999999px"
   d="m 126.478,201.542 v -1.444" />
        </g><g
   id="g122">
            <path
   inkscape:connector-curvature="0"
   id="path104"
   style="fill:none;stroke:#cccccc;stroke-width:0.94999999px"
   d="M 97.249,100.006 C 90.391,95.765 85.818,88.175 85.818,79.526 c 0,-13.28 10.782,-24.062 24.063,-24.062 13.28,0 24.062,10.782 24.062,24.062 0,8.907 -4.85,16.691 -12.05,20.851 L 110.245,79.621 Z" />
            <path
   inkscape:connector-curvature="0"
   id="path106"
   style="fill:none;stroke:#cccccc;stroke-width:0.94999999px"
   d="M 95.402,102.905 C 87.588,98.053 82.381,89.393 82.381,79.526 c 0,-15.177 12.322,-27.5 27.5,-27.5 15.178,0 27.5,12.323 27.5,27.5 0,10.194 -5.558,19.099 -13.806,23.849 l -13.33,-23.754 z" />
            <path
   inkscape:connector-curvature="0"
   id="path108"
   style="fill:none;stroke:#cccccc;stroke-width:0.94999999px"
   d="m 87.614,88.616 -3.135,1.363" />
            <path
   inkscape:connector-curvature="0"
   id="path110"
   style="fill:none;stroke:#cccccc;stroke-width:0.94999999px"
   d="m 132.176,88.63 3.094,1.26" />
            <path
   inkscape:connector-curvature="0"
   id="path112"
   style="fill:none;stroke:#cccccc;stroke-width:0.94999999px"
   d="m 124.428,60.271 1.848,-2.523" />
            <path
   inkscape:connector-curvature="0"
   id="path114"
   style="fill:none;stroke:#cccccc;stroke-width:0.94999999px"
   d="m 95.031,60.345 -1.663,-2.45" />
            <path
   inkscape:connector-curvature="0"
   id="path116"
   style="fill:none;stroke:#cccccc;stroke-width:0.94999999px"
   d="M 86.496,73.501 83.504,72.49" />
            <path
   inkscape:connector-curvature="0"
   id="path118"
   style="fill:none;stroke:#cccccc;stroke-width:0.94999999px"
   d="m 133.34,73.259 2.954,-1.065" />
            <path
   inkscape:connector-curvature="0"
   id="path120"
   style="fill:none;stroke:#cccccc;stroke-width:0.94999999px"
   d="M 110.138,54.853 V 52.206" />
        </g><g
   id="g142">
            <path
   inkscape:connector-curvature="0"
   id="path124"
   style="fill:none;stroke:#cccccc;stroke-width:0.94999999px"
   d="m 27.249,171.006 c -6.858,-4.241 -11.431,-11.831 -11.431,-20.48 0,-13.28 10.782,-24.062 24.063,-24.062 13.28,0 24.062,10.782 24.062,24.062 0,8.907 -4.85,16.691 -12.05,20.851 L 40.245,150.621 Z" />
            <path
   inkscape:connector-curvature="0"
   id="path126"
   style="fill:none;stroke:#cccccc;stroke-width:0.94999999px"
   d="m 25.402,173.905 c -7.814,-4.852 -13.021,-13.512 -13.021,-23.379 0,-15.177 12.322,-27.5 27.5,-27.5 15.178,0 27.5,12.323 27.5,27.5 0,10.194 -5.558,19.099 -13.806,23.849 l -13.33,-23.754 z" />
            <path
   inkscape:connector-curvature="0"
   id="path128"
   style="fill:none;stroke:#cccccc;stroke-width:0.94999999px"
   d="m 17.614,159.616 -3.135,1.363" />
            <path
   inkscape:connector-curvature="0"
   id="path130"
   style="fill:none;stroke:#cccccc;stroke-width:0.94999999px"
   d="m 62.176,159.63 3.094,1.26" />
            <path
   inkscape:connector-curvature="0"
   id="path132"
   style="fill:none;stroke:#cccccc;stroke-width:0.94999999px"
   d="m 54.428,131.271 1.848,-2.523" />
            <path
   inkscape:connector-curvature="0"
   id="path134"
   style="fill:none;stroke:#cccccc;stroke-width:0.94999999px"
   d="m 25.031,131.345 -1.663,-2.45" />
            <path
   inkscape:connector-curvature="0"
   id="path136"
   style="fill:none;stroke:#cccccc;stroke-width:0.94999999px"
   d="M 16.496,144.501 13.504,143.49" />
            <path
   inkscape:connector-curvature="0"
   id="path138"
   style="fill:none;stroke:#cccccc;stroke-width:0.94999999px"
   d="m 63.34,144.259 2.954,-1.065" />
            <path
   inkscape:connector-curvature="0"
   id="path140"
   style="fill:none;stroke:#cccccc;stroke-width:0.94999999px"
   d="m 40.138,125.853 v -2.647" />
        </g><g
   id="g162">
            <path
   inkscape:connector-curvature="0"
   id="path144"
   style="fill:none;stroke:#cccccc;stroke-width:0.94999999px"
   d="m 97.249,171.006 c -6.858,-4.241 -11.431,-11.831 -11.431,-20.48 0,-13.28 10.782,-24.062 24.063,-24.062 13.28,0 24.062,10.782 24.062,24.062 0,8.907 -4.85,16.691 -12.05,20.851 l -11.648,-20.756 z" />
            <path
   inkscape:connector-curvature="0"
   id="path146"
   style="fill:none;stroke:#cccccc;stroke-width:0.94999999px"
   d="m 95.402,173.905 c -7.814,-4.852 -13.021,-13.512 -13.021,-23.379 0,-15.177 12.322,-27.5 27.5,-27.5 15.178,0 27.5,12.323 27.5,27.5 0,10.194 -5.558,19.099 -13.806,23.849 l -13.33,-23.754 z" />
            <path
   inkscape:connector-curvature="0"
   id="path148"
   style="fill:none;stroke:#cccccc;stroke-width:0.94999999px"
   d="m 87.614,159.616 -3.135,1.363" />
            <path
   inkscape:connector-curvature="0"
   id="path150"
   style="fill:none;stroke:#cccccc;stroke-width:0.94999999px"
   d="m 132.176,159.63 3.094,1.26" />
            <path
   inkscape:connector-curvature="0"
   id="path152"
   style="fill:none;stroke:#cccccc;stroke-width:0.94999999px"
   d="m 124.428,131.271 1.848,-2.523" />
            <path
   inkscape:connector-curvature="0"
   id="path154"
   style="fill:none;stroke:#cccccc;stroke-width:0.94999999px"
   d="m 95.031,131.345 -1.663,-2.45" />
            <path
   inkscape:connector-curvature="0"
   id="path156"
   style="fill:none;stroke:#cccccc;stroke-width:0.94999999px"
   d="M 86.496,144.501 83.504,143.49" />
            <path
   inkscape:connector-curvature="0"
   id="path158"
   style="fill:none;stroke:#cccccc;stroke-width:0.94999999px"
   d="m 133.34,144.259 2.954,-1.065" />
            <path
   inkscape:connector-curvature="0"
   id="path160"
   style="fill:none;stroke:#cccccc;stroke-width:0.94999999px"
   d="m 110.138,125.853 v -2.647" />
        </g><path
   inkscape:connector-curvature="0"
   id="path164"
   style="fill:#151515;stroke:#cccccc;stroke-width:0.94999999px"
   d="M 143,314.413 C 143,311.425 140.575,309 137.587,309 H 12.413 C 9.425,309 7,311.425 7,314.413 v 26.174 C 7,343.575 9.425,346 12.413,346 h 125.174 c 2.988,0 5.413,-2.425 5.413,-5.413 z" /><rect
   id="rect166"
   style="fill:#ffffff;fill-rule:nonzero"
   height="5.6960001"
   width="1.5039999"
   y="297.57599"
   x="15.128" /><path
   inkscape:connector-curvature="0"
   id="path168"
   style="fill:#ffffff;fill-rule:nonzero"
   d="m 21.336,297.576 h 1.416 v 5.696 H 21.64 l -2.584,-3.232 v 3.232 h -1.4 v -5.696 h 1.096 l 2.584,3.216 z" /><path
   inkscape:connector-curvature="0"
   id="path170"
   style="fill:#ffffff;fill-rule:nonzero"
   d="m 26.728,302.08 h 1.232 v 1.192 h -3.952 v -1.192 h 1.224 v -2.872 l -1.144,0.656 v -1.288 l 1.76,-1 h 0.88 z" /><path
   inkscape:connector-curvature="0"
   id="path172"
   style="fill:#ffffff;fill-rule:nonzero"
   d="m 14.728,229.576 h 1.168 v 5.696 h -1.312 l -0.008,-2.608 -1.08,2.608 h -0.952 l -1.088,-2.576 v 2.576 h -1.304 v -5.696 h 1.176 l 1.704,3.888 z" /><path
   inkscape:connector-curvature="0"
   id="path174"
   style="fill:#ffffff;fill-rule:nonzero"
   d="m 19.656,235.344 c -0.581,0 -1.088,-0.119 -1.52,-0.356 -0.432,-0.237 -0.764,-0.577 -0.996,-1.02 -0.232,-0.443 -0.348,-0.96 -0.348,-1.552 0,-0.592 0.117,-1.107 0.352,-1.544 0.235,-0.437 0.567,-0.775 0.996,-1.012 0.429,-0.237 0.935,-0.356 1.516,-0.356 0.581,0 1.087,0.119 1.516,0.356 0.429,0.237 0.759,0.575 0.988,1.012 0.229,0.437 0.344,0.952 0.344,1.544 0,0.592 -0.115,1.109 -0.344,1.552 -0.229,0.443 -0.559,0.783 -0.988,1.02 -0.429,0.237 -0.935,0.356 -1.516,0.356 z m 0,-1.144 c 0.427,0 0.761,-0.152 1.004,-0.456 0.243,-0.304 0.364,-0.747 0.364,-1.328 0,-0.576 -0.121,-1.015 -0.364,-1.316 -0.243,-0.301 -0.577,-0.452 -1.004,-0.452 -0.427,0 -0.76,0.149 -1,0.448 -0.24,0.299 -0.36,0.739 -0.36,1.32 0,0.587 0.12,1.031 0.36,1.332 0.24,0.301 0.573,0.452 1,0.452 z" /><path
   inkscape:connector-curvature="0"
   id="path176"
   style="fill:#ffffff;fill-rule:nonzero"
   d="m 23.384,229.576 h 2.328 c 0.629,0 1.172,0.113 1.628,0.34 0.456,0.227 0.805,0.553 1.048,0.98 0.243,0.427 0.364,0.933 0.364,1.52 0,0.592 -0.12,1.103 -0.36,1.532 -0.24,0.429 -0.588,0.757 -1.044,0.984 -0.456,0.227 -1.001,0.34 -1.636,0.34 h -2.328 z m 2.224,4.496 c 0.555,0 0.969,-0.137 1.244,-0.412 0.275,-0.275 0.412,-0.689 0.412,-1.244 0,-1.093 -0.552,-1.64 -1.656,-1.64 h -0.72 v 3.296 z" /><path
   inkscape:connector-curvature="0"
   id="path178"
   style="fill:#ffffff;fill-rule:nonzero"
   d="m 32.576,234.08 h 1.232 v 1.192 h -3.952 v -1.192 h 1.224 v -2.872 l -1.144,0.656 v -1.288 l 1.76,-1 h 0.88 z" /><path
   inkscape:connector-curvature="0"
   id="path180"
   style="fill:#ffffff;fill-rule:nonzero"
   d="m 28.216,112.272 h -2.23 l -2.85,-3.23 v 3.23 h -1.88 v -7.12 h 1.88 v 3.06 l 2.77,-3.06 h 2.2 l -3.15,3.38 z" /><path
   inkscape:connector-curvature="0"
   id="path182"
   style="fill:#ffffff;fill-rule:nonzero"
   d="m 32.916,105.152 h 1.77 v 7.12 h -1.39 l -3.23,-4.04 v 4.04 h -1.75 v -7.12 h 1.37 l 3.23,4.02 z" /><path
   inkscape:connector-curvature="0"
   id="path184"
   style="fill:#ffffff;fill-rule:nonzero"
   d="m 39.366,112.362 c -0.727,0 -1.36,-0.148 -1.9,-0.445 -0.54,-0.297 -0.955,-0.722 -1.245,-1.275 -0.29,-0.553 -0.435,-1.2 -0.435,-1.94 0,-0.74 0.147,-1.383 0.44,-1.93 0.293,-0.547 0.708,-0.968 1.245,-1.265 0.537,-0.297 1.168,-0.445 1.895,-0.445 0.727,0 1.358,0.148 1.895,0.445 0.537,0.297 0.948,0.718 1.235,1.265 0.287,0.547 0.43,1.19 0.43,1.93 0,0.74 -0.143,1.387 -0.43,1.94 -0.287,0.553 -0.698,0.978 -1.235,1.275 -0.537,0.297 -1.168,0.445 -1.895,0.445 z m 0,-1.43 c 0.533,0 0.952,-0.19 1.255,-0.57 0.303,-0.38 0.455,-0.933 0.455,-1.66 0,-0.72 -0.152,-1.268 -0.455,-1.645 -0.303,-0.377 -0.722,-0.565 -1.255,-0.565 -0.533,0 -0.95,0.187 -1.25,0.56 -0.3,0.373 -0.45,0.923 -0.45,1.65 0,0.733 0.15,1.288 0.45,1.665 0.3,0.377 0.717,0.565 1.25,0.565 z" /><path
   inkscape:connector-curvature="0"
   id="path186"
   style="fill:#ffffff;fill-rule:nonzero"
   d="m 48.816,108.582 c 0.42,0.12 0.743,0.332 0.97,0.635 0.227,0.303 0.34,0.672 0.34,1.105 0,0.393 -0.103,0.737 -0.31,1.03 -0.207,0.293 -0.502,0.52 -0.885,0.68 -0.383,0.16 -0.835,0.24 -1.355,0.24 h -3.55 v -7.12 h 3.46 c 0.747,0 1.34,0.167 1.78,0.5 0.44,0.333 0.66,0.783 0.66,1.35 0,0.367 -0.097,0.69 -0.29,0.97 -0.193,0.28 -0.467,0.483 -0.82,0.61 z m -2.96,-0.64 h 1.31 c 0.347,0 0.6,-0.053 0.76,-0.16 0.16,-0.107 0.24,-0.277 0.24,-0.51 0,-0.24 -0.082,-0.417 -0.245,-0.53 -0.163,-0.113 -0.415,-0.17 -0.755,-0.17 h -1.31 z m 1.5,2.91 c 0.36,0 0.618,-0.057 0.775,-0.17 0.157,-0.113 0.235,-0.303 0.235,-0.57 0,-0.273 -0.077,-0.467 -0.23,-0.58 -0.153,-0.113 -0.413,-0.17 -0.78,-0.17 h -1.5 v 1.49 z" /><path
   inkscape:connector-curvature="0"
   id="path188"
   style="fill:#ffffff;fill-rule:nonzero"
   d="m 54.726,110.782 h 1.54 v 1.49 h -4.94 v -1.49 h 1.53 v -3.59 l -1.43,0.82 v -1.61 l 2.2,-1.25 h 1.1 z" /><path
   inkscape:connector-curvature="0"
   id="path190"
   style="fill:#ffffff;fill-rule:nonzero"
   d="m 97.216,112.272 h -2.23 l -2.85,-3.23 v 3.23 h -1.88 v -7.12 h 1.88 v 3.06 l 2.77,-3.06 h 2.2 l -3.15,3.38 z" /><path
   inkscape:connector-curvature="0"
   id="path192"
   style="fill:#ffffff;fill-rule:nonzero"
   d="m 101.916,105.152 h 1.77 v 7.12 h -1.39 l -3.23,-4.04 v 4.04 h -1.75 v -7.12 h 1.37 l 3.23,4.02 z" /><path
   inkscape:connector-curvature="0"
   id="path194"
   style="fill:#ffffff;fill-rule:nonzero"
   d="m 108.366,112.362 c -0.727,0 -1.36,-0.148 -1.9,-0.445 -0.54,-0.297 -0.955,-0.722 -1.245,-1.275 -0.29,-0.553 -0.435,-1.2 -0.435,-1.94 0,-0.74 0.147,-1.383 0.44,-1.93 0.293,-0.547 0.708,-0.968 1.245,-1.265 0.537,-0.297 1.168,-0.445 1.895,-0.445 0.727,0 1.358,0.148 1.895,0.445 0.537,0.297 0.948,0.718 1.235,1.265 0.287,0.547 0.43,1.19 0.43,1.93 0,0.74 -0.143,1.387 -0.43,1.94 -0.287,0.553 -0.698,0.978 -1.235,1.275 -0.537,0.297 -1.168,0.445 -1.895,0.445 z m 0,-1.43 c 0.533,0 0.952,-0.19 1.255,-0.57 0.303,-0.38 0.455,-0.933 0.455,-1.66 0,-0.72 -0.152,-1.268 -0.455,-1.645 -0.303,-0.377 -0.722,-0.565 -1.255,-0.565 -0.533,0 -0.95,0.187 -1.25,0.56 -0.3,0.373 -0.45,0.923 -0.45,1.65 0,0.733 0.15,1.288 0.45,1.665 0.3,0.377 0.717,0.565 1.25,0.565 z" /><path
   inkscape:connector-curvature="0"
   id="path196"
   style="fill:#ffffff;fill-rule:nonzero"
   d="m 117.816,108.582 c 0.42,0.12 0.743,0.332 0.97,0.635 0.227,0.303 0.34,0.672 0.34,1.105 0,0.393 -0.103,0.737 -0.31,1.03 -0.207,0.293 -0.502,0.52 -0.885,0.68 -0.383,0.16 -0.835,0.24 -1.355,0.24 h -3.55 v -7.12 h 3.46 c 0.747,0 1.34,0.167 1.78,0.5 0.44,0.333 0.66,0.783 0.66,1.35 0,0.367 -0.097,0.69 -0.29,0.97 -0.193,0.28 -0.467,0.483 -0.82,0.61 z m -2.96,-0.64 h 1.31 c 0.347,0 0.6,-0.053 0.76,-0.16 0.16,-0.107 0.24,-0.277 0.24,-0.51 0,-0.24 -0.082,-0.417 -0.245,-0.53 -0.163,-0.113 -0.415,-0.17 -0.755,-0.17 h -1.31 z m 1.5,2.91 c 0.36,0 0.618,-0.057 0.775,-0.17 0.157,-0.113 0.235,-0.303 0.235,-0.57 0,-0.273 -0.077,-0.467 -0.23,-0.58 -0.153,-0.113 -0.413,-0.17 -0.78,-0.17 h -1.5 v 1.49 z" /><path
   inkscape:connector-curvature="0"
   id="path198"
   style="fill:#ffffff;fill-rule:nonzero"
   d="m 124.996,110.782 v 1.49 h -5.02 v -1.38 l 2.32,-2.42 c 0.433,-0.453 0.65,-0.877 0.65,-1.27 0,-0.46 -0.273,-0.69 -0.82,-0.69 -0.28,0 -0.575,0.055 -0.885,0.165 -0.31,0.11 -0.622,0.268 -0.935,0.475 l -0.59,-1.33 c 0.287,-0.233 0.658,-0.418 1.115,-0.555 0.457,-0.137 0.922,-0.205 1.395,-0.205 0.513,0 0.962,0.082 1.345,0.245 0.383,0.163 0.68,0.397 0.89,0.7 0.21,0.303 0.315,0.658 0.315,1.065 0,0.413 -0.082,0.788 -0.245,1.125 -0.163,0.337 -0.442,0.715 -0.835,1.135 l -1.42,1.45 z" /><path
   inkscape:connector-curvature="0"
   id="path200"
   style="fill:#ffffff;fill-rule:nonzero"
   d="m 28.216,182.272 h -2.23 l -2.85,-3.23 v 3.23 h -1.88 v -7.12 h 1.88 v 3.06 l 2.77,-3.06 h 2.2 l -3.15,3.38 z" /><path
   inkscape:connector-curvature="0"
   id="path202"
   style="fill:#ffffff;fill-rule:nonzero"
   d="m 32.916,175.152 h 1.77 v 7.12 h -1.39 l -3.23,-4.04 v 4.04 h -1.75 v -7.12 h 1.37 l 3.23,4.02 z" /><path
   inkscape:connector-curvature="0"
   id="path204"
   style="fill:#ffffff;fill-rule:nonzero"
   d="m 39.366,182.362 c -0.727,0 -1.36,-0.148 -1.9,-0.445 -0.54,-0.297 -0.955,-0.722 -1.245,-1.275 -0.29,-0.553 -0.435,-1.2 -0.435,-1.94 0,-0.74 0.147,-1.383 0.44,-1.93 0.293,-0.547 0.708,-0.968 1.245,-1.265 0.537,-0.297 1.168,-0.445 1.895,-0.445 0.727,0 1.358,0.148 1.895,0.445 0.537,0.297 0.948,0.718 1.235,1.265 0.287,0.547 0.43,1.19 0.43,1.93 0,0.74 -0.143,1.387 -0.43,1.94 -0.287,0.553 -0.698,0.978 -1.235,1.275 -0.537,0.297 -1.168,0.445 -1.895,0.445 z m 0,-1.43 c 0.533,0 0.952,-0.19 1.255,-0.57 0.303,-0.38 0.455,-0.933 0.455,-1.66 0,-0.72 -0.152,-1.268 -0.455,-1.645 -0.303,-0.377 -0.722,-0.565 -1.255,-0.565 -0.533,0 -0.95,0.187 -1.25,0.56 -0.3,0.373 -0.45,0.923 -0.45,1.65 0,0.733 0.15,1.288 0.45,1.665 0.3,0.377 0.717,0.565 1.25,0.565 z" /><path
   inkscape:connector-curvature="0"
   id="path206"
   style="fill:#ffffff;fill-rule:nonzero"
   d="m 48.816,178.582 c 0.42,0.12 0.743,0.332 0.97,0.635 0.227,0.303 0.34,0.672 0.34,1.105 0,0.393 -0.103,0.737 -0.31,1.03 -0.207,0.293 -0.502,0.52 -0.885,0.68 -0.383,0.16 -0.835,0.24 -1.355,0.24 h -3.55 v -7.12 h 3.46 c 0.747,0 1.34,0.167 1.78,0.5 0.44,0.333 0.66,0.783 0.66,1.35 0,0.367 -0.097,0.69 -0.29,0.97 -0.193,0.28 -0.467,0.483 -0.82,0.61 z m -2.96,-0.64 h 1.31 c 0.347,0 0.6,-0.053 0.76,-0.16 0.16,-0.107 0.24,-0.277 0.24,-0.51 0,-0.24 -0.082,-0.417 -0.245,-0.53 -0.163,-0.113 -0.415,-0.17 -0.755,-0.17 h -1.31 z m 1.5,2.91 c 0.36,0 0.618,-0.057 0.775,-0.17 0.157,-0.113 0.235,-0.303 0.235,-0.57 0,-0.273 -0.077,-0.467 -0.23,-0.58 -0.153,-0.113 -0.413,-0.17 -0.78,-0.17 h -1.5 v 1.49 z" /><path
   inkscape:connector-curvature="0"
   id="path208"
   style="fill:#ffffff;fill-rule:nonzero"
   d="m 54.676,178.602 c 0.413,0.12 0.732,0.33 0.955,0.63 0.223,0.3 0.335,0.667 0.335,1.1 0,0.413 -0.112,0.772 -0.335,1.075 -0.223,0.303 -0.545,0.537 -0.965,0.7 -0.42,0.163 -0.91,0.245 -1.47,0.245 -0.5,0 -0.985,-0.068 -1.455,-0.205 -0.47,-0.137 -0.845,-0.322 -1.125,-0.555 l 0.59,-1.33 c 0.62,0.427 1.253,0.64 1.9,0.64 0.4,0 0.683,-0.058 0.85,-0.175 0.167,-0.117 0.25,-0.315 0.25,-0.595 0,-0.267 -0.082,-0.457 -0.245,-0.57 -0.163,-0.113 -0.435,-0.17 -0.815,-0.17 h -1.11 v -1.44 h 0.92 c 0.373,0 0.642,-0.052 0.805,-0.155 0.163,-0.103 0.245,-0.272 0.245,-0.505 0,-0.253 -0.078,-0.447 -0.235,-0.58 -0.157,-0.133 -0.375,-0.2 -0.655,-0.2 -0.287,0 -0.588,0.055 -0.905,0.165 -0.317,0.11 -0.618,0.268 -0.905,0.475 l -0.59,-1.33 c 0.287,-0.227 0.662,-0.41 1.125,-0.55 0.463,-0.14 0.932,-0.21 1.405,-0.21 0.507,0 0.95,0.08 1.33,0.24 0.38,0.16 0.675,0.388 0.885,0.685 0.21,0.297 0.315,0.642 0.315,1.035 0.007,0.373 -0.087,0.697 -0.28,0.97 -0.193,0.273 -0.467,0.477 -0.82,0.61 z" /><path
   inkscape:connector-curvature="0"
   id="path210"
   style="fill:#ffffff;fill-rule:nonzero"
   d="m 97.216,182.272 h -2.23 l -2.85,-3.23 v 3.23 h -1.88 v -7.12 h 1.88 v 3.06 l 2.77,-3.06 h 2.2 l -3.15,3.38 z" /><path
   inkscape:connector-curvature="0"
   id="path212"
   style="fill:#ffffff;fill-rule:nonzero"
   d="m 101.916,175.152 h 1.77 v 7.12 h -1.39 l -3.23,-4.04 v 4.04 h -1.75 v -7.12 h 1.37 l 3.23,4.02 z" /><path
   inkscape:connector-curvature="0"
   id="path214"
   style="fill:#ffffff;fill-rule:nonzero"
   d="m 108.366,182.362 c -0.727,0 -1.36,-0.148 -1.9,-0.445 -0.54,-0.297 -0.955,-0.722 -1.245,-1.275 -0.29,-0.553 -0.435,-1.2 -0.435,-1.94 0,-0.74 0.147,-1.383 0.44,-1.93 0.293,-0.547 0.708,-0.968 1.245,-1.265 0.537,-0.297 1.168,-0.445 1.895,-0.445 0.727,0 1.358,0.148 1.895,0.445 0.537,0.297 0.948,0.718 1.235,1.265 0.287,0.547 0.43,1.19 0.43,1.93 0,0.74 -0.143,1.387 -0.43,1.94 -0.287,0.553 -0.698,0.978 -1.235,1.275 -0.537,0.297 -1.168,0.445 -1.895,0.445 z m 0,-1.43 c 0.533,0 0.952,-0.19 1.255,-0.57 0.303,-0.38 0.455,-0.933 0.455,-1.66 0,-0.72 -0.152,-1.268 -0.455,-1.645 -0.303,-0.377 -0.722,-0.565 -1.255,-0.565 -0.533,0 -0.95,0.187 -1.25,0.56 -0.3,0.373 -0.45,0.923 -0.45,1.65 0,0.733 0.15,1.288 0.45,1.665 0.3,0.377 0.717,0.565 1.25,0.565 z" /><path
   inkscape:connector-curvature="0"
   id="path216"
   style="fill:#ffffff;fill-rule:nonzero"
   d="m 117.816,178.582 c 0.42,0.12 0.743,0.332 0.97,0.635 0.227,0.303 0.34,0.672 0.34,1.105 0,0.393 -0.103,0.737 -0.31,1.03 -0.207,0.293 -0.502,0.52 -0.885,0.68 -0.383,0.16 -0.835,0.24 -1.355,0.24 h -3.55 v -7.12 h 3.46 c 0.747,0 1.34,0.167 1.78,0.5 0.44,0.333 0.66,0.783 0.66,1.35 0,0.367 -0.097,0.69 -0.29,0.97 -0.193,0.28 -0.467,0.483 -0.82,0.61 z m -2.96,-0.64 h 1.31 c 0.347,0 0.6,-0.053 0.76,-0.16 0.16,-0.107 0.24,-0.277 0.24,-0.51 0,-0.24 -0.082,-0.417 -0.245,-0.53 -0.163,-0.113 -0.415,-0.17 -0.755,-0.17 h -1.31 z m 1.5,2.91 c 0.36,0 0.618,-0.057 0.775,-0.17 0.157,-0.113 0.235,-0.303 0.235,-0.57 0,-0.273 -0.077,-0.467 -0.23,-0.58 -0.153,-0.113 -0.413,-0.17 -0.78,-0.17 h -1.5 v 1.49 z" /><path
   inkscape:connector-curvature="0"
   id="path218"
   style="fill:#ffffff;fill-rule:nonzero"
   d="m 125.286,179.642 v 1.43 h -0.92 v 1.2 h -1.84 v -1.2 h -2.85 v -1.38 l 3.19,-4.54 h 1.5 v 4.49 z m -3.93,0 h 1.17 v -1.68 z" /><path
   inkscape:connector-curvature="0"
   id="path220"
   style="fill:#ffffff;fill-rule:nonzero"
   d="m 49.728,229.576 h 1.168 v 5.696 h -1.312 l -0.008,-2.608 -1.08,2.608 h -0.952 l -1.088,-2.576 v 2.576 h -1.304 v -5.696 h 1.176 l 1.704,3.888 z" /><path
   inkscape:connector-curvature="0"
   id="path222"
   style="fill:#ffffff;fill-rule:nonzero"
   d="m 54.656,235.344 c -0.581,0 -1.088,-0.119 -1.52,-0.356 -0.432,-0.237 -0.764,-0.577 -0.996,-1.02 -0.232,-0.443 -0.348,-0.96 -0.348,-1.552 0,-0.592 0.117,-1.107 0.352,-1.544 0.235,-0.437 0.567,-0.775 0.996,-1.012 0.429,-0.237 0.935,-0.356 1.516,-0.356 0.581,0 1.087,0.119 1.516,0.356 0.429,0.237 0.759,0.575 0.988,1.012 0.229,0.437 0.344,0.952 0.344,1.544 0,0.592 -0.115,1.109 -0.344,1.552 -0.229,0.443 -0.559,0.783 -0.988,1.02 -0.429,0.237 -0.935,0.356 -1.516,0.356 z m 0,-1.144 c 0.427,0 0.761,-0.152 1.004,-0.456 0.243,-0.304 0.364,-0.747 0.364,-1.328 0,-0.576 -0.121,-1.015 -0.364,-1.316 -0.243,-0.301 -0.577,-0.452 -1.004,-0.452 -0.427,0 -0.76,0.149 -1,0.448 -0.24,0.299 -0.36,0.739 -0.36,1.32 0,0.587 0.12,1.031 0.36,1.332 0.24,0.301 0.573,0.452 1,0.452 z" /><path
   inkscape:connector-curvature="0"
   id="path224"
   style="fill:#ffffff;fill-rule:nonzero"
   d="m 58.384,229.576 h 2.328 c 0.629,0 1.172,0.113 1.628,0.34 0.456,0.227 0.805,0.553 1.048,0.98 0.243,0.427 0.364,0.933 0.364,1.52 0,0.592 -0.12,1.103 -0.36,1.532 -0.24,0.429 -0.588,0.757 -1.044,0.984 -0.456,0.227 -1.001,0.34 -1.636,0.34 h -2.328 z m 2.224,4.496 c 0.555,0 0.969,-0.137 1.244,-0.412 0.275,-0.275 0.412,-0.689 0.412,-1.244 0,-1.093 -0.552,-1.64 -1.656,-1.64 h -0.72 v 3.296 z" /><path
   inkscape:connector-curvature="0"
   id="path226"
   style="fill:#ffffff;fill-rule:nonzero"
   d="m 68.592,234.08 v 1.192 h -4.016 v -1.104 l 1.856,-1.936 c 0.347,-0.363 0.52,-0.701 0.52,-1.016 0,-0.368 -0.219,-0.552 -0.656,-0.552 -0.224,0 -0.46,0.044 -0.708,0.132 -0.248,0.088 -0.497,0.215 -0.748,0.38 l -0.472,-1.064 c 0.229,-0.187 0.527,-0.335 0.892,-0.444 0.365,-0.109 0.737,-0.164 1.116,-0.164 0.411,0 0.769,0.065 1.076,0.196 0.307,0.131 0.544,0.317 0.712,0.56 0.168,0.243 0.252,0.527 0.252,0.852 0,0.331 -0.065,0.631 -0.196,0.9 -0.131,0.269 -0.353,0.572 -0.668,0.908 l -1.136,1.16 z" /><path
   inkscape:connector-curvature="0"
   id="path228"
   style="fill:#ffffff;fill-rule:nonzero"
   d="m 84.728,229.576 h 1.168 v 5.696 h -1.312 l -0.008,-2.608 -1.08,2.608 h -0.952 l -1.088,-2.576 v 2.576 h -1.304 v -5.696 h 1.176 l 1.704,3.888 z" /><path
   inkscape:connector-curvature="0"
   id="path230"
   style="fill:#ffffff;fill-rule:nonzero"
   d="m 89.656,235.344 c -0.581,0 -1.088,-0.119 -1.52,-0.356 -0.432,-0.237 -0.764,-0.577 -0.996,-1.02 -0.232,-0.443 -0.348,-0.96 -0.348,-1.552 0,-0.592 0.117,-1.107 0.352,-1.544 0.235,-0.437 0.567,-0.775 0.996,-1.012 0.429,-0.237 0.935,-0.356 1.516,-0.356 0.581,0 1.087,0.119 1.516,0.356 0.429,0.237 0.759,0.575 0.988,1.012 0.229,0.437 0.344,0.952 0.344,1.544 0,0.592 -0.115,1.109 -0.344,1.552 -0.229,0.443 -0.559,0.783 -0.988,1.02 -0.429,0.237 -0.935,0.356 -1.516,0.356 z m 0,-1.144 c 0.427,0 0.761,-0.152 1.004,-0.456 0.243,-0.304 0.364,-0.747 0.364,-1.328 0,-0.576 -0.121,-1.015 -0.364,-1.316 -0.243,-0.301 -0.577,-0.452 -1.004,-0.452 -0.427,0 -0.76,0.149 -1,0.448 -0.24,0.299 -0.36,0.739 -0.36,1.32 0,0.587 0.12,1.031 0.36,1.332 0.24,0.301 0.573,0.452 1,0.452 z" /><path
   inkscape:connector-curvature="0"
   id="path232"
   style="fill:#ffffff;fill-rule:nonzero"
   d="m 93.384,229.576 h 2.328 c 0.629,0 1.172,0.113 1.628,0.34 0.456,0.227 0.805,0.553 1.048,0.98 0.243,0.427 0.364,0.933 0.364,1.52 0,0.592 -0.12,1.103 -0.36,1.532 -0.24,0.429 -0.588,0.757 -1.044,0.984 -0.456,0.227 -1.001,0.34 -1.636,0.34 h -2.328 z m 2.224,4.496 c 0.555,0 0.969,-0.137 1.244,-0.412 0.275,-0.275 0.412,-0.689 0.412,-1.244 0,-1.093 -0.552,-1.64 -1.656,-1.64 h -0.72 v 3.296 z" /><path
   inkscape:connector-curvature="0"
   id="path234"
   style="fill:#ffffff;fill-rule:nonzero"
   d="m 102.536,232.336 c 0.331,0.096 0.585,0.264 0.764,0.504 0.179,0.24 0.268,0.533 0.268,0.88 0,0.331 -0.089,0.617 -0.268,0.86 -0.179,0.243 -0.436,0.429 -0.772,0.56 -0.336,0.131 -0.728,0.196 -1.176,0.196 -0.4,0 -0.788,-0.055 -1.164,-0.164 -0.376,-0.109 -0.676,-0.257 -0.9,-0.444 l 0.472,-1.064 c 0.496,0.341 1.003,0.512 1.52,0.512 0.32,0 0.547,-0.047 0.68,-0.14 0.133,-0.093 0.2,-0.252 0.2,-0.476 0,-0.213 -0.065,-0.365 -0.196,-0.456 -0.131,-0.091 -0.348,-0.136 -0.652,-0.136 h -0.888 v -1.152 h 0.736 c 0.299,0 0.513,-0.041 0.644,-0.124 0.131,-0.083 0.196,-0.217 0.196,-0.404 0,-0.203 -0.063,-0.357 -0.188,-0.464 -0.125,-0.107 -0.3,-0.16 -0.524,-0.16 -0.229,0 -0.471,0.044 -0.724,0.132 -0.253,0.088 -0.495,0.215 -0.724,0.38 l -0.472,-1.064 c 0.229,-0.181 0.529,-0.328 0.9,-0.44 0.371,-0.112 0.745,-0.168 1.124,-0.168 0.405,0 0.76,0.064 1.064,0.192 0.304,0.128 0.54,0.311 0.708,0.548 0.168,0.237 0.252,0.513 0.252,0.828 0.005,0.299 -0.069,0.557 -0.224,0.776 -0.155,0.219 -0.373,0.381 -0.656,0.488 z" /><path
   inkscape:connector-curvature="0"
   id="path236"
   style="fill:#ffffff;fill-rule:nonzero"
   d="m 119.728,229.576 h 1.168 v 5.696 h -1.312 l -0.008,-2.608 -1.08,2.608 h -0.952 l -1.088,-2.576 v 2.576 h -1.304 v -5.696 h 1.176 l 1.704,3.888 z" /><path
   inkscape:connector-curvature="0"
   id="path238"
   style="fill:#ffffff;fill-rule:nonzero"
   d="m 124.656,235.344 c -0.581,0 -1.088,-0.119 -1.52,-0.356 -0.432,-0.237 -0.764,-0.577 -0.996,-1.02 -0.232,-0.443 -0.348,-0.96 -0.348,-1.552 0,-0.592 0.117,-1.107 0.352,-1.544 0.235,-0.437 0.567,-0.775 0.996,-1.012 0.429,-0.237 0.935,-0.356 1.516,-0.356 0.581,0 1.087,0.119 1.516,0.356 0.429,0.237 0.759,0.575 0.988,1.012 0.229,0.437 0.344,0.952 0.344,1.544 0,0.592 -0.115,1.109 -0.344,1.552 -0.229,0.443 -0.559,0.783 -0.988,1.02 -0.429,0.237 -0.935,0.356 -1.516,0.356 z m 0,-1.144 c 0.427,0 0.761,-0.152 1.004,-0.456 0.243,-0.304 0.364,-0.747 0.364,-1.328 0,-0.576 -0.121,-1.015 -0.364,-1.316 -0.243,-0.301 -0.577,-0.452 -1.004,-0.452 -0.427,0 -0.76,0.149 -1,0.448 -0.24,0.299 -0.36,0.739 -0.36,1.32 0,0.587 0.12,1.031 0.36,1.332 0.24,0.301 0.573,0.452 1,0.452 z" /><path
   inkscape:connector-curvature="0"
   id="path240"
   style="fill:#ffffff;fill-rule:nonzero"
   d="m 128.384,229.576 h 2.328 c 0.629,0 1.172,0.113 1.628,0.34 0.456,0.227 0.805,0.553 1.048,0.98 0.243,0.427 0.364,0.933 0.364,1.52 0,0.592 -0.12,1.103 -0.36,1.532 -0.24,0.429 -0.588,0.757 -1.044,0.984 -0.456,0.227 -1.001,0.34 -1.636,0.34 h -2.328 z m 2.224,4.496 c 0.555,0 0.969,-0.137 1.244,-0.412 0.275,-0.275 0.412,-0.689 0.412,-1.244 0,-1.093 -0.552,-1.64 -1.656,-1.64 h -0.72 v 3.296 z" /><path
   inkscape:connector-curvature="0"
   id="path242"
   style="fill:#ffffff;fill-rule:nonzero"
   d="m 138.824,233.168 v 1.144 h -0.736 v 0.96 h -1.472 v -0.96 h -2.28 v -1.104 l 2.552,-3.632 h 1.2 v 3.592 z m -3.144,0 h 0.936 v -1.344 z" /><path
   inkscape:connector-curvature="0"
   id="path244"
   style="fill:#ffffff;fill-rule:nonzero"
   d="m 13.84,343.344 c -0.581,0 -1.088,-0.119 -1.52,-0.356 -0.432,-0.237 -0.764,-0.577 -0.996,-1.02 -0.232,-0.443 -0.348,-0.96 -0.348,-1.552 0,-0.592 0.117,-1.107 0.352,-1.544 0.235,-0.437 0.567,-0.775 0.996,-1.012 0.429,-0.237 0.935,-0.356 1.516,-0.356 0.581,0 1.087,0.119 1.516,0.356 0.429,0.237 0.759,0.575 0.988,1.012 0.229,0.437 0.344,0.952 0.344,1.544 0,0.592 -0.115,1.109 -0.344,1.552 -0.229,0.443 -0.559,0.783 -0.988,1.02 -0.429,0.237 -0.935,0.356 -1.516,0.356 z m 0,-1.144 c 0.427,0 0.761,-0.152 1.004,-0.456 0.243,-0.304 0.364,-0.747 0.364,-1.328 0,-0.576 -0.121,-1.015 -0.364,-1.316 -0.243,-0.301 -0.577,-0.452 -1.004,-0.452 -0.427,0 -0.76,0.149 -1,0.448 -0.24,0.299 -0.36,0.739 -0.36,1.32 0,0.587 0.12,1.031 0.36,1.332 0.24,0.301 0.573,0.452 1,0.452 z" /><path
   inkscape:connector-curvature="0"
   id="path246"
   style="fill:#ffffff;fill-rule:nonzero"
   d="m 20.072,343.344 c -0.832,0 -1.461,-0.209 -1.888,-0.628 -0.427,-0.419 -0.64,-1.033 -0.64,-1.844 v -3.296 h 1.464 v 3.352 c 0,0.411 0.092,0.725 0.276,0.944 0.184,0.219 0.447,0.328 0.788,0.328 0.336,0 0.595,-0.111 0.776,-0.332 0.181,-0.221 0.272,-0.535 0.272,-0.94 v -3.352 h 1.48 v 3.296 c 0,0.8 -0.217,1.412 -0.652,1.836 -0.435,0.424 -1.06,0.636 -1.876,0.636 z" /><path
   inkscape:connector-curvature="0"
   id="path248"
   style="fill:#ffffff;fill-rule:nonzero"
   d="m 24.864,343.272 v -4.48 h -1.696 v -1.216 h 4.912 v 1.216 h -1.696 v 4.48 z" /><path
   inkscape:connector-curvature="0"
   id="path250"
   style="fill:#ffffff;fill-rule:nonzero"
   d="m 31.632,342.08 h 1.232 v 1.192 h -3.952 v -1.192 h 1.224 v -2.872 l -1.144,0.656 v -1.288 l 1.76,-1 h 0.88 z" /><path
   inkscape:connector-curvature="0"
   id="path252"
   style="fill:#ffffff;fill-rule:nonzero"
   d="m 48.84,343.344 c -0.581,0 -1.088,-0.119 -1.52,-0.356 -0.432,-0.237 -0.764,-0.577 -0.996,-1.02 -0.232,-0.443 -0.348,-0.96 -0.348,-1.552 0,-0.592 0.117,-1.107 0.352,-1.544 0.235,-0.437 0.567,-0.775 0.996,-1.012 0.429,-0.237 0.935,-0.356 1.516,-0.356 0.581,0 1.087,0.119 1.516,0.356 0.429,0.237 0.759,0.575 0.988,1.012 0.229,0.437 0.344,0.952 0.344,1.544 0,0.592 -0.115,1.109 -0.344,1.552 -0.229,0.443 -0.559,0.783 -0.988,1.02 -0.429,0.237 -0.935,0.356 -1.516,0.356 z m 0,-1.144 c 0.427,0 0.761,-0.152 1.004,-0.456 0.243,-0.304 0.364,-0.747 0.364,-1.328 0,-0.576 -0.121,-1.015 -0.364,-1.316 -0.243,-0.301 -0.577,-0.452 -1.004,-0.452 -0.427,0 -0.76,0.149 -1,0.448 -0.24,0.299 -0.36,0.739 -0.36,1.32 0,0.587 0.12,1.031 0.36,1.332 0.24,0.301 0.573,0.452 1,0.452 z" /><path
   inkscape:connector-curvature="0"
   id="path254"
   style="fill:#ffffff;fill-rule:nonzero"
   d="m 55.072,343.344 c -0.832,0 -1.461,-0.209 -1.888,-0.628 -0.427,-0.419 -0.64,-1.033 -0.64,-1.844 v -3.296 h 1.464 v 3.352 c 0,0.411 0.092,0.725 0.276,0.944 0.184,0.219 0.447,0.328 0.788,0.328 0.336,0 0.595,-0.111 0.776,-0.332 0.181,-0.221 0.272,-0.535 0.272,-0.94 v -3.352 h 1.48 v 3.296 c 0,0.8 -0.217,1.412 -0.652,1.836 -0.435,0.424 -1.06,0.636 -1.876,0.636 z" /><path
   inkscape:connector-curvature="0"
   id="path256"
   style="fill:#ffffff;fill-rule:nonzero"
   d="m 59.864,343.272 v -4.48 h -1.696 v -1.216 h 4.912 v 1.216 h -1.696 v 4.48 z" /><path
   inkscape:connector-curvature="0"
   id="path258"
   style="fill:#ffffff;fill-rule:nonzero"
   d="m 67.648,342.08 v 1.192 h -4.016 v -1.104 l 1.856,-1.936 c 0.347,-0.363 0.52,-0.701 0.52,-1.016 0,-0.368 -0.219,-0.552 -0.656,-0.552 -0.224,0 -0.46,0.044 -0.708,0.132 -0.248,0.088 -0.497,0.215 -0.748,0.38 l -0.472,-1.064 c 0.229,-0.187 0.527,-0.335 0.892,-0.444 0.365,-0.109 0.737,-0.164 1.116,-0.164 0.411,0 0.769,0.065 1.076,0.196 0.307,0.131 0.544,0.317 0.712,0.56 0.168,0.243 0.252,0.527 0.252,0.852 0,0.331 -0.065,0.631 -0.196,0.9 -0.131,0.269 -0.353,0.572 -0.668,0.908 l -1.136,1.16 z" /><path
   inkscape:connector-curvature="0"
   id="path260"
   style="fill:#ffffff;fill-rule:nonzero"
   d="m 83.84,343.344 c -0.581,0 -1.088,-0.119 -1.52,-0.356 -0.432,-0.237 -0.764,-0.577 -0.996,-1.02 -0.232,-0.443 -0.348,-0.96 -0.348,-1.552 0,-0.592 0.117,-1.107 0.352,-1.544 0.235,-0.437 0.567,-0.775 0.996,-1.012 0.429,-0.237 0.935,-0.356 1.516,-0.356 0.581,0 1.087,0.119 1.516,0.356 0.429,0.237 0.759,0.575 0.988,1.012 0.229,0.437 0.344,0.952 0.344,1.544 0,0.592 -0.115,1.109 -0.344,1.552 -0.229,0.443 -0.559,0.783 -0.988,1.02 -0.429,0.237 -0.935,0.356 -1.516,0.356 z m 0,-1.144 c 0.427,0 0.761,-0.152 1.004,-0.456 0.243,-0.304 0.364,-0.747 0.364,-1.328 0,-0.576 -0.121,-1.015 -0.364,-1.316 -0.243,-0.301 -0.577,-0.452 -1.004,-0.452 -0.427,0 -0.76,0.149 -1,0.448 -0.24,0.299 -0.36,0.739 -0.36,1.32 0,0.587 0.12,1.031 0.36,1.332 0.24,0.301 0.573,0.452 1,0.452 z" /><path
   inkscape:connector-curvature="0"
   id="path262"
   style="fill:#ffffff;fill-rule:nonzero"
   d="m 90.072,343.344 c -0.832,0 -1.461,-0.209 -1.888,-0.628 -0.427,-0.419 -0.64,-1.033 -0.64,-1.844 v -3.296 h 1.464 v 3.352 c 0,0.411 0.092,0.725 0.276,0.944 0.184,0.219 0.447,0.328 0.788,0.328 0.336,0 0.595,-0.111 0.776,-0.332 0.181,-0.221 0.272,-0.535 0.272,-0.94 v -3.352 h 1.48 v 3.296 c 0,0.8 -0.217,1.412 -0.652,1.836 -0.435,0.424 -1.06,0.636 -1.876,0.636 z" /><path
   inkscape:connector-curvature="0"
   id="path264"
   style="fill:#ffffff;fill-rule:nonzero"
   d="m 94.864,343.272 v -4.48 h -1.696 v -1.216 h 4.912 v 1.216 h -1.696 v 4.48 z" /><path
   inkscape:connector-curvature="0"
   id="path266"
   style="fill:#ffffff;fill-rule:nonzero"
   d="m 101.592,340.336 c 0.331,0.096 0.585,0.264 0.764,0.504 0.179,0.24 0.268,0.533 0.268,0.88 0,0.331 -0.089,0.617 -0.268,0.86 -0.179,0.243 -0.436,0.429 -0.772,0.56 -0.336,0.131 -0.728,0.196 -1.176,0.196 -0.4,0 -0.788,-0.055 -1.164,-0.164 -0.376,-0.109 -0.676,-0.257 -0.9,-0.444 l 0.472,-1.064 c 0.496,0.341 1.003,0.512 1.52,0.512 0.32,0 0.547,-0.047 0.68,-0.14 0.133,-0.093 0.2,-0.252 0.2,-0.476 0,-0.213 -0.065,-0.365 -0.196,-0.456 -0.131,-0.091 -0.348,-0.136 -0.652,-0.136 H 99.48 v -1.152 h 0.736 c 0.299,0 0.513,-0.041 0.644,-0.124 0.131,-0.083 0.196,-0.217 0.196,-0.404 0,-0.203 -0.063,-0.357 -0.188,-0.464 -0.125,-0.107 -0.3,-0.16 -0.524,-0.16 -0.229,0 -0.471,0.044 -0.724,0.132 -0.253,0.088 -0.495,0.215 -0.724,0.38 l -0.472,-1.064 c 0.229,-0.181 0.529,-0.328 0.9,-0.44 0.371,-0.112 0.745,-0.168 1.124,-0.168 0.405,0 0.76,0.064 1.064,0.192 0.304,0.128 0.54,0.311 0.708,0.548 0.168,0.237 0.252,0.513 0.252,0.828 0.005,0.299 -0.069,0.557 -0.224,0.776 -0.155,0.219 -0.373,0.381 -0.656,0.488 z" /><path
   inkscape:connector-curvature="0"
   id="path268"
   style="fill:#ffffff;fill-rule:nonzero"
   d="m 118.84,343.344 c -0.581,0 -1.088,-0.119 -1.52,-0.356 -0.432,-0.237 -0.764,-0.577 -0.996,-1.02 -0.232,-0.443 -0.348,-0.96 -0.348,-1.552 0,-0.592 0.117,-1.107 0.352,-1.544 0.235,-0.437 0.567,-0.775 0.996,-1.012 0.429,-0.237 0.935,-0.356 1.516,-0.356 0.581,0 1.087,0.119 1.516,0.356 0.429,0.237 0.759,0.575 0.988,1.012 0.229,0.437 0.344,0.952 0.344,1.544 0,0.592 -0.115,1.109 -0.344,1.552 -0.229,0.443 -0.559,0.783 -0.988,1.02 -0.429,0.237 -0.935,0.356 -1.516,0.356 z m 0,-1.144 c 0.427,0 0.761,-0.152 1.004,-0.456 0.243,-0.304 0.364,-0.747 0.364,-1.328 0,-0.576 -0.121,-1.015 -0.364,-1.316 -0.243,-0.301 -0.577,-0.452 -1.004,-0.452 -0.427,0 -0.76,0.149 -1,0.448 -0.24,0.299 -0.36,0.739 -0.36,1.32 0,0.587 0.12,1.031 0.36,1.332 0.24,0.301 0.573,0.452 1,0.452 z" /><path
   inkscape:connector-curvature="0"
   id="path270"
   style="fill:#ffffff;fill-rule:nonzero"
   d="m 125.072,343.344 c -0.832,0 -1.461,-0.209 -1.888,-0.628 -0.427,-0.419 -0.64,-1.033 -0.64,-1.844 v -3.296 h 1.464 v 3.352 c 0,0.411 0.092,0.725 0.276,0.944 0.184,0.219 0.447,0.328 0.788,0.328 0.336,0 0.595,-0.111 0.776,-0.332 0.181,-0.221 0.272,-0.535 0.272,-0.94 v -3.352 h 1.48 v 3.296 c 0,0.8 -0.217,1.412 -0.652,1.836 -0.435,0.424 -1.06,0.636 -1.876,0.636 z" /><path
   inkscape:connector-curvature="0"
   id="path272"
   style="fill:#ffffff;fill-rule:nonzero"
   d="m 129.864,343.272 v -4.48 h -1.696 v -1.216 h 4.912 v 1.216 h -1.696 v 4.48 z" /><path
   inkscape:connector-curvature="0"
   id="path274"
   style="fill:#ffffff;fill-rule:nonzero"
   d="m 137.88,341.168 v 1.144 h -0.736 v 0.96 h -1.472 v -0.96 h -2.28 v -1.104 l 2.552,-3.632 h 1.2 v 3.592 z m -3.144,0 h 0.936 v -1.344 z" /><rect
   id="rect276"
   style="fill:#ffffff;fill-rule:nonzero"
   height="5.6960001"
   width="1.5039999"
   y="297.57599"
   x="50.127998" /><path
   inkscape:connector-curvature="0"
   id="path278"
   style="fill:#ffffff;fill-rule:nonzero"
   d="m 56.336,297.576 h 1.416 v 5.696 H 56.64 l -2.584,-3.232 v 3.232 h -1.4 v -5.696 h 1.096 l 2.584,3.216 z" /><path
   inkscape:connector-curvature="0"
   id="path280"
   style="fill:#ffffff;fill-rule:nonzero"
   d="m 62.744,302.08 v 1.192 h -4.016 v -1.104 l 1.856,-1.936 c 0.347,-0.363 0.52,-0.701 0.52,-1.016 0,-0.368 -0.219,-0.552 -0.656,-0.552 -0.224,0 -0.46,0.044 -0.708,0.132 -0.248,0.088 -0.497,0.215 -0.748,0.38 l -0.472,-1.064 c 0.229,-0.187 0.527,-0.335 0.892,-0.444 0.365,-0.109 0.737,-0.164 1.116,-0.164 0.411,0 0.769,0.065 1.076,0.196 0.307,0.131 0.544,0.317 0.712,0.56 0.168,0.243 0.252,0.527 0.252,0.852 0,0.331 -0.065,0.631 -0.196,0.9 -0.131,0.269 -0.353,0.572 -0.668,0.908 l -1.136,1.16 z" /><rect
   id="rect282"
   style="fill:#ffffff;fill-rule:nonzero"
   height="5.6960001"
   width="1.5039999"
   y="297.57599"
   x="85.127998" /><path
   inkscape:connector-curvature="0"
   id="path284"
   style="fill:#ffffff;fill-rule:nonzero"
   d="m 91.336,297.576 h 1.416 v 5.696 H 91.64 l -2.584,-3.232 v 3.232 h -1.4 v -5.696 h 1.096 l 2.584,3.216 z" /><path
   inkscape:connector-curvature="0"
   id="path286"
   style="fill:#ffffff;fill-rule:nonzero"
   d="m 96.688,300.336 c 0.331,0.096 0.585,0.264 0.764,0.504 0.179,0.24 0.268,0.533 0.268,0.88 0,0.331 -0.089,0.617 -0.268,0.86 -0.179,0.243 -0.436,0.429 -0.772,0.56 -0.336,0.131 -0.728,0.196 -1.176,0.196 -0.4,0 -0.788,-0.055 -1.164,-0.164 -0.376,-0.109 -0.676,-0.257 -0.9,-0.444 l 0.472,-1.064 c 0.496,0.341 1.003,0.512 1.52,0.512 0.32,0 0.547,-0.047 0.68,-0.14 0.133,-0.093 0.2,-0.252 0.2,-0.476 0,-0.213 -0.065,-0.365 -0.196,-0.456 -0.131,-0.091 -0.348,-0.136 -0.652,-0.136 h -0.888 v -1.152 h 0.736 c 0.299,0 0.513,-0.041 0.644,-0.124 0.131,-0.083 0.196,-0.217 0.196,-0.404 0,-0.203 -0.063,-0.357 -0.188,-0.464 -0.125,-0.107 -0.3,-0.16 -0.524,-0.16 -0.229,0 -0.471,0.044 -0.724,0.132 -0.253,0.088 -0.495,0.215 -0.724,0.38 l -0.472,-1.064 c 0.229,-0.181 0.529,-0.328 0.9,-0.44 0.371,-0.112 0.745,-0.168 1.124,-0.168 0.405,0 0.76,0.064 1.064,0.192 0.304,0.128 0.54,0.311 0.708,0.548 0.168,0.237 0.252,0.513 0.252,0.828 0.005,0.299 -0.069,0.557 -0.224,0.776 -0.155,0.219 -0.373,0.381 -0.656,0.488 z" /><rect
   id="rect288"
   style="fill:#ffffff;fill-rule:nonzero"
   height="5.6960001"
   width="1.5039999"
   y="297.57599"
   x="120.128" /><path
   inkscape:connector-curvature="0"
   id="path290"
   style="fill:#ffffff;fill-rule:nonzero"
   d="m 126.336,297.576 h 1.416 v 5.696 h -1.112 l -2.584,-3.232 v 3.232 h -1.4 v -5.696 h 1.096 l 2.584,3.216 z" /><path
   inkscape:connector-curvature="0"
   id="path292"
   style="fill:#ffffff;fill-rule:nonzero"
   d="m 132.976,301.168 v 1.144 h -0.736 v 0.96 h -1.472 v -0.96 h -2.28 v -1.104 l 2.552,-3.632 h 1.2 v 3.592 z m -3.144,0 h 0.936 v -1.344 z" /><path
   inkscape:connector-curvature="0"
   id="path294"
   style="fill:#101010;stroke:#cccccc;stroke-width:0.94999999px"
   d="M 74.576,42.934 C 77.92,42.934 84.607,33 84.607,33 h 24.533 c 0,0 3,-0.006 3,4.328 0,3.333 -3,3.672 -3,3.672 H 84.607 c 0,0 -6.687,9.934 -10.031,9.934 C 71.232,50.934 64.545,41 64.545,41 H 40.012 c 0,0 -3,-0.339 -3,-3.672 0,-4.334 3,-4.328 3,-4.328 h 24.533 c 0,0 6.687,9.934 10.031,9.934 z" /><path
   inkscape:connector-curvature="0"
   id="path316"
   style="fill:none;stroke:#cccccc;stroke-width:0.94999999px"
   d="m 21.478,202 v -5" /><path
   inkscape:connector-curvature="0"
   id="path318"
   style="fill:none;stroke:#cccccc;stroke-width:0.94999999px"
   d="m 56.478,202 v -5" /><path
   inkscape:connector-curvature="0"
   id="path320"
   style="fill:none;stroke:#cccccc;stroke-width:0.94999999px"
   d="m 91.478,202 v -5" /><path
   inkscape:connector-curvature="0"
   id="path322"
   style="fill:none;stroke:#cccccc;stroke-width:0.94999999px"
   d="m 126.478,202 v -5" />
<text
   xml:space="preserve"
   style="font-style:normal;font-variant:normal;font-weight:normal;font-stretch:normal;font-size:15px;line-height:100%;font-family:Dingbats;-inkscape-font-specification:'Dingbats, Normal';text-align:start;letter-spacing:0px;word-spacing:0px;writing-mode:lr-tb;text-anchor:start;fill:#ff0a85;fill-opacity:1;stroke:none;stroke-width:1px;stroke-linecap:butt;stroke-linejoin:miter;stroke-opacity:1"
   x="160.25156"
   y="27.338009"
   id="text1802"><tspan
     sodipodi:role="line"
     id="tspan1800"
     x="160.25156"
     y="27.338009"
     style="font-style:normal;font-variant:normal;font-weight:bold;font-stretch:normal;font-family:'Gentium Book Basic';-inkscape-font-specification:'Gentium Book Basic Bold'">SynthSampler</tspan></text>



<g
   aria-label="SynthSampler"
   style="font-style:normal;font-variant:normal;font-weight:normal;font-stretch:normal;font-size:15px;line-height:100%;font-family:Dingbats;-inkscape-font-specification:'Dingbats, Normal';text-align:start;letter-spacing:0px;word-spacing:0px;writing-mode:lr-tb;text-anchor:start;fill:#ff0a85;fill-opacity:1;stroke:none;stroke-width:1px;stroke-linecap:butt;stroke-linejoin:miter;stroke-opacity:1"
   id="text979"><path
     d="m 34.61006,21.184364 q 0,0.32959 -0.102539,0.673828 -0.102539,0.344239 -0.307618,0.681153 -0.197753,0.32959 -0.512695,0.629883 -0.307617,0.292968 -0.732422,0.512695 -0.41748,0.219726 -0.944824,0.351562 -0.527344,0.131836 -1.171875,0.131836 -0.270996,0 -0.629883,-0.05127 -0.358886,-0.05127 -0.732422,-0.146485 -0.373535,-0.08789 -0.732421,-0.219726 -0.351563,-0.131836 -0.607911,-0.300293 -0.03662,-0.01465 -0.05859,-0.146484 -0.02197,-0.139161 -0.0293,-0.344239 -0.0073,-0.205078 -0.0073,-0.461426 0,-0.256347 0.02197,-0.520019 0.02197,-0.270996 0.05859,-0.527344 0.03662,-0.256347 0.08789,-0.461426 l 0.593261,0.03662 q 0.168457,0.432128 0.402832,0.805664 0.2417,0.373535 0.534668,0.651855 0.300293,0.270996 0.644532,0.432129 0.344238,0.153809 0.717773,0.153809 0.32959,0 0.622559,-0.08057 0.300293,-0.08057 0.527343,-0.241699 0.227051,-0.168457 0.358887,-0.417481 0.131836,-0.256347 0.131836,-0.60791 0,-0.446777 -0.197754,-0.769043 -0.197754,-0.32959 -0.527344,-0.578613 -0.322265,-0.256348 -0.739746,-0.461426 -0.41748,-0.205078 -0.856933,-0.410156 -0.432129,-0.205078 -0.84961,-0.432129 -0.41748,-0.227051 -0.74707,-0.520019 -0.322266,-0.300293 -0.52002,-0.688477 -0.197754,-0.388184 -0.197754,-0.922852 0,-0.22705 0.08789,-0.498046 0.09521,-0.270997 0.27832,-0.541993 0.19043,-0.270996 0.476075,-0.520019 0.285644,-0.256348 0.673828,-0.446777 0.388183,-0.197754 0.88623,-0.314942 0.498047,-0.117187 1.105957,-0.117187 0.417481,0 0.812989,0.05127 0.395507,0.05127 0.732421,0.13916 0.344239,0.08789 0.600586,0.212403 0.263672,0.124511 0.395508,0.270996 0.03662,0.0293 0.01465,0.146484 -0.01465,0.109863 -0.06592,0.263672 -0.05127,0.153809 -0.131836,0.336914 -0.07324,0.175781 -0.161133,0.344238 -0.08057,0.161133 -0.161133,0.292969 -0.08057,0.124512 -0.13916,0.175781 l -0.556641,-0.04394 q -0.146484,-0.373535 -0.351562,-0.622559 -0.205078,-0.256347 -0.439453,-0.410156 -0.227051,-0.153808 -0.46875,-0.212402 -0.234375,-0.06592 -0.439453,-0.06592 -0.351563,0 -0.600586,0.08789 -0.249024,0.08789 -0.410157,0.2417 -0.161132,0.146484 -0.234375,0.344238 -0.07324,0.19043 -0.07324,0.395508 0,0.344238 0.197754,0.615234 0.205078,0.270996 0.534668,0.498047 0.32959,0.227051 0.74707,0.439453 l 0.856934,0.424805 q 0.439453,0.219726 0.856934,0.476074 0.41748,0.256348 0.74707,0.585938 0.32959,0.322265 0.527344,0.739746 0.205078,0.41748 0.205078,0.959472 z"
     style="font-style:normal;font-variant:normal;font-weight:bold;font-stretch:normal;font-family:'Gentium Book Basic';-inkscape-font-specification:'Gentium Book Basic Bold'"
     id="path981" /><path
     d="m 42.805861,17.741982 q -0.219727,0.05127 -0.358887,0.09521 -0.13916,0.04395 -0.227051,0.102539 -0.08057,0.05127 -0.131836,0.124512 -0.04395,0.06592 -0.08789,0.175781 l -2.446289,6.232911 q -0.314941,0.805664 -0.681152,1.384277 -0.358887,0.578613 -0.776367,0.952148 -0.410156,0.373535 -0.864258,0.549317 -0.454102,0.175781 -0.959473,0.175781 -0.27832,0 -0.563964,-0.05859 -0.278321,-0.05859 -0.505372,-0.13916 -0.219726,-0.08057 -0.358886,-0.175781 -0.13916,-0.09521 -0.13916,-0.161133 0,-0.07324 0.13916,-0.27832 0.131836,-0.205078 0.322265,-0.439453 0.183106,-0.227051 0.373536,-0.432129 0.197753,-0.205078 0.314941,-0.278321 0.373535,0.256348 0.74707,0.314942 0.373535,0.06592 0.644531,-0.03662 0.131836,-0.04395 0.270997,-0.124512 0.146484,-0.08057 0.285644,-0.219727 0.13916,-0.13916 0.270996,-0.358886 0.13916,-0.212403 0.270996,-0.527344 l 0.212403,-0.505371 -2.475586,-5.874024 q -0.08057,-0.197754 -0.263672,-0.307617 -0.183106,-0.109863 -0.549317,-0.190429 v -0.607911 h 3.486329 v 0.607911 q -0.285645,0.03662 -0.432129,0.08057 -0.146485,0.03662 -0.205078,0.09521 -0.05127,0.05127 -0.03662,0.131836 0.01465,0.07324 0.06592,0.190429 l 1.413575,3.347168 1.347656,-3.347168 q 0.04395,-0.109863 0.06592,-0.183105 0.02197,-0.08057 -0.01465,-0.131836 -0.03662,-0.05859 -0.161132,-0.09521 -0.124512,-0.04395 -0.366211,-0.08789 v -0.607911 h 2.373047 z"
     style="font-style:normal;font-variant:normal;font-weight:bold;font-stretch:normal;font-family:'Gentium Book Basic';-inkscape-font-specification:'Gentium Book Basic Bold'"
     id="path983" /><path
     d="m 47.720411,23.945595 v -0.60791 q 0.527344,-0.139161 0.739746,-0.2417 0.212403,-0.102539 0.212403,-0.205078 v -3.14209 q 0,-0.388183 -0.03662,-0.651855 -0.03662,-0.263672 -0.124512,-0.41748 -0.08057,-0.161133 -0.219727,-0.227051 -0.131836,-0.07324 -0.336914,-0.07324 -0.153808,0 -0.32959,0.0293 -0.168457,0.02197 -0.380859,0.09521 -0.205078,0.06592 -0.476074,0.197754 -0.270996,0.131836 -0.622559,0.344238 v 3.845215 q 0,0.109864 0.234375,0.227051 0.241699,0.117188 0.717774,0.219727 v 0.60791 h -3.881836 v -0.60791 q 0.483398,-0.124512 0.717773,-0.219727 0.234375,-0.102539 0.234375,-0.227051 v -3.933105 q 0,-0.285645 -0.01465,-0.454102 -0.0073,-0.168457 -0.09522,-0.263672 -0.08057,-0.09521 -0.27832,-0.13916 -0.19043,-0.04394 -0.563965,-0.08789 V 17.42704 q 0.380859,-0.03662 0.710449,-0.08057 0.336914,-0.05127 0.629883,-0.109864 0.300293,-0.06592 0.578613,-0.13916 0.285645,-0.08057 0.571289,-0.183105 l 0.32959,0.32959 0.08057,0.798339 q 0.461426,-0.322265 0.864258,-0.534667 0.402832,-0.219727 0.761719,-0.351563 0.366211,-0.131836 0.681152,-0.183105 0.322266,-0.05859 0.60791,-0.05859 0.314942,0 0.607911,0.102539 0.292968,0.102539 0.512695,0.336914 0.227051,0.227051 0.358887,0.60791 0.13916,0.373535 0.13916,0.922852 v 4.006347 q 0,0.05127 0.03662,0.102539 0.04395,0.04395 0.146484,0.09521 0.109864,0.05127 0.292969,0.117188 0.19043,0.05859 0.476074,0.131836 v 0.60791 z"
     style="font-style:normal;font-variant:normal;font-weight:bold;font-stretch:normal;font-family:'Gentium Book Basic';-inkscape-font-specification:'Gentium Book Basic Bold'"
     id="path985" /><path
     d="m 57.285841,22.72245 q -1.054688,0.754395 -1.73584,1.098633 -0.681152,0.344238 -1.069336,0.344238 -0.336914,0 -0.637207,-0.131836 -0.292969,-0.124511 -0.520019,-0.380859 -0.219727,-0.263672 -0.351563,-0.644531 -0.124512,-0.388184 -0.124512,-0.900879 v -3.984375 h -0.871582 l -0.22705,-0.27832 0.571289,-0.71045 h 0.527343 v -1.435547 l 1.677247,-1.201171 0.300292,0.256347 v 2.380371 h 2.175293 l 0.285645,0.285645 q -0.06592,0.131836 -0.168457,0.27832 -0.09522,0.13916 -0.197754,0.270996 -0.102539,0.131836 -0.205078,0.2417 -0.09521,0.109863 -0.168457,0.168457 -0.08789,-0.04395 -0.227051,-0.08789 -0.131836,-0.04395 -0.292969,-0.08057 -0.161132,-0.04395 -0.336914,-0.06592 -0.175781,-0.02197 -0.336914,-0.02197 h -0.527344 v 3.28125 q 0,0.358887 0.04395,0.60791 0.05127,0.241699 0.124512,0.395508 0.08057,0.153808 0.183105,0.227051 0.102539,0.06592 0.212402,0.06592 0.131836,0 0.270996,-0.02197 0.139161,-0.0293 0.314942,-0.08789 0.175781,-0.06592 0.402832,-0.175781 0.234375,-0.109863 0.549316,-0.285644 z"
     style="font-style:normal;font-variant:normal;font-weight:bold;font-stretch:normal;font-family:'Gentium Book Basic';-inkscape-font-specification:'Gentium Book Basic Bold'"
     id="path987" /><path
     d="m 62.258986,23.945595 v -0.60791 q 0.527343,-0.139161 0.739746,-0.2417 0.212402,-0.102539 0.212402,-0.205078 v -2.995605 q 0,-0.446778 -0.04395,-0.739746 -0.04395,-0.292969 -0.139161,-0.461426 -0.09521,-0.175781 -0.249023,-0.241699 -0.146484,-0.07324 -0.358887,-0.07324 -0.197754,0 -0.388183,0.05127 -0.183106,0.04394 -0.388184,0.131836 -0.205078,0.08057 -0.439453,0.205078 -0.234375,0.124512 -0.52002,0.27832 v 3.845215 q 0,0.109864 0.234375,0.227051 0.2417,0.117188 0.717774,0.219727 v 0.60791 h -3.881836 v -0.60791 q 0.483398,-0.124512 0.717773,-0.219727 0.234375,-0.102539 0.234375,-0.227051 v -8.159179 q 0,-0.307618 -0.01465,-0.476075 -0.01465,-0.175781 -0.109863,-0.270996 -0.08789,-0.09521 -0.285645,-0.131836 -0.19043,-0.04395 -0.541992,-0.08789 v -0.585938 q 0.446777,-0.05859 0.79834,-0.117187 0.351562,-0.05859 0.651855,-0.124512 0.300293,-0.07324 0.571289,-0.153809 0.270996,-0.08057 0.563965,-0.190429 l 0.344238,0.322265 v 5.06836 q 0.454102,-0.300293 0.84961,-0.505371 0.402832,-0.205078 0.761719,-0.32959 0.358886,-0.124512 0.673828,-0.175781 0.314941,-0.05859 0.600586,-0.05859 0.314941,0 0.60791,0.102539 0.292969,0.102539 0.512695,0.336914 0.227051,0.227051 0.358887,0.60791 0.13916,0.373535 0.13916,0.922852 v 4.006347 q 0,0.05127 0.03662,0.102539 0.04394,0.04395 0.146484,0.09521 0.109864,0.05127 0.292969,0.117188 0.19043,0.05859 0.476074,0.131836 v 0.60791 z"
     style="font-style:normal;font-variant:normal;font-weight:bold;font-stretch:normal;font-family:'Gentium Book Basic';-inkscape-font-specification:'Gentium Book Basic Bold'"
     id="path989" /><path
     d="m 73.574903,21.184364 q 0,0.32959 -0.102539,0.673828 -0.102539,0.344239 -0.307617,0.681153 -0.197754,0.32959 -0.512695,0.629883 -0.307617,0.292968 -0.732422,0.512695 -0.41748,0.219726 -0.944824,0.351562 -0.527344,0.131836 -1.171875,0.131836 -0.270996,0 -0.629883,-0.05127 -0.358887,-0.05127 -0.732422,-0.146485 -0.373535,-0.08789 -0.732422,-0.219726 -0.351562,-0.131836 -0.60791,-0.300293 -0.03662,-0.01465 -0.05859,-0.146484 -0.02197,-0.139161 -0.0293,-0.344239 -0.0073,-0.205078 -0.0073,-0.461426 0,-0.256347 0.02197,-0.520019 0.02197,-0.270996 0.05859,-0.527344 0.03662,-0.256347 0.08789,-0.461426 l 0.593262,0.03662 q 0.168457,0.432128 0.402832,0.805664 0.241699,0.373535 0.534668,0.651855 0.300293,0.270996 0.644531,0.432129 0.344239,0.153809 0.717774,0.153809 0.32959,0 0.622558,-0.08057 0.300293,-0.08057 0.527344,-0.241699 0.227051,-0.168457 0.358887,-0.417481 0.131836,-0.256347 0.131836,-0.60791 0,-0.446777 -0.197754,-0.769043 -0.197754,-0.32959 -0.527344,-0.578613 -0.322266,-0.256348 -0.739746,-0.461426 -0.417481,-0.205078 -0.856934,-0.410156 -0.432129,-0.205078 -0.849609,-0.432129 -0.41748,-0.227051 -0.74707,-0.520019 -0.322266,-0.300293 -0.52002,-0.688477 -0.197754,-0.388184 -0.197754,-0.922852 0,-0.22705 0.08789,-0.498046 0.09521,-0.270997 0.27832,-0.541993 0.19043,-0.270996 0.476074,-0.520019 0.285645,-0.256348 0.673829,-0.446777 0.388183,-0.197754 0.88623,-0.314942 0.498047,-0.117187 1.105957,-0.117187 0.41748,0 0.812988,0.05127 0.395508,0.05127 0.732422,0.13916 0.344238,0.08789 0.600586,0.212403 0.263672,0.124511 0.395508,0.270996 0.03662,0.0293 0.01465,0.146484 -0.01465,0.109863 -0.06592,0.263672 -0.05127,0.153809 -0.131836,0.336914 -0.07324,0.175781 -0.161132,0.344238 -0.08057,0.161133 -0.161133,0.292969 -0.08057,0.124512 -0.13916,0.175781 l -0.556641,-0.04394 q -0.146484,-0.373535 -0.351562,-0.622559 -0.205079,-0.256347 -0.439454,-0.410156 -0.22705,-0.153808 -0.46875,-0.212402 -0.234375,-0.06592 -0.439453,-0.06592 -0.351562,0 -0.600586,0.08789 -0.249023,0.08789 -0.410156,0.2417 -0.161133,0.146484 -0.234375,0.344238 -0.07324,0.19043 -0.07324,0.395508 0,0.344238 0.197754,0.615234 0.205078,0.270996 0.534668,0.498047 0.32959,0.227051 0.74707,0.439453 l 0.856934,0.424805 q 0.439453,0.219726 0.856933,0.476074 0.417481,0.256348 0.747071,0.585938 0.329589,0.322265 0.527343,0.739746 0.205078,0.41748 0.205078,0.959472 z"
     style="font-style:normal;font-variant:normal;font-weight:bold;font-stretch:normal;font-family:'Gentium Book Basic';-inkscape-font-specification:'Gentium Book Basic Bold'"
     id="path991" /><path
     d="m 77.324903,22.77372 q 0.109864,0 0.2417,-0.02197 0.131836,-0.02197 0.292968,-0.09522 0.168457,-0.08057 0.38086,-0.219726 0.212402,-0.13916 0.483398,-0.373535 v -1.530762 q -0.388183,0.06592 -0.659179,0.124512 -0.263672,0.05859 -0.446778,0.124511 -0.183105,0.05859 -0.307617,0.131836 -0.117187,0.07324 -0.205078,0.161133 -0.19043,0.19043 -0.307617,0.395508 -0.117188,0.205078 -0.117188,0.505371 0,0.234375 0.06592,0.388184 0.06592,0.153808 0.161133,0.249023 0.09522,0.08789 0.205078,0.124512 0.117188,0.03662 0.212402,0.03662 z m 4.497071,0.27832 q -0.307617,0.212402 -0.666504,0.417481 -0.351563,0.197753 -0.688477,0.351562 -0.32959,0.153809 -0.600586,0.249024 -0.270996,0.09521 -0.41748,0.09521 -0.27832,0 -0.476074,-0.300293 -0.197754,-0.307617 -0.2417,-0.834961 -0.329589,0.32959 -0.666503,0.549317 -0.32959,0.219726 -0.644532,0.351562 -0.307617,0.131836 -0.593261,0.183106 -0.285645,0.05127 -0.52002,0.05127 -0.322266,0 -0.629883,-0.109863 -0.300293,-0.109863 -0.541992,-0.32959 -0.241699,-0.219726 -0.388184,-0.541992 -0.146484,-0.322266 -0.146484,-0.74707 0,-0.476074 0.175781,-0.812989 0.175782,-0.344238 0.446778,-0.615234 0.175781,-0.175781 0.402832,-0.336914 0.234375,-0.168457 0.622558,-0.322266 0.388184,-0.153808 0.981446,-0.300293 0.593261,-0.146484 1.49414,-0.285644 v -0.812988 q 0,-0.219727 -0.04394,-0.402832 -0.03662,-0.19043 -0.13916,-0.322266 -0.09521,-0.131836 -0.263672,-0.205078 -0.168457,-0.08057 -0.417481,-0.08057 -0.153808,0 -0.314941,0.06592 -0.153809,0.05859 -0.27832,0.175782 -0.117188,0.117187 -0.19043,0.292968 -0.06592,0.168457 -0.04394,0.388184 0.0073,0.04394 -0.131836,0.117187 -0.13916,0.06592 -0.358887,0.146485 -0.212402,0.07324 -0.476074,0.146484 -0.256348,0.07324 -0.498047,0.131836 -0.234375,0.05127 -0.41748,0.08057 -0.183106,0.0293 -0.2417,0.01465 L 74.73213,19.067665 q 0.183106,-0.461426 0.571289,-0.849609 0.388184,-0.395508 0.915527,-0.681153 0.527344,-0.292968 1.149903,-0.454101 0.629883,-0.168457 1.289062,-0.168457 0.534668,0 0.922852,0.146484 0.388183,0.13916 0.637207,0.388184 0.249023,0.241699 0.366211,0.578613 0.117187,0.32959 0.117187,0.703125 v 3.325195 q 0,0.307618 0.08057,0.439453 0.08057,0.131836 0.212402,0.131836 0.05127,0 0.102539,-0.0073 0.05127,-0.0073 0.124512,-0.0293 0.07324,-0.02197 0.168457,-0.05859 0.102539,-0.04395 0.249023,-0.102539 z"
     style="font-style:normal;font-variant:normal;font-weight:bold;font-stretch:normal;font-family:'Gentium Book Basic';-inkscape-font-specification:'Gentium Book Basic Bold'"
     id="path993" /><path
     d="m 90.757521,23.945595 v -0.60791 q 0.263672,-0.06592 0.41748,-0.124512 0.161133,-0.06592 0.241699,-0.117188 0.08789,-0.05859 0.109864,-0.102539 0.0293,-0.05127 0.0293,-0.102539 v -3.288574 q 0,-0.446777 -0.05127,-0.703125 -0.04395,-0.263672 -0.13916,-0.395508 -0.08789,-0.131836 -0.234375,-0.161133 -0.13916,-0.03662 -0.32959,-0.03662 -0.263672,0 -0.651855,0.131836 -0.38086,0.124512 -0.827637,0.432129 v 4.020996 q 0,0.05127 0.0293,0.102539 0.0293,0.04395 0.124511,0.09521 0.09522,0.05127 0.270996,0.117188 0.175782,0.05859 0.461426,0.131836 v 0.60791 h -3.662109 v -0.60791 q 0.263672,-0.06592 0.41748,-0.124512 0.161133,-0.06592 0.2417,-0.117188 0.08789,-0.05859 0.109863,-0.102539 0.0293,-0.05127 0.0293,-0.102539 v -3.288574 q 0,-0.446777 -0.03662,-0.703125 -0.0293,-0.263672 -0.109864,-0.395508 -0.07324,-0.131836 -0.205078,-0.161133 -0.131836,-0.03662 -0.32959,-0.03662 -0.27832,0 -0.659179,0.124512 -0.38086,0.117188 -0.893555,0.439453 v 4.020996 q 0,0.109864 0.197754,0.227051 0.205078,0.117188 0.681152,0.219727 v 0.60791 h -3.808593 v -0.60791 q 0.483398,-0.124512 0.717773,-0.219727 0.234375,-0.102539 0.234375,-0.227051 v -3.933105 q 0,-0.292969 -0.01465,-0.461426 -0.01465,-0.168457 -0.109864,-0.256348 -0.08789,-0.09521 -0.285644,-0.13916 -0.19043,-0.04394 -0.541992,-0.08789 V 17.42704 q 0.41748,-0.04395 0.74707,-0.09522 0.336914,-0.05127 0.629883,-0.109863 0.292968,-0.05859 0.563964,-0.131836 0.270997,-0.08057 0.549317,-0.175781 l 0.32959,0.32959 0.08057,0.651855 q 0.439453,-0.322266 0.791016,-0.512695 0.351562,-0.197754 0.651855,-0.300293 0.300293,-0.102539 0.563965,-0.131836 0.270996,-0.03662 0.534668,-0.03662 0.351563,0 0.60791,0.08789 0.263672,0.08789 0.446778,0.219727 0.183105,0.131836 0.292968,0.292969 0.117188,0.161133 0.175782,0.314941 l 0.0293,0.08057 q 0.446778,-0.322266 0.805664,-0.512696 0.358887,-0.197754 0.65918,-0.300293 0.307617,-0.109863 0.578613,-0.146484 0.270997,-0.03662 0.541993,-0.03662 0.351562,0 0.666504,0.102539 0.322265,0.102539 0.563964,0.336914 0.249024,0.227051 0.395508,0.60791 0.146485,0.373535 0.146485,0.922852 v 4.006347 q 0,0.102539 0.22705,0.205078 0.227051,0.09521 0.805664,0.2417 v 0.60791 z"
     style="font-style:normal;font-variant:normal;font-weight:bold;font-stretch:normal;font-family:'Gentium Book Basic';-inkscape-font-specification:'Gentium Book Basic Bold'"
     id="path995" /><path
     d="m 100.93086,20.825478 q 0,-0.725098 -0.14648,-1.208496 -0.14649,-0.490723 -0.38819,-0.791016 -0.23437,-0.300293 -0.534665,-0.424805 -0.292969,-0.131836 -0.593262,-0.131836 -0.131836,0 -0.234375,0.01465 -0.09522,0.0073 -0.227051,0.06592 -0.131836,0.05127 -0.32959,0.161132 -0.190429,0.109864 -0.512695,0.307618 v 3.42041 q 0.410156,0.219726 0.688476,0.344238 0.278321,0.124512 0.483399,0.183106 0.212402,0.05859 0.373535,0.07324 0.161133,0.0073 0.32959,0.0073 0.498048,-0.0073 0.798338,-0.527344 0.30029,-0.520019 0.29297,-1.49414 z m 1.86768,-0.556641 q 0,0.498047 -0.13916,0.981445 -0.13184,0.483399 -0.35889,0.915528 -0.21973,0.432129 -0.5127,0.798339 -0.29296,0.366211 -0.61523,0.637208 -0.31494,0.263671 -0.63721,0.410156 -0.32226,0.153808 -0.607907,0.153808 -0.212403,0 -0.417481,-0.04394 -0.205078,-0.03662 -0.439453,-0.131836 -0.227051,-0.08789 -0.498047,-0.234375 -0.270996,-0.153808 -0.60791,-0.380859 v 3.024902 q 0,0.117188 0.270996,0.234375 0.27832,0.117188 0.966797,0.219727 v 0.60791 h -4.167481 v -0.60791 q 0.483399,-0.117188 0.717774,-0.227051 0.234375,-0.102539 0.234375,-0.227051 v -7.441406 q 0,-0.270996 -0.02197,-0.446778 -0.01465,-0.175781 -0.109863,-0.27832 -0.08789,-0.109863 -0.27832,-0.153808 -0.19043,-0.05127 -0.541993,-0.06592 V 17.42704 q 0.46875,-0.05127 0.805664,-0.102539 0.336915,-0.05127 0.607911,-0.102539 0.27832,-0.05859 0.527343,-0.131836 0.249024,-0.07324 0.549317,-0.175781 l 0.32959,0.32959 0.06592,0.717773 q 0.41748,-0.32959 0.761718,-0.534668 0.344239,-0.205078 0.622559,-0.314941 0.285644,-0.117188 0.520019,-0.153809 0.234377,-0.04395 0.446777,-0.04395 0.49805,0 0.95215,0.197754 0.46143,0.190429 0.80566,0.600586 0.35157,0.402832 0.55664,1.040039 0.21241,0.629883 0.21241,1.516113 z"
     style="font-style:normal;font-variant:normal;font-weight:bold;font-stretch:normal;font-family:'Gentium Book Basic';-inkscape-font-specification:'Gentium Book Basic Bold'"
     id="path997" /><path
     d="m 103.6042,23.945595 v -0.60791 q 0.31494,-0.05127 0.5127,-0.102539 0.20507,-0.05859 0.31494,-0.109864 0.11718,-0.05859 0.15381,-0.117187 0.0439,-0.05859 0.0439,-0.117188 v -8.144531 q 0,-0.32959 -0.0366,-0.512695 -0.0293,-0.183106 -0.13184,-0.270996 -0.10254,-0.09521 -0.29296,-0.124512 -0.18311,-0.03662 -0.49073,-0.07324 v -0.585938 q 0.40283,-0.05127 0.73975,-0.102539 0.34424,-0.05859 0.65185,-0.124512 0.30762,-0.06592 0.60059,-0.153808 0.29297,-0.08789 0.60059,-0.205078 l 0.33691,0.322265 v 9.975586 q 0,0.05859 0.0439,0.117188 0.0513,0.05127 0.16845,0.109863 0.11719,0.05859 0.31494,0.117188 0.19776,0.05127 0.49805,0.102539 v 0.60791 z"
     style="font-style:normal;font-variant:normal;font-weight:bold;font-stretch:normal;font-family:'Gentium Book Basic';-inkscape-font-specification:'Gentium Book Basic Bold'"
     id="path999" /><path
     d="m 111.66817,17.829872 q -0.32959,0 -0.55665,0.131836 -0.22705,0.124512 -0.38085,0.366211 -0.14649,0.241699 -0.22706,0.585938 -0.0806,0.344238 -0.10986,0.783691 h 2.21192 q 0.16845,0 0.21972,-0.05127 0.0586,-0.05859 0.0586,-0.212402 0,-0.227051 -0.0659,-0.505371 -0.0586,-0.27832 -0.20508,-0.52002 -0.13916,-0.249023 -0.37354,-0.410156 -0.23437,-0.168457 -0.57128,-0.168457 z m 3.14941,2.109375 q -0.0659,0.07324 -0.20508,0.168457 -0.13183,0.08789 -0.29297,0.175781 -0.16113,0.08789 -0.32226,0.168457 -0.16114,0.08057 -0.27832,0.124512 h -3.33985 q 0.022,0.505371 0.13916,0.930176 0.12451,0.41748 0.33692,0.717773 0.21972,0.292969 0.53466,0.461426 0.31495,0.161133 0.71778,0.161133 0.22705,0 0.44678,-0.02197 0.21972,-0.0293 0.46875,-0.117187 0.25634,-0.08789 0.57128,-0.256348 0.32227,-0.168457 0.76172,-0.454101 0.0439,0.02197 0.10987,0.102539 0.0659,0.07324 0.12451,0.161132 0.0659,0.08057 0.11719,0.153809 0.0513,0.07324 0.0659,0.102539 -0.52002,0.505371 -0.93017,0.827637 -0.41016,0.322265 -0.79102,0.505371 -0.38086,0.183105 -0.76904,0.249023 -0.38086,0.06592 -0.84229,0.06592 -0.64453,0 -1.21582,-0.249023 -0.56396,-0.256348 -0.98877,-0.710449 -0.41748,-0.461426 -0.6665,-1.098633 -0.2417,-0.637207 -0.2417,-1.413574 0,-0.996094 0.35889,-1.743164 0.36621,-0.754395 1.11328,-1.311036 0.41016,-0.307617 0.9668,-0.512695 0.56396,-0.212402 1.1792,-0.212402 0.71777,0 1.25244,0.234375 0.54199,0.234375 0.90088,0.644531 0.35888,0.410156 0.53466,0.966797 0.18311,0.549316 0.18311,1.179199 z"
     style="font-style:normal;font-variant:normal;font-weight:bold;font-stretch:normal;font-family:'Gentium Book Basic';-inkscape-font-specification:'Gentium Book Basic Bold'"
     id="path1001" /><path
     d="m 121.92207,17.258583 q 0.0439,0.0293 0.0366,0.205078 0,0.168457 -0.0439,0.424805 -0.0366,0.256348 -0.10254,0.563965 -0.0659,0.300293 -0.13916,0.593261 -0.0732,0.285645 -0.15381,0.527344 -0.0732,0.241699 -0.13184,0.373535 h -0.60791 q -0.0146,-0.292968 -0.0732,-0.571289 -0.0586,-0.285644 -0.16113,-0.505371 -0.0952,-0.219726 -0.2417,-0.351562 -0.14649,-0.13916 -0.33691,-0.13916 -0.13184,0 -0.29297,0.0293 -0.15381,0.02197 -0.33692,0.139161 -0.1831,0.117187 -0.38818,0.358886 -0.20508,0.2417 -0.43213,0.673828 v 3.310547 q 0,0.109864 0.30762,0.227051 0.31494,0.117188 1.00341,0.219727 v 0.60791 h -4.24072 v -0.60791 q 0.95215,-0.219727 0.95215,-0.446778 v -3.75 q 0,-0.241699 -0.0147,-0.402832 -0.0147,-0.168457 -0.0366,-0.270996 -0.022,-0.102539 -0.0586,-0.161133 -0.0293,-0.05859 -0.0586,-0.09521 -0.0513,-0.05127 -0.10254,-0.08057 -0.0513,-0.03662 -0.13916,-0.05859 -0.0806,-0.02197 -0.2124,-0.0293 -0.12451,-0.01465 -0.32959,-0.0293 V 17.42704 q 0.4541,-0.05859 0.76905,-0.109863 0.32226,-0.05127 0.58593,-0.102539 0.26367,-0.05859 0.52735,-0.124512 0.26367,-0.07324 0.60791,-0.175781 l 0.32959,0.32959 0.0952,0.856933 q 0.19776,-0.241699 0.44678,-0.454101 0.25635,-0.219727 0.54199,-0.38086 0.29297,-0.161133 0.60791,-0.256347 0.31494,-0.09521 0.62988,-0.09521 0.29297,0 0.60791,0.09521 0.31495,0.09521 0.58594,0.249023 z"
     style="font-style:normal;font-variant:normal;font-weight:bold;font-stretch:normal;font-family:'Gentium Book Basic';-inkscape-font-specification:'Gentium Book Basic Bold'"
     id="path1003" /></g></svg>