<?xml version="1.0" encoding="UTF-8" standalone="no"?>
<!-- Created with Inkscape (http://www.inkscape.org/) -->

<svg
   xmlns:dc="http://purl.org/dc/elements/1.1/"
   xmlns:cc="http://creativecommons.org/ns#"
   xmlns:rdf="http://www.w3.org/1999/02/22-rdf-syntax-ns#"
   xmlns:svg="http://www.w3.org/2000/svg"
   xmlns="http://www.w3.org/2000/svg"
   xmlns:xlink="http://www.w3.org/1999/xlink"
   xmlns:sodipodi="http://sodipodi.sourceforge.net/DTD/sodipodi-0.dtd"
   xmlns:inkscape="http://www.inkscape.org/namespaces/inkscape"
   width="20.32mm"
   height="128.5mm"
   viewBox="0 0 20.32 128.5"
   version="1.1"
   id="svg1819"
   inkscape:version="0.92.5 (2060ec1f9f, 2020-04-08)"
   sodipodi:docname="SynthSampler.svg">
  <defs
     id="defs1813">
    <linearGradient
       gradientTransform="matrix(0,0.26458333,0.26458333,0,-1732.4273,167.24094)"
       y2="6477.3999"
       x2="232.99944"
       y1="6477.3999"
       x1="219.99944"
       gradientUnits="userSpaceOnUse"
       id="linearGradient2059">
      <stop
         id="stop2055"
         style="stop-color:#fff35e;stop-opacity:1"
         offset="0" />
      <stop
         id="stop2057"
         style="stop-color:#e00071;stop-opacity:1"
         offset="1" />
    </linearGradient>
    <linearGradient
       gradientTransform="matrix(0,0.26458333,0.26458333,0,-1732.4273,167.24094)"
       y2="6477.3999"
       x2="232.99944"
       y1="6477.3999"
       x1="219.99944"
       gradientUnits="userSpaceOnUse"
       id="SVGID_1_-5">
      <stop
         id="stop2050"
         style="stop-color:#ABA9A9"
         offset="0" />
      <stop
         id="stop2052"
         style="stop-color:#8F8F8F"
         offset="1" />
    </linearGradient>
    <linearGradient
       id="SVGID_3_"
       gradientUnits="userSpaceOnUse"
       x1="221.13403"
       y1="6477.3999"
       x2="231.86378"
       y2="6477.3999"
       gradientTransform="matrix(0,1,1,0,-6470.8999,-219.99944)">
      <stop
         offset="0.00559"
         style="stop-color:#EBEBEB"
         id="stop17" />
      <stop
         offset="1"
         style="stop-color:#CCCCCC"
         id="stop19" />
    </linearGradient>
    <linearGradient
       id="SVGID_2_"
       gradientUnits="userSpaceOnUse"
       x1="220.68697"
       y1="6477.3999"
       x2="232.31085"
       y2="6477.3999"
       gradientTransform="matrix(0,1,1,0,-6470.8999,-219.99944)">
      <stop
         offset="0.00559"
         style="stop-color:#F5F5F5"
         id="stop10" />
      <stop
         offset="1"
         style="stop-color:#C2C2C2"
         id="stop12" />
    </linearGradient>
    <linearGradient
       id="SVGID_1_-5-3"
       gradientUnits="userSpaceOnUse"
       x1="219.99944"
       y1="6477.3999"
       x2="232.99944"
       y2="6477.3999"
       gradientTransform="matrix(0,0.26458333,0.26458333,0,-1732.4273,167.24094)">
      <stop
         offset="0"
         style="stop-color:#ABA9A9"
         id="stop3" />
      <stop
         offset="1"
         style="stop-color:#8F8F8F"
         id="stop5" />
    </linearGradient>
    <linearGradient
       id="SVGID_1_"
       gradientUnits="userSpaceOnUse"
       x1="-2317.6343"
       y1="-3827.8528"
       x2="-2301.4397"
       y2="-3827.8528"
       gradientTransform="rotate(90,-3068.6949,-750.23011)">
      <stop
         offset="0"
         style="stop-color:#FFFBFD"
         id="stop4" />
      <stop
         offset="1"
         style="stop-color:#000000"
         id="stop6" />
    </linearGradient>
    <linearGradient
       id="SVGID_2_-67"
       gradientUnits="userSpaceOnUse"
       x1="183.81821"
       y1="5065.8359"
       x2="200.01283"
       y2="5065.8359"
       gradientTransform="matrix(0,0.26458333,0.26458333,0,-1360.3685,184.61228)">
      <stop
         offset="0"
         style="stop-color:#FFFBFD"
         id="stop11" />
      <stop
         offset="1"
         style="stop-color:#2E2E2E"
         id="stop13" />
    </linearGradient>
    <linearGradient
       id="SVGID_1_-7"
       gradientUnits="userSpaceOnUse"
       x1="11.33881"
       y1="-0.0090399999"
       x2="11.33881"
       y2="22.666759">
      <stop
         offset="0"
         style="stop-color:#B0ACAE"
         id="stop3-0" />
      <stop
         offset="1"
         style="stop-color:#000000"
         id="stop5-9" />
    </linearGradient>
    <linearGradient
       id="SVGID_2_-3"
       gradientUnits="userSpaceOnUse"
       x1="4.5368199"
       y1="-4120.5469"
       x2="22.556919"
       y2="-4120.5469"
       gradientTransform="rotate(90,-2053.495,-2055.713)">
      <stop
         offset="0"
         style="stop-color:#232223"
         id="stop14" />
      <stop
         offset="1"
         style="stop-color:#1F1E1F"
         id="stop16" />
    </linearGradient>
    <linearGradient
       gradientTransform="matrix(0,1,1,0,-1773.8412,602.39905)"
       y2="1785.6912"
       x2="-578.78363"
       y1="1785.6912"
       x1="-602.15857"
       gradientUnits="userSpaceOnUse"
       id="SVGID_16_">
      <stop
         id="stop138"
         style="stop-color:#828181"
         offset="0" />
      <stop
         id="stop140"
         style="stop-color:#575757"
         offset="1" />
    </linearGradient>
    <linearGradient
       gradientTransform="rotate(90,-1509.3041,-2570.5358)"
       y2="-4091.6899"
       x2="1084.2738"
       y1="-4091.6899"
       x1="1062.069"
       gradientUnits="userSpaceOnUse"
       id="SVGID_17_">
      <stop
         id="stop147"
         style="stop-color:#FFFFFF"
         offset="0.00559" />
      <stop
         id="stop149"
         style="stop-color:#7A7A7A"
         offset="1" />
    </linearGradient>
    <linearGradient
       gradientTransform="matrix(1,0,0,-1,-47.00625,-41.32658)"
       y2="-51.86816"
       x2="58.861809"
       y1="-54.6409"
       x1="58.861809"
       gradientUnits="userSpaceOnUse"
       id="SVGID_18_">
      <stop
         id="stop156"
         style="stop-color:#FFFBFD"
         offset="0" />
      <stop
         id="stop158"
         style="stop-color:#808080"
         offset="1" />
    </linearGradient>
    <linearGradient
       gradientTransform="matrix(0,-1,-1,0,-370.04718,-1220.1261)"
       y2="-381.89734"
       x2="-1223.3157"
       y1="-381.89734"
       x1="-1240.7925"
       gradientUnits="userSpaceOnUse"
       id="SVGID_19_">
      <stop
         id="stop163"
         style="stop-color:#B0AEAE"
         offset="0" />
      <stop
         id="stop165"
         style="stop-color:#616161"
         offset="1" />
    </linearGradient>
    <linearGradient
       gradientTransform="rotate(180,-936.50671,12.88983)"
       y2="6.22048"
       x2="-1884.8636"
       y1="21.48288"
       x1="-1884.8636"
       gradientUnits="userSpaceOnUse"
       id="SVGID_20_">
      <stop
         id="stop174"
         style="stop-color:#FFFEFE"
         offset="0" />
      <stop
         id="stop176"
         style="stop-color:#545454"
         offset="1" />
    </linearGradient>
    <linearGradient
       gradientTransform="rotate(180,-936.50671,12.88983)"
       y2="19.36582"
       x2="-1884.8636"
       y1="8.3375502"
       x1="-1884.8636"
       gradientUnits="userSpaceOnUse"
       id="SVGID_21_">
      <stop
         id="stop191"
         style="stop-color:#FFFEFE"
         offset="0" />
      <stop
         id="stop193"
         style="stop-color:#706C6C"
         offset="1" />
    </linearGradient>
    <linearGradient
       id="SVGID_1_-0"
       gradientUnits="userSpaceOnUse"
       x1="625.10217"
       y1="-3677.6582"
       x2="655.74567"
       y2="-3677.6582"
       gradientTransform="rotate(90,-1518.5458,-2138.2081)">
      <stop
         offset="0"
         style="stop-color:#FF6998"
         id="stop1239" />
      <stop
         offset="1"
         style="stop-color:#8F0130"
         id="stop1241" />
    </linearGradient>
    <linearGradient
       inkscape:collect="always"
       xlink:href="#linearGradient2059"
       id="linearGradient7537"
       gradientUnits="userSpaceOnUse"
       gradientTransform="matrix(0.20429119,0,0,0.20429119,54.882358,207.55785)"
       x1="-141.27127"
       y1="103.00101"
       x2="-141.27127"
       y2="207.90646" />
    <linearGradient
       inkscape:collect="always"
       xlink:href="#SVGID_1_-5"
       id="linearGradient3426"
       gradientUnits="userSpaceOnUse"
       gradientTransform="matrix(0,0.26458333,0.26458333,0,-1709.9767,112.85159)"
       x1="219.99944"
       y1="6477.3999"
       x2="232.99944"
       y2="6477.3999" />
    <linearGradient
       inkscape:collect="always"
       xlink:href="#SVGID_2_"
       id="linearGradient3428"
       gradientUnits="userSpaceOnUse"
       gradientTransform="matrix(0,0.26458333,0.26458333,0,-1709.9767,112.85159)"
       x1="220.68697"
       y1="6477.3999"
       x2="232.31085"
       y2="6477.3999" />
    <linearGradient
       inkscape:collect="always"
       xlink:href="#SVGID_3_"
       id="linearGradient3430"
       gradientUnits="userSpaceOnUse"
       gradientTransform="matrix(0,0.26458333,0.26458333,0,-1709.9767,112.85159)"
       x1="221.13403"
       y1="6477.3999"
       x2="231.86378"
       y2="6477.3999" />
    <linearGradient
       gradientTransform="rotate(90.000019,-945.86723,-1544.453)"
       y2="-2199.0154"
       x2="-571.96295"
       y1="-2199.0154"
       x1="-589.50763"
       gradientUnits="userSpaceOnUse"
       id="path5961-3_1_">
      <stop
         id="stop1566"
         style="stop-color:#787878"
         offset="0" />
      <stop
         id="stop1568"
         style="stop-color:#474747"
         offset="1" />
    </linearGradient>
    <linearGradient
       gradientTransform="rotate(-90.000037,-321.19019,-1149.4374)"
       y2="-1119.5521"
       x2="-283.88739"
       y1="-1119.5521"
       x1="-298.72598"
       gradientUnits="userSpaceOnUse"
       id="path5961-3_2_">
      <stop
         id="stop1573"
         style="stop-color:#6B6B6B"
         offset="0.00559" />
      <stop
         id="stop1575"
         style="stop-color:#DEDEDE"
         offset="1" />
    </linearGradient>
    <linearGradient
       gradientTransform="rotate(-90.000037,-321.19019,-1149.4374)"
       y2="-1119.5521"
       x2="-284.63989"
       y1="-1119.5521"
       x1="-297.97351"
       gradientUnits="userSpaceOnUse"
       id="path5961-3_3_">
      <stop
         id="stop1582"
         style="stop-color:#5B5B5B"
         offset="0.00559" />
      <stop
         id="stop1584"
         style="stop-color:#6C6C6C"
         offset="1" />
    </linearGradient>
    <linearGradient
       inkscape:collect="always"
       xlink:href="#SVGID_1_-5"
       id="linearGradient1812"
       gradientUnits="userSpaceOnUse"
       gradientTransform="matrix(0,0.26458333,0.26458333,0,-1709.9767,112.85159)"
       x1="219.99944"
       y1="6477.3999"
       x2="232.99944"
       y2="6477.3999" />
    <linearGradient
       inkscape:collect="always"
       xlink:href="#SVGID_2_"
       id="linearGradient1814"
       gradientUnits="userSpaceOnUse"
       gradientTransform="matrix(0,0.26458333,0.26458333,0,-1709.9767,112.85159)"
       x1="220.68697"
       y1="6477.3999"
       x2="232.31085"
       y2="6477.3999" />
    <linearGradient
       inkscape:collect="always"
       xlink:href="#SVGID_3_"
       id="linearGradient1816"
       gradientUnits="userSpaceOnUse"
       gradientTransform="matrix(0,0.26458333,0.26458333,0,-1709.9767,112.85159)"
       x1="221.13403"
       y1="6477.3999"
       x2="231.86378"
       y2="6477.3999" />
    <linearGradient
       inkscape:collect="always"
       xlink:href="#SVGID_1_-5"
       id="linearGradient1818"
       gradientUnits="userSpaceOnUse"
       gradientTransform="matrix(0,0.26458333,0.26458333,0,-1709.9767,112.85159)"
       x1="219.99944"
       y1="6477.3999"
       x2="232.99944"
       y2="6477.3999" />
    <linearGradient
       inkscape:collect="always"
       xlink:href="#SVGID_2_"
       id="linearGradient1820"
       gradientUnits="userSpaceOnUse"
       gradientTransform="matrix(0,0.26458333,0.26458333,0,-1709.9767,112.85159)"
       x1="220.68697"
       y1="6477.3999"
       x2="232.31085"
       y2="6477.3999" />
    <linearGradient
       inkscape:collect="always"
       xlink:href="#SVGID_3_"
       id="linearGradient1822"
       gradientUnits="userSpaceOnUse"
       gradientTransform="matrix(0,0.26458333,0.26458333,0,-1709.9767,112.85159)"
       x1="221.13403"
       y1="6477.3999"
       x2="231.86378"
       y2="6477.3999" />
    <linearGradient
       inkscape:collect="always"
       xlink:href="#SVGID_1_-5"
       id="linearGradient1824"
       gradientUnits="userSpaceOnUse"
       gradientTransform="matrix(0,0.26458333,0.26458333,0,-1709.9767,112.85159)"
       x1="219.99944"
       y1="6477.3999"
       x2="232.99944"
       y2="6477.3999" />
    <linearGradient
       inkscape:collect="always"
       xlink:href="#SVGID_2_"
       id="linearGradient1826"
       gradientUnits="userSpaceOnUse"
       gradientTransform="matrix(0,0.26458333,0.26458333,0,-1709.9767,112.85159)"
       x1="220.68697"
       y1="6477.3999"
       x2="232.31085"
       y2="6477.3999" />
    <linearGradient
       inkscape:collect="always"
       xlink:href="#SVGID_3_"
       id="linearGradient1828"
       gradientUnits="userSpaceOnUse"
       gradientTransform="matrix(0,0.26458333,0.26458333,0,-1709.9767,112.85159)"
       x1="221.13403"
       y1="6477.3999"
       x2="231.86378"
       y2="6477.3999" />
  </defs>
  <sodipodi:namedview
     id="base"
     pagecolor="#ffffff"
     bordercolor="#666666"
     borderopacity="1.0"
     inkscape:pageopacity="0.0"
     inkscape:pageshadow="2"
     inkscape:zoom="2.8"
     inkscape:cx="-113.84086"
     inkscape:cy="232.21812"
     inkscape:document-units="mm"
     inkscape:current-layer="layer1"
     showgrid="false"
     inkscape:window-width="2560"
     inkscape:window-height="1349"
     inkscape:window-x="0"
     inkscape:window-y="0"
     inkscape:window-maximized="1" />
  <metadata
     id="metadata1816">
    <rdf:RDF>
      <cc:Work
         rdf:about="">
        <dc:format>image/svg+xml</dc:format>
        <dc:type
           rdf:resource="http://purl.org/dc/dcmitype/StillImage" />
        <dc:title />
      </cc:Work>
    </rdf:RDF>
  </metadata>
  <g
     inkscape:label="Layer 1"
     inkscape:groupmode="layer"
     id="layer1"
     transform="translate(0,-168.5)">
    <text
       xml:space="preserve"
       style="font-style:normal;font-variant:normal;font-weight:normal;font-stretch:normal;font-size:3.96875px;line-height:100%;font-family:Dingbats;-inkscape-font-specification:'Dingbats, Normal';text-align:start;letter-spacing:0px;word-spacing:0px;writing-mode:lr-tb;text-anchor:start;fill:#000000;fill-opacity:1;stroke:none;stroke-width:0.26458332px;stroke-linecap:butt;stroke-linejoin:miter;stroke-opacity:1"
       x="42.664062"
       y="224.99554"
       id="text2122"><tspan
         sodipodi:role="line"
         id="tspan2120"
         x="42.664062"
         y="228.37434"
         style="stroke-width:0.26458332px" /></text>
    <rect
       y="168.5"
       x="0"
       height="128.5"
       width="20.32"
       id="rect1889"
       style="color:#000000;clip-rule:nonzero;display:inline;overflow:visible;visibility:visible;opacity:1;isolation:auto;mix-blend-mode:normal;color-interpolation:sRGB;color-interpolation-filters:linearRGB;solid-color:#000000;solid-opacity:1;fill:#fff4e6;fill-opacity:1;fill-rule:nonzero;stroke:none;stroke-width:5.88452673;stroke-linecap:round;stroke-linejoin:miter;stroke-miterlimit:4;stroke-dasharray:none;stroke-dashoffset:0;stroke-opacity:0.75294118;color-rendering:auto;image-rendering:auto;shape-rendering:auto;text-rendering:auto;enable-background:accumulate" />
    <g
       aria-label="V/OCT"
       style="font-style:normal;font-variant:normal;font-weight:normal;font-stretch:normal;font-size:3.96875px;line-height:100%;font-family:'Baloo Bhaina 2';-inkscape-font-specification:'Baloo Bhaina 2, ';text-align:start;letter-spacing:0px;word-spacing:0px;writing-mode:lr-tb;text-anchor:start;fill:#ff0a85;fill-opacity:1;stroke:none;stroke-width:0.26458332px;stroke-linecap:butt;stroke-linejoin:miter;stroke-opacity:1"
       id="text1963">
      <path
         d="m 1.6526725,258.35011 q -0.028222,0.0212 -0.091722,0.0388 -0.0635,0.0212 -0.1411111,0.0212 -0.088194,0 -0.1552222,-0.0247 -0.067028,-0.0247 -0.091722,-0.0741 -0.045861,-0.0882 -0.1058333,-0.2293 -0.059972,-0.14111 -0.12700004,-0.31397 -0.0670278,-0.17286 -0.13758333,-0.36336 -0.0670278,-0.19403 -0.13405556,-0.38453 -0.0670278,-0.1905 -0.12347221,-0.37042 -0.0564444,-0.17992 -0.0987778,-0.32808 0.0282222,-0.0353 0.0846667,-0.0635 0.0564444,-0.0318 0.12347221,-0.0318 0.0846667,0 0.13052778,0.0388 0.0458611,0.0388 0.0740833,0.127 0.13758333,0.43039 0.26811113,0.82903 0.1340555,0.39864 0.2892777,0.81492 h 0.017639 q 0.067028,-0.1905 0.1411111,-0.4057 0.074083,-0.21872 0.1446389,-0.4445 0.074083,-0.2293 0.1411111,-0.46214 0.067028,-0.23283 0.1234722,-0.45861 0.070556,-0.0388 0.1693334,-0.0388 0.081139,0 0.1340555,0.0423 0.056444,0.0388 0.056444,0.11995 0,0.06 -0.038806,0.20813 -0.038806,0.14464 -0.1023055,0.33867 -0.0635,0.1905 -0.1411111,0.40922 -0.077611,0.2152 -0.1552223,0.41275 -0.074083,0.19756 -0.1446388,0.35631 -0.067028,0.15875 -0.1093612,0.23636 z"
         style="font-style:normal;font-variant:normal;font-weight:500;font-stretch:normal;font-size:3.52777767px;font-family:'Baloo Bhaina 2';-inkscape-font-specification:'Baloo Bhaina 2 Medium';fill:#ff0a85;fill-opacity:1;stroke-width:0.26458332px"
         id="path2375" />
      <path
         d="m 2.7039416,258.61117 q -0.028222,0.004 -0.056444,0.004 -0.024695,0.004 -0.052917,0.004 -0.1763889,0 -0.1763889,-0.15875 0,-0.0529 0.014111,-0.10936 0.017639,-0.06 0.03175,-0.10936 l 0.6420556,-2.48708 q 0.056444,-0.0106 0.1128889,-0.0106 0.081139,0 0.127,0.0388 0.049389,0.0388 0.049389,0.11994 0,0.0529 -0.017639,0.10936 -0.014111,0.0564 -0.028222,0.10936 z"
         style="font-style:normal;font-variant:normal;font-weight:500;font-stretch:normal;font-size:3.52777767px;font-family:'Baloo Bhaina 2';-inkscape-font-specification:'Baloo Bhaina 2 Medium';fill:#ff0a85;fill-opacity:1;stroke-width:0.26458332px"
         id="path2377" />
      <path
         d="m 5.7096016,257.31647 q 0,0.27517 -0.081139,0.48683 -0.077611,0.20814 -0.2187222,0.34925 -0.1411111,0.14112 -0.3316111,0.2152 -0.1905,0.0706 -0.4162778,0.0706 -0.2257777,0 -0.4198055,-0.0706 -0.1905,-0.0741 -0.3316111,-0.2152 -0.1375833,-0.14111 -0.2187222,-0.34925 -0.077611,-0.21166 -0.077611,-0.48683 0,-0.27517 0.081139,-0.4833 0.081139,-0.20814 0.22225,-0.34925 0.1411111,-0.14464 0.3316111,-0.2152 0.1940278,-0.0741 0.41275,-0.0741 0.22225,0 0.41275,0.0741 0.1905,0.0706 0.3316111,0.2152 0.1411111,0.14111 0.22225,0.34925 0.081139,0.20813 0.081139,0.4833 z m -0.3845278,0 q 0,-0.39511 -0.1799166,-0.59972 -0.1799167,-0.20814 -0.4833056,-0.20814 -0.2963333,0 -0.4797777,0.20814 -0.1799167,0.20814 -0.1799167,0.59972 0,0.39511 0.1799167,0.60325 0.1799166,0.20814 0.4797777,0.20814 0.3033889,0 0.4833056,-0.20814 0.1799166,-0.20814 0.1799166,-0.60325 z"
         style="font-style:normal;font-variant:normal;font-weight:500;font-stretch:normal;font-size:3.52777767px;font-family:'Baloo Bhaina 2';-inkscape-font-specification:'Baloo Bhaina 2 Medium';fill:#ff0a85;fill-opacity:1;stroke-width:0.26458332px"
         id="path2379" />
      <path
         d="m 7.7733474,256.50155 q 0,0.06 -0.035278,0.10584 -0.03175,0.0459 -0.077611,0.067 -0.091722,-0.06 -0.2116667,-0.11289 -0.1164166,-0.0529 -0.2963333,-0.0529 -0.1552222,0 -0.28575,0.0529 -0.127,0.0529 -0.22225,0.15522 -0.091722,0.1023 -0.1446389,0.254 -0.052917,0.15169 -0.052917,0.34925 0,0.39864 0.1975555,0.60325 0.1975556,0.20461 0.5221111,0.20461 0.1728611,0 0.2998611,-0.0494 0.127,-0.0494 0.2187222,-0.11289 0.038806,0.0247 0.070556,0.0706 0.035278,0.0459 0.035278,0.10583 0,0.0494 -0.028222,0.0917 -0.024694,0.0423 -0.084667,0.0776 -0.077611,0.0494 -0.2116667,0.0882 -0.1340555,0.0388 -0.3386666,0.0388 -0.2257778,0 -0.4198056,-0.067 -0.1940277,-0.0706 -0.3386666,-0.20814 -0.1446389,-0.14111 -0.2293056,-0.34925 -0.081139,-0.21167 -0.081139,-0.49389 0,-0.27517 0.084667,-0.48683 0.084667,-0.21167 0.2257778,-0.35278 0.1446389,-0.14111 0.3351388,-0.21167 0.1905,-0.0741 0.4056945,-0.0741 0.1516944,0 0.2716389,0.0282 0.1234722,0.0247 0.2081388,0.067 0.088195,0.0423 0.1340556,0.0988 0.049389,0.0564 0.049389,0.11288 z"
         style="font-style:normal;font-variant:normal;font-weight:500;font-stretch:normal;font-size:3.52777767px;font-family:'Baloo Bhaina 2';-inkscape-font-specification:'Baloo Bhaina 2 Medium';fill:#ff0a85;fill-opacity:1;stroke-width:0.26458332px"
         id="path2381" />
      <path
         d="m 9.1138968,256.558 v 1.82386 q -0.024694,0.0106 -0.074083,0.0176 -0.045861,0.0106 -0.098778,0.0106 -0.1093611,0 -0.1552222,-0.0388 -0.045861,-0.0423 -0.045861,-0.13759 V 256.558 H 8.1155357 q -0.017639,-0.0247 -0.03175,-0.0635 -0.010583,-0.0388 -0.010583,-0.0882 0,-0.0776 0.035278,-0.11641 0.038805,-0.0423 0.1023055,-0.0423 H 9.745369 q 0.014111,0.0212 0.024694,0.06 0.014111,0.0388 0.014111,0.0847 0,0.16581 -0.1375833,0.16581 z"
         style="font-style:normal;font-variant:normal;font-weight:500;font-stretch:normal;font-size:3.52777767px;font-family:'Baloo Bhaina 2';-inkscape-font-specification:'Baloo Bhaina 2 Medium';fill:#ff0a85;fill-opacity:1;stroke-width:0.26458332px"
         id="path2383" />
    </g>
    <g
       aria-label="GATE"
       style="font-style:normal;font-variant:normal;font-weight:normal;font-stretch:normal;font-size:3.96875px;line-height:100%;font-family:'Baloo Bhaina 2';-inkscape-font-specification:'Baloo Bhaina 2, ';text-align:start;letter-spacing:0px;word-spacing:0px;writing-mode:lr-tb;text-anchor:start;fill:#ff0a85;fill-opacity:1;stroke:none;stroke-width:0.26458332px;stroke-linecap:butt;stroke-linejoin:miter;stroke-opacity:1"
       id="text2253">
      <path
         d="m 13.160471,258.08816 q 0,0.0741 -0.0388,0.12348 -0.03528,0.0459 -0.112889,0.0847 -0.09172,0.0494 -0.254,0.0811 -0.162278,0.0318 -0.331611,0.0318 -0.250473,0 -0.462139,-0.0635 -0.208139,-0.067 -0.359834,-0.20461 -0.151694,-0.13758 -0.236361,-0.34925 -0.08467,-0.21167 -0.08467,-0.50094 0,-0.28223 0.08819,-0.49389 0.0882,-0.21167 0.236361,-0.34925 0.151695,-0.14111 0.352778,-0.21167 0.204611,-0.0706 0.433917,-0.0706 0.151694,0 0.278694,0.0282 0.127,0.0247 0.218722,0.067 0.09172,0.0423 0.141111,0.0988 0.04939,0.0529 0.04939,0.11289 0,0.06 -0.03175,0.10583 -0.03175,0.0423 -0.07761,0.067 -0.09525,-0.06 -0.225778,-0.11289 -0.130527,-0.0529 -0.328083,-0.0529 -0.15875,0 -0.296333,0.0529 -0.137584,0.0529 -0.239889,0.15523 -0.09878,0.1023 -0.155222,0.254 -0.05644,0.15169 -0.05644,0.34925 0,0.20813 0.05644,0.36336 0.05997,0.15169 0.15875,0.25047 0.102305,0.0988 0.239889,0.14817 0.141111,0.0459 0.303388,0.0459 0.112889,0 0.211667,-0.0176 0.09878,-0.0212 0.151695,-0.0494 v -0.56445 h -0.486834 q -0.01764,-0.0212 -0.03175,-0.06 -0.01058,-0.0423 -0.01058,-0.0847 0,-0.0811 0.03528,-0.11995 0.0388,-0.0388 0.102305,-0.0388 h 0.592667 q 0.07408,0 0.119944,0.0459 0.04939,0.0423 0.04939,0.12347 z"
         style="font-style:normal;font-variant:normal;font-weight:500;font-stretch:normal;font-size:3.52777767px;font-family:'Baloo Bhaina 2';-inkscape-font-specification:'Baloo Bhaina 2 Medium';fill:#ff0a85;fill-opacity:1;stroke-width:0.26458332px"
         id="path2366" />
      <path
         d="m 14.906715,257.82358 h -0.860778 l -0.172861,0.53975 q -0.03175,0.0141 -0.06703,0.0212 -0.03528,0.007 -0.08467,0.007 -0.0882,0 -0.144639,-0.0388 -0.05645,-0.0388 -0.05645,-0.11642 0,-0.0388 0.01058,-0.0741 0.01058,-0.0388 0.02822,-0.0847 0.04586,-0.14817 0.127,-0.381 0.08467,-0.23636 0.176389,-0.49742 0.09525,-0.26105 0.1905,-0.51152 0.09525,-0.254 0.165805,-0.43392 0.03528,-0.0212 0.109361,-0.0388 0.07408,-0.0212 0.151695,-0.0212 0.102305,0 0.183444,0.0282 0.08114,0.0282 0.109361,0.0988 0.07761,0.20108 0.169334,0.45861 0.09172,0.254 0.183444,0.52564 0.09172,0.27164 0.176389,0.53269 0.08467,0.26106 0.151694,0.47272 -0.03175,0.0353 -0.08467,0.0564 -0.04939,0.0247 -0.119945,0.0247 -0.09525,0 -0.137583,-0.0353 -0.04233,-0.0388 -0.07056,-0.127 z m -0.430389,-1.30175 q -0.03528,0.0952 -0.07761,0.21519 -0.04233,0.11995 -0.08819,0.254 -0.04586,0.13053 -0.09172,0.26812 -0.04586,0.13405 -0.08819,0.26105 h 0.694972 q -0.04586,-0.14111 -0.09525,-0.28222 -0.04586,-0.14464 -0.09172,-0.27517 -0.04233,-0.13053 -0.08114,-0.24341 -0.03881,-0.11642 -0.0635,-0.19756 z"
         style="font-style:normal;font-variant:normal;font-weight:500;font-stretch:normal;font-size:3.52777767px;font-family:'Baloo Bhaina 2';-inkscape-font-specification:'Baloo Bhaina 2 Medium';fill:#ff0a85;fill-opacity:1;stroke-width:0.26458332px"
         id="path2368" />
      <path
         d="m 16.5189,256.52889 v 1.82386 q -0.02469,0.0106 -0.07408,0.0176 -0.04586,0.0106 -0.09878,0.0106 -0.109361,0 -0.155222,-0.0388 -0.04586,-0.0423 -0.04586,-0.13758 v -1.67569 h -0.624417 q -0.01764,-0.0247 -0.03175,-0.0635 -0.01058,-0.0388 -0.01058,-0.0882 0,-0.0776 0.03528,-0.11642 0.0388,-0.0423 0.102305,-0.0423 h 1.534584 q 0.01411,0.0212 0.02469,0.06 0.01411,0.0388 0.01411,0.0847 0,0.16581 -0.137583,0.16581 z"
         style="font-style:normal;font-variant:normal;font-weight:500;font-stretch:normal;font-size:3.52777767px;font-family:'Baloo Bhaina 2';-inkscape-font-specification:'Baloo Bhaina 2 Medium';fill:#ff0a85;fill-opacity:1;stroke-width:0.26458332px"
         id="path2370" />
      <path
         d="m 17.767733,258.36333 q -0.09172,0 -0.148167,-0.0564 -0.05644,-0.0564 -0.05644,-0.14817 v -1.7392 q 0,-0.0917 0.05644,-0.14463 0.05644,-0.0565 0.148167,-0.0565 h 1.167694 q 0.01764,0.0212 0.02822,0.06 0.01411,0.0388 0.01411,0.0847 0,0.0776 -0.0388,0.11994 -0.03528,0.0423 -0.09878,0.0423 h -0.903111 v 0.58561 h 0.892528 q 0.01764,0.0212 0.02822,0.06 0.01411,0.0388 0.01411,0.0847 0,0.0811 -0.03881,0.11994 -0.03528,0.0388 -0.09878,0.0388 h -0.797278 v 0.64205 h 1.016 q 0.01411,0.0212 0.02822,0.06 0.01411,0.0388 0.01411,0.0847 0,0.0811 -0.0388,0.12347 -0.03528,0.0388 -0.09878,0.0388 h -1.090083 z"
         style="font-style:normal;font-variant:normal;font-weight:500;font-stretch:normal;font-size:3.52777767px;font-family:'Baloo Bhaina 2';-inkscape-font-specification:'Baloo Bhaina 2 Medium';fill:#ff0a85;fill-opacity:1;stroke-width:0.26458332px"
         id="path2372" />
    </g>
    <g
       aria-label="VEL"
       style="font-style:normal;font-variant:normal;font-weight:normal;font-stretch:normal;font-size:3.96875px;line-height:100%;font-family:'Baloo Bhaina 2';-inkscape-font-specification:'Baloo Bhaina 2, ';text-align:start;letter-spacing:0px;word-spacing:0px;writing-mode:lr-tb;text-anchor:start;fill:#ff0a85;fill-opacity:1;stroke:none;stroke-width:0.26458332px;stroke-linecap:butt;stroke-linejoin:miter;stroke-opacity:1"
       id="text2378">
      <path
         d="m 3.5347362,273.84324 q -0.028222,0.0212 -0.091722,0.0388 -0.0635,0.0212 -0.1411112,0.0212 -0.088194,0 -0.1552222,-0.0247 -0.067028,-0.0247 -0.091722,-0.0741 -0.045861,-0.0882 -0.1058333,-0.22931 -0.059972,-0.14111 -0.127,-0.31397 -0.067028,-0.17286 -0.1375833,-0.36336 -0.067028,-0.19403 -0.1340556,-0.38453 -0.067028,-0.1905 -0.1234722,-0.37041 -0.056444,-0.17992 -0.098778,-0.32809 0.028222,-0.0353 0.084667,-0.0635 0.056444,-0.0317 0.1234722,-0.0317 0.084667,0 0.1305278,0.0388 0.045861,0.0388 0.074083,0.127 0.1375833,0.43039 0.2681111,0.82903 0.1340556,0.39863 0.2892778,0.81491 h 0.017639 q 0.067028,-0.1905 0.1411111,-0.40569 0.074083,-0.21872 0.1446388,-0.4445 0.074083,-0.22931 0.1411112,-0.46214 0.067028,-0.23283 0.1234722,-0.45861 0.070555,-0.0388 0.1693333,-0.0388 0.081139,0 0.1340556,0.0423 0.056444,0.0388 0.056444,0.11994 0,0.06 -0.038806,0.20814 -0.038806,0.14464 -0.1023055,0.33867 -0.0635,0.1905 -0.1411111,0.40922 -0.077611,0.21519 -0.1552222,0.41275 -0.074083,0.19755 -0.1446389,0.3563 -0.067028,0.15875 -0.1093611,0.23636 z"
         style="font-style:normal;font-variant:normal;font-weight:500;font-stretch:normal;font-size:3.52777767px;font-family:'Baloo Bhaina 2';-inkscape-font-specification:'Baloo Bhaina 2 Medium';fill:#ff0a85;fill-opacity:1;stroke-width:0.26458332px"
         id="path2386" />
      <path
         d="m 4.832952,273.88558 q -0.091722,0 -0.1481666,-0.0564 -0.056444,-0.0564 -0.056444,-0.14816 v -1.7392 q 0,-0.0917 0.056444,-0.14464 0.056444,-0.0564 0.1481666,-0.0564 h 1.1676945 q 0.017639,0.0212 0.028222,0.06 0.014111,0.0388 0.014111,0.0847 0,0.0776 -0.038806,0.11994 -0.035278,0.0423 -0.098778,0.0423 H 5.0022854 v 0.58561 h 0.8925277 q 0.017639,0.0212 0.028222,0.06 0.014111,0.0388 0.014111,0.0847 0,0.0811 -0.038806,0.11994 -0.035278,0.0388 -0.098778,0.0388 H 5.0022854 v 0.64205 h 1.0159999 q 0.014111,0.0212 0.028222,0.06 0.014111,0.0388 0.014111,0.0847 0,0.0811 -0.038806,0.12347 -0.035278,0.0388 -0.098778,0.0388 H 4.832952 Z"
         style="font-style:normal;font-variant:normal;font-weight:500;font-stretch:normal;font-size:3.52777767px;font-family:'Baloo Bhaina 2';-inkscape-font-specification:'Baloo Bhaina 2 Medium';fill:#ff0a85;fill-opacity:1;stroke-width:0.26458332px"
         id="path2388" />
      <path
         d="m 6.7238383,273.88558 q -0.091722,0 -0.1481666,-0.0564 -0.056444,-0.0564 -0.056444,-0.14816 v -1.94028 q 0.028222,-0.007 0.074083,-0.0141 0.049389,-0.0106 0.1023055,-0.0106 0.1023056,0 0.1516945,0.0388 0.052917,0.0388 0.052917,0.13758 v 1.6757 H 7.856255 q 0.017639,0.0247 0.03175,0.0635 0.014111,0.0388 0.014111,0.0882 0,0.0811 -0.038806,0.12347 -0.038805,0.0423 -0.1023055,0.0423 H 6.7238383 Z"
         style="font-style:normal;font-variant:normal;font-weight:500;font-stretch:normal;font-size:3.52777767px;font-family:'Baloo Bhaina 2';-inkscape-font-specification:'Baloo Bhaina 2 Medium';fill:#ff0a85;fill-opacity:1;stroke-width:0.26458332px"
         id="path2390" />
    </g>
    <rect
       style="color:#000000;clip-rule:nonzero;display:inline;overflow:visible;visibility:visible;opacity:1;isolation:auto;mix-blend-mode:normal;color-interpolation:sRGB;color-interpolation-filters:linearRGB;solid-color:#000000;solid-opacity:1;fill:#ff0a85;fill-opacity:1;fill-rule:nonzero;stroke:none;stroke-width:1.24448526;stroke-linecap:round;stroke-linejoin:miter;stroke-miterlimit:4;stroke-dasharray:none;stroke-dashoffset:0;stroke-opacity:1;color-rendering:auto;image-rendering:auto;shape-rendering:auto;text-rendering:auto;enable-background:accumulate"
       id="rect2431"
       width="9.4720936"
       height="12.360064"
       x="10.401733"
       y="270.73615"
       ry="2.2639461" />
    <g
       aria-label="OUT"
       style="font-style:normal;font-variant:normal;font-weight:normal;font-stretch:normal;font-size:3.96875px;line-height:100%;font-family:'Baloo Bhaina 2';-inkscape-font-specification:'Baloo Bhaina 2, ';text-align:start;letter-spacing:0px;word-spacing:0px;writing-mode:lr-tb;text-anchor:start;fill:#fff4e6;fill-opacity:1;stroke:none;stroke-width:0.26458332px;stroke-linecap:butt;stroke-linejoin:miter;stroke-opacity:1"
       id="text2505">
      <path
         d="m 14.049458,273.04956 q 0,0.27517 -0.08114,0.48684 -0.07761,0.20814 -0.218723,0.34925 -0.141111,0.14111 -0.331611,0.21519 -0.1905,0.0706 -0.416277,0.0706 -0.225778,0 -0.419806,-0.0706 -0.1905,-0.0741 -0.331611,-0.21519 -0.137583,-0.14111 -0.218722,-0.34925 -0.07761,-0.21167 -0.07761,-0.48684 0,-0.27516 0.08114,-0.4833 0.08114,-0.20814 0.22225,-0.34925 0.141112,-0.14464 0.331612,-0.2152 0.194027,-0.0741 0.41275,-0.0741 0.22225,0 0.41275,0.0741 0.1905,0.0706 0.331611,0.2152 0.141111,0.14111 0.22225,0.34925 0.08114,0.20814 0.08114,0.4833 z m -0.384528,0 q 0,-0.39511 -0.179917,-0.59972 -0.179917,-0.20814 -0.483305,-0.20814 -0.296334,0 -0.479778,0.20814 -0.179917,0.20814 -0.179917,0.59972 0,0.39512 0.179917,0.60325 0.179916,0.20814 0.479778,0.20814 0.303388,0 0.483305,-0.20814 0.179917,-0.20813 0.179917,-0.60325 z"
         style="font-style:normal;font-variant:normal;font-weight:500;font-stretch:normal;font-size:3.52777767px;font-family:'Baloo Bhaina 2';-inkscape-font-specification:'Baloo Bhaina 2 Medium';fill:#fff4e6;fill-opacity:1;stroke-width:0.26458332px"
         id="path2393" />
      <path
         d="m 16.243731,273.37059 q 0,0.17992 -0.05997,0.32809 -0.05644,0.14816 -0.169333,0.254 -0.109361,0.10583 -0.271639,0.16227 -0.15875,0.0564 -0.366889,0.0564 -0.204611,0 -0.366889,-0.0564 -0.15875,-0.0564 -0.271639,-0.16227 -0.109361,-0.10584 -0.169333,-0.254 -0.05645,-0.14817 -0.05645,-0.32809 v -1.38994 q 0.02469,-0.007 0.07408,-0.0141 0.04939,-0.0106 0.102305,-0.0106 0.102306,0 0.151695,0.0388 0.04939,0.0388 0.04939,0.13758 v 1.21709 q 0,0.25047 0.137583,0.381 0.141111,0.13052 0.34925,0.13052 0.105833,0 0.194028,-0.0317 0.08819,-0.0353 0.155222,-0.0988 0.06703,-0.0635 0.102306,-0.15875 0.0388,-0.0953 0.0388,-0.22225 v -1.36878 q 0.0247,-0.007 0.07408,-0.0141 0.04939,-0.0106 0.102306,-0.0106 0.102306,0 0.151694,0.0388 0.04939,0.0388 0.04939,0.13758 v 1.23825 z"
         style="font-style:normal;font-variant:normal;font-weight:500;font-stretch:normal;font-size:3.52777767px;font-family:'Baloo Bhaina 2';-inkscape-font-specification:'Baloo Bhaina 2 Medium';fill:#fff4e6;fill-opacity:1;stroke-width:0.26458332px"
         id="path2395" />
      <path
         d="m 17.651314,272.29109 v 1.82386 q -0.02469,0.0106 -0.07408,0.0176 -0.04586,0.0106 -0.09878,0.0106 -0.109361,0 -0.155222,-0.0388 -0.04586,-0.0423 -0.04586,-0.13758 v -1.6757 h -0.624417 q -0.01764,-0.0247 -0.03175,-0.0635 -0.01058,-0.0388 -0.01058,-0.0882 0,-0.0776 0.03528,-0.11642 0.0388,-0.0423 0.102305,-0.0423 h 1.534583 q 0.01411,0.0212 0.02469,0.06 0.01411,0.0388 0.01411,0.0847 0,0.1658 -0.137583,0.1658 z"
         style="font-style:normal;font-variant:normal;font-weight:500;font-stretch:normal;font-size:3.52777767px;font-family:'Baloo Bhaina 2';-inkscape-font-specification:'Baloo Bhaina 2 Medium';fill:#fff4e6;fill-opacity:1;stroke-width:0.26458332px"
         id="path2397" />
    </g>
    <g
       aria-label="Botania Sampler"
       transform="rotate(1.0232929)"
       style="font-style:normal;font-variant:normal;font-weight:normal;font-stretch:normal;font-size:3.96875px;line-height:100%;font-family:'Baloo Bhaina 2';-inkscape-font-specification:'Baloo Bhaina 2, ';text-align:center;letter-spacing:0px;word-spacing:0px;writing-mode:lr-tb;text-anchor:middle;fill:#ff0a85;fill-opacity:1;stroke:none;stroke-width:0.26458332px;stroke-linecap:butt;stroke-linejoin:miter;stroke-opacity:1"
       id="text3071">
      <path
         d="m 8.2300553,178.20608 q 0,0.20637 -0.1100667,0.35771 -0.1054806,0.15135 -0.3210278,0.24307 0.2659945,0.0871 0.3989917,0.26141 0.1329972,0.17427 0.1329972,0.41275 0,0.43568 -0.3164417,0.64664 -0.3164416,0.21096 -0.9172222,0.21096 -0.087136,0 -0.1880305,-0.005 -0.096308,-0.005 -0.1972028,-0.0183 -0.1008945,-0.009 -0.2017889,-0.0321 -0.1008944,-0.0183 -0.1880305,-0.0459 -0.2201334,-0.0734 -0.2201334,-0.27059 v -2.2426 q 0,-0.0871 0.045861,-0.133 0.045861,-0.0459 0.1284111,-0.0734 0.1559278,-0.0504 0.3623028,-0.0688 0.206375,-0.0229 0.4310945,-0.0229 0.5549194,0 0.8576027,0.19262 0.3026834,0.18803 0.3026834,0.58702 z m -0.5044723,1.25201 q 0,-0.18345 -0.1329972,-0.28893 -0.1284111,-0.10548 -0.3760611,-0.10548 h -0.536575 v 0.76588 q 0.087136,0.0229 0.206375,0.0321 0.123825,0.009 0.2430639,0.009 0.2797528,0 0.4356806,-0.0963 0.1605138,-0.1009 0.1605138,-0.31644 z M 6.6799497,178.628 h 0.4631972 q 0.24765,0 0.3668889,-0.10089 0.123825,-0.1009 0.123825,-0.27976 0,-0.3623 -0.5595055,-0.3623 -0.1146528,0 -0.2201334,0.009 -0.1008944,0.009 -0.1742722,0.0229 z"
         style="font-style:normal;font-variant:normal;font-weight:600;font-stretch:normal;font-family:'Baloo Bhaina 2';-inkscape-font-specification:'Baloo Bhaina 2 Semi-Bold';text-align:center;text-anchor:middle"
         id="path2337" />
      <path
         d="m 10.958787,179.18751 q 0,0.26599 -0.08255,0.48154 -0.07796,0.21096 -0.22472,0.3623 -0.146755,0.15134 -0.35313,0.23389 -0.206375,0.078 -0.4631976,0.078 -0.2568222,0 -0.4631972,-0.078 -0.206375,-0.0825 -0.3531305,-0.2293 -0.1467556,-0.15135 -0.2293056,-0.36231 -0.077964,-0.21554 -0.077964,-0.48612 0,-0.266 0.077964,-0.47696 0.08255,-0.21555 0.2293056,-0.3623 0.1513416,-0.15134 0.3577166,-0.22931 0.206375,-0.0825 0.4586111,-0.0825 0.2522366,0 0.4586116,0.0825 0.206375,0.078 0.35313,0.22931 0.151342,0.15134 0.229306,0.36689 0.08255,0.21096 0.08255,0.47237 z M 9.8351894,178.495 q -0.24765,0 -0.3898194,0.18345 -0.1421694,0.17886 -0.1421694,0.50906 0,0.33478 0.1375833,0.51364 0.1421694,0.17886 0.3944055,0.17886 0.2522366,0 0.3898196,-0.17886 0.142169,-0.18344 0.142169,-0.51364 0,-0.3302 -0.142169,-0.50906 -0.14217,-0.18345 -0.3898196,-0.18345 z"
         style="font-style:normal;font-variant:normal;font-weight:600;font-stretch:normal;font-family:'Baloo Bhaina 2';-inkscape-font-specification:'Baloo Bhaina 2 Semi-Bold';text-align:center;text-anchor:middle"
         id="path2339" />
      <path
         d="m 12.013591,179.60026 q 0,0.14675 0.08714,0.21096 0.09172,0.0642 0.252236,0.0642 0.07796,0 0.155928,-0.0183 0.08255,-0.0183 0.146755,-0.0459 0.03669,0.0367 0.05962,0.0917 0.02752,0.0505 0.02752,0.11924 0,0.13758 -0.123825,0.2293 -0.123825,0.0871 -0.398991,0.0871 -0.362303,0 -0.573264,-0.16051 -0.206375,-0.1651 -0.206375,-0.54117 v -2.10502 q 0.03669,-0.009 0.10548,-0.0229 0.07338,-0.0138 0.155928,-0.0138 0.160514,0 0.233892,0.0596 0.07796,0.0596 0.07796,0.21096 v 0.38065 h 0.674158 q 0.02293,0.0367 0.04128,0.0963 0.01835,0.0596 0.01835,0.12841 0,0.11924 -0.05503,0.17427 -0.05503,0.055 -0.146755,0.055 h -0.531989 v 0.99978 z"
         style="font-style:normal;font-variant:normal;font-weight:600;font-stretch:normal;font-family:'Baloo Bhaina 2';-inkscape-font-specification:'Baloo Bhaina 2 Semi-Bold';text-align:center;text-anchor:middle"
         id="path2341" />
      <path
         d="m 14.068153,179.90294 q 0.132997,0 0.243064,-0.0229 0.110067,-0.0275 0.160514,-0.0642 v -0.50906 l -0.444853,0.0413 q -0.183444,0.0183 -0.279753,0.0825 -0.09631,0.0596 -0.09631,0.19262 0,0.13299 0.09631,0.20637 0.100895,0.0734 0.321028,0.0734 z m -0.01834,-1.86655 q 0.449438,0 0.715433,0.19262 0.27058,0.19262 0.27058,0.59619 v 1.05939 q 0,0.11007 -0.05503,0.17428 -0.05503,0.0642 -0.137583,0.11465 -0.128411,0.078 -0.325614,0.12382 -0.197203,0.0459 -0.449439,0.0459 -0.458611,0 -0.724606,-0.17428 -0.261408,-0.17885 -0.261408,-0.53199 0,-0.30726 0.192617,-0.46778 0.197203,-0.1651 0.568678,-0.20179 l 0.628297,-0.0642 v -0.0825 q 0,-0.17428 -0.128411,-0.25683 -0.123825,-0.0825 -0.353131,-0.0825 -0.178858,0 -0.348544,0.0459 -0.169686,0.0413 -0.302684,0.10548 -0.05045,-0.0367 -0.08714,-0.0963 -0.0321,-0.0642 -0.0321,-0.13759 0,-0.0917 0.04127,-0.14675 0.04586,-0.0596 0.14217,-0.10548 0.132997,-0.055 0.302683,-0.0825 0.169686,-0.0275 0.343959,-0.0275 z"
         style="font-style:normal;font-variant:normal;font-weight:600;font-stretch:normal;font-family:'Baloo Bhaina 2';-inkscape-font-specification:'Baloo Bhaina 2 Semi-Bold';text-align:center;text-anchor:middle"
         id="path2343" />
      <path
         d="m 17.044537,178.87565 q 0,-0.1972 -0.114653,-0.28892 -0.110067,-0.0917 -0.302683,-0.0917 -0.132998,0 -0.24765,0.0321 -0.110067,0.0321 -0.192617,0.0825 v 1.66017 q -0.04128,0.009 -0.110067,0.0229 -0.06879,0.0138 -0.155928,0.0138 -0.160513,0 -0.238477,-0.0596 -0.07796,-0.0596 -0.07796,-0.21096 v -1.47215 q 0,-0.11006 0.04586,-0.17885 0.04586,-0.0688 0.142169,-0.133 0.132998,-0.0917 0.353131,-0.15134 0.220133,-0.0642 0.486128,-0.0642 0.472369,0 0.729191,0.21096 0.261409,0.20638 0.261409,0.60996 v 1.41252 q -0.03669,0.009 -0.110067,0.0229 -0.06879,0.0138 -0.151342,0.0138 -0.1651,0 -0.243064,-0.0596 -0.07338,-0.0596 -0.07338,-0.21096 v -1.16029 z"
         style="font-style:normal;font-variant:normal;font-weight:600;font-stretch:normal;font-family:'Baloo Bhaina 2';-inkscape-font-specification:'Baloo Bhaina 2 Semi-Bold';text-align:center;text-anchor:middle"
         id="path2345" />
      <path
         d="m 18.22775,178.11894 q 0.03669,-0.009 0.105481,-0.0229 0.07338,-0.0138 0.155927,-0.0138 0.1651,0 0.238478,0.0596 0.07796,0.0596 0.07796,0.21096 v 1.917 q -0.03669,0.009 -0.110067,0.0229 -0.06879,0.0138 -0.151341,0.0138 -0.1651,0 -0.243064,-0.0596 -0.07338,-0.0596 -0.07338,-0.21096 z m -0.04586,-0.66498 q 0,-0.133 0.09172,-0.22472 0.09631,-0.0963 0.243064,-0.0963 0.146756,0 0.238478,0.0963 0.09172,0.0917 0.09172,0.22472 0,0.13758 -0.09172,0.23389 -0.09172,0.0917 -0.238478,0.0917 -0.146755,0 -0.243064,-0.0917 -0.09172,-0.0963 -0.09172,-0.23389 z"
         style="font-style:normal;font-variant:normal;font-weight:600;font-stretch:normal;font-family:'Baloo Bhaina 2';-inkscape-font-specification:'Baloo Bhaina 2 Semi-Bold';text-align:center;text-anchor:middle"
         id="path2347" />
      <path
         d="m 20.26398,179.90294 q 0.132997,0 0.243063,-0.0229 0.110067,-0.0275 0.160514,-0.0642 v -0.50906 l -0.444852,0.0413 q -0.183445,0.0183 -0.279753,0.0825 -0.09631,0.0596 -0.09631,0.19262 0,0.13299 0.09631,0.20637 0.100894,0.0734 0.321028,0.0734 z m -0.01835,-1.86655 q 0.449439,0 0.715433,0.19262 0.270581,0.19262 0.270581,0.59619 v 1.05939 q 0,0.11007 -0.05503,0.17428 -0.05503,0.0642 -0.137584,0.11465 -0.128411,0.078 -0.325614,0.12382 -0.197202,0.0459 -0.449438,0.0459 -0.458612,0 -0.724606,-0.17428 -0.261408,-0.17885 -0.261408,-0.53199 0,-0.30726 0.192616,-0.46778 0.197203,-0.1651 0.568678,-0.20179 l 0.628297,-0.0642 v -0.0825 q 0,-0.17428 -0.128411,-0.25683 -0.123825,-0.0825 -0.35313,-0.0825 -0.178859,0 -0.348545,0.0459 -0.169686,0.0413 -0.302683,0.10548 -0.05045,-0.0367 -0.08714,-0.0963 -0.0321,-0.0642 -0.0321,-0.13759 0,-0.0917 0.04128,-0.14675 0.04586,-0.0596 0.142169,-0.10548 0.132998,-0.055 0.302684,-0.0825 0.169686,-0.0275 0.343958,-0.0275 z"
         style="font-style:normal;font-variant:normal;font-weight:600;font-stretch:normal;font-family:'Baloo Bhaina 2';-inkscape-font-specification:'Baloo Bhaina 2 Semi-Bold';text-align:center;text-anchor:middle"
         id="path2349" />
      <path
         d="m 6.1112766,183.72941 q 0.2247195,0 0.3164417,-0.0734 0.091722,-0.0734 0.091722,-0.1651 0,-0.0917 -0.073378,-0.14217 -0.073378,-0.055 -0.206375,-0.10089 l -0.1926166,-0.0642 q -0.2017889,-0.0688 -0.3668889,-0.13758 -0.1651,-0.0734 -0.2843389,-0.17427 -0.1192389,-0.1009 -0.1880306,-0.23848 -0.064205,-0.14217 -0.064205,-0.34396 0,-0.38982 0.2980972,-0.62371 0.3026833,-0.23389 0.8438445,-0.23389 0.1972027,0 0.3668888,0.0275 0.1696861,0.0275 0.288925,0.0871 0.123825,0.055 0.1926167,0.14676 0.068792,0.0871 0.068792,0.20637 0,0.11924 -0.055033,0.20638 -0.055033,0.0825 -0.1329972,0.14217 -0.1008944,-0.0642 -0.2705805,-0.11007 -0.1696862,-0.0504 -0.371475,-0.0504 -0.206375,0 -0.3026834,0.0596 -0.096308,0.055 -0.096308,0.14217 0,0.0688 0.059619,0.11465 0.05962,0.0413 0.1788584,0.078 l 0.2430639,0.078 q 0.4310944,0.13759 0.6604,0.35772 0.2338916,0.21555 0.2338916,0.58244 0,0.19261 -0.077964,0.35771 -0.077964,0.16052 -0.2338916,0.27975 -0.1513417,0.11466 -0.3806473,0.17886 -0.2247194,0.0642 -0.5182305,0.0642 -0.2109611,0 -0.3944056,-0.0367 -0.1788583,-0.0321 -0.3164416,-0.0963 -0.1329972,-0.0688 -0.2109611,-0.1651 -0.073378,-0.10089 -0.073378,-0.2293 0,-0.133 0.077964,-0.22472 0.077964,-0.0963 0.1696861,-0.14676 0.1284111,0.1009 0.3118555,0.17427 0.1880306,0.0734 0.4081639,0.0734 z"
         style="font-style:normal;font-variant:normal;font-weight:800;font-stretch:normal;font-family:'Baloo Bhaina 2';-inkscape-font-specification:'Baloo Bhaina 2 Ultra-Bold';text-align:center;text-anchor:middle"
         id="path2351" />
      <path
         d="m 8.7253463,183.80279 q 0.077964,0 0.1696861,-0.0138 0.096308,-0.0183 0.1421695,-0.0459 v -0.36689 l -0.3302,0.0275 q -0.1284111,0.009 -0.2109611,0.055 -0.08255,0.0459 -0.08255,0.13758 0,0.0917 0.068792,0.15135 0.073378,0.055 0.2430639,0.055 z m -0.036689,-1.80234 q 0.24765,0 0.4494389,0.0504 0.206375,0.0504 0.3485444,0.15593 0.1467556,0.1009 0.2247195,0.26141 0.077964,0.15593 0.077964,0.37148 v 1.02728 q 0,0.11924 -0.068792,0.19721 -0.064205,0.0734 -0.1559278,0.12841 -0.2980972,0.17886 -0.8392583,0.17886 -0.2430639,0 -0.4402667,-0.0459 -0.1926166,-0.0459 -0.3347861,-0.13759 -0.1375833,-0.0917 -0.2155472,-0.23389 -0.073378,-0.14217 -0.073378,-0.3302 0,-0.31644 0.1880306,-0.48613 0.1880305,-0.16968 0.5824361,-0.21096 l 0.6007805,-0.0642 v -0.0321 q 0,-0.13299 -0.1192388,-0.18803 -0.1146528,-0.0596 -0.3347861,-0.0596 -0.1696862,0 -0.3393723,0.0367 -0.1651,0.0367 -0.2980972,0.0917 -0.059619,-0.0413 -0.1008944,-0.12382 -0.041275,-0.0871 -0.041275,-0.17886 0,-0.11924 0.055033,-0.18803 0.059619,-0.0734 0.1788583,-0.12382 0.1329973,-0.0504 0.3118556,-0.0734 0.1834444,-0.0229 0.3439583,-0.0229 z"
         style="font-style:normal;font-variant:normal;font-weight:800;font-stretch:normal;font-family:'Baloo Bhaina 2';-inkscape-font-specification:'Baloo Bhaina 2 Ultra-Bold';text-align:center;text-anchor:middle"
         id="path2353" />
      <path
         d="m 13.669168,184.2935 q -0.05045,0.0138 -0.146755,0.0275 -0.09172,0.0138 -0.201789,0.0138 -0.229306,0 -0.3302,-0.0734 -0.100895,-0.078 -0.100895,-0.29351 v -1.09608 q 0,-0.13759 -0.07338,-0.1972 -0.07338,-0.0642 -0.192616,-0.0642 -0.07796,0 -0.151342,0.0275 -0.06879,0.0275 -0.119239,0.0642 0,0.0183 0,0.0367 0.0046,0.0138 0.0046,0.0275 v 1.52717 q -0.05045,0.0138 -0.146755,0.0275 -0.09172,0.0138 -0.201789,0.0138 -0.229306,0 -0.3302,-0.0734 -0.100895,-0.078 -0.100895,-0.29351 v -1.09608 q 0,-0.13759 -0.08255,-0.1972 -0.07796,-0.0642 -0.192616,-0.0642 -0.08714,0 -0.151342,0.0275 -0.06421,0.0229 -0.10548,0.0459 v 1.60972 q -0.05045,0.0138 -0.146756,0.0275 -0.09172,0.0138 -0.201789,0.0138 -0.229305,0 -0.3302,-0.0734 -0.100894,-0.078 -0.100894,-0.29351 v -1.38042 q 0,-0.12383 0.05045,-0.20179 0.05503,-0.078 0.146755,-0.14217 0.155928,-0.11007 0.385234,-0.17427 0.229305,-0.0688 0.486128,-0.0688 0.18803,0 0.357716,0.0504 0.174272,0.0504 0.325614,0.15593 0.137583,-0.0871 0.30727,-0.14675 0.174272,-0.0596 0.417336,-0.0596 0.174272,0 0.339372,0.0459 0.169686,0.0459 0.298097,0.14675 0.132997,0.0963 0.210961,0.26141 0.07796,0.16052 0.07796,0.39441 z"
         style="font-style:normal;font-variant:normal;font-weight:800;font-stretch:normal;font-family:'Baloo Bhaina 2';-inkscape-font-specification:'Baloo Bhaina 2 Ultra-Bold';text-align:center;text-anchor:middle"
         id="path2355" />
      <path
         d="m 15.301815,184.36688 q -0.110067,0 -0.201789,-0.0183 -0.09172,-0.0138 -0.169686,-0.0413 v 0.80716 q -0.05045,0.0138 -0.146755,0.0275 -0.09172,0.0138 -0.201789,0.0138 -0.229306,0 -0.3302,-0.078 -0.100895,-0.0734 -0.100895,-0.28893 v -2.23343 q 0,-0.12383 0.05045,-0.20638 0.05503,-0.0825 0.146756,-0.14217 0.142169,-0.0917 0.362303,-0.14675 0.224719,-0.0596 0.499886,-0.0596 0.275167,0 0.504472,0.0688 0.229306,0.0688 0.394406,0.21096 0.1651,0.14217 0.252236,0.3623 0.09172,0.22014 0.09172,0.52741 0,0.29351 -0.08714,0.51823 -0.08714,0.22013 -0.243064,0.37147 -0.155928,0.15134 -0.366889,0.22931 -0.206375,0.078 -0.454025,0.078 z m -0.119239,-0.61454 q 0.229306,0 0.348545,-0.14675 0.123825,-0.14676 0.123825,-0.43568 0,-0.29352 -0.114653,-0.42651 -0.110067,-0.133 -0.3302,-0.133 -0.08714,0 -0.160514,0.0229 -0.07338,0.0183 -0.123825,0.0459 v 1.00895 q 0.05503,0.0275 0.119239,0.0459 0.0642,0.0183 0.137583,0.0183 z"
         style="font-style:normal;font-variant:normal;font-weight:800;font-stretch:normal;font-family:'Baloo Bhaina 2';-inkscape-font-specification:'Baloo Bhaina 2 Ultra-Bold';text-align:center;text-anchor:middle"
         id="path2357" />
      <path
         d="m 17.287597,184.33478 q -0.229305,0 -0.3302,-0.0734 -0.100894,-0.078 -0.100894,-0.29351 v -2.65995 q 0.05045,-0.0138 0.142169,-0.0275 0.09631,-0.0138 0.206375,-0.0138 0.229306,0 0.3302,0.078 0.100895,0.0734 0.100895,0.28893 v 2.65994 q -0.05045,0.0138 -0.146756,0.0275 -0.09172,0.0138 -0.201789,0.0138 z"
         style="font-style:normal;font-variant:normal;font-weight:800;font-stretch:normal;font-family:'Baloo Bhaina 2';-inkscape-font-specification:'Baloo Bhaina 2 Ultra-Bold';text-align:center;text-anchor:middle"
         id="path2359" />
      <path
         d="m 18.805594,183.49093 q 0.06421,0.1651 0.215547,0.23389 0.151341,0.0642 0.339372,0.0642 0.192617,0 0.366889,-0.0459 0.174272,-0.0504 0.279753,-0.11465 0.07338,0.0459 0.123825,0.12841 0.05045,0.0825 0.05045,0.17427 0,0.11465 -0.06421,0.1972 -0.06421,0.0825 -0.183444,0.13759 -0.114653,0.055 -0.275167,0.078 -0.160514,0.0275 -0.35313,0.0275 -0.270581,0 -0.504473,-0.0734 -0.229305,-0.078 -0.398991,-0.22931 -0.169686,-0.15134 -0.265995,-0.38064 -0.09631,-0.22931 -0.09631,-0.53658 0,-0.30268 0.09631,-0.51823 0.100895,-0.22013 0.261409,-0.35772 0.1651,-0.14217 0.371475,-0.20637 0.206375,-0.0688 0.421922,-0.0688 0.243064,0 0.440267,0.0734 0.201788,0.0734 0.343958,0.20179 0.146755,0.12841 0.224719,0.30727 0.07796,0.17886 0.07796,0.38982 0,0.15593 -0.08714,0.23848 -0.08714,0.0825 -0.243064,0.10548 z m 0.389819,-0.92181 q -0.174272,0 -0.293511,0.10549 -0.114653,0.10548 -0.137583,0.29809 l 0.779638,-0.12841 q -0.0046,-0.0459 -0.02752,-0.0917 -0.02293,-0.0504 -0.06421,-0.0917 -0.04128,-0.0413 -0.10548,-0.0642 -0.06421,-0.0275 -0.151342,-0.0275 z"
         style="font-style:normal;font-variant:normal;font-weight:800;font-stretch:normal;font-family:'Baloo Bhaina 2';-inkscape-font-specification:'Baloo Bhaina 2 Ultra-Bold';text-align:center;text-anchor:middle"
         id="path2361" />
      <path
         d="m 21.433434,184.2935 q -0.05045,0.0138 -0.146756,0.0275 -0.09172,0.0138 -0.201789,0.0138 -0.229305,0 -0.3302,-0.0734 -0.100894,-0.078 -0.100894,-0.29351 v -1.36208 q 0,-0.13299 0.06879,-0.2293 0.06879,-0.1009 0.18803,-0.17427 0.160514,-0.0963 0.371475,-0.14676 0.215547,-0.0504 0.449439,-0.0504 0.499886,0 0.499886,0.35313 0,0.0825 -0.02293,0.15593 -0.02293,0.0688 -0.05503,0.11924 -0.08714,-0.0183 -0.252236,-0.0183 -0.119239,0 -0.24765,0.0275 -0.123825,0.0275 -0.220133,0.0825 z"
         style="font-style:normal;font-variant:normal;font-weight:800;font-stretch:normal;font-family:'Baloo Bhaina 2';-inkscape-font-specification:'Baloo Bhaina 2 Ultra-Bold';text-align:center;text-anchor:middle"
         id="path2363" />
    </g>
    <g
       aria-label="Sample"
       style="font-style:normal;font-variant:normal;font-weight:normal;font-stretch:normal;font-size:3.96875px;line-height:100%;font-family:'Baloo Bhaina 2';-inkscape-font-specification:'Baloo Bhaina 2, ';text-align:start;letter-spacing:0px;word-spacing:0px;writing-mode:lr-tb;text-anchor:start;fill:#ff0a85;fill-opacity:1;stroke:none;stroke-width:0.26458332px;stroke-linecap:butt;stroke-linejoin:miter;stroke-opacity:1"
       id="text3232">
      <path
         d="m 5.3639989,195.35204 q 0.2222499,0 0.3280833,-0.0917 0.1058333,-0.0917 0.1058333,-0.23636 0,-0.127 -0.081139,-0.20461 -0.081139,-0.0776 -0.2575277,-0.13053 l -0.2645834,-0.0811 q -0.1234722,-0.0388 -0.2257777,-0.0882 -0.098778,-0.0529 -0.1693334,-0.11995 -0.070556,-0.0705 -0.1093611,-0.16228 -0.035278,-0.0952 -0.035278,-0.21872 0,-0.27869 0.2046111,-0.43744 0.2081389,-0.16228 0.5609167,-0.16228 0.1446389,0 0.2681111,0.0247 0.1234722,0.0212 0.2116667,0.0635 0.091722,0.0388 0.1411111,0.0952 0.052917,0.0529 0.052917,0.11642 0,0.06 -0.03175,0.10583 -0.028222,0.0423 -0.070556,0.0706 -0.088195,-0.067 -0.2328333,-0.11289 -0.1411112,-0.0494 -0.3139723,-0.0494 -0.1940277,0 -0.2998611,0.0776 -0.1058333,0.0776 -0.1058333,0.20814 0,0.10584 0.074083,0.17286 0.074083,0.0635 0.2434167,0.11289 l 0.2046111,0.06 q 0.2963333,0.0882 0.4586111,0.24342 0.1658056,0.1517 0.1658056,0.41628 0,0.14111 -0.056444,0.26105 -0.052917,0.11642 -0.1552222,0.20109 -0.1023056,0.0847 -0.2575278,0.13053 -0.1516944,0.0459 -0.3457222,0.0459 -0.1622778,0 -0.2963333,-0.0282 -0.1340556,-0.0282 -0.2328333,-0.0741 -0.09525,-0.0459 -0.1481667,-0.10583 -0.052917,-0.06 -0.052917,-0.127 0,-0.0706 0.042333,-0.11995 0.042333,-0.0494 0.098778,-0.0741 0.084667,0.0776 0.2293056,0.14817 0.1481667,0.0705 0.3527778,0.0705 z"
         style="font-style:normal;font-variant:normal;font-weight:500;font-stretch:normal;font-size:3.52777767px;font-family:'Baloo Bhaina 2';-inkscape-font-specification:'Baloo Bhaina 2 Medium';fill:#ff0a85;fill-opacity:1;stroke-width:0.26458332px"
         id="path2324" />
      <path
         d="m 7.2372367,195.37674 q 0.1234722,0 0.2151944,-0.0247 0.091722,-0.0247 0.1305278,-0.0529 v -0.44803 l -0.3845278,0.0388 q -0.1622778,0.0176 -0.2434167,0.0741 -0.081139,0.0529 -0.081139,0.1658 0,0.11642 0.088194,0.18345 0.088194,0.0635 0.2751667,0.0635 z m -0.00706,-1.46403 q 0.3280833,0 0.5221111,0.14464 0.1940278,0.14111 0.1940278,0.44803 v 0.82197 q 0,0.0811 -0.038806,0.127 -0.035278,0.0423 -0.098778,0.0811 -0.091722,0.0529 -0.2363611,0.0917 -0.1446389,0.0388 -0.3351388,0.0388 -0.3421945,0 -0.5362223,-0.13405 -0.1904999,-0.13406 -0.1904999,-0.39511 0,-0.23284 0.1481666,-0.35631 0.1516945,-0.12347 0.4339167,-0.15169 l 0.4903611,-0.0494 v -0.0776 q 0,-0.15522 -0.1023056,-0.22578 -0.098778,-0.0706 -0.2786944,-0.0706 -0.1411111,0 -0.2716389,0.0388 -0.1305278,0.0388 -0.2328333,0.0882 -0.035278,-0.0282 -0.059972,-0.067 -0.024694,-0.0423 -0.024694,-0.0917 0,-0.06 0.028222,-0.0988 0.03175,-0.0388 0.09525,-0.067 0.098778,-0.0494 0.2257778,-0.0706 0.127,-0.0247 0.2681111,-0.0247 z"
         style="font-style:normal;font-variant:normal;font-weight:500;font-stretch:normal;font-size:3.52777767px;font-family:'Baloo Bhaina 2';-inkscape-font-specification:'Baloo Bhaina 2 Medium';fill:#ff0a85;fill-opacity:1;stroke-width:0.26458332px"
         id="path2326" />
      <path
         d="m 10.472208,194.5089 q 0,-0.15522 -0.0882,-0.22577 -0.08467,-0.0741 -0.232833,-0.0741 -0.09878,0 -0.1905001,0.0388 -0.088195,0.0353 -0.1622778,0.0988 0.00706,0.0282 0.010583,0.06 0.00353,0.0318 0.00353,0.0635 v 1.13594 q -0.024694,0.0106 -0.070555,0.0176 -0.045861,0.0106 -0.09525,0.0106 -0.1023056,0 -0.1516945,-0.0388 -0.049389,-0.0388 -0.049389,-0.13053 v -0.95603 q 0,-0.15522 -0.088194,-0.22577 -0.088195,-0.0741 -0.2363611,-0.0741 -0.098778,0 -0.1869722,0.0318 -0.088195,0.0317 -0.1481667,0.0706 v 1.29469 q -0.024694,0.0106 -0.070555,0.0176 -0.042333,0.0106 -0.09525,0.0106 -0.1023056,0 -0.1516945,-0.0388 -0.049389,-0.0388 -0.049389,-0.13053 v -1.16417 q 0,-0.0811 0.03175,-0.13052 0.03175,-0.0494 0.1058334,-0.0988 0.1023055,-0.067 0.2575277,-0.11289 0.1552222,-0.0459 0.3139722,-0.0459 0.1658056,0 0.2963334,0.0459 0.1340555,0.0459 0.2187222,0.13406 0.098778,-0.0776 0.2328333,-0.127 0.1375838,-0.0529 0.3174998,-0.0529 0.137584,0 0.257528,0.0353 0.119944,0.0317 0.204611,0.10583 0.0882,0.0706 0.137583,0.17992 0.04939,0.10936 0.04939,0.26105 v 1.11125 q -0.02822,0.0106 -0.07408,0.0176 -0.04233,0.0106 -0.09525,0.0106 -0.102306,0 -0.151694,-0.0388 -0.04939,-0.0388 -0.04939,-0.13053 v -0.95603 z"
         style="font-style:normal;font-variant:normal;font-weight:500;font-stretch:normal;font-size:3.52777767px;font-family:'Baloo Bhaina 2';-inkscape-font-specification:'Baloo Bhaina 2 Medium';fill:#ff0a85;fill-opacity:1;stroke-width:0.26458332px"
         id="path2328" />
      <path
         d="m 12.077342,195.66249 q -0.112889,0 -0.211666,-0.0247 -0.09878,-0.0212 -0.169334,-0.0564 v 0.66322 q -0.02469,0.0106 -0.07055,0.0176 -0.04233,0.0106 -0.09525,0.0106 -0.102306,0 -0.151695,-0.0388 -0.04939,-0.0388 -0.04939,-0.13406 v -1.82386 q 0,-0.0776 0.02822,-0.12347 0.02822,-0.0494 0.105833,-0.0952 0.09878,-0.0565 0.239889,-0.0988 0.144639,-0.0459 0.324555,-0.0459 0.183445,0 0.342195,0.0529 0.15875,0.0494 0.275166,0.15522 0.116417,0.10583 0.183445,0.27164 0.06703,0.16227 0.06703,0.38805 0,0.22225 -0.0635,0.38806 -0.05997,0.16228 -0.169334,0.27516 -0.105833,0.10937 -0.257527,0.16581 -0.148167,0.0529 -0.328084,0.0529 z m -0.05644,-0.29986 q 0.229305,0 0.363361,-0.13759 0.134055,-0.14111 0.134055,-0.4445 0,-0.15522 -0.0388,-0.26458 -0.03881,-0.10936 -0.105833,-0.17639 -0.0635,-0.0706 -0.155223,-0.0988 -0.08819,-0.0318 -0.1905,-0.0318 -0.112889,0 -0.194027,0.0282 -0.07761,0.0247 -0.137584,0.06 v 0.97014 q 0.05997,0.0423 0.141111,0.0705 0.08114,0.0247 0.183445,0.0247 z"
         style="font-style:normal;font-variant:normal;font-weight:500;font-stretch:normal;font-size:3.52777767px;font-family:'Baloo Bhaina 2';-inkscape-font-specification:'Baloo Bhaina 2 Medium';fill:#ff0a85;fill-opacity:1;stroke-width:0.26458332px"
         id="path2330" />
      <path
         d="m 13.520201,195.63426 q -0.102306,0 -0.151695,-0.0388 -0.04939,-0.0388 -0.04939,-0.13053 v -2.14136 q 0.02469,-0.007 0.07056,-0.0176 0.04586,-0.0106 0.09878,-0.0106 0.102305,0 0.151694,0.0388 0.04939,0.0388 0.04939,0.13053 v 2.14136 q -0.02822,0.0106 -0.07408,0.0176 -0.04233,0.0106 -0.09525,0.0106 z"
         style="font-style:normal;font-variant:normal;font-weight:500;font-stretch:normal;font-size:3.52777767px;font-family:'Baloo Bhaina 2';-inkscape-font-specification:'Baloo Bhaina 2 Medium';fill:#ff0a85;fill-opacity:1;stroke-width:0.26458332px"
         id="path2332" />
      <path
         d="m 14.483279,194.97457 q 0.04939,0.20108 0.1905,0.29986 0.144639,0.0952 0.366889,0.0952 0.148166,0 0.271638,-0.0459 0.123473,-0.0459 0.197556,-0.0988 0.09878,0.0564 0.09878,0.15875 0,0.06 -0.04586,0.11289 -0.04586,0.0494 -0.127,0.0882 -0.07761,0.0353 -0.186973,0.0564 -0.105833,0.0212 -0.229305,0.0212 -0.204611,0 -0.373945,-0.0564 -0.165805,-0.0564 -0.28575,-0.16933 -0.119944,-0.11289 -0.186972,-0.2787 -0.0635,-0.1658 -0.0635,-0.38452 0,-0.21167 0.0635,-0.37042 0.0635,-0.16228 0.172861,-0.26811 0.109361,-0.10936 0.257528,-0.16581 0.148167,-0.0564 0.3175,-0.0564 0.169333,0 0.306917,0.0564 0.141111,0.0529 0.239889,0.1517 0.102305,0.0953 0.155222,0.2293 0.05644,0.13406 0.05644,0.29281 0,0.0882 -0.04233,0.13053 -0.04233,0.0388 -0.123472,0.0529 z m 0.437444,-0.77611 q -0.194028,0 -0.324555,0.13053 -0.127,0.13052 -0.134056,0.37394 l 0.867833,-0.12347 q -0.01411,-0.15875 -0.116416,-0.26811 -0.102306,-0.11289 -0.292806,-0.11289 z"
         style="font-style:normal;font-variant:normal;font-weight:500;font-stretch:normal;font-size:3.52777767px;font-family:'Baloo Bhaina 2';-inkscape-font-specification:'Baloo Bhaina 2 Medium';fill:#ff0a85;fill-opacity:1;stroke-width:0.26458332px"
         id="path2334" />
    </g>
    <g
       id="g3449"
       transform="translate(-0.93168534,0.14753434)">
      <g
         transform="matrix(0.3613213,0,0,0.3613213,1.7225852,205.81849)"
         id="g6333">
        <ellipse
           ry="10.671051"
           rx="10.67105"
           cy="239.41101"
           cx="26.022427"
           id="ellipse6325"
           style="fill:url(#linearGradient7537);fill-opacity:1;fill-rule:evenodd;stroke:none;stroke-width:0.20429119;stroke-linecap:butt;stroke-linejoin:miter;stroke-miterlimit:4;stroke-dasharray:none;stroke-opacity:0.90588235" />
        <g
           transform="matrix(0.20429119,0,0,0.20429119,53.04356,205.75489)"
           id="g6331"
           style="stroke:none">
          <path
             style="color:#000000;clip-rule:nonzero;display:inline;overflow:visible;visibility:visible;opacity:1;isolation:auto;mix-blend-mode:normal;color-interpolation:sRGB;color-interpolation-filters:linearRGB;solid-color:#000000;solid-opacity:1;fill:#ffffff;fill-opacity:1;fill-rule:nonzero;stroke:none;stroke-width:3.77952766;stroke-linecap:round;stroke-linejoin:miter;stroke-miterlimit:4;stroke-dasharray:none;stroke-dashoffset:0;stroke-opacity:1;color-rendering:auto;image-rendering:auto;shape-rendering:auto;text-rendering:auto;enable-background:accumulate"
             d="m -530.07424,-9.3867193 c -1.21706,-1.2170617 -1.079,-5.3107967 0.67795,-20.1024447 5.73641,-48.294393 5.8648,-76.759526 0.49254,-109.201686 -2.81434,-16.99533 -6.31679,-30.54498 -12.79114,-49.48407 -1.80178,-5.27067 -3.17233,-9.75074 -3.04566,-9.95569 0.12667,-0.20496 0.96101,-0.50436 1.85409,-0.66534 3.32156,-0.59871 22.13143,7.18215 38.04458,15.73744 26.73599,14.37393 48.63478,30.39198 67.88652,49.65617 16.9839,16.99488 28.66535,33.807468 35.14259,50.579177 2.86366,7.414975 5.30309,17.639981 5.62498,23.577415 l 0.28184,5.198897 -2.53612,2.444503 c -4.25885,4.104982 -12.48625,8.433693 -27.79094,14.621751 -28.11362,11.367004 -66.06767,22.611593 -89.55242,26.531541 -11.39624,1.9022028 -13.30689,2.0442555 -14.28881,1.0623367 z"
             id="path6327"
             inkscape:connector-curvature="0"
             transform="matrix(0.26458333,0,0,0.26458333,0,168.5)" />
          <path
             style="color:#000000;clip-rule:nonzero;display:inline;overflow:visible;visibility:visible;opacity:1;isolation:auto;mix-blend-mode:normal;color-interpolation:sRGB;color-interpolation-filters:linearRGB;solid-color:#000000;solid-opacity:1;fill:#ffffff;fill-opacity:1;fill-rule:nonzero;stroke:none;stroke-width:3.77952766;stroke-linecap:round;stroke-linejoin:miter;stroke-miterlimit:4;stroke-dasharray:none;stroke-dashoffset:0;stroke-opacity:1;color-rendering:auto;image-rendering:auto;shape-rendering:auto;text-rendering:auto;enable-background:accumulate"
             d="m -513.73602,170.36638 c -0.97227,-0.11341 -4.04061,-0.45007 -6.81853,-0.74814 -15.65425,-1.67971 -33.77128,-6.39276 -50.25509,-13.07363 -12.42022,-5.03389 -33.62886,-16.2332 -41.84665,-22.0973 -7.80177,-5.56723 -25.82746,-22.89946 -37.10673,-35.679209 -13.50241,-15.298634 -22.33179,-31.231204 -25.43703,-45.900998 -1.19632,-5.651667 -1.18952,-17.189584 0.0137,-23.272596 4.98032,-25.1781984 25.85618,-44.657743 54.57649,-50.926038 19.2498,-4.20133 37.8332,-0.573393 60.65935,11.8422014 10.99476,5.9802687 21.01515,12.7726405 45.20433,30.6419966 50.52966,37.327955 68.90612,46.538657 97.73226,48.985671 27.52149,2.336265 46.89998,-4.41565 54.70011,-19.058796 4.17598,-7.839556 3.7376,-15.913776 -1.29352,-23.824139 -10.71258,-16.843226 -36.7058,-20.9545397 -65.62036,-10.379085 -6.8435,2.502998 -19.00853,8.603919 -25.66695,12.872313 -7.56396,4.848889 -10.44847,6.277027 -11.92751,5.905397 -1.6548,-0.415799 -25.902,-16.422173 -28.95917,-19.116907 -1.29859,-1.144633 12.20778,-11.7957781 24.02181,-18.9436362 16.05205,-9.7120048 32.22697,-16.0082228 48.43213,-18.8526048 8.02121,-1.407907 23.88673,-1.911398 33.17157,-1.052698 28.35246,2.622152 51.01399,15.8879973 60.89768,35.648925 4.34531,8.687786 5.58489,14.592093 5.56699,26.516504 -0.0175,11.698864 -1.65001,19.24633 -6.17229,28.536809 -8.36948,17.194079 -24.25762,28.63384 -47.75454,34.38419 -7.27139,1.7795 -21.17291,2.40134 -38.97883,1.74357 -15.62908,-0.57735 -20.09921,-0.99513 -30.46916,-2.84767 -19.93522,-3.561341 -38.52223,-9.76038 -58.98348,-19.671845 -21.4946,-10.412031 -36.6063,-19.891681 -67.53813,-42.36702 -8.80372,-6.396867 -17.42604,-12.257969 -19.69797,-13.389885 -5.4526,-2.716579 -9.94011,-3.705595 -15.70875,-3.462105 -10.84482,0.45775 -16.6283,6.683037 -16.56606,17.83157 0.10611,19.005717 17.2678,40.381318 55.38509,68.984415 19.87647,14.91524 54.76053,37.142 63.31804,40.34377 11.90207,4.45314 19.52373,1.90874 77.50652,-25.87456 l 16.37739,-7.84746 9.09137,-0.32252 c 11.57496,-0.41062 20.66724,-1.40614 32.78895,-3.59007 5.3006,-0.95499 10.08546,-1.73729 10.63302,-1.73843 0.7608,-0.002 0.22484,0.78615 -2.27285,3.34058 -4.87119,4.98187 -15.16045,13.91344 -21.45115,18.62063 -19.06987,14.26957 -50.70916,28.15123 -78.28682,34.34815 -11.2088,2.5187 -19.40376,3.34214 -35.1028,3.52717 -7.91707,0.0933 -15.19017,0.0769 -16.16244,-0.0365 z"
             id="path6329"
             inkscape:connector-curvature="0"
             transform="matrix(0.26458333,0,0,0.26458333,0,168.5)" />
        </g>
      </g>
      <g
         id="g7507"
         transform="matrix(1.2501514,0,0,1.2501514,-0.84678687,76.322197)">
        <circle
           style="fill:url(#linearGradient1812);stroke-width:0.26458332"
           cx="3.8353124"
           cy="172.77954"
           r="1.7197917"
           id="circle7497" />
        <circle
           style="fill:url(#linearGradient1814);stroke-width:0.26458332"
           cx="3.8353124"
           cy="172.7794"
           r="1.5377425"
           id="circle7499" />
        <circle
           style="fill:url(#linearGradient1816);stroke-width:0.26458332"
           cx="3.8353124"
           cy="172.7794"
           r="1.4194552"
           id="circle7501" />
        <g
           transform="matrix(0.26458333,0,0,0.26458333,1.8509373,170.79533)"
           id="g7505">
          <path
             style="fill:#8c8c8c"
             inkscape:connector-curvature="0"
             d="M 10.96889,6.80997 9.00528,6.57471 C 8.70384,6.5386 8.46626,6.30092 8.43027,5.99947 L 8.19598,4.03719 C 8.18577,3.95166 8.11322,3.88726 8.02708,3.88726 H 6.97294 c -0.08613,0 -0.15867,0.06438 -0.16889,0.1499 L 6.56921,6.00056 C 6.53315,6.30204 6.29544,6.5397 5.99394,6.57569 L 4.03118,6.81003 C 3.94564,6.82024 3.88125,6.89279 3.88125,6.97893 v 1.0542 c 0,0.08613 0.06438,0.15866 0.1499,0.16889 l 1.96299,0.2348 C 6.29557,8.47287 6.5332,8.7105 6.56925,9.01193 l 0.23479,1.96293 c 0.01023,0.08552 0.08277,0.1499 0.16889,0.1499 h 1.0542 c 0.08612,0 0.15865,-0.06436 0.16889,-0.14986 L 8.43123,9.01172 C 8.46734,8.71033 8.70495,8.47277 9.00635,8.43673 l 1.96249,-0.2347 c 0.08552,-0.01023 0.1499,-0.08276 0.1499,-0.16889 V 6.97886 c 10e-6,-0.08611 -0.06435,-0.15864 -0.14985,-0.16889 z"
             id="path7503" />
        </g>
      </g>
      <g
         transform="matrix(1.2501514,0,0,1.2501514,13.440715,76.322197)"
         id="g1981">
        <circle
           id="circle1971"
           r="1.7197917"
           cy="172.77954"
           cx="3.8353124"
           style="fill:url(#linearGradient1818);stroke-width:0.26458332" />
        <circle
           id="circle1973"
           r="1.5377425"
           cy="172.7794"
           cx="3.8353124"
           style="fill:url(#linearGradient1820);stroke-width:0.26458332" />
        <circle
           id="circle1975"
           r="1.4194552"
           cy="172.7794"
           cx="3.8353124"
           style="fill:url(#linearGradient1822);stroke-width:0.26458332" />
        <g
           id="g1979"
           transform="matrix(0.26458333,0,0,0.26458333,1.8509373,170.79533)">
          <path
             id="path1977"
             d="M 10.96889,6.80997 9.00528,6.57471 C 8.70384,6.5386 8.46626,6.30092 8.43027,5.99947 L 8.19598,4.03719 C 8.18577,3.95166 8.11322,3.88726 8.02708,3.88726 H 6.97294 c -0.08613,0 -0.15867,0.06438 -0.16889,0.1499 L 6.56921,6.00056 C 6.53315,6.30204 6.29544,6.5397 5.99394,6.57569 L 4.03118,6.81003 C 3.94564,6.82024 3.88125,6.89279 3.88125,6.97893 v 1.0542 c 0,0.08613 0.06438,0.15866 0.1499,0.16889 l 1.96299,0.2348 C 6.29557,8.47287 6.5332,8.7105 6.56925,9.01193 l 0.23479,1.96293 c 0.01023,0.08552 0.08277,0.1499 0.16889,0.1499 h 1.0542 c 0.08612,0 0.15865,-0.06436 0.16889,-0.14986 L 8.43123,9.01172 C 8.46734,8.71033 8.70495,8.47277 9.00635,8.43673 l 1.96249,-0.2347 c 0.08552,-0.01023 0.1499,-0.08276 0.1499,-0.16889 V 6.97886 c 10e-6,-0.08611 -0.06435,-0.15864 -0.14985,-0.16889 z"
             inkscape:connector-curvature="0"
             style="fill:#8c8c8c" />
        </g>
      </g>
    </g>
    <g
       transform="translate(0.03335757,-3.1803196e-4)"
       id="g1715">
      <g
         transform="matrix(1.2501514,0,0,1.2501514,-1.8118297,-43.651267)"
         id="g6365">
        <circle
           id="circle6355"
           r="1.7197917"
           cy="172.77954"
           cx="3.8353124"
           style="fill:url(#linearGradient1824);stroke-width:0.26458332" />
        <circle
           id="circle6357"
           r="1.5377425"
           cy="172.7794"
           cx="3.8353124"
           style="fill:url(#linearGradient1826);stroke-width:0.26458332" />
        <circle
           id="circle6359"
           r="1.4194552"
           cy="172.7794"
           cx="3.8353124"
           style="fill:url(#linearGradient1828);stroke-width:0.26458332" />
        <g
           id="g6363"
           transform="matrix(0.26458333,0,0,0.26458333,1.8509373,170.79533)">
          <path
             id="path6361"
             d="M 10.96889,6.80997 9.00528,6.57471 C 8.70384,6.5386 8.46626,6.30092 8.43027,5.99947 L 8.19598,4.03719 C 8.18577,3.95166 8.11322,3.88726 8.02708,3.88726 H 6.97294 c -0.08613,0 -0.15867,0.06438 -0.16889,0.1499 L 6.56921,6.00056 C 6.53315,6.30204 6.29544,6.5397 5.99394,6.57569 L 4.03118,6.81003 C 3.94564,6.82024 3.88125,6.89279 3.88125,6.97893 v 1.0542 c 0,0.08613 0.06438,0.15866 0.1499,0.16889 l 1.96299,0.2348 C 6.29557,8.47287 6.5332,8.7105 6.56925,9.01193 l 0.23479,1.96293 c 0.01023,0.08552 0.08277,0.1499 0.16889,0.1499 h 1.0542 c 0.08612,0 0.15865,-0.06436 0.16889,-0.14986 L 8.43123,9.01172 C 8.46734,8.71033 8.70495,8.47277 9.00635,8.43673 l 1.96249,-0.2347 c 0.08552,-0.01023 0.1499,-0.08276 0.1499,-0.16889 V 6.97886 c 10e-6,-0.08611 -0.06435,-0.15864 -0.14985,-0.16889 z"
             inkscape:connector-curvature="0"
             style="fill:#8c8c8c" />
        </g>
      </g>
      <g
         id="g1999"
         transform="matrix(1.2501514,0,0,1.2501514,12.475672,-43.651267)">
        <circle
           style="fill:url(#linearGradient3426);stroke-width:0.26458332"
           cx="3.8353124"
           cy="172.77954"
           r="1.7197917"
           id="circle1989" />
        <circle
           style="fill:url(#linearGradient3428);stroke-width:0.26458332"
           cx="3.8353124"
           cy="172.7794"
           r="1.5377425"
           id="circle1991" />
        <circle
           style="fill:url(#linearGradient3430);stroke-width:0.26458332"
           cx="3.8353124"
           cy="172.7794"
           r="1.4194552"
           id="circle1993" />
        <g
           transform="matrix(0.26458333,0,0,0.26458333,1.8509373,170.79533)"
           id="g1997">
          <path
             style="fill:#8c8c8c"
             inkscape:connector-curvature="0"
             d="M 10.96889,6.80997 9.00528,6.57471 C 8.70384,6.5386 8.46626,6.30092 8.43027,5.99947 L 8.19598,4.03719 C 8.18577,3.95166 8.11322,3.88726 8.02708,3.88726 H 6.97294 c -0.08613,0 -0.15867,0.06438 -0.16889,0.1499 L 6.56921,6.00056 C 6.53315,6.30204 6.29544,6.5397 5.99394,6.57569 L 4.03118,6.81003 C 3.94564,6.82024 3.88125,6.89279 3.88125,6.97893 v 1.0542 c 0,0.08613 0.06438,0.15866 0.1499,0.16889 l 1.96299,0.2348 C 6.29557,8.47287 6.5332,8.7105 6.56925,9.01193 l 0.23479,1.96293 c 0.01023,0.08552 0.08277,0.1499 0.16889,0.1499 h 1.0542 c 0.08612,0 0.15865,-0.06436 0.16889,-0.14986 L 8.43123,9.01172 C 8.46734,8.71033 8.70495,8.47277 9.00635,8.43673 l 1.96249,-0.2347 c 0.08552,-0.01023 0.1499,-0.08276 0.1499,-0.16889 V 6.97886 c 10e-6,-0.08611 -0.06435,-0.15864 -0.14985,-0.16889 z"
             id="path1995" />
        </g>
      </g>
    </g>
    <g
       aria-label="Loop"
       style="font-style:normal;font-variant:normal;font-weight:normal;font-stretch:normal;font-size:3.96875px;line-height:100%;font-family:'Baloo Bhaina 2';-inkscape-font-specification:'Baloo Bhaina 2, ';text-align:start;letter-spacing:0px;word-spacing:0px;writing-mode:lr-tb;text-anchor:start;fill:#ff0a85;fill-opacity:1;stroke:none;stroke-width:0.26458332px;stroke-linecap:butt;stroke-linejoin:miter;stroke-opacity:1"
       id="text1675-5">
      <path
         d="m 6.7504072,223.12688 q -0.091722,0 -0.1481666,-0.0564 -0.056445,-0.0564 -0.056445,-0.14817 v -1.94028 q 0.028222,-0.007 0.074083,-0.0141 0.049389,-0.0106 0.1023055,-0.0106 0.1023056,0 0.1516945,0.0388 0.052917,0.0388 0.052917,0.13759 v 1.67569 h 0.9560278 q 0.017639,0.0247 0.03175,0.0635 0.014111,0.0388 0.014111,0.0882 0,0.0811 -0.038806,0.12348 -0.038805,0.0423 -0.1023055,0.0423 H 6.7504072 Z"
         style="font-style:normal;font-variant:normal;font-weight:500;font-stretch:normal;font-size:3.52777767px;font-family:'Baloo Bhaina 2';-inkscape-font-specification:'Baloo Bhaina 2 Medium';fill:#ff0a85;fill-opacity:1;stroke-width:0.26458332px"
         id="path1369" />
      <path
         d="m 9.8266276,222.29785 q 0,0.20109 -0.059972,0.36336 -0.059972,0.16228 -0.1693333,0.27517 -0.1058333,0.11289 -0.2610555,0.17639 -0.1552223,0.06 -0.3457222,0.06 -0.1905,0 -0.3457223,-0.06 -0.1552222,-0.0635 -0.2645833,-0.17639 -0.1058333,-0.11289 -0.1658055,-0.27517 -0.059972,-0.16227 -0.059972,-0.36336 0,-0.20108 0.059972,-0.36336 0.059972,-0.16228 0.1693333,-0.27517 0.1093611,-0.11288 0.2645833,-0.17286 0.1552222,-0.0635 0.3421945,-0.0635 0.1869722,0 0.3421944,0.0635 0.1552222,0.06 0.2645833,0.17639 0.1093611,0.11289 0.1693333,0.27517 0.059972,0.15875 0.059972,0.35983 z M 8.9905443,221.7193 q -0.2116667,0 -0.3351389,0.15169 -0.1234722,0.1517 -0.1234722,0.42686 0,0.27517 0.1199444,0.42686 0.1199444,0.14817 0.3386667,0.14817 0.2187222,0 0.3386666,-0.14817 0.1199445,-0.15169 0.1199445,-0.42686 0,-0.27164 -0.1234723,-0.42333 -0.1199444,-0.15522 -0.3351388,-0.15522 z"
         style="font-style:normal;font-variant:normal;font-weight:500;font-stretch:normal;font-size:3.52777767px;font-family:'Baloo Bhaina 2';-inkscape-font-specification:'Baloo Bhaina 2 Medium';fill:#ff0a85;fill-opacity:1;stroke-width:0.26458332px"
         id="path1371" />
      <path
         d="m 11.809233,222.29785 q 0,0.20109 -0.05997,0.36336 -0.05997,0.16228 -0.169334,0.27517 -0.105833,0.11289 -0.261055,0.17639 -0.155223,0.06 -0.345723,0.06 -0.1905,0 -0.345722,-0.06 -0.155222,-0.0635 -0.264583,-0.17639 -0.105833,-0.11289 -0.165806,-0.27517 -0.05997,-0.16227 -0.05997,-0.36336 0,-0.20108 0.05997,-0.36336 0.05997,-0.16228 0.169334,-0.27517 0.109361,-0.11288 0.264583,-0.17286 0.155222,-0.0635 0.342194,-0.0635 0.186973,0 0.342195,0.0635 0.155222,0.06 0.264583,0.17639 0.109361,0.11289 0.169334,0.27517 0.05997,0.15875 0.05997,0.35983 z m -0.836084,-0.57855 q -0.211666,0 -0.335138,0.15169 -0.123473,0.1517 -0.123473,0.42686 0,0.27517 0.119945,0.42686 0.119944,0.14817 0.338666,0.14817 0.218723,0 0.338667,-0.14817 0.119945,-0.15169 0.119945,-0.42686 0,-0.27164 -0.123473,-0.42333 -0.119944,-0.15522 -0.335139,-0.15522 z"
         style="font-style:normal;font-variant:normal;font-weight:500;font-stretch:normal;font-size:3.52777767px;font-family:'Baloo Bhaina 2';-inkscape-font-specification:'Baloo Bhaina 2 Medium';fill:#ff0a85;fill-opacity:1;stroke-width:0.26458332px"
         id="path1373" />
      <path
         d="m 12.955755,223.17274 q -0.112889,0 -0.211667,-0.0247 -0.09878,-0.0212 -0.169333,-0.0565 v 0.66322 q -0.02469,0.0106 -0.07056,0.0176 -0.04233,0.0106 -0.09525,0.0106 -0.102305,0 -0.151694,-0.0388 -0.04939,-0.0388 -0.04939,-0.13405 v -1.82387 q 0,-0.0776 0.02822,-0.12347 0.02822,-0.0494 0.105834,-0.0952 0.09878,-0.0564 0.239888,-0.0988 0.144639,-0.0459 0.324556,-0.0459 0.183444,0 0.342194,0.0529 0.15875,0.0494 0.275167,0.15522 0.116417,0.10584 0.183445,0.27164 0.06703,0.16228 0.06703,0.38806 0,0.22225 -0.0635,0.38805 -0.05997,0.16228 -0.169333,0.27517 -0.105833,0.10936 -0.257528,0.1658 -0.148166,0.0529 -0.328083,0.0529 z m -0.05645,-0.29986 q 0.229306,0 0.363362,-0.13758 0.134055,-0.14111 0.134055,-0.4445 0,-0.15523 -0.0388,-0.26459 -0.03881,-0.10936 -0.105834,-0.17639 -0.0635,-0.0705 -0.155222,-0.0988 -0.08819,-0.0317 -0.1905,-0.0317 -0.112889,0 -0.194028,0.0282 -0.07761,0.0247 -0.137583,0.06 v 0.97014 q 0.05997,0.0423 0.141111,0.0706 0.08114,0.0247 0.183444,0.0247 z"
         style="font-style:normal;font-variant:normal;font-weight:500;font-stretch:normal;font-size:3.52777767px;font-family:'Baloo Bhaina 2';-inkscape-font-specification:'Baloo Bhaina 2 Medium';fill:#ff0a85;fill-opacity:1;stroke-width:0.26458332px"
         id="path1375" />
    </g>
    <g
       aria-label="Start"
       style="font-style:normal;font-variant:normal;font-weight:normal;font-stretch:normal;font-size:3.96875px;line-height:100%;font-family:'Baloo Bhaina 2';-inkscape-font-specification:'Baloo Bhaina 2, ';text-align:start;letter-spacing:0px;word-spacing:0px;writing-mode:lr-tb;text-anchor:start;fill:#ff0a85;fill-opacity:1;stroke:none;stroke-width:0.26458332px;stroke-linecap:butt;stroke-linejoin:miter;stroke-opacity:1"
       id="text3615">
      <path
         d="m 2.1236235,244.06679 q 0.22225,0 0.3280833,-0.0917 0.1058333,-0.0917 0.1058333,-0.23636 0,-0.127 -0.081139,-0.20461 -0.081139,-0.0776 -0.2575277,-0.13053 l -0.2645834,-0.0811 q -0.1234722,-0.0388 -0.2257777,-0.0882 -0.098778,-0.0529 -0.1693334,-0.11995 -0.070556,-0.0705 -0.1093611,-0.16227 -0.035278,-0.0952 -0.035278,-0.21873 0,-0.27869 0.2046111,-0.43744 0.2081389,-0.16228 0.5609167,-0.16228 0.1446389,0 0.2681111,0.0247 0.1234722,0.0212 0.2116667,0.0635 0.091722,0.0388 0.1411111,0.0953 0.052917,0.0529 0.052917,0.11641 0,0.06 -0.03175,0.10584 -0.028222,0.0423 -0.070556,0.0706 -0.088195,-0.067 -0.2328333,-0.11289 -0.1411112,-0.0494 -0.3139723,-0.0494 -0.1940277,0 -0.2998611,0.0776 -0.1058333,0.0776 -0.1058333,0.20813 0,0.10584 0.074083,0.17287 0.074083,0.0635 0.2434167,0.11288 l 0.2046111,0.06 q 0.2963333,0.0882 0.4586111,0.24341 0.1658056,0.1517 0.1658056,0.41628 0,0.14111 -0.056445,0.26106 -0.052917,0.11641 -0.1552222,0.20108 -0.1023056,0.0847 -0.2575278,0.13053 -0.1516944,0.0459 -0.3457222,0.0459 -0.1622778,0 -0.2963333,-0.0282 -0.1340556,-0.0282 -0.2328333,-0.0741 -0.09525,-0.0459 -0.1481667,-0.10583 -0.052917,-0.06 -0.052917,-0.127 0,-0.0706 0.042333,-0.11994 0.042333,-0.0494 0.098778,-0.0741 0.084667,0.0776 0.2293056,0.14817 0.1481667,0.0705 0.3527778,0.0705 z"
         style="font-style:normal;font-variant:normal;font-weight:500;font-stretch:normal;font-size:3.52777767px;font-family:'Baloo Bhaina 2';-inkscape-font-specification:'Baloo Bhaina 2 Medium';fill:#ff0a85;fill-opacity:1;stroke-width:0.26458332px"
         id="path1006" />
      <path
         d="m 3.7111172,243.84454 q 0,0.127 0.074083,0.17992 0.074083,0.0529 0.2081389,0.0529 0.059972,0 0.127,-0.0176 0.067028,-0.0176 0.1164166,-0.0423 0.024694,0.0282 0.042333,0.0635 0.021167,0.0353 0.021167,0.0847 0,0.0917 -0.09525,0.1517 -0.091722,0.06 -0.2822222,0.06 -0.2645833,0 -0.4233333,-0.11642 -0.1552222,-0.11994 -0.1552222,-0.39158 v -1.64747 q 0.024694,-0.007 0.070555,-0.0176 0.045861,-0.0106 0.098778,-0.0106 0.1023056,0 0.1481667,0.0388 0.049389,0.0388 0.049389,0.13053 v 0.34925 h 0.5468055 q 0.014111,0.0212 0.024694,0.06 0.014111,0.0388 0.014111,0.0811 0,0.15169 -0.1305277,0.15169 H 3.7111172 v 0.83961 z"
         style="font-style:normal;font-variant:normal;font-weight:500;font-stretch:normal;font-size:3.52777767px;font-family:'Baloo Bhaina 2';-inkscape-font-specification:'Baloo Bhaina 2 Medium';fill:#ff0a85;fill-opacity:1;stroke-width:0.26458332px"
         id="path1008" />
      <path
         d="m 5.3127262,244.09149 q 0.1234722,0 0.2151944,-0.0247 0.091722,-0.0247 0.1305278,-0.0529 v -0.44803 l -0.3845278,0.0388 q -0.1622778,0.0176 -0.2434166,0.0741 -0.081139,0.0529 -0.081139,0.1658 0,0.11642 0.088194,0.18345 0.088194,0.0635 0.2751667,0.0635 z m -0.00706,-1.46403 q 0.3280833,0 0.5221111,0.14464 0.1940278,0.14111 0.1940278,0.44803 v 0.82197 q 0,0.0811 -0.038806,0.127 -0.035278,0.0423 -0.098778,0.0811 -0.091722,0.0529 -0.2363611,0.0917 -0.1446389,0.0388 -0.3351389,0.0388 -0.3421945,0 -0.5362222,-0.13406 -0.1905,-0.13405 -0.1905,-0.39511 0,-0.23283 0.1481666,-0.35631 0.1516945,-0.12347 0.4339167,-0.15169 l 0.4903611,-0.0494 v -0.0776 q 0,-0.15522 -0.1023056,-0.22578 -0.098778,-0.0706 -0.2786944,-0.0706 -0.1411111,0 -0.2716389,0.0388 -0.1305278,0.0388 -0.2328333,0.0882 -0.035278,-0.0282 -0.059972,-0.067 -0.024694,-0.0423 -0.024694,-0.0917 0,-0.06 0.028222,-0.0988 0.03175,-0.0388 0.09525,-0.067 0.098778,-0.0494 0.2257778,-0.0705 0.127,-0.0247 0.2681111,-0.0247 z"
         style="font-style:normal;font-variant:normal;font-weight:500;font-stretch:normal;font-size:3.52777767px;font-family:'Baloo Bhaina 2';-inkscape-font-specification:'Baloo Bhaina 2 Medium';fill:#ff0a85;fill-opacity:1;stroke-width:0.26458332px"
         id="path1010" />
      <path
         d="m 6.8614195,244.32079 q -0.024694,0.0106 -0.070556,0.0176 -0.042333,0.0106 -0.09525,0.0106 -0.1023056,0 -0.1516944,-0.0388 -0.049389,-0.0388 -0.049389,-0.13053 v -1.15711 q 0,-0.0882 0.035278,-0.14111 0.035278,-0.0564 0.1128889,-0.10583 0.1023056,-0.0635 0.2610556,-0.10584 0.15875,-0.0423 0.34925,-0.0423 0.3104444,0 0.3104444,0.17639 0,0.0423 -0.014111,0.0811 -0.014111,0.0353 -0.03175,0.0635 -0.035278,-0.007 -0.088194,-0.0141 -0.052917,-0.007 -0.1128889,-0.007 -0.1411111,0 -0.2575278,0.0317 -0.1164167,0.0282 -0.1975556,0.0741 z"
         style="font-style:normal;font-variant:normal;font-weight:500;font-stretch:normal;font-size:3.52777767px;font-family:'Baloo Bhaina 2';-inkscape-font-specification:'Baloo Bhaina 2 Medium';fill:#ff0a85;fill-opacity:1;stroke-width:0.26458332px"
         id="path1012" />
      <path
         d="m 8.2407785,243.84454 q 0,0.127 0.074083,0.17992 0.074083,0.0529 0.2081389,0.0529 0.059972,0 0.127,-0.0176 0.067028,-0.0176 0.1164166,-0.0423 0.024694,0.0282 0.042333,0.0635 0.021167,0.0353 0.021167,0.0847 0,0.0917 -0.09525,0.1517 -0.091722,0.06 -0.2822222,0.06 -0.2645833,0 -0.4233333,-0.11642 -0.1552222,-0.11994 -0.1552222,-0.39158 v -1.64747 q 0.024694,-0.007 0.070556,-0.0176 0.045861,-0.0106 0.098778,-0.0106 0.1023056,0 0.1481667,0.0388 0.049389,0.0388 0.049389,0.13053 v 0.34925 H 8.787584 q 0.014111,0.0212 0.024694,0.06 0.014111,0.0388 0.014111,0.0811 0,0.15169 -0.1305277,0.15169 H 8.2407785 v 0.83961 z"
         style="font-style:normal;font-variant:normal;font-weight:500;font-stretch:normal;font-size:3.52777767px;font-family:'Baloo Bhaina 2';-inkscape-font-specification:'Baloo Bhaina 2 Medium';fill:#ff0a85;fill-opacity:1;stroke-width:0.26458332px"
         id="path1014" />
    </g>
    <g
       aria-label="End"
       style="font-style:normal;font-variant:normal;font-weight:normal;font-stretch:normal;font-size:3.96875px;line-height:100%;font-family:'Baloo Bhaina 2';-inkscape-font-specification:'Baloo Bhaina 2, ';text-align:start;letter-spacing:0px;word-spacing:0px;writing-mode:lr-tb;text-anchor:start;fill:#ff0a85;fill-opacity:1;stroke:none;stroke-width:0.26458332px;stroke-linecap:butt;stroke-linejoin:miter;stroke-opacity:1"
       id="text3669">
      <path
         d="m 12.70362,244.23688 q -0.09172,0 -0.148167,-0.0564 -0.05644,-0.0565 -0.05644,-0.14817 v -1.7392 q 0,-0.0917 0.05644,-0.14463 0.05645,-0.0564 0.148167,-0.0564 h 1.167694 q 0.01764,0.0212 0.02822,0.06 0.01411,0.0388 0.01411,0.0847 0,0.0776 -0.03881,0.11994 -0.03528,0.0423 -0.09878,0.0423 h -0.903111 v 0.58561 h 0.892528 q 0.01764,0.0212 0.02822,0.06 0.01411,0.0388 0.01411,0.0847 0,0.0811 -0.0388,0.11994 -0.03528,0.0388 -0.09878,0.0388 h -0.797278 v 0.64205 h 1.016 q 0.01411,0.0212 0.02822,0.06 0.01411,0.0388 0.01411,0.0847 0,0.0811 -0.03881,0.12347 -0.03528,0.0388 -0.09878,0.0388 H 12.70362 Z"
         style="font-style:normal;font-variant:normal;font-weight:500;font-stretch:normal;font-size:3.52777767px;font-family:'Baloo Bhaina 2';-inkscape-font-specification:'Baloo Bhaina 2 Medium';fill:#ff0a85;fill-opacity:1;stroke-width:0.26458332px"
         id="path999" />
      <path
         d="m 15.444695,243.16444 q 0,-0.17287 -0.09878,-0.254 -0.09525,-0.0811 -0.261055,-0.0811 -0.123472,0 -0.22225,0.0318 -0.09525,0.0317 -0.165806,0.0705 v 1.2947 q -0.02469,0.0106 -0.07056,0.0176 -0.04233,0.0106 -0.09525,0.0106 -0.102306,0 -0.151695,-0.0388 -0.04939,-0.0388 -0.04939,-0.13052 v -1.16417 q 0,-0.0811 0.03175,-0.13053 0.03175,-0.0494 0.105834,-0.0988 0.09878,-0.06 0.257527,-0.10936 0.15875,-0.0494 0.359834,-0.0494 0.342194,0 0.536222,0.15523 0.194028,0.15169 0.194028,0.46213 v 1.07598 q -0.02469,0.0106 -0.07056,0.0176 -0.04586,0.0106 -0.09878,0.0106 -0.102305,0 -0.151694,-0.0388 -0.04939,-0.0388 -0.04939,-0.13052 v -0.92075 z"
         style="font-style:normal;font-variant:normal;font-weight:500;font-stretch:normal;font-size:3.52777767px;font-family:'Baloo Bhaina 2';-inkscape-font-specification:'Baloo Bhaina 2 Medium';fill:#ff0a85;fill-opacity:1;stroke-width:0.26458332px"
         id="path1001" />
      <path
         d="m 17.042772,242.53296 q 0.105833,0 0.197555,0.0247 0.09525,0.0212 0.165806,0.0564 v -0.67028 q 0.02469,-0.007 0.07055,-0.0176 0.04586,-0.0106 0.09878,-0.0106 0.102306,0 0.151695,0.0388 0.04939,0.0388 0.04939,0.13053 v 1.84855 q 0,0.0741 -0.03175,0.12347 -0.03175,0.0459 -0.09878,0.0882 -0.08114,0.0529 -0.22225,0.0952 -0.137584,0.0423 -0.3175,0.0423 -0.201084,0 -0.366889,-0.0494 -0.165806,-0.0529 -0.282222,-0.15875 -0.116417,-0.10936 -0.179917,-0.27164 -0.0635,-0.1658 -0.0635,-0.38805 0,-0.22931 0.0635,-0.39511 0.06703,-0.16934 0.179917,-0.27517 0.112889,-0.10936 0.261055,-0.15875 0.151695,-0.0529 0.324556,-0.0529 z m 0.366889,0.39159 q -0.05997,-0.0388 -0.141112,-0.067 -0.08114,-0.0282 -0.179916,-0.0282 -0.105834,0 -0.197556,0.0318 -0.08819,0.0317 -0.155222,0.10583 -0.06703,0.0706 -0.105833,0.18344 -0.03881,0.10937 -0.03881,0.26812 0,0.29633 0.137584,0.43038 0.141111,0.13406 0.373944,0.13406 0.105833,0 0.176389,-0.0212 0.07408,-0.0247 0.130528,-0.0564 z"
         style="font-style:normal;font-variant:normal;font-weight:500;font-stretch:normal;font-size:3.52777767px;font-family:'Baloo Bhaina 2';-inkscape-font-specification:'Baloo Bhaina 2 Medium';fill:#ff0a85;fill-opacity:1;stroke-width:0.26458332px"
         id="path1003" />
    </g>
  </g>
</svg>
